<svg width="1936" height="1088" viewBox="0 0 1936 1088" fill="none" xmlns="http://www.w3.org/2000/svg">
<g clip-path="url(#clip0_26_95434)">
<rect width="1936" height="1088" fill="#EDF5FF"/>
<mask id="path-1-inside-1_26_95434" fill="white">
<path d="M1376 296H2208V416H1376V296Z"/>
</mask>
<path d="M1376 296H2208V416H1376V296Z" fill="white"/>
<rect width="120" height="8" transform="translate(1408 328)" fill="#E5E5E5"/>
<rect width="273" height="32" transform="translate(1408 344)" fill="#E5E5E5"/>
<path d="M2208 414H1376V418H2208V414Z" fill="#E0E0E0" mask="url(#path-1-inside-1_26_95434)"/>
<rect width="560" height="376" transform="translate(1376 416)" fill="#F4F4F4"/>
<rect width="169" height="16" transform="translate(1592 440)" fill="#E0E0E0"/>
<rect width="64" height="8" transform="translate(1592 488)" fill="#E0E0E0"/>
<rect width="248" height="24" transform="translate(1592 504)" fill="#E0E0E0"/>
<rect width="64" height="8" transform="translate(1592 560)" fill="#E0E0E0"/>
<rect width="248" height="24" transform="translate(1592 576)" fill="#E0E0E0"/>
<mask id="path-3-inside-2_26_95434" fill="white">
<path d="M1376 416H1568V792H1376V416Z"/>
</mask>
<path d="M1376 416H1568V792H1376V416Z" fill="white"/>
<rect width="16" height="16" transform="translate(1424 444)" fill="white" style="mix-blend-mode:multiply"/>
<path d="M1431 454.707L1428.5 452.207L1429.21 451.5L1431 453.293L1434.79 449.5L1435.5 450.207L1431 454.707Z" fill="#0F62FE"/>
<path d="M1432 445C1430.62 445 1429.26 445.411 1428.11 446.18C1426.96 446.949 1426.06 448.042 1425.53 449.321C1425 450.6 1424.86 452.008 1425.13 453.366C1425.4 454.723 1426.07 455.971 1427.05 456.95C1428.03 457.929 1429.28 458.595 1430.63 458.865C1431.99 459.136 1433.4 458.997 1434.68 458.467C1435.96 457.937 1437.05 457.04 1437.82 455.889C1438.59 454.738 1439 453.384 1439 452C1439 450.143 1438.26 448.363 1436.95 447.05C1435.64 445.737 1433.86 445 1432 445ZM1432 458C1430.81 458 1429.65 457.648 1428.67 456.989C1427.68 456.33 1426.91 455.392 1426.46 454.296C1426 453.2 1425.88 451.993 1426.12 450.829C1426.35 449.666 1426.92 448.596 1427.76 447.757C1428.6 446.918 1429.67 446.347 1430.83 446.115C1431.99 445.884 1433.2 446.003 1434.3 446.457C1435.39 446.911 1436.33 447.68 1436.99 448.667C1437.65 449.653 1438 450.813 1438 452C1438 453.591 1437.37 455.117 1436.24 456.243C1435.12 457.368 1433.59 458 1432 458Z" fill="#0F62FE"/>
<rect width="64" height="4" transform="translate(1456 450)" fill="#525252"/>
<path d="M1410 496V440H1406V496H1410Z" fill="#0F62FE" mask="url(#path-5-inside-3_26_95434)"/>
<rect width="16" height="16" transform="translate(1424 500)" fill="white" style="mix-blend-mode:multiply"/>
<path d="M1435.88 503.43L1436.52 502.664C1435.9 502.139 1435.2 501.726 1434.43 501.444L1434.09 502.382C1434.74 502.625 1435.35 502.979 1435.88 503.43Z" fill="#0F62FE"/>
<path d="M1437.9 507L1438.89 506.794C1438.75 505.995 1438.47 505.226 1438.07 504.523L1437.2 505C1437.55 505.622 1437.79 506.298 1437.9 507Z" fill="#0F62FE"/>
<path d="M1434.09 513.618L1434.43 514.557C1435.2 514.274 1435.9 513.861 1436.52 513.336L1435.88 512.57C1435.35 513.021 1434.74 513.375 1434.09 513.618Z" fill="#0F62FE"/>
<path d="M1437.2 511L1438.07 511.5C1438.47 510.789 1438.75 510.013 1438.89 509.206L1437.9 509.033C1437.79 509.724 1437.55 510.39 1437.2 511Z" fill="#0F62FE"/>
<path d="M1432 515V501C1430.14 501 1428.36 501.737 1427.05 503.05C1425.74 504.363 1425 506.143 1425 508C1425 509.857 1425.74 511.637 1427.05 512.95C1428.36 514.263 1430.14 515 1432 515Z" fill="#0F62FE"/>
<rect width="64" height="4" transform="translate(1456 506)" fill="#525252"/>
<path d="M1410 552V496H1406V552H1410Z" fill="#0F62FE" mask="url(#path-8-inside-4_26_95434)"/>
<rect width="16" height="16" transform="translate(1424 556)" fill="white" style="mix-blend-mode:multiply"/>
<path d="M1427.85 558.35C1427.28 558.79 1426.77 559.312 1426.35 559.9L1427.15 560.5C1427.52 559.991 1427.95 559.536 1428.45 559.15L1427.85 558.35Z" fill="#161616"/>
<path d="M1426.3 562.15L1425.35 561.85C1425.11 562.541 1424.99 563.268 1425 564H1426C1426 563.371 1426.1 562.746 1426.3 562.15Z" fill="#161616"/>
<path d="M1425.35 566.2C1425.58 566.897 1425.92 567.555 1426.35 568.15L1427.15 567.55C1426.79 567.044 1426.5 566.488 1426.3 565.9L1425.35 566.2Z" fill="#161616"/>
<path d="M1427.9 569.65C1428.5 570.081 1429.15 570.418 1429.85 570.65L1430.15 569.7C1429.56 569.498 1429.01 569.211 1428.5 568.85L1427.9 569.65Z" fill="#161616"/>
<path d="M1429.85 557.35L1430.15 558.3C1430.75 558.099 1431.37 557.998 1432 558V557C1431.27 556.99 1430.54 557.108 1429.85 557.35Z" fill="#161616"/>
<path d="M1436.1 569.65C1436.69 569.211 1437.21 568.689 1437.65 568.1L1436.85 567.5C1436.48 568.022 1436.02 568.478 1435.5 568.85L1436.1 569.65Z" fill="#161616"/>
<path d="M1437.7 565.85L1438.65 566.15C1438.87 565.453 1438.99 564.73 1439 564H1438C1438 564.629 1437.9 565.254 1437.7 565.85Z" fill="#161616"/>
<path d="M1438.6 561.8C1438.37 561.103 1438.03 560.445 1437.6 559.85L1436.8 560.45C1437.16 560.956 1437.45 561.512 1437.65 562.1L1438.6 561.8Z" fill="#161616"/>
<path d="M1436.05 558.3C1435.45 557.869 1434.8 557.532 1434.1 557.3L1433.8 558.25C1434.39 558.452 1434.94 558.739 1435.45 559.1L1436.05 558.3Z" fill="#161616"/>
<path d="M1434.15 570.65L1433.85 569.7C1433.25 569.901 1432.63 570.002 1432 570V571C1432.73 570.957 1433.45 570.839 1434.15 570.65Z" fill="#161616"/>
<rect width="64" height="4" transform="translate(1456 562)" fill="#525252"/>
<path d="M1410 608V552H1406V608H1410Z" fill="#E0E0E0" mask="url(#path-11-inside-5_26_95434)"/>
<path d="M1566 416V792H1570V416H1566Z" fill="#E0E0E0" mask="url(#path-3-inside-2_26_95434)"/>
<rect width="336" height="248" transform="translate(992 -104)" fill="white"/>
<rect x="1008" y="88" width="72" height="24" rx="12" fill="#E8DAFF"/>
<rect width="56" height="2" transform="translate(1016 99)" fill="#6929C4"/>
<rect x="1088" y="88" width="72" height="24" rx="12" fill="#BAE6FF"/>
<rect width="56" height="2" transform="translate(1096 99)" fill="#00539A"/>
<rect x="1168" y="88" width="72" height="24" rx="12" fill="#A7F0BA"/>
<rect width="56" height="2" transform="translate(1176 99)" fill="#0E6027"/>
<rect x="1248" y="88" width="56" height="24" rx="12" fill="#E0E0E0"/>
<rect width="16" height="16" transform="translate(1256 92)" fill="white" style="mix-blend-mode:multiply"/>
<path d="M1264.5 99.5V96H1263.5V99.5H1260V100.5H1263.5V104H1264.5V100.5H1268V99.5H1264.5Z" fill="#161616"/>
<rect width="22" height="2" transform="translate(1274 99)" fill="#161616"/>
<rect width="192" height="8" transform="translate(1024 8)" fill="#E5E5E5"/>
<rect width="192" height="8" transform="translate(1024 24)" fill="#E5E5E5"/>
<rect width="112" height="8" transform="translate(1024 48)" fill="#E5E5E5"/>
<mask id="path-19-inside-6_26_95434" fill="white">
<path d="M992 144H1328V184H992V144Z"/>
</mask>
<path d="M992 144H1328V184H992V144Z" fill="white"/>
<rect width="16" height="16" transform="translate(1296 156)" fill="white" style="mix-blend-mode:multiply"/>
<path d="M1303 162H1302V168H1303V162Z" fill="#161616"/>
<path d="M1306 162H1305V168H1306V162Z" fill="#161616"/>
<path d="M1298 159V160H1299V170C1299 170.265 1299.11 170.52 1299.29 170.707C1299.48 170.895 1299.73 171 1300 171H1308C1308.27 171 1308.52 170.895 1308.71 170.707C1308.89 170.52 1309 170.265 1309 170V160H1310V159H1298ZM1300 170V160H1308V170H1300Z" fill="#161616"/>
<path d="M1306 157H1302V158H1306V157Z" fill="#161616"/>
<rect width="16" height="16" transform="translate(1256 156)" fill="white" style="mix-blend-mode:multiply"/>
<path d="M1271 169H1257V170H1271V169Z" fill="#161616"/>
<path d="M1268.7 160.5C1269.1 160.1 1269.1 159.5 1268.7 159.1L1266.9 157.3C1266.5 156.9 1265.9 156.9 1265.5 157.3L1258 164.8V168H1261.2L1268.7 160.5ZM1266.2 158L1268 159.8L1266.5 161.3L1264.7 159.5L1266.2 158ZM1259 167V165.2L1264 160.2L1265.8 162L1260.8 167H1259Z" fill="#161616"/>
<rect width="128" height="40" transform="translate(992 144)" fill="#0F62FE"/>
<path d="M992 145H1328V143H992V145Z" fill="#E0E0E0" mask="url(#path-19-inside-6_26_95434)"/>
<rect width="336" height="288" transform="translate(992 232)" fill="white"/>
<path d="M1064 342.34L1035.13 325.67L1064 309.01L1092.86 325.67L1064 342.34Z" fill="url(#paint0_linear_26_95434)"/>
<path d="M1064 332.35L1035.12 315.68L1035.13 282.33L1064 298.99V332.35Z" fill="url(#paint1_linear_26_95434)"/>
<path d="M1092.88 315.68L1064 332.35V298.99L1092.87 282.33L1092.88 315.68Z" fill="url(#paint2_linear_26_95434)"/>
<path d="M1064 298.99L1035.13 282.33L1064 265.66L1092.87 282.33L1064 298.99Z" fill="url(#paint3_linear_26_95434)"/>
<path d="M1049.97 290.67L1078.64 274.12L1078.22 273.88L1049.54 290.44L1049.97 290.67Z" fill="#C6C6C6"/>
<path d="M1064 299.24L1035.13 282.57V282.33L1035.34 282.21L1064.21 298.88L1064 298.99V299.24Z" fill="white"/>
<path d="M1045.49 297.33L1037.29 292.6L1037.3 286.91L1045.49 291.65V297.33Z" fill="white"/>
<rect width="136" height="16" transform="translate(1024 368)" fill="#E5E5E5"/>
<rect width="192" height="8" transform="translate(1024 400)" fill="#E5E5E5"/>
<rect width="112" height="8" transform="translate(1024 416)" fill="#E5E5E5"/>
<rect width="16" height="16" transform="translate(1136 456)" fill="white" style="mix-blend-mode:multiply"/>
<path d="M1144.5 463.5V460H1143.5V463.5H1140V464.5H1143.5V468H1144.5V464.5H1148V463.5H1144.5Z" fill="#0F62FE"/>
<rect x="1024.5" y="448.5" width="135" height="31" stroke="#0F62FE"/>
<rect width="80" height="2" transform="translate(1032 463)" fill="#0F62FE"/>
<rect width="336" height="248" transform="translate(992 568)" fill="white"/>
<path d="M1040 760C1040 693.726 1093.73 640 1160 640V640C1226.27 640 1280 693.726 1280 760V760H1040V760Z" fill="#E0E0E0"/>
<path d="M1056 760C1056 702.562 1102.56 656 1160 656V656C1217.44 656 1264 702.562 1264 760V760H1056V760Z" fill="white"/>
<rect width="112" height="8" transform="translate(1024 592)" fill="#E5E5E5"/>
<path d="M1056 760H1040L1040.26 753.685C1041.96 712.593 1064.99 675.368 1101 655.5L1107 670.5C1077.32 687.997 1058.32 719.15 1056.37 753.549L1056 760Z" fill="#6FDC8C"/>
<path d="M1264 760H1280L1279.72 753.172C1278.03 712.212 1254.98 675.138 1219 655.5L1210.5 669C1241.72 687.239 1261.73 719.914 1263.77 756.018L1264 760Z" fill="#FF8389"/>
<mask id="path-36-inside-7_26_95434" fill="white">
<path d="M992 816H1328V856H992V816Z"/>
</mask>
<path d="M992 816H1328V856H992V816Z" fill="white"/>
<rect width="134" height="2" transform="translate(1024 835)" fill="#0F62FE"/>
<rect width="16" height="16" transform="translate(1296 828)" fill="white" style="mix-blend-mode:multiply"/>
<path d="M1303 834H1302V840H1303V834Z" fill="#161616"/>
<path d="M1306 834H1305V840H1306V834Z" fill="#161616"/>
<path d="M1298 831V832H1299V842C1299 842.265 1299.11 842.52 1299.29 842.707C1299.48 842.895 1299.73 843 1300 843H1308C1308.27 843 1308.52 842.895 1308.71 842.707C1308.89 842.52 1309 842.265 1309 842V832H1310V831H1298ZM1300 842V832H1308V842H1300Z" fill="#161616"/>
<path d="M1306 829H1302V830H1306V829Z" fill="#161616"/>
<rect width="16" height="16" transform="translate(1256 828)" fill="white" style="mix-blend-mode:multiply"/>
<path d="M1271 841H1257V842H1271V841Z" fill="#161616"/>
<path d="M1268.7 832.5C1269.1 832.1 1269.1 831.5 1268.7 831.1L1266.9 829.3C1266.5 828.9 1265.9 828.9 1265.5 829.3L1258 836.8V840H1261.2L1268.7 832.5ZM1266.2 830L1268 831.8L1266.5 833.3L1264.7 831.5L1266.2 830ZM1259 839V837.2L1264 832.2L1265.8 834L1260.8 839H1259Z" fill="#161616"/>
<path d="M992 817H1328V815H992V817Z" fill="#E0E0E0" mask="url(#path-36-inside-7_26_95434)"/>
<rect width="336" height="288" transform="translate(992 904)" fill="white"/>
<path d="M1044.28 996.39L1054.55 990.45L1085.35 1008.24L1075.09 1014.17L1044.28 996.39Z" fill="url(#paint4_linear_26_95434)"/>
<path d="M1085.16 968.9C1085.04 968.691 1084.87 968.515 1084.66 968.39L1083.56 967.75L1055.08 951.31C1055.01 951.258 1054.92 951.226 1054.84 951.215C1054.75 951.205 1054.66 951.217 1054.58 951.25L1044.47 957.08C1044.36 957.15 1046.63 985.85 1046.63 985.85L1050.93 988.64L1085.26 969.1C1085.23 969.03 1085.2 968.963 1085.16 968.9V968.9Z" fill="url(#paint5_linear_26_95434)"/>
<path d="M1085.16 998.45C1085.24 998.4 1085.3 998.328 1085.34 998.243C1085.38 998.158 1085.4 998.064 1085.39 997.97V969.64C1085.38 969.453 1085.34 969.269 1085.26 969.1L1050.93 988.64L1075.05 1004.28L1085.16 998.45Z" fill="url(#paint6_linear_26_95434)"/>
<path d="M1085.16 998.45C1085.24 998.4 1085.3 998.328 1085.34 998.243C1085.38 998.158 1085.4 998.064 1085.39 997.97V969.64C1085.38 969.453 1085.34 969.269 1085.26 969.1L1050.93 988.64L1075.05 1004.28L1085.16 998.45Z" fill="url(#paint7_linear_26_95434)"/>
<path d="M1070.88 967.4C1070.89 967.549 1070.95 967.691 1071.04 967.812C1071.12 967.933 1071.24 968.029 1071.38 968.09C1071.75 968.277 1072.17 968.375 1072.58 968.375C1073 968.375 1073.42 968.277 1073.79 968.09C1073.93 968.027 1074.04 967.929 1074.13 967.806C1074.22 967.683 1074.27 967.539 1074.28 967.39V967.39V954.27C1074.28 948.88 1070.13 942.27 1064.82 939.2C1061.82 937.44 1058.82 937.2 1056.6 938.42C1054.7 939.51 1053.6 941.61 1053.6 944.31V957.5C1053.61 957.651 1053.67 957.795 1053.75 957.918C1053.84 958.041 1053.96 958.138 1054.1 958.2C1054.47 958.387 1054.88 958.485 1055.3 958.485C1055.72 958.485 1056.13 958.387 1056.5 958.2C1056.64 958.137 1056.75 958.039 1056.84 957.916C1056.93 957.793 1056.98 957.65 1057 957.5V944.31C1056.94 943.748 1057.04 943.181 1057.26 942.665C1057.49 942.148 1057.85 941.699 1058.3 941.36C1059.38 940.74 1061.18 941.03 1063.12 942.15C1067.33 944.58 1070.88 950.15 1070.88 954.27V967.4Z" fill="url(#paint8_linear_26_95434)"/>
<path d="M1074.56 974.22L1073.46 973.59L1045 957.14C1044.93 957.079 1044.84 957.042 1044.75 957.034C1044.66 957.025 1044.57 957.045 1044.49 957.092C1044.41 957.138 1044.35 957.208 1044.31 957.292C1044.27 957.376 1044.26 957.47 1044.28 957.56V985.89C1044.29 986.153 1044.37 986.408 1044.51 986.63C1044.63 986.838 1044.8 987.014 1045 987.14L1073.46 1003.59L1074.56 1004.22C1074.63 1004.27 1074.71 1004.3 1074.8 1004.31C1074.88 1004.33 1074.97 1004.31 1075.05 1004.28C1075.13 1004.23 1075.19 1004.16 1075.23 1004.08C1075.27 1003.99 1075.29 1003.9 1075.28 1003.81V975.47C1075.27 975.22 1075.19 974.977 1075.07 974.76C1074.94 974.543 1074.77 974.358 1074.56 974.22Z" fill="url(#paint9_linear_26_95434)"/>
<path d="M1062 977.63C1061.96 976.849 1061.73 976.09 1061.34 975.412C1060.95 974.735 1060.4 974.159 1059.75 973.73C1058.5 973.01 1057.49 973.6 1057.49 975.03C1057.53 975.926 1057.82 976.793 1058.33 977.53L1057.49 982.84L1062 985.44L1061.16 979.17C1061.45 979.036 1061.68 978.815 1061.83 978.538C1061.98 978.261 1062.04 977.943 1062 977.63Z" fill="url(#paint10_linear_26_95434)"/>
<path d="M1075.41 974.51C1075.25 974.245 1075.03 974.021 1074.77 973.86L1073.67 973.23L1045.18 956.78L1045.08 956.73L1044.47 957.08C1044.53 957.065 1044.58 957.065 1044.64 957.08C1044.75 957.082 1044.86 957.117 1044.96 957.18L1073.46 973.59L1074.56 974.22C1074.76 974.348 1074.93 974.523 1075.05 974.73C1075.05 974.73 1075.1 974.82 1075.13 974.87L1075.49 974.66L1075.41 974.51Z" fill="url(#paint11_linear_26_95434)"/>
<rect width="136" height="16" transform="translate(1024 1040)" fill="#E5E5E5"/>
<rect width="192" height="8" transform="translate(1024 1072)" fill="#E5E5E5"/>
<rect width="656" height="248" transform="translate(1376 840)" fill="white"/>
<mask id="path-48-inside-8_26_95434" fill="white">
<path d="M1566 840H2030V880H1566V840Z"/>
</mask>
<path d="M1566 840H2030V880H1566V840Z" fill="white"/>
<path d="M2030 879H1566V881H2030V879Z" fill="#E0E0E0" mask="url(#path-48-inside-8_26_95434)"/>
<mask id="path-50-inside-9_26_95434" fill="white">
<path d="M1568 880H2032V920H1568V880Z"/>
</mask>
<path d="M1568 880H2032V920H1568V880Z" fill="#E0E0E0"/>
<rect width="64" height="8" transform="translate(1584 896)" fill="#8D8D8D"/>
<rect width="64" height="8" transform="translate(1744 896)" fill="#8D8D8D"/>
<rect width="64" height="8" transform="translate(1904 896)" fill="#8D8D8D"/>
<path d="M2032 919H1568V921H2032V919Z" fill="#E0E0E0" mask="url(#path-50-inside-9_26_95434)"/>
<rect width="104" height="8" transform="translate(1584 936)" fill="#E0E0E0"/>
<rect width="104" height="8" transform="translate(1584 976)" fill="#E0E0E0"/>
<rect width="104" height="8" transform="translate(1584 1016)" fill="#E0E0E0"/>
<rect width="104" height="8" transform="translate(1584 1056)" fill="#E0E0E0"/>
<path d="M1722 920V1087H1724V920H1722Z" fill="#E0E0E0" mask="url(#path-52-inside-10_26_95434)"/>
<rect width="104" height="8" transform="translate(1744 936)" fill="#E0E0E0"/>
<rect width="104" height="8" transform="translate(1744 976)" fill="#E0E0E0"/>
<rect width="104" height="8" transform="translate(1744 1016)" fill="#E0E0E0"/>
<rect width="104" height="8" transform="translate(1744 1056)" fill="#E0E0E0"/>
<path d="M1877 920V1087H1879V920H1877Z" fill="#E0E0E0" mask="url(#path-54-inside-11_26_95434)"/>
<rect width="104" height="8" transform="translate(1904 936)" fill="#E0E0E0"/>
<rect width="104" height="8" transform="translate(1904 976)" fill="#E0E0E0"/>
<rect width="104" height="8" transform="translate(1904 1016)" fill="#E0E0E0"/>
<rect width="104" height="8" transform="translate(1904 1056)" fill="#E0E0E0"/>
<path d="M2032 920V1087H2034V920H2032Z" fill="#E0E0E0" mask="url(#path-56-inside-12_26_95434)"/>
<mask id="path-58-inside-13_26_95434" fill="white">
<path d="M1376 840H1568V1088H1376V840Z"/>
</mask>
<path d="M1376 840H1568V1088H1376V840Z" fill="white"/>
<rect width="128" height="8" transform="translate(1408 864)" fill="#E0E0E0"/>
<rect width="72" height="8" transform="translate(1408 896)" fill="#E0E0E0"/>
<rect width="16" height="16" transform="translate(1408 928)" fill="white" style="mix-blend-mode:multiply"/>
<path d="M1421 930H1411C1410.73 930 1410.48 930.105 1410.29 930.293C1410.11 930.48 1410 930.735 1410 931V941C1410 941.265 1410.11 941.52 1410.29 941.707C1410.48 941.895 1410.73 942 1411 942H1421C1421.27 942 1421.52 941.895 1421.71 941.707C1421.89 941.52 1422 941.265 1422 941V931C1422 930.735 1421.89 930.48 1421.71 930.293C1421.52 930.105 1421.27 930 1421 930ZM1411 941V931H1421V941H1411Z" fill="#161616"/>
<rect width="72" height="8" transform="translate(1432 932)" fill="#E0E0E0"/>
<rect width="16" height="16" transform="translate(1408 952)" fill="white" style="mix-blend-mode:multiply"/>
<path d="M1421 954H1411C1410.73 954 1410.48 954.105 1410.29 954.293C1410.11 954.48 1410 954.735 1410 955V965C1410 965.265 1410.11 965.52 1410.29 965.707C1410.48 965.895 1410.73 966 1411 966H1421C1421.27 966 1421.52 965.895 1421.71 965.707C1421.89 965.52 1422 965.265 1422 965V955C1422 954.735 1421.89 954.48 1421.71 954.293C1421.52 954.105 1421.27 954 1421 954ZM1411 965V955H1421V965H1411Z" fill="#161616"/>
<rect width="72" height="8" transform="translate(1432 956)" fill="#E0E0E0"/>
<rect width="16" height="16" transform="translate(1408 976)" fill="white" style="mix-blend-mode:multiply"/>
<path d="M1421 978H1411C1410.73 978 1410.48 978.105 1410.29 978.293C1410.11 978.48 1410 978.735 1410 979V989C1410 989.265 1410.11 989.52 1410.29 989.707C1410.48 989.895 1410.73 990 1411 990H1421C1421.27 990 1421.52 989.895 1421.71 989.707C1421.89 989.52 1422 989.265 1422 989V979C1422 978.735 1421.89 978.48 1421.71 978.293C1421.52 978.105 1421.27 978 1421 978ZM1411 989V979H1421V989H1411Z" fill="#161616"/>
<rect width="72" height="8" transform="translate(1432 980)" fill="#E0E0E0"/>
<rect width="16" height="16" transform="translate(1408 1000)" fill="white" style="mix-blend-mode:multiply"/>
<path d="M1421 1002H1411C1410.73 1002 1410.48 1002.11 1410.29 1002.29C1410.11 1002.48 1410 1002.73 1410 1003V1013C1410 1013.27 1410.11 1013.52 1410.29 1013.71C1410.48 1013.89 1410.73 1014 1411 1014H1421C1421.27 1014 1421.52 1013.89 1421.71 1013.71C1421.89 1013.52 1422 1013.27 1422 1013V1003C1422 1002.73 1421.89 1002.48 1421.71 1002.29C1421.52 1002.11 1421.27 1002 1421 1002ZM1411 1013V1003H1421V1013H1411Z" fill="#161616"/>
<rect width="72" height="8" transform="translate(1432 1004)" fill="#E0E0E0"/>
<rect width="16" height="16" transform="translate(1408 1024)" fill="white" style="mix-blend-mode:multiply"/>
<path d="M1421 1026H1411C1410.73 1026 1410.48 1026.11 1410.29 1026.29C1410.11 1026.48 1410 1026.73 1410 1027V1037C1410 1037.27 1410.11 1037.52 1410.29 1037.71C1410.48 1037.89 1410.73 1038 1411 1038H1421C1421.27 1038 1421.52 1037.89 1421.71 1037.71C1421.89 1037.52 1422 1037.27 1422 1037V1027C1422 1026.73 1421.89 1026.48 1421.71 1026.29C1421.52 1026.11 1421.27 1026 1421 1026ZM1411 1037V1027H1421V1037H1411Z" fill="#161616"/>
<rect width="72" height="8" transform="translate(1432 1028)" fill="#E0E0E0"/>
<rect width="16" height="16" transform="translate(1408 1048)" fill="white" style="mix-blend-mode:multiply"/>
<path d="M1421 1050H1411C1410.73 1050 1410.48 1050.11 1410.29 1050.29C1410.11 1050.48 1410 1050.73 1410 1051V1061C1410 1061.27 1410.11 1061.52 1410.29 1061.71C1410.48 1061.89 1410.73 1062 1411 1062H1421C1421.27 1062 1421.52 1061.89 1421.71 1061.71C1421.89 1061.52 1422 1061.27 1422 1061V1051C1422 1050.73 1421.89 1050.48 1421.71 1050.29C1421.52 1050.11 1421.27 1050 1421 1050ZM1411 1061V1051H1421V1061H1411Z" fill="#161616"/>
<rect width="72" height="8" transform="translate(1432 1052)" fill="#E0E0E0"/>
<path d="M1566 840V1088H1570V840H1566Z" fill="#E0E0E0" mask="url(#path-58-inside-13_26_95434)"/>
<mask id="path-66-inside-14_26_95434" fill="white">
<path d="M1568 840H2032V880H1568V840Z"/>
</mask>
<path d="M1568 840H2032V880H1568V840Z" fill="white"/>
<path d="M2032 879H1568V881H2032V879Z" fill="#E0E0E0" mask="url(#path-66-inside-14_26_95434)"/>
<rect width="64" height="64" transform="translate(784 40)" fill="white" style="mix-blend-mode:multiply"/>
<rect x="784" y="40" width="64" height="64" rx="32" fill="#0072C3"/>
<rect width="32" height="32" transform="translate(800 56)" fill="white" style="mix-blend-mode:multiply"/>
<path d="M816 60C816.989 60 817.956 60.2932 818.778 60.8427C819.6 61.3921 820.241 62.173 820.619 63.0866C820.998 64.0002 821.097 65.0055 820.904 65.9755C820.711 66.9454 820.235 67.8363 819.536 68.5355C818.836 69.2348 817.945 69.711 816.975 69.9039C816.006 70.0969 815 69.9978 814.087 69.6194C813.173 69.241 812.392 68.6001 811.843 67.7779C811.293 66.9556 811 65.9889 811 65C811 63.6739 811.527 62.4021 812.464 61.4645C813.402 60.5268 814.674 60 816 60ZM816 58C814.616 58 813.262 58.4105 812.111 59.1797C810.96 59.9489 810.063 61.0421 809.533 62.3212C809.003 63.6003 808.864 65.0078 809.135 66.3656C809.405 67.7235 810.071 68.9708 811.05 69.9497C812.029 70.9287 813.277 71.5954 814.634 71.8655C815.992 72.1356 817.4 71.997 818.679 71.4672C819.958 70.9373 821.051 70.0401 821.82 68.889C822.589 67.7378 823 66.3845 823 65C823 63.1435 822.263 61.363 820.95 60.0503C819.637 58.7375 817.857 58 816 58Z" fill="white"/>
<path d="M826 86H824V81C824 80.3434 823.871 79.6932 823.619 79.0866C823.368 78.48 823 77.9288 822.536 77.4645C822.071 77.0002 821.52 76.6319 820.913 76.3806C820.307 76.1293 819.657 76 819 76H813C811.674 76 810.402 76.5268 809.464 77.4645C808.527 78.4021 808 79.6739 808 81V86H806V81C806 79.1435 806.737 77.363 808.05 76.0503C809.363 74.7375 811.143 74 813 74H819C820.857 74 822.637 74.7375 823.95 76.0503C825.263 77.363 826 79.1435 826 81V86Z" fill="white"/>
<rect width="64" height="64" transform="translate(878 40)" fill="white" style="mix-blend-mode:multiply"/>
<rect x="878" y="40" width="64" height="64" rx="32" fill="#6F6F6F"/>
<path d="M891.331 83V63.456H894.467L900.067 73.984H900.207L905.835 63.456H908.859V83H906.563V66.536H906.423L904.771 69.812L900.095 78.324L895.419 69.812L893.767 66.536H893.627V83H891.331ZM921.361 83.336C916.321 83.336 913.073 79.78 913.073 73.228C913.073 66.676 916.321 63.12 921.361 63.12C926.401 63.12 929.649 66.676 929.649 73.228C929.649 79.78 926.401 83.336 921.361 83.336ZM921.361 81.236C924.749 81.236 927.129 78.716 927.129 74.852V71.604C927.129 67.74 924.749 65.22 921.361 65.22C917.973 65.22 915.593 67.74 915.593 71.604V74.852C915.593 78.716 917.973 81.236 921.361 81.236Z" fill="white"/>
<rect width="64" height="64" transform="translate(784 128)" fill="white" style="mix-blend-mode:multiply"/>
<rect x="784" y="128" width="64" height="64" rx="32" fill="#198038"/>
<path d="M810.897 171H800.229V151.456H802.581V168.928H810.897V171ZM814.256 171V151.456H817.392L822.992 161.984H823.132L828.76 151.456H831.784V171H829.488V154.536H829.348L827.696 157.812L823.02 166.324L818.344 157.812L816.692 154.536H816.552V171H814.256Z" fill="white"/>
<rect width="64" height="64" transform="translate(878 128)" fill="white" style="mix-blend-mode:multiply"/>
<rect x="878" y="128" width="64" height="64" rx="32" fill="#D12771"/>
<rect width="32" height="32" transform="translate(894 144)" fill="white" style="mix-blend-mode:multiply"/>
<path d="M925 174H923V171C923 170.204 922.684 169.441 922.121 168.879C921.559 168.316 920.796 168 920 168H916C915.204 168 914.441 168.316 913.879 168.879C913.316 169.441 913 170.204 913 171V174H911V171C911 169.674 911.527 168.402 912.464 167.464C913.402 166.527 914.674 166 916 166H920C921.326 166 922.598 166.527 923.536 167.464C924.473 168.402 925 169.674 925 171V174Z" fill="white"/>
<path d="M918 156C918.593 156 919.173 156.176 919.667 156.506C920.16 156.835 920.545 157.304 920.772 157.852C920.999 158.4 921.058 159.003 920.942 159.585C920.827 160.167 920.541 160.702 920.121 161.121C919.702 161.541 919.167 161.827 918.585 161.942C918.003 162.058 917.4 161.999 916.852 161.772C916.304 161.545 915.835 161.16 915.506 160.667C915.176 160.173 915 159.593 915 159C915 158.204 915.316 157.441 915.879 156.879C916.441 156.316 917.204 156 918 156ZM918 154C917.011 154 916.044 154.293 915.222 154.843C914.4 155.392 913.759 156.173 913.381 157.087C913.002 158 912.903 159.006 913.096 159.975C913.289 160.945 913.765 161.836 914.464 162.536C915.164 163.235 916.055 163.711 917.025 163.904C917.994 164.097 919 163.998 919.913 163.619C920.827 163.241 921.608 162.6 922.157 161.778C922.707 160.956 923 159.989 923 159C923 157.674 922.473 156.402 921.536 155.464C920.598 154.527 919.326 154 918 154Z" fill="white"/>
<path d="M909 166H907V163C907 162.204 906.684 161.441 906.121 160.879C905.559 160.316 904.796 160 904 160H900C899.204 160 898.441 160.316 897.879 160.879C897.316 161.441 897 162.204 897 163V166H895V163C895 161.674 895.527 160.402 896.464 159.464C897.402 158.527 898.674 158 900 158H904C905.326 158 906.598 158.527 907.536 159.464C908.473 160.402 909 161.674 909 163V166Z" fill="white"/>
<path d="M902 148C902.593 148 903.173 148.176 903.667 148.506C904.16 148.835 904.545 149.304 904.772 149.852C904.999 150.4 905.058 151.003 904.942 151.585C904.827 152.167 904.541 152.702 904.121 153.121C903.702 153.541 903.167 153.827 902.585 153.942C902.003 154.058 901.4 153.999 900.852 153.772C900.304 153.545 899.835 153.16 899.506 152.667C899.176 152.173 899 151.593 899 151C899 150.204 899.316 149.441 899.879 148.879C900.441 148.316 901.204 148 902 148ZM902 146C901.011 146 900.044 146.293 899.222 146.843C898.4 147.392 897.759 148.173 897.381 149.087C897.002 150 896.903 151.006 897.096 151.975C897.289 152.945 897.765 153.836 898.464 154.536C899.164 155.235 900.055 155.711 901.025 155.904C901.994 156.097 903 155.998 903.913 155.619C904.827 155.241 905.608 154.6 906.157 153.778C906.707 152.956 907 151.989 907 151C907 149.674 906.473 148.402 905.536 147.464C904.598 146.527 903.326 146 902 146Z" fill="white"/>
<rect width="64" height="64" transform="translate(784 216)" fill="white" style="mix-blend-mode:multiply"/>
<rect x="784" y="216" width="64" height="64" rx="32" fill="#8A3FFC"/>
<rect width="32" height="32" transform="translate(800 232)" fill="white" style="mix-blend-mode:multiply"/>
<path d="M816 242C814.409 242 812.883 242.632 811.757 243.757C810.632 244.883 810 246.409 810 248V256C810 257.591 810.632 259.117 811.757 260.243C812.883 261.368 814.409 262 816 262C817.591 262 819.117 261.368 820.243 260.243C821.368 259.117 822 257.591 822 256V248C822 246.409 821.368 244.883 820.243 243.757C819.117 242.632 817.591 242 816 242ZM811.75 249.87H820.25V254.12H811.75V249.87ZM816 260.25C814.874 260.245 813.796 259.795 813.001 258.999C812.205 258.204 811.755 257.126 811.75 256V255.87H820.25V256C820.245 257.126 819.795 258.204 818.999 258.999C818.204 259.795 817.126 260.245 816 260.25ZM820.25 248.12H811.75V248C811.75 246.873 812.198 245.792 812.995 244.995C813.792 244.198 814.873 243.75 816 243.75C817.127 243.75 818.208 244.198 819.005 244.995C819.802 245.792 820.25 246.873 820.25 248V248.12Z" fill="white"/>
<path d="M830.66 251.21L824 245V254.1C824 255.161 824.421 256.178 825.172 256.928C825.922 257.679 826.939 258.1 828 258.1C829.061 258.1 830.078 257.679 830.828 256.928C831.579 256.178 832 255.161 832 254.1C831.997 253.55 831.876 253.008 831.645 252.509C831.413 252.01 831.078 251.567 830.66 251.21ZM828 256.35C827.403 256.35 826.831 256.113 826.409 255.691C825.987 255.269 825.75 254.697 825.75 254.1V249L829.47 252.47C829.694 252.658 829.875 252.892 830.001 253.156C830.126 253.42 830.194 253.708 830.2 254C830.213 254.3 830.167 254.599 830.063 254.88C829.959 255.162 829.8 255.419 829.595 255.638C829.39 255.857 829.143 256.033 828.869 256.155C828.595 256.277 828.3 256.344 828 256.35Z" fill="white"/>
<path d="M800 254.1C800 255.161 800.421 256.178 801.172 256.928C801.922 257.679 802.939 258.1 804 258.1C805.061 258.1 806.078 257.679 806.828 256.928C807.579 256.178 808 255.161 808 254.1V245L801.34 251.21C800.925 251.569 800.591 252.013 800.36 252.511C800.129 253.009 800.006 253.551 800 254.1ZM802.48 252.54L806.25 249V254.1C806.25 254.697 806.013 255.269 805.591 255.691C805.169 256.113 804.597 256.35 804 256.35C803.403 256.35 802.831 256.113 802.409 255.691C801.987 255.269 801.75 254.697 801.75 254.1C801.751 253.803 801.817 253.509 801.943 253.24C802.069 252.97 802.252 252.732 802.48 252.54Z" fill="white"/>
<path d="M815 237.5C815 236.808 814.795 236.131 814.41 235.556C814.026 234.98 813.479 234.531 812.839 234.266C812.2 234.002 811.496 233.932 810.817 234.067C810.138 234.202 809.515 234.536 809.025 235.025C808.536 235.515 808.202 236.138 808.067 236.817C807.932 237.496 808.002 238.2 808.266 238.839C808.531 239.479 808.98 240.026 809.556 240.41C810.131 240.795 810.808 241 811.5 241C812.428 241 813.318 240.631 813.975 239.975C814.631 239.318 815 238.428 815 237.5ZM809.75 237.5C809.75 237.154 809.853 236.816 810.045 236.528C810.237 236.24 810.511 236.016 810.83 235.883C811.15 235.751 811.502 235.716 811.841 235.784C812.181 235.851 812.493 236.018 812.737 236.263C812.982 236.507 813.149 236.819 813.216 237.159C813.284 237.498 813.249 237.85 813.117 238.17C812.984 238.489 812.76 238.763 812.472 238.955C812.184 239.147 811.846 239.25 811.5 239.25C811.037 239.245 810.595 239.059 810.268 238.732C809.941 238.405 809.755 237.963 809.75 237.5Z" fill="white"/>
<path d="M820.5 234C819.808 234 819.131 234.205 818.556 234.59C817.98 234.974 817.531 235.521 817.266 236.161C817.002 236.8 816.932 237.504 817.067 238.183C817.202 238.862 817.536 239.485 818.025 239.975C818.515 240.464 819.138 240.798 819.817 240.933C820.496 241.068 821.2 240.998 821.839 240.734C822.479 240.469 823.026 240.02 823.41 239.444C823.795 238.869 824 238.192 824 237.5C824 236.572 823.631 235.682 822.975 235.025C822.318 234.369 821.428 234 820.5 234ZM820.5 239.25C820.154 239.25 819.816 239.147 819.528 238.955C819.24 238.763 819.016 238.489 818.883 238.17C818.751 237.85 818.716 237.498 818.784 237.159C818.851 236.819 819.018 236.507 819.263 236.263C819.507 236.018 819.819 235.851 820.159 235.784C820.498 235.716 820.85 235.751 821.17 235.883C821.489 236.016 821.763 236.24 821.955 236.528C822.147 236.816 822.25 237.154 822.25 237.5C822.245 237.963 822.059 238.405 821.732 238.732C821.405 239.059 820.963 239.245 820.5 239.25Z" fill="white"/>
<rect width="64" height="64" transform="translate(878 216)" fill="white" style="mix-blend-mode:multiply"/>
<rect x="878" y="216" width="64" height="64" rx="32" fill="#007D79"/>
<path d="M906.471 259H894.543V239.456H906.471V241.528H896.895V248.08H905.911V250.152H896.895V256.928H906.471V259ZM923.104 259V250.152H913.22V259H910.868V239.456H913.22V248.08H923.104V239.456H925.456V259H923.104Z" fill="white"/>
<rect width="16" height="16" transform="translate(928 360) rotate(-180)" fill="white" style="mix-blend-mode:multiply"/>
<path d="M920 349L925 354L924.3 354.7L920 350.4L915.7 354.7L915 354L920 349Z" fill="#0F62FE"/>
<rect width="79" height="2" transform="translate(800 351)" fill="#0F62FE"/>
<rect x="784.5" y="328.5" width="159" height="47" stroke="#0F62FE"/>
<mask id="path-82-inside-15_26_95434" fill="white">
<path d="M784 376H944V424H784V376Z"/>
</mask>
<path d="M784 376H944V424H784V376Z" fill="white"/>
<path d="M944 423H784V425H944V423Z" fill="#E0E0E0" mask="url(#path-82-inside-15_26_95434)"/>
<mask id="path-84-inside-16_26_95434" fill="white">
<path d="M784 424H944V472H784V424Z"/>
</mask>
<path d="M784 424H944V472H784V424Z" fill="white"/>
<path d="M944 471H784V473H944V471Z" fill="#E0E0E0" mask="url(#path-84-inside-16_26_95434)"/>
<mask id="path-86-inside-17_26_95434" fill="white">
<path d="M784 472H944V520H784V472Z"/>
</mask>
<path d="M784 472H944V520H784V472Z" fill="white"/>
<path d="M944 519H784V521H944V519Z" fill="#E0E0E0" mask="url(#path-86-inside-17_26_95434)"/>
<rect width="160" height="48" transform="translate(784 520)" fill="white"/>
<rect width="32" height="32" transform="translate(784 616)" fill="white" style="mix-blend-mode:multiply"/>
<path d="M800 618C798.158 617.989 796.333 618.343 794.629 619.042C792.925 619.742 791.377 620.773 790.075 622.075C788.773 623.377 787.742 624.925 787.042 626.629C786.343 628.333 785.989 630.158 786 632C785.989 633.842 786.343 635.667 787.042 637.371C787.742 639.075 788.773 640.623 790.075 641.925C791.377 643.227 792.925 644.258 794.629 644.958C796.333 645.657 798.158 646.011 800 646C801.842 646.011 803.667 645.657 805.371 644.958C807.075 644.258 808.623 643.227 809.925 641.925C811.227 640.623 812.258 639.075 812.958 637.371C813.657 635.667 814.011 633.842 814 632C814.011 630.158 813.657 628.333 812.958 626.629C812.258 624.925 811.227 623.377 809.925 622.075C808.623 620.773 807.075 619.742 805.371 619.042C803.667 618.343 801.842 617.989 800 618ZM805.445 639L793 626.556L794.556 625L807 637.445L805.445 639Z" fill="#DA1E28"/>
<rect x="862" y="626" width="4" height="16" fill="#161616"/>
<rect width="32" height="32" transform="translate(848 616)" fill="white" style="mix-blend-mode:multiply"/>
<path d="M864.002 622.171H863.998L852.649 643.997L852.651 644H875.349L875.351 643.997L864.002 622.171ZM862.875 628H865.125V637H862.875V628ZM864 642C863.703 642 863.413 641.912 863.167 641.747C862.92 641.582 862.728 641.348 862.614 641.074C862.501 640.8 862.471 640.498 862.529 640.207C862.587 639.916 862.73 639.649 862.939 639.439C863.149 639.23 863.416 639.087 863.707 639.029C863.998 638.971 864.3 639.001 864.574 639.114C864.848 639.228 865.082 639.42 865.247 639.667C865.412 639.913 865.5 640.203 865.5 640.5C865.5 640.898 865.342 641.279 865.061 641.561C864.779 641.842 864.398 642 864 642Z" fill="#F1C21B"/>
<path d="M877 646H851C850.828 646 850.659 645.956 850.51 645.871C850.36 645.787 850.234 645.666 850.145 645.519C850.056 645.372 850.006 645.205 850.001 645.033C849.995 644.861 850.034 644.691 850.113 644.539L863.113 619.539C863.197 619.376 863.325 619.24 863.481 619.145C863.637 619.05 863.817 619 864 619C864.183 619 864.363 619.05 864.519 619.145C864.675 619.24 864.803 619.376 864.887 619.539L877.887 644.539C877.966 644.691 878.005 644.861 877.999 645.033C877.994 645.205 877.944 645.372 877.855 645.519C877.766 645.666 877.64 645.787 877.49 645.871C877.341 645.956 877.172 646 877 646ZM852.651 644H875.349L875.351 643.997L864.002 622.171H863.998L852.649 643.997L852.651 644Z" fill="#F1C21B"/>
<rect width="32" height="32" transform="translate(912 616)" fill="white" style="mix-blend-mode:multiply"/>
<path d="M928 618C925.231 618 922.524 618.821 920.222 620.359C917.92 621.898 916.125 624.084 915.066 626.642C914.006 629.201 913.729 632.016 914.269 634.731C914.809 637.447 916.143 639.942 918.101 641.899C920.058 643.857 922.553 645.191 925.269 645.731C927.984 646.271 930.799 645.994 933.358 644.934C935.916 643.875 938.102 642.08 939.641 639.778C941.179 637.476 942 634.769 942 632C942 628.287 940.525 624.726 937.899 622.101C935.274 619.475 931.713 618 928 618ZM926 637.591L921 632.591L922.591 631L926 634.409L933.41 627L935.006 628.586L926 637.591Z" fill="#198038"/>
<rect x="798" y="678" width="4" height="16" fill="#161616"/>
<rect width="32" height="32" transform="translate(784 672)" fill="white" style="mix-blend-mode:multiply"/>
<path d="M811.349 676H788.651L788.649 676.003L799.998 697.829H800.002L811.351 676.003L811.349 676ZM798.875 678H801.125V687H798.875V678ZM800 692C799.703 692 799.413 691.912 799.167 691.747C798.92 691.582 798.728 691.348 798.614 691.074C798.501 690.8 798.471 690.498 798.529 690.207C798.587 689.916 798.73 689.649 798.939 689.439C799.149 689.23 799.416 689.087 799.707 689.029C799.998 688.971 800.3 689.001 800.574 689.114C800.848 689.228 801.082 689.42 801.247 689.667C801.412 689.913 801.5 690.203 801.5 690.5C801.5 690.898 801.342 691.279 801.061 691.561C800.779 691.842 800.398 692 800 692Z" fill="#FF832B"/>
<path d="M813.855 674.481C813.944 674.628 813.994 674.795 813.999 674.967C814.005 675.138 813.966 675.309 813.887 675.461L800.887 700.461C800.803 700.623 800.675 700.759 800.519 700.854C800.363 700.949 800.183 701 800 701C799.817 701 799.638 700.949 799.481 700.854C799.325 700.759 799.197 700.623 799.113 700.461L786.113 675.461C786.034 675.309 785.995 675.138 786.001 674.967C786.007 674.795 786.056 674.628 786.145 674.481C786.235 674.334 786.36 674.213 786.51 674.129C786.659 674.044 786.828 674 787 674H813C813.172 674 813.341 674.044 813.491 674.129C813.64 674.213 813.766 674.334 813.855 674.481ZM788.649 676.003L799.998 697.829H800.002L811.351 676.003L811.349 676H788.651L788.649 676.003Z" fill="#FF832B"/>
<rect width="32" height="32" transform="translate(848 672)" fill="white" style="mix-blend-mode:multiply"/>
<path d="M877.416 686.59L865.41 674.584C865.036 674.21 864.529 674 864 674C863.472 674 862.965 674.21 862.591 674.584L850.584 686.59C850.21 686.964 850 687.471 850 688C850 688.529 850.21 689.036 850.584 689.409L862.591 701.416C862.964 701.79 863.471 702 864 702C864.529 702 865.036 701.79 865.41 701.416L877.416 689.41C877.601 689.225 877.748 689.005 877.848 688.763C877.949 688.521 878 688.262 878 688C878 687.738 877.949 687.479 877.848 687.237C877.748 686.995 877.601 686.776 877.416 686.59V686.59ZM869 690H859V686H869V690Z" fill="#8A3FFC"/>
<rect width="32" height="32" transform="translate(912 672)" fill="white" style="mix-blend-mode:multiply"/>
<path d="M938 676H918C917.47 676 916.961 676.211 916.586 676.586C916.211 676.961 916 677.47 916 678V698C916 698.53 916.211 699.039 916.586 699.414C916.961 699.789 917.47 700 918 700H938C938.53 700 939.039 699.789 939.414 699.414C939.789 699.039 940 698.53 940 698V678C940 677.47 939.789 676.961 939.414 676.586C939.039 676.211 938.53 676 938 676V676ZM928 680C928.297 680 928.587 680.088 928.833 680.253C929.08 680.418 929.272 680.652 929.386 680.926C929.499 681.2 929.529 681.502 929.471 681.793C929.413 682.084 929.27 682.351 929.061 682.561C928.851 682.77 928.584 682.913 928.293 682.971C928.002 683.029 927.7 682.999 927.426 682.886C927.152 682.772 926.918 682.58 926.753 682.333C926.588 682.087 926.5 681.797 926.5 681.5C926.5 681.102 926.658 680.721 926.939 680.439C927.221 680.158 927.602 680 928 680ZM932 696.125H924V693.875H926.875V688.125H925V685.875H929.125V693.875H932V696.125Z" fill="#0F62FE"/>
<rect width="32" height="32" transform="translate(784 728)" fill="white" style="mix-blend-mode:multiply"/>
<path d="M800 730C797.231 730 794.524 730.821 792.222 732.359C789.92 733.898 788.125 736.084 787.066 738.642C786.006 741.201 785.729 744.016 786.269 746.731C786.809 749.447 788.143 751.942 790.101 753.899C792.058 755.857 794.553 757.191 797.269 757.731C799.984 758.271 802.799 757.994 805.358 756.934C807.916 755.875 810.102 754.08 811.641 751.778C813.179 749.476 814 746.769 814 744C813.996 740.288 812.519 736.73 809.895 734.105C807.27 731.481 803.712 730.004 800 730V730ZM800 756C796.817 756 793.765 754.736 791.515 752.485C789.264 750.235 788 747.183 788 744C788 740.817 789.264 737.765 791.515 735.515C793.765 733.264 796.817 732 800 732V744L808.481 752.481C807.369 753.598 806.047 754.483 804.592 755.087C803.136 755.691 801.576 756.001 800 756V756Z" fill="#0F62FE"/>
<rect width="32" height="32" transform="translate(848 728)" fill="white" style="mix-blend-mode:multiply"/>
<path d="M864 730C856.3 730 850 736.3 850 744C850 751.7 856.3 758 864 758C871.7 758 878 751.7 878 744C878 736.3 871.7 730 864 730ZM869.4 751L864 745.6L858.6 751L857 749.4L862.4 744L857 738.6L858.6 737L864 742.4L869.4 737L871 738.6L865.6 744L871 749.4L869.4 751Z" fill="black" style="mix-blend-mode:multiply"/>
<rect width="32" height="32" transform="translate(912 728)" fill="white" style="mix-blend-mode:multiply"/>
<path d="M941.416 742.591L929.41 730.584C929.036 730.21 928.529 730 928 730C927.472 730 926.965 730.21 926.591 730.584L914.584 742.591C914.21 742.965 914 743.472 914 744C914 744.529 914.21 745.036 914.584 745.41L926.591 757.416C926.964 757.79 927.471 758 928 758C928.529 758 929.036 757.79 929.41 757.416L941.416 745.41C941.79 745.036 942 744.529 942 744C942 743.472 941.79 742.965 941.416 742.591V742.591ZM928 752C927.703 752 927.413 751.912 927.167 751.747C926.92 751.582 926.728 751.348 926.614 751.074C926.501 750.8 926.471 750.498 926.529 750.207C926.587 749.916 926.73 749.649 926.939 749.439C927.149 749.23 927.416 749.087 927.707 749.029C927.998 748.971 928.3 749.001 928.574 749.114C928.848 749.228 929.082 749.42 929.247 749.667C929.412 749.913 929.5 750.203 929.5 750.5C929.5 750.898 929.342 751.279 929.061 751.561C928.779 751.842 928.398 752 928 752ZM929.125 745.248V747.125H926.875V743H929C929.497 743 929.974 742.802 930.326 742.451C930.677 742.099 930.875 741.622 930.875 741.125C930.875 740.628 930.677 740.151 930.326 739.799C929.974 739.448 929.497 739.25 929 739.25H927C926.503 739.251 926.026 739.448 925.675 739.8C925.323 740.151 925.126 740.628 925.125 741.125V741.625H922.875V741.125C922.876 740.031 923.311 738.983 924.085 738.21C924.858 737.436 925.906 737.001 927 737H929C930.083 737 931.123 737.426 931.895 738.186C932.666 738.946 933.108 739.979 933.124 741.063C933.141 742.146 932.731 743.192 931.982 743.975C931.234 744.758 930.208 745.215 929.125 745.248V745.248Z" fill="#6F6F6F"/>
<rect x="784.5" y="808.5" width="109" height="47" fill="#0F62FE"/>
<rect width="78" height="2" transform="translate(800 831)" fill="white"/>
<rect x="784.5" y="808.5" width="109" height="47" stroke="#0F62FE"/>
<rect x="896.5" y="808.5" width="47" height="47" fill="#0F62FE"/>
<rect width="16" height="16" transform="translate(928 840) rotate(-180)" fill="white" style="mix-blend-mode:multiply"/>
<path d="M920 829L925 834L924.3 834.7L920 830.4L915.7 834.7L915 834L920 829Z" fill="white"/>
<rect x="896.5" y="808.5" width="47" height="47" stroke="#0F62FE"/>
<mask id="path-102-inside-18_26_95434" fill="white">
<path d="M784 856H944V904H784V856Z"/>
</mask>
<path d="M784 856H944V904H784V856Z" fill="white"/>
<path d="M944 903H784V905H944V903Z" fill="#E0E0E0" mask="url(#path-102-inside-18_26_95434)"/>
<mask id="path-104-inside-19_26_95434" fill="white">
<path d="M784 904H944V952H784V904Z"/>
</mask>
<path d="M784 904H944V952H784V904Z" fill="white"/>
<path d="M944 951H784V953H944V951Z" fill="#E0E0E0" mask="url(#path-104-inside-19_26_95434)"/>
<mask id="path-106-inside-20_26_95434" fill="white">
<path d="M784 952H944V1000H784V952Z"/>
</mask>
<path d="M784 952H944V1000H784V952Z" fill="white"/>
<path d="M944 999H784V1001H944V999Z" fill="#E0E0E0" mask="url(#path-106-inside-20_26_95434)"/>
<rect width="160" height="48" transform="translate(784 1000)" fill="white"/>
<mask id="path-108-inside-21_26_95434" fill="white">
<path d="M1376 32H1936V104H1376V32Z"/>
</mask>
<path d="M1376 32H1936V104H1376V32Z" fill="white"/>
<rect width="24" height="24" transform="translate(1396 56)" fill="white" style="mix-blend-mode:multiply"/>
<path d="M1408 72.5L1400.5 65L1401.55 63.95L1408 70.4L1414.45 63.95L1415.5 65L1408 72.5Z" fill="#161616"/>
<rect x="1848" y="56" width="56" height="24" rx="12" fill="#198038"/>
<rect x="1882" y="58" width="20" height="20" rx="10" fill="white"/>
<rect x="1882" y="58" width="20" height="20" rx="10" stroke="#198038" stroke-width="4"/>
<rect width="168" height="8" transform="translate(1456 64)" fill="#E0E0E0"/>
<path d="M1936 102H1376V106H1936V102Z" fill="#E0E0E0" mask="url(#path-108-inside-21_26_95434)"/>
<mask id="path-113-inside-22_26_95434" fill="white">
<path d="M1376 104H1936V176H1376V104Z"/>
</mask>
<path d="M1376 104H1936V176H1376V104Z" fill="white"/>
<rect width="24" height="24" transform="translate(1396 128)" fill="white" style="mix-blend-mode:multiply"/>
<path d="M1408 144.5L1400.5 137L1401.55 135.95L1408 142.4L1414.45 135.95L1415.5 137L1408 144.5Z" fill="#161616"/>
<rect x="1848" y="128" width="56" height="24" rx="12" fill="#8D8D8D"/>
<rect x="1850" y="130" width="20" height="20" rx="10" fill="white"/>
<rect x="1850" y="130" width="20" height="20" rx="10" stroke="#8D8D8D" stroke-width="4"/>
<rect width="168" height="8" transform="translate(1456 136)" fill="#E0E0E0"/>
<path d="M1936 174H1376V178H1936V174Z" fill="#E0E0E0" mask="url(#path-113-inside-22_26_95434)"/>
<mask id="path-118-inside-23_26_95434" fill="white">
<path d="M1376 176H1936V248H1376V176Z"/>
</mask>
<path d="M1376 176H1936V248H1376V176Z" fill="white"/>
<rect width="24" height="24" transform="translate(1396 200)" fill="white" style="mix-blend-mode:multiply"/>
<path d="M1408 216.5L1400.5 209L1401.55 207.95L1408 214.4L1414.45 207.95L1415.5 209L1408 216.5Z" fill="#161616"/>
<rect x="1848" y="200" width="56" height="24" rx="12" fill="#198038"/>
<rect x="1882" y="202" width="20" height="20" rx="10" fill="white"/>
<rect x="1882" y="202" width="20" height="20" rx="10" stroke="#198038" stroke-width="4"/>
<rect width="168" height="8" transform="translate(1456 208)" fill="#E0E0E0"/>
<path d="M1936 246H1376V250H1936V246Z" fill="#E0E0E0" mask="url(#path-118-inside-23_26_95434)"/>
<mask id="path-123-inside-24_26_95434" fill="white">
<path d="M1376 -40H1936V32H1376V-40Z"/>
</mask>
<path d="M1376 -40H1936V32H1376V-40Z" fill="white"/>
<rect width="24" height="24" transform="translate(1396 -16)" fill="white" style="mix-blend-mode:multiply"/>
<path d="M1408 0.500013L1400.5 -6.99999L1401.55 -8.04999L1408 -1.59999L1414.45 -8.04999L1415.5 -6.99999L1408 0.500013Z" fill="#161616"/>
<rect x="1848" y="-16" width="56" height="24" rx="12" fill="#8D8D8D"/>
<rect x="1850" y="-14" width="20" height="20" rx="10" fill="white"/>
<rect x="1850" y="-14" width="20" height="20" rx="10" stroke="#8D8D8D" stroke-width="4"/>
<path d="M1936 30H1376V34H1936V30Z" fill="#E0E0E0" mask="url(#path-123-inside-24_26_95434)"/>
</g>
<defs>
<linearGradient id="paint0_linear_26_95434" x1="1042.35" y1="338.17" x2="1085.65" y2="313.17" gradientUnits="userSpaceOnUse">
<stop stop-color="#525252" stop-opacity="0.05"/>
<stop offset="1" stop-opacity="0.1"/>
</linearGradient>
<linearGradient id="paint1_linear_26_95434" x1="1039.16" y1="307.34" x2="1064.31" y2="307.34" gradientUnits="userSpaceOnUse">
<stop stop-color="#E0E0E0"/>
<stop offset="1" stop-color="#C6C6C6"/>
</linearGradient>
<linearGradient id="paint2_linear_26_95434" x1="1064" y1="307.34" x2="1092.88" y2="307.34" gradientUnits="userSpaceOnUse">
<stop stop-color="#A8A8A8"/>
<stop offset="1" stop-color="#C6C6C6"/>
</linearGradient>
<linearGradient id="paint3_linear_26_95434" x1="1042.35" y1="294.83" x2="1085.65" y2="269.83" gradientUnits="userSpaceOnUse">
<stop stop-color="#F4F4F4"/>
<stop offset="1" stop-color="#E0E0E0"/>
</linearGradient>
<linearGradient id="paint4_linear_26_95434" x1="1051.98" y1="1009.72" x2="1077.65" y2="994.9" gradientUnits="userSpaceOnUse">
<stop stop-color="#525252" stop-opacity="0.05"/>
<stop offset="1" stop-opacity="0.1"/>
</linearGradient>
<linearGradient id="paint5_linear_26_95434" x1="1041.33" y1="976.68" x2="1077.57" y2="955.76" gradientUnits="userSpaceOnUse">
<stop stop-color="#F4F4F4"/>
<stop offset="0.78" stop-color="#E0E0E0"/>
<stop offset="1" stop-color="#C6C6C6"/>
</linearGradient>
<linearGradient id="paint6_linear_26_95434" x1="1052.59" y1="952.01" x2="1082.88" y2="1004.47" gradientUnits="userSpaceOnUse">
<stop stop-color="#F4F4F4"/>
<stop offset="0.11" stop-color="#E0E0E0"/>
<stop offset="0.25" stop-color="#D8D8D8"/>
<stop offset="0.44" stop-color="#C6C6C6"/>
<stop offset="0.53" stop-color="#ABABAB"/>
<stop offset="0.93" stop-color="#A8A8A8"/>
<stop offset="1" stop-color="#8D8D8D"/>
</linearGradient>
<linearGradient id="paint7_linear_26_95434" x1="1050.93" y1="986.69" x2="1085.39" y2="986.69" gradientUnits="userSpaceOnUse">
<stop stop-color="#A8A8A8"/>
<stop offset="1" stop-color="#C6C6C6"/>
</linearGradient>
<linearGradient id="paint8_linear_26_95434" x1="1880.18" y1="1932.22" x2="1880.18" y2="988.033" gradientUnits="userSpaceOnUse">
<stop stop-color="#A8A8A8"/>
<stop offset="1" stop-color="#C6C6C6"/>
</linearGradient>
<linearGradient id="paint9_linear_26_95434" x1="1048.58" y1="980.68" x2="1075.62" y2="980.68" gradientUnits="userSpaceOnUse">
<stop stop-color="#E0E0E0"/>
<stop offset="1" stop-color="#C6C6C6"/>
</linearGradient>
<linearGradient id="paint10_linear_26_95434" x1="1056.72" y1="981.46" x2="1062.82" y2="977.94" gradientUnits="userSpaceOnUse">
<stop stop-color="#A8A8A8"/>
<stop offset="1" stop-color="#8D8D8D"/>
</linearGradient>
<linearGradient id="paint11_linear_26_95434" x1="1044.61" y1="956.85" x2="1076.7" y2="975.38" gradientUnits="userSpaceOnUse">
<stop offset="0.67" stop-color="white"/>
<stop offset="0.76" stop-color="white" stop-opacity="0.99"/>
<stop offset="0.8" stop-color="#FDFDFD" stop-opacity="0.96"/>
<stop offset="0.84" stop-color="#FBFBFB" stop-opacity="0.91"/>
<stop offset="0.87" stop-color="#F7F7F7" stop-opacity="0.83"/>
<stop offset="0.9" stop-color="#F3F3F3" stop-opacity="0.74"/>
<stop offset="0.92" stop-color="#EDEDED" stop-opacity="0.62"/>
<stop offset="0.95" stop-color="#E6E6E6" stop-opacity="0.48"/>
<stop offset="0.97" stop-color="#DFDFDF" stop-opacity="0.31"/>
<stop offset="0.99" stop-color="#D6D6D6" stop-opacity="0.13"/>
<stop offset="1" stop-color="#D0D0D0" stop-opacity="0"/>
</linearGradient>
<clipPath id="clip0_26_95434">
<rect width="1936" height="1088" fill="white"/>
</clipPath>
</defs>
</svg>
