<?xml version="1.0" encoding="utf-8"?>
<!-- Generator: Adobe Illustrator 23.1.1, SVG Export Plug-In . SVG Version: 6.00 Build 0)  -->
<svg version="1.1" id="Layer_1" xmlns="http://www.w3.org/2000/svg" xmlns:xlink="http://www.w3.org/1999/xlink" x="0px" y="0px"
	 viewBox="0 0 1475 879" style="enable-background:new 0 0 1475 879;" xml:space="preserve">
<style type="text/css">
	.st0{filter:url(#Adobe_OpacityMaskFilter);}
	.st1{fill-rule:evenodd;clip-rule:evenodd;fill:#FFFFFF;}
	.st2{mask:url(#mask-2_1_);fill-rule:evenodd;clip-rule:evenodd;fill:#0074FF;}
	.st3{fill-rule:evenodd;clip-rule:evenodd;fill:#EAEAEA;}
	.st4{fill-rule:evenodd;clip-rule:evenodd;fill:#464646;}
	.st5{fill-rule:evenodd;clip-rule:evenodd;fill:#C0BFC0;}
	.st6{fill-rule:evenodd;clip-rule:evenodd;fill:#FCFCFC;}
	.st7{fill-rule:evenodd;clip-rule:evenodd;fill:#D8D8D8;}
	.st8{fill-rule:evenodd;clip-rule:evenodd;fill:#272727;}
	.st9{fill-rule:evenodd;clip-rule:evenodd;fill:#777677;}
	.st10{fill-rule:evenodd;clip-rule:evenodd;fill:#C1C0C1;}
	.st11{opacity:0.4024;}
	.st12{fill-rule:evenodd;clip-rule:evenodd;fill:url(#Path-2_1_);}
	.st13{fill-rule:evenodd;clip-rule:evenodd;fill:url(#SVGID_1_);}
	.st14{opacity:0.1;fill:#5392FF;enable-background:new    ;}
	.st15{opacity:0.2;fill:#5392FF;enable-background:new    ;}
	.st16{opacity:0.5;fill:#5392FF;enable-background:new    ;}
	.st17{opacity:0.8;fill:#5392FF;enable-background:new    ;}
	.st18{fill:#5392FF;}
	.st19{fill:#DCDCDC;}
	.st20{opacity:0.1;fill:#DCDCDC;enable-background:new    ;}
	.st21{opacity:0.3;fill:#DCDCDC;enable-background:new    ;}
	.st22{opacity:0.6;fill:#DCDCDC;enable-background:new    ;}
	.st23{opacity:0.9;fill:#DCDCDC;enable-background:new    ;}
</style>
<g id="Group-4" transform="translate(252.000000, 0.000000)">
	<g id="Group-83">
		<g id="Group-3" transform="translate(41.000000, 0.960908)">
			<g id="Clip-2">
			</g>
			<defs>
				<filter id="Adobe_OpacityMaskFilter" filterUnits="userSpaceOnUse" x="0" y="-1" width="9.4" height="54.7">
					<feColorMatrix  type="matrix" values="1 0 0 0 0  0 1 0 0 0  0 0 1 0 0  0 0 0 1 0"/>
				</filter>
			</defs>
			<mask maskUnits="userSpaceOnUse" x="0" y="-1" width="9.4" height="54.7" id="mask-2_1_">
				<g class="st0">
					<polygon id="path-1_1_" class="st1" points="0,-1 9.5,-1 9.5,53.8 0,53.8 					"/>
				</g>
			</mask>
			<path id="Fill-1" class="st2" d="M2,37.4L0.9-1h7.7L7.5,37.4H2z M0,48.8c0-2.9,2-5,4.7-5c2.9,0,4.7,2.1,4.7,5c0,2.8-1.8,5-4.7,5
				C2,53.8,0,51.6,0,48.8L0,48.8z"/>
		</g>
		<g id="Group-6" transform="translate(0.000000, 323.594279)">
			<g id="Clip-5">
			</g>
		</g>
		<path id="Fill-7" class="st3" d="M83.4,198.4c0,0,0.6,14.1-2.4,15.2c-3,1.1-4.1-2-4.1-2l0.2-11.7c2.2,0.5,3.4,0.2,4.9-0.5
			c1.1-0.5,1.9-1.3,2.4-2.2"/>
		<path id="Fill-9" class="st4" d="M59.6,365.3c-0.2-0.1-0.5-0.3-0.7-0.4l-20.6-10.5c-2.6-1.5-6.8-1.5-9.4,0c-2.6,1.5-2.6,3.9,0,5.4
			l9.9,6.3l8.6,5.5c0.2,0.1,0.4,0.2,0.6,0.4c3.2,1.9,8.5,1.9,11.7,0C62.8,370.1,62.8,367.1,59.6,365.3"/>
		<path id="Fill-11" class="st4" d="M85,350.7c-0.2-0.1-0.5-0.3-0.7-0.4l-20.6-10.5c-2.6-1.5-6.8-1.5-9.4,0c-2.6,1.5-2.6,3.9,0,5.4
			l9.9,6.3l8.6,5.5c0.2,0.1,0.4,0.2,0.6,0.4c3.2,1.9,8.5,1.9,11.7,0C88.3,355.6,88.3,352.6,85,350.7"/>
		<path id="Fill-13" class="st4" d="M86.3,349.1l-14.9-12.5l-7.9-4.4l0,0c-2.6-1.4-6.6-1.3-9.1,0.1c-1.1,0.7-1.8,1.8-1.9,2.9
			c0,0.1,0,0.3,0,0.4v6.3c0,1,0.6,2,1.9,2.7l9.9,6.3l8.6,5.5c0.2,0.1,0.4,0.2,0.6,0.4c3.2,1.9,8.5,1.9,11.7,0
			c1.6-0.9,2.4-2.1,2.4-3.4v-1.9C87.4,350.6,87,349.7,86.3,349.1"/>
		<path id="Fill-15" class="st4" d="M54.3,339.1c-2.6-1.5-2.6-5.3,0-6.8c2.6-1.5,6.8-1.5,9.4,0c2.6,1.5,2.6,3.9,0,5.4
			S56.9,340.6,54.3,339.1"/>
		<path id="Fill-17" class="st4" d="M60.8,363.7l-14.9-12.5l-7.9-4.4l0,0c-2.6-1.4-6.6-1.3-9.1,0.1c-1.1,0.7-1.8,1.8-1.9,2.9
			c0,0.1,0,0.3,0,0.4v6.3c0,1,0.6,2,1.9,2.7l9.9,6.3l8.6,5.5c0.2,0.1,0.4,0.2,0.6,0.4c3.2,1.9,8.5,1.9,11.7,0
			c1.6-0.9,2.4-2.1,2.4-3.4V366C62,365.1,61.6,364.2,60.8,363.7"/>
		<path id="Fill-19" class="st4" d="M28.9,353.6c-2.6-1.5-2.6-5.3,0-6.8c2.6-1.5,6.8-1.5,9.4,0c2.6,1.5,2.6,3.9,0,5.4
			C35.6,353.7,31.5,355.1,28.9,353.6"/>
		<path id="Fill-21" class="st3" d="M37.8,341.5c-2.2-1.3-5.9-1.3-8.1,0c-1.1,0.6-1.7,1.5-1.7,2.3v6.6c0,0.8,0.6,1.7,1.7,2.3
			c2.2,1.3,5.9,1.3,8.1,0c1.1-0.6,1.7-1.5,1.7-2.3v-6.6C39.5,343,39,342.1,37.8,341.5"/>
		<path id="Fill-23" class="st3" d="M63.2,326.8c-2.2-1.3-5.8-1.3-8.1,0c-1.1,0.6-1.7,1.5-1.7,2.3v6.6c0,0.8,0.6,1.7,1.7,2.3
			c2.2,1.3,5.9,1.3,8.1,0c1.1-0.6,1.7-1.5,1.7-2.3v-6.6C64.9,328.3,64.4,327.5,63.2,326.8"/>
		<path id="Fill-25" class="st5" d="M36.3,354.9l-1.6-1.5c-0.6-0.5-0.6-1.5,0.1-2l4.1-3.3c0.4-0.4-0.5,0.3,0,0
			c0.5-0.3,1.5-1.3,2.9-1.1c0.7,0.1,1.3,0.5,1.7,1l2.5,3.1l14.9,12.5c0.7,0.6,1.2,1.5,1.2,2.4v1.9"/>
		<path id="Fill-27" class="st5" d="M59.6,365.3c-0.2-0.1-0.5-0.3-0.7-0.4l-20.6-10.5c-2.6-1.5-6.8-1.5-9.4,0
			c-2.6,1.5-2.6,3.9,0,5.4l9.9,6.3l8.6,5.5c0.2,0.1,0.4,0.2,0.6,0.4c3.2,1.9,8.5,1.9,11.7,0C62.8,370.1,62.8,367.1,59.6,365.3"/>
		<path id="Fill-29" class="st5" d="M85,350.7c-0.2-0.1-0.5-0.3-0.7-0.4l-20.6-10.5c-2.6-1.5-6.8-1.5-9.4,0c-2.6,1.5-2.6,3.9,0,5.4
			l9.9,6.3l8.6,5.5c0.2,0.1,0.4,0.2,0.6,0.4c3.2,1.9,8.5,1.9,11.7,0C88.3,355.6,88.3,352.6,85,350.7"/>
		<path id="Fill-31" class="st4" d="M86.3,349.1l-14.9-12.5l-7.9-4.4l0,0c-2.6-1.4-6.6-1.3-9.1,0.1c-1.1,0.7-1.8,1.8-1.9,2.9
			c0,0.1,0,0.3,0,0.4v6.3c0,1,0.6,2,1.9,2.7l9.9,6.3l8.6,5.5c0.2,0.1,0.4,0.2,0.6,0.4c3.2,1.9,8.5,1.9,11.7,0
			c1.6-0.9,2.4-2.1,2.4-3.4v-1.9C87.4,350.6,87,349.7,86.3,349.1"/>
		<path id="Fill-33" class="st4" d="M54.3,339.1c-2.6-1.5-2.6-5.3,0-6.8c2.6-1.5,6.8-1.5,9.4,0c2.6,1.5,2.6,3.9,0,5.4
			S56.9,340.6,54.3,339.1"/>
		<path id="Fill-35" class="st4" d="M60.8,363.7l-14.9-12.5l-7.9-4.4l0,0c-2.6-1.4-6.6-1.3-9.1,0.1c-1.1,0.7-1.8,1.8-1.9,2.9
			c0,0.1,0,0.3,0,0.4v6.3c0,1,0.6,2,1.9,2.7l9.9,6.3l8.6,5.5c0.2,0.1,0.4,0.2,0.6,0.4c3.2,1.9,8.5,1.9,11.7,0
			c1.6-0.9,2.4-2.1,2.4-3.4V366C62,365.1,61.6,364.2,60.8,363.7"/>
		<path id="Fill-37" class="st4" d="M28.9,353.6c-2.6-1.5-2.6-5.3,0-6.8c2.6-1.5,6.8-1.5,9.4,0c2.6,1.5,2.6,3.9,0,5.4
			C35.6,353.7,31.5,355.1,28.9,353.6"/>
		<path id="Fill-39" class="st3" d="M37.8,341.5c-2.2-1.3-5.9-1.3-8.1,0c-1.1,0.6-1.7,1.5-1.7,2.3v6.6c0,0.8,0.6,1.7,1.7,2.3
			c2.2,1.3,5.9,1.3,8.1,0c1.1-0.6,1.7-1.5,1.7-2.3v-6.6C39.5,343,39,342.1,37.8,341.5"/>
		<path id="Fill-41" class="st3" d="M63.2,326.8c-2.2-1.3-5.8-1.3-8.1,0c-1.1,0.6-1.7,1.5-1.7,2.3v6.6c0,0.8,0.6,1.7,1.7,2.3
			c2.2,1.3,5.9,1.3,8.1,0c1.1-0.6,1.7-1.5,1.7-2.3v-6.6C64.9,328.3,64.4,327.5,63.2,326.8"/>
		<path id="Fill-43" class="st4" d="M36.3,354.9l-1.6-1.5c-0.6-0.5-0.6-1.5,0.1-2l4.1-3.3c0.4-0.4-0.5,0.3,0,0
			c0.5-0.3,1.5-1.3,2.9-1.1c0.7,0.1,1.3,0.5,1.7,1l2.5,3.1l14.9,12.5c0.7,0.6,1.2,1.5,1.2,2.4v1.9"/>
		<path id="Fill-45" class="st4" d="M61.7,340.4l-1.6-1.5c-0.6-0.5-0.6-1.5,0.1-2l4.1-3.3c0.4-0.4-0.5,0.3,0,0
			c0.5-0.3,1.5-1.3,2.9-1.1c0.7,0.1,1.3,0.5,1.7,1l2.5,3.1l14.9,12.5c0.7,0.6,1.2,1.5,1.2,2.4v1.9"/>
		<path id="Fill-47" class="st6" d="M15.8,209.5L15.8,209.5c0,4.5,3.1,11.6,9,15.1c12,6.9,31.3,4.8,43.3-2.1c6-3.4,9-8,9-12.5v-69.4
			"/>
		<path id="Fill-49" class="st4" d="M77.1,195.3L77.1,195.3c0.2-2.8-1.6-5.6-5.2-7.7c-7-4-18.4-4-25.4,0c-3.7,2.1-5.4,4.9-5.2,7.7
			c0,0.3,0.1,0.6,0.1,0.9l7.6,53.4l1.3,76c0,0.2,0,0.4,0,0.6l0,0.1h0c0.2,1.2,1,2.3,2.6,3.2c3.5,2,9.2,2,12.7,0
			c1.8-1,2.6-2.4,2.6-3.7l4.6-65.9l4.3-64.5C77.1,195.4,77.1,195.4,77.1,195.3L77.1,195.3z"/>
		<path id="Fill-51" class="st4" d="M51.7,210.1c0-0.1,0-0.2,0-0.3l0-0.1h0c0.1-2.7-1.7-5.4-5.3-7.5c-7-4-18.4-4-25.4,0
			c-4,2.3-5.7,5.4-5.2,8.4l7.7,64l1.2,65.9c0,1.3,0.9,2.6,2.6,3.7c3.5,2,9.2,2,12.7,0c1.8-1,2.6-2.3,2.6-3.7h0l5.2-62.1l2-28.9"/>
		<path id="Fill-53" class="st7" d="M15.9,151.7l-0.1,57.8c0,4.5,3.1,11.6,9,15.1c12,6.9,31.3,4.8,43.3-2.1c6-3.4,9-8,9-12.5v-69.4"
			/>
		<path id="Fill-55" class="st7" d="M20.1,183.4l18.4-28.8c0,0-4.2,10.2,6.4,12.8l-18.8,41.4c-1.2,2.6-3.6,4.3-6.4,4.7
			c-3.2,0.3-6.7-0.1-7.9-1.6c-11.6-14.1-9.2-49.3-9.2-49.3c0.9-9.5,2.7-23.9,13.8-32.5l18-14.4l17.9-6.4
			c16.9-9.7,33.8,2.4,33.8,21.9c0,0,0.7,46.5-0.6,61.3c-0.3,3-0.9,5.7-3.6,7c-1.4,0.7-2.7,1-4.9,0.5"/>
		<path id="Fill-57" class="st8" d="M78.7,213.6c0.3-1.1,0.5-2.3,0.5-3.5v-8v-2v-2v-55.4c0-1.1-0.9-2-2-2v59.1v0.1v2v8.2
			c0,0.6-0.1,1.2-0.2,1.8C77,211.8,77.6,213.1,78.7,213.6"/>
		<path id="Fill-59" class="st8" d="M29.7,165.5l0-0.1c-0.7-3.6-1.4-6.8-0.5-9.7c0.3-1-0.1-2.1-1.1-2.6c-2.2,4-1.3,8.3-0.3,12.8
			c0.3,1.6,0.5,3.2,0.5,4.8l1.8-2.8C30,167.1,29.9,166.3,29.7,165.5"/>
		<path id="Fill-61" class="st9" d="M48.1,125.4c12.5,0.9,9.1-10.8,9.1-10.8c0.3,0.1,0.8,0.3,1,0.5c3.3,2,5.1,8.8,5.1,15.1v92.6
			c0,1.3-0.8,2.5-2.1,3c-3.3,1.2-8.2,2.2-11,2.7c0,0,0,0,0,0c-1.1,0.2-2.2-0.7-2.2-1.8v-83.4c0-11.8-4.3-16.2-6.8-20l2.8,1.1l3.7,1"
			/>
		<path id="Fill-63" class="st3" d="M54.4,111.5c-0.2-0.1-0.3-0.2-0.5-0.3V84.1c0-1.2-0.8-2.4-2.4-3.3c-3.2-1.8-8.3-1.8-11.5,0
			c-1.6,0.9-2.4,2.1-2.4,3.3v25.7c0,0,0,2.2-2.4,4.7c0,0,0,0,0,0c-2.3,2.3-1.6,4.7,2.2,6.9c4.7,2.7,12.3,6,17,3.3
			C59.1,121.9,59.1,114.2,54.4,111.5"/>
		<path id="Fill-65" class="st3" d="M46,69.5c-10,0-18.2,8.1-18.2,18.2v11.1c0,10,8.1,18.2,18.2,18.2s18.2-8.1,18.2-18.2V87.7
			C64.2,77.6,56,69.5,46,69.5"/>
		<path id="Fill-67" class="st10" d="M27.8,95.5v-0.3C27.8,95.2,27.8,95.3,27.8,95.5"/>
		<path id="Fill-69" class="st9" d="M64.3,98.8c0-0.1-0.1-0.1-0.1-0.1h0c-0.1,0-0.1,0.1-0.1,0.1c0,0,0,0.1,0,0.1
			c0,0.4-0.1,1.4-1,2.2c-1.2,1-3.2,1.1-6.1,0.5c-4.6-1.1-8.9,0.5-12.7,1.9c-3.1,1.2-5.8,2.2-7.7,1.3c-1.1-0.5-1.9-1.6-2.5-3.3
			c-0.2-0.7-0.4-1.3-0.6-1.9c-0.7-2.5-1.2-4.3-5.6-4.6c0,0-0.1,0-0.1,0c0,0,0,0.1,0,0.1v3.6c0,10.1,8.2,18.3,18.3,18.3
			c0.6,0,1.3,0,1.9-0.1c5.9-0.6,11.2-4.1,14.1-9.3c1.3-2.4,2.1-5,2.2-7.7c0-0.4,0.1-0.7,0.1-0.9C64.3,98.9,64.3,98.8,64.3,98.8"/>
		<path id="Fill-71" class="st8" d="M46,117.1c-3.8,0-7.4-1.2-10.3-3.2c-0.1,0.2-0.3,0.3-0.4,0.5c0,0,0,0,0,0
			c-0.3,0.3-0.6,0.7-0.8,1c3.3,2.3,7.3,3.6,11.6,3.6c0.7,0,1.4,0,2.1-0.1c3.4-0.4,6.7-1.6,9.5-3.5c-0.2-0.6-0.5-1.3-0.9-1.8
			c-2.6,1.8-5.6,3-8.8,3.3C47.3,117.1,46.6,117.1,46,117.1"/>
		<path id="Fill-73" class="st8" d="M49.5,132.8c0.7,0,1.4,0.2,2,0.6c1.5,0.8,2.1,2.6,1.5,4.2l-2.5,6.7c0,0.1,0,0.2,0.1,0.3
			c2.6,2.4,6.9,7.1,6,12.4c-0.8,4.7-6.3,9.3-10,11.8c0,0,0,0,0,0L28,209.6c-1.5,3.2-4.5,5.4-8,5.8c-0.2,0-0.4,0-0.6,0.1l-0.1,0
			c-1.3,0.1-2.4-0.7-2.8-1.9c0,0,0-0.1,0.1-0.1c0.7,0,1.3,0.1,2,0c0.4,0,0.8,0,1.2-0.1c2.8-0.3,5.3-2.1,6.4-4.7l17.6-38.9l1.1-2.5
			c0,0,0,0,0,0c0.6-0.4,1.3-0.9,2.1-1.5c3-2.3,6.9-5.8,7.5-9.3c0.8-4.4-3.3-8.7-5.3-10.5c-0.7-0.6-0.9-1.6-0.6-2.5l2.9-7.7
			c0.5-1.3-0.3-0.7-1.6-1c-0.9-0.2-1.8,0.2-2.4,1L49.5,132.8z"/>
		<path id="Fill-75" class="st8" d="M16.3,213.5c0.1,0,0.1,0,0.2,0c0.2,0.7,0.4,1.4,0.7,2c1.4,3.4,4,6.9,7.7,9.1
			c12,6.9,31.3,4.8,43.3-2.1c3.7-2.1,6.2-4.6,7.6-7.3c-0.2,2.9-1.7,5.6-4,7.3c-0.8,0.6-1.7,1.1-2.6,1.7c-7,4-16.7,6.6-26.2,6.6
			c-6.9,0-13.6-1.4-19.1-4.5c-4.1-2.4-6.8-6.5-7.4-11.2L16.3,213.5z"/>
		<path id="Fill-77" class="st3" d="M42,167.5c0.8,0.6,1.9,0.7,2.7,0.1c2.8-1.9,9.1-6.5,9.9-11c0.8-4.4-3.3-8.7-5.3-10.5
			c-0.7-0.6-0.9-1.6-0.6-2.5l2.9-7.7c0.4-1.2-0.1-2.4-1.3-2.9c-1-0.4-2.1-0.1-2.7,0.8c-2.7,3.9-9.5,14.6-9,19.2
			C39.1,158.5,34.3,161.2,42,167.5"/>
		<path id="Fill-79" class="st7" d="M11.9,211.9c1.2,1.5,4.7,2,7.9,1.6c2.8-0.3,5.3-2.1,6.4-4.7l18.7-41.2c0.1-0.1,0-0.3-0.1-0.3
			c-6-4.2-6.5-9.3-6.4-11.5c0-0.3-0.3-0.4-0.5-0.2l-18.9,29.5"/>
		<path id="Fill-81" class="st8" d="M50,249.5l-0.8,12l0.4,22.3l0.7,41.8c0,0.2,0,0.4,0,0.6l0,0.1h0c0.2,1.2,1,2.3,2.6,3.2l0.1-0.1
			c0.5-0.8,0.3-1.9-0.3-2.6c-0.2-0.3-0.3-0.5-0.4-0.8l0,0c0-0.1,0-0.1,0-0.2l0-0.1l-1.1-64.1l0.7-10C52,250.5,51.1,249.5,50,249.5"
			/>
	</g>
	<g id="Group-5" transform="translate(72.000000, 378.569807)" class="st11">
		
			<linearGradient id="Path-2_1_" gradientUnits="userSpaceOnUse" x1="103.0017" y1="457.9201" x2="103.0017" y2="456.9201" gradientTransform="matrix(78.57 0 0 -89.8079 -7974.9897 41123.8672)">
			<stop  offset="0" style="stop-color:#9A9A9A"/>
			<stop  offset="1" style="stop-color:#F3F3F3"/>
		</linearGradient>
		<polygon id="Path-2" class="st12" points="78.6,-1 78.6,88.8 157.1,44.3 		"/>
		
			<linearGradient id="SVGID_1_" gradientUnits="userSpaceOnUse" x1="113.9983" y1="457.9201" x2="113.9983" y2="456.9201" gradientTransform="matrix(-78.57 0 0 -89.8079 8996.1299 41123.8672)">
			<stop  offset="0" style="stop-color:#C0C0C0"/>
			<stop  offset="1" style="stop-color:#F3F3F3"/>
		</linearGradient>
		<polygon class="st13" points="78.6,-1 78.6,88.8 0,44.3 		"/>
	</g>
</g>
<g id="Group-18" transform="translate(0.000000, 456.481271)">
	<path id="Fill-1_1_" class="st14" d="M3,98.3c-1,0-2-0.5-2.6-1.5c-0.8-1.4-0.3-3.3,1.1-4.1l9.6-5.5c1.4-0.8,3.3-0.3,4.1,1.1
		c0.8,1.4,0.3,3.3-1.1,4.1l-9.6,5.5C4,98.2,3.5,98.3,3,98.3"/>
	<path id="Path" class="st15" d="M55.5,100.2c-0.5,0-1-0.1-1.5-0.4l-11.4-6.5c-1.4-0.8-1.9-2.7-1.1-4.1c0.8-1.4,2.7-1.9,4.1-1.1
		L57,94.6c1.4,0.8,1.9,2.7,1.1,4.1C57.5,99.7,56.5,100.2,55.5,100.2"/>
	<path class="st16" d="M101.1,126.2c-0.5,0-1-0.1-1.5-0.4l-11.4-6.5c-1.4-0.8-1.9-2.7-1.1-4.1c0.8-1.4,2.7-1.9,4.1-1.1l11.4,6.5
		c1.4,0.8,1.9,2.7,1.1,4.1C103.1,125.7,102.1,126.2,101.1,126.2"/>
	<path id="Fill-5" class="st17" d="M124.5,131.7c-1,0-2-0.5-2.6-1.5c-0.8-1.4-0.3-3.3,1.1-4.1l10.4-6c1.4-0.8,3.3-0.3,4.1,1.1
		c0.8,1.4,0.3,3.3-1.1,4.1l-10.4,6C125.5,131.6,125,131.7,124.5,131.7"/>
	<path id="Fill-7_1_" class="st18" d="M166.1,107.8c-1,0-2-0.5-2.6-1.5c-0.8-1.4-0.3-3.3,1.1-4.1l10.4-6c1.4-0.8,3.3-0.3,4.1,1.1
		c0.8,1.4,0.3,3.3-1.1,4.1l-10.4,6C167.1,107.7,166.6,107.8,166.1,107.8"/>
	<path id="Fill-9_1_" class="st18" d="M207.7,83.8c-1,0-2-0.5-2.6-1.5c-0.8-1.4-0.3-3.3,1.1-4.1l10.4-6c1.4-0.8,3.3-0.3,4.1,1.1
		c0.8,1.4,0.3,3.3-1.1,4.1l-10.4,6C208.7,83.7,208.2,83.8,207.7,83.8"/>
	<path id="Fill-11_1_" class="st18" d="M249.2,59.9c-1,0-2-0.5-2.6-1.5c-0.8-1.4-0.3-3.3,1.1-4.1l10.4-6c1.4-0.8,3.3-0.3,4.1,1.1
		c0.8,1.4,0.3,3.3-1.1,4.1l-10.4,6C250.3,59.7,249.8,59.9,249.2,59.9"/>
	<path id="Fill-13_1_" class="st18" d="M290.8,36c-1,0-2-0.5-2.6-1.5c-0.8-1.4-0.3-3.3,1.1-4.1l10.4-6c1.4-0.8,3.3-0.3,4.1,1.1
		c0.8,1.4,0.3,3.3-1.1,4.1l-10.4,6C291.8,35.8,291.3,36,290.8,36"/>
	<g id="Group-17" transform="translate(329.000000, 0.832054)">
		<path id="Fill-15_1_" class="st18" d="M3.4,11.2c-1,0-2-0.5-2.6-1.5C0,8.3,0.5,6.4,1.9,5.6l10.4-6c1.4-0.8,3.3-0.3,4.1,1.1
			c0.8,1.4,0.3,3.3-1.1,4.1l-10.4,6C4.4,11,3.9,11.2,3.4,11.2"/>
	</g>
</g>
<g id="Group" transform="translate(476.000000, 456.481271)">
	<g id="Group-18-Copy" transform="translate(211.500000, 71.918275) scale(-1, 1) translate(-211.500000, -71.918275) ">
		<path class="st19" d="M80,98.3c-1,0-2-0.5-2.6-1.5c-0.8-1.4-0.3-3.3,1.1-4.1l9.6-5.5c1.4-0.8,3.3-0.3,4.1,1.1
			c0.8,1.4,0.3,3.3-1.1,4.1L81.5,98C81,98.2,80.5,98.3,80,98.3"/>
		<path id="Path_1_" class="st19" d="M41.5,120.5c-1,0-2-0.5-2.6-1.5c-0.8-1.4-0.3-3.3,1.1-4.1l9.6-5.6c1.4-0.8,3.3-0.3,4.1,1.1
			c0.8,1.4,0.3,3.3-1.1,4.1L43,120C42.5,120.4,42,120.5,41.5,120.5"/>
		<path id="Path_2_" class="st19" d="M3,142.6c-1,0-2-0.5-2.6-1.5c-0.8-1.4-0.3-3.3,1.1-4.1l9.6-5.6c1.4-0.8,3.3-0.3,4.1,1.1
			c0.8,1.4,0.3,3.3-1.1,4.1l-9.6,5.6C4,142.5,3.5,142.6,3,142.6"/>
		<path id="Path_3_" class="st19" d="M132.5,100.2c-0.5,0-1-0.1-1.5-0.4l-11.4-6.5c-1.4-0.8-1.9-2.7-1.1-4.1
			c0.8-1.4,2.7-1.9,4.1-1.1l11.4,6.5c1.4,0.8,1.9,2.7,1.1,4.1C134.5,99.7,133.5,100.2,132.5,100.2"/>
		<path id="Path_4_" class="st19" d="M178.1,126.2c-0.5,0-1-0.1-1.5-0.4l-11.4-6.5c-1.4-0.8-1.9-2.7-1.1-4.1
			c0.8-1.4,2.7-1.9,4.1-1.1l11.4,6.5c1.4,0.8,1.9,2.7,1.1,4.1C180.1,125.7,179.1,126.2,178.1,126.2"/>
		<path id="Fill-5_1_" class="st19" d="M201.5,131.7c-1,0-2-0.5-2.6-1.5c-0.8-1.4-0.3-3.3,1.1-4.1l10.4-6c1.4-0.8,3.3-0.3,4.1,1.1
			c0.8,1.4,0.3,3.3-1.1,4.1l-10.4,6C202.5,131.6,202,131.7,201.5,131.7"/>
		<path id="Fill-7_2_" class="st19" d="M243.1,107.8c-1,0-2-0.5-2.6-1.5c-0.8-1.4-0.3-3.3,1.1-4.1l10.4-6c1.4-0.8,3.3-0.3,4.1,1.1
			c0.8,1.4,0.3,3.3-1.1,4.1l-10.4,6C244.1,107.7,243.6,107.8,243.1,107.8"/>
		<path id="Fill-9_2_" class="st19" d="M284.7,83.8c-1,0-2-0.5-2.6-1.5c-0.8-1.4-0.3-3.3,1.1-4.1l10.4-6c1.4-0.8,3.3-0.3,4.1,1.1
			c0.8,1.4,0.3,3.3-1.1,4.1l-10.4,6C285.7,83.7,285.2,83.8,284.7,83.8"/>
		<path id="Fill-11_2_" class="st19" d="M326.2,59.9c-1,0-2-0.5-2.6-1.5c-0.8-1.4-0.3-3.3,1.1-4.1l10.4-6c1.4-0.8,3.3-0.3,4.1,1.1
			c0.8,1.4,0.3,3.3-1.1,4.1l-10.4,6C327.3,59.7,326.8,59.9,326.2,59.9"/>
		<path id="Fill-13_2_" class="st19" d="M367.8,36c-1,0-2-0.5-2.6-1.5c-0.8-1.4-0.3-3.3,1.1-4.1l10.4-6c1.4-0.8,3.3-0.3,4.1,1.1
			c0.8,1.4,0.3,3.3-1.1,4.1l-10.4,6C368.8,35.8,368.3,36,367.8,36"/>
		<g id="Group-17_1_" transform="translate(406.000000, 0.832054)">
			<path id="Fill-15_2_" class="st19" d="M3.4,11.2c-1,0-2-0.5-2.6-1.5C0,8.3,0.5,6.4,1.9,5.6l10.4-6c1.4-0.8,3.3-0.3,4.1,1.1
				c0.8,1.4,0.3,3.3-1.1,4.1l-10.4,6C4.4,11,3.9,11.2,3.4,11.2"/>
		</g>
	</g>
	
		<g id="Group-18-Copy-2" transform="translate(548.500000, 216.254257) scale(-1, 1) translate(-548.500000, -216.254257) translate(436.000000, 149.829739)">
		<path id="Fill-5_2_" class="st19" d="M3.5,131.7c-1,0-2-0.5-2.6-1.5c-0.8-1.4-0.3-3.3,1.1-4.1l10.4-6c1.4-0.8,3.3-0.3,4.1,1.1
			c0.8,1.4,0.3,3.3-1.1,4.1l-10.4,6C4.5,131.6,4,131.7,3.5,131.7"/>
		<path id="Fill-7_3_" class="st19" d="M45.1,107.8c-1,0-2-0.5-2.6-1.5c-0.8-1.4-0.3-3.3,1.1-4.1l10.4-6c1.4-0.8,3.3-0.3,4.1,1.1
			c0.8,1.4,0.3,3.3-1.1,4.1l-10.4,6C46.1,107.7,45.6,107.8,45.1,107.8"/>
		<path id="Fill-9_3_" class="st19" d="M86.7,83.8c-1,0-2-0.5-2.6-1.5c-0.8-1.4-0.3-3.3,1.1-4.1l10.4-6c1.4-0.8,3.3-0.3,4.1,1.1
			c0.8,1.4,0.3,3.3-1.1,4.1l-10.4,6C87.7,83.7,87.2,83.8,86.7,83.8"/>
		<path id="Fill-11_3_" class="st19" d="M128.2,59.9c-1,0-2-0.5-2.6-1.5c-0.8-1.4-0.3-3.3,1.1-4.1l10.4-6c1.4-0.8,3.3-0.3,4.1,1.1
			s0.3,3.3-1.1,4.1l-10.4,6C129.3,59.7,128.8,59.9,128.2,59.9"/>
		<path id="Fill-13_3_" class="st19" d="M169.8,36c-1,0-2-0.5-2.6-1.5c-0.8-1.4-0.3-3.3,1.1-4.1l10.4-6c1.4-0.8,3.3-0.3,4.1,1.1
			s0.3,3.3-1.1,4.1l-10.4,6C170.8,35.8,170.3,36,169.8,36"/>
		<g id="Group-17_2_" transform="translate(208.000000, 0.832054)">
			<path id="Fill-15_3_" class="st19" d="M3.4,11.2c-1,0-2-0.5-2.6-1.5C0,8.3,0.5,6.4,1.9,5.6l10.4-6c1.4-0.8,3.3-0.3,4.1,1.1
				c0.8,1.4,0.3,3.3-1.1,4.1l-10.4,6C4.4,11,3.9,11.2,3.4,11.2"/>
		</g>
	</g>
	<path id="Fill-5_3_" class="st20" d="M995.5,422.4c1,0,2-0.5,2.6-1.5c0.8-1.4,0.3-3.3-1.1-4.1l-10.4-6c-1.4-0.8-3.3-0.3-4.1,1.1
		s-0.3,3.3,1.1,4.1l10.4,6C994.5,422.3,995,422.4,995.5,422.4"/>
	<path id="Fill-7_4_" class="st21" d="M953.9,398.4c1,0,2-0.5,2.6-1.5c0.8-1.4,0.3-3.3-1.1-4.1l-10.4-6c-1.4-0.8-3.3-0.3-4.1,1.1
		c-0.8,1.4-0.3,3.3,1.1,4.1l10.4,6C952.9,398.3,953.4,398.4,953.9,398.4"/>
	<path id="Fill-9_4_" class="st22" d="M912.3,374.5c1,0,2-0.5,2.6-1.5c0.8-1.4,0.3-3.3-1.1-4.1l-10.4-6c-1.4-0.8-3.3-0.3-4.1,1.1
		c-0.8,1.4-0.3,3.3,1.1,4.1l10.4,6C911.3,374.4,911.8,374.5,912.3,374.5"/>
	<path id="Fill-11_4_" class="st23" d="M870.8,350.6c1,0,2-0.5,2.6-1.5c0.8-1.4,0.3-3.3-1.1-4.1l-10.4-6c-1.4-0.8-3.3-0.3-4.1,1.1
		s-0.3,3.3,1.1,4.1l10.4,6C869.7,350.4,870.2,350.6,870.8,350.6"/>
	<path id="Fill-13_4_" class="st19" d="M829.2,326.6c1,0,2-0.5,2.6-1.5c0.8-1.4,0.3-3.3-1.1-4.1l-10.4-6c-1.4-0.8-3.3-0.3-4.1,1.1
		s-0.3,3.3,1.1,4.1l10.4,6C828.2,326.4,828.7,326.6,829.2,326.6"/>
	<g id="Group-17_3_" transform="translate(774.000000, 291.501748)">
		<path id="Fill-15_4_" class="st19" d="M13.6,11.2c1,0,2-0.5,2.6-1.5c0.8-1.4,0.3-3.3-1.1-4.1l-10.4-6C3.3-1.2,1.4-0.7,0.6,0.7
			S0.3,4,1.7,4.8l10.4,6C12.6,11,13.1,11.2,13.6,11.2"/>
	</g>
</g>
</svg>
