<?xml version="1.0" encoding="utf-8"?>
<!-- Generator: Adobe Illustrator 23.1.1, SVG Export Plug-In . SVG Version: 6.00 Build 0)  -->
<svg version="1.1" id="Layer_1" xmlns="http://www.w3.org/2000/svg" xmlns:xlink="http://www.w3.org/1999/xlink" x="0px" y="0px"
	 viewBox="0 0 1475 879" style="enable-background:new 0 0 1475 879;" xml:space="preserve">
<style type="text/css">
	.st0{fill-rule:evenodd;clip-rule:evenodd;fill:#464646;}
	.st1{fill-rule:evenodd;clip-rule:evenodd;fill:#777677;}
	.st2{fill-rule:evenodd;clip-rule:evenodd;fill:#EAEAEA;}
	.st3{fill-rule:evenodd;clip-rule:evenodd;fill:#272727;}
	.st4{fill-rule:evenodd;clip-rule:evenodd;fill:#C1C0C1;}
	.st5{fill-rule:evenodd;clip-rule:evenodd;fill:#C0BFC0;}
	.st6{filter:url(#Adobe_OpacityMaskFilter);}
	.st7{fill-rule:evenodd;clip-rule:evenodd;fill:#FFFFFF;}
	.st8{mask:url(#mask-2_1_);fill-rule:evenodd;clip-rule:evenodd;fill:#C1C0C1;}
	.st9{filter:url(#Adobe_OpacityMaskFilter_1_);}
	.st10{mask:url(#mask-4_1_);fill-rule:evenodd;clip-rule:evenodd;fill:#0074FF;}
	.st11{opacity:0.6044;filter:url(#filter-5);enable-background:new    ;}
	.st12{fill-rule:evenodd;clip-rule:evenodd;fill:#2D74DA;}
	.st13{filter:url(#Adobe_OpacityMaskFilter_2_);}
	.st14{mask:url(#mask-7_1_);fill-rule:evenodd;clip-rule:evenodd;fill:#C8DAF4;}
	.st15{fill-rule:evenodd;clip-rule:evenodd;fill:#E1EBF7;}
	.st16{fill-rule:evenodd;clip-rule:evenodd;fill:#A8C0F3;}
	.st17{fill-rule:evenodd;clip-rule:evenodd;fill:#0062FF;}
	.st18{fill-rule:evenodd;clip-rule:evenodd;fill:#6AA3FF;}
	.st19{filter:url(#Adobe_OpacityMaskFilter_3_);}
	.st20{mask:url(#mask-9_1_);fill-rule:evenodd;clip-rule:evenodd;fill:#3C88F5;}
	.st21{opacity:0.7027;}
	.st22{filter:url(#Adobe_OpacityMaskFilter_4_);}
	.st23{mask:url(#mask-11_1_);fill-rule:evenodd;clip-rule:evenodd;fill:#C8DAF4;}
	.st24{filter:url(#Adobe_OpacityMaskFilter_5_);}
	.st25{mask:url(#mask-13_1_);fill-rule:evenodd;clip-rule:evenodd;fill:#C8DAF4;}
	.st26{filter:url(#Adobe_OpacityMaskFilter_6_);}
	.st27{mask:url(#mask-15_1_);fill-rule:evenodd;clip-rule:evenodd;fill:#0062FF;}
	.st28{filter:url(#Adobe_OpacityMaskFilter_7_);}
	.st29{mask:url(#mask-17_1_);fill-rule:evenodd;clip-rule:evenodd;fill:#0062FF;}
	.st30{opacity:0.1;fill:#5392FF;enable-background:new    ;}
	.st31{opacity:0.2;fill:#5392FF;enable-background:new    ;}
	.st32{opacity:0.5;fill:#5392FF;enable-background:new    ;}
	.st33{opacity:0.8;fill:#5392FF;enable-background:new    ;}
	.st34{fill:#5392FF;}
	.st35{fill:#DCDCDC;}
	.st36{opacity:0.1;fill:#DCDCDC;enable-background:new    ;}
	.st37{opacity:0.3;fill:#DCDCDC;enable-background:new    ;}
	.st38{opacity:0.6;fill:#DCDCDC;enable-background:new    ;}
	.st39{opacity:0.9;fill:#DCDCDC;enable-background:new    ;}
</style>
<filter  filterUnits="objectBoundingBox" height="207.3%" id="filter-5" width="162.2%" x="-31.1%" y="-53.6%">
	<feGaussianBlur  in="SourceGraphic" stdDeviation="14.4"></feGaussianBlur>
</filter>
<g id="Group-127" transform="translate(259.000000, 73.916005)">
	<path id="Fill-1" class="st0" d="M56.6,292.6c-0.2-0.1-0.5-0.3-0.7-0.4l-20.6-10.4c-2.6-1.5-6.8-1.5-9.4,0c-2.6,1.5-2.6,3.9,0,5.4
		l9.8,6.3l8.6,5.5c0.2,0.1,0.4,0.2,0.6,0.4c3.2,1.9,8.4,1.9,11.7,0C59.8,297.4,59.8,294.4,56.6,292.6"/>
	<path id="Fill-3" class="st0" d="M81.6,278.6c-0.2-0.1-0.5-0.3-0.7-0.4l-20.6-10.4c-2.6-1.5-6.8-1.5-9.4,0c-2.6,1.5-2.6,3.9,0,5.4
		l9.8,6.3l8.6,5.5c0.2,0.1,0.4,0.2,0.6,0.4c3.2,1.9,8.4,1.9,11.7,0C84.8,283.4,84.8,280.4,81.6,278.6"/>
	<path id="Fill-5" class="st0" d="M82.8,276.6L68,264.1l-7.9-4.4l0,0c-2.6-1.4-6.6-1.3-9.1,0.1c-1.1,0.7-1.8,1.8-1.9,2.9
		c0,0.1,0,0.3,0,0.4v6.3c0,1,0.6,2,1.9,2.7l9.8,6.3l8.6,5.5c0.2,0.1,0.4,0.2,0.6,0.4c3.2,1.9,8.4,1.9,11.7,0
		c1.6-0.9,2.4-2.1,2.4-3.4V279C84,278.1,83.6,277.2,82.8,276.6"/>
	<path id="Fill-7" class="st0" d="M50.9,267.1c-2.5-1.4-2.5-4.9,0-6.3c2.5-1.4,6.7-1.4,9.2,0c2.5,1.4,2.5,3.7,0,5.1
		C57.6,267.2,53.4,268.5,50.9,267.1"/>
	<path id="Fill-9" class="st0" d="M57.8,291.6L43,279.1l-7.9-4.4l0,0c-2.6-1.4-6.6-1.3-9.1,0.1c-1.1,0.7-1.8,1.8-1.9,2.9
		c0,0.1,0,0.3,0,0.4v6.3c0,1,0.6,2,1.9,2.7l9.8,6.3l8.6,5.5c0.2,0.1,0.4,0.2,0.6,0.4c3.2,1.9,8.4,1.9,11.7,0
		c1.6-0.9,2.4-2.1,2.4-3.4V294C59,293.1,58.6,292.2,57.8,291.6"/>
	<path id="Fill-11" class="st0" d="M25.9,281.1c-2.5-1.4-2.5-4.9,0-6.3c2.5-1.4,6.7-1.4,9.2,0c2.5,1.4,2.5,3.7,0,5.1
		C32.6,281.2,28.4,282.5,25.9,281.1"/>
	<path id="Fill-13" class="st1" d="M34.4,269.6c-2.1-1.3-5.6-1.3-7.8,0c-1.1,0.6-1.6,1.5-1.6,2.3v6.5c0,0.8,0.5,1.7,1.6,2.3
		c2.1,1.3,5.6,1.3,7.8,0c1.1-0.6,1.6-1.5,1.6-2.3v-6.5C36,271.1,35.5,270.3,34.4,269.6"/>
	<path id="Fill-15" class="st1" d="M60.4,254.7c-2.1-1.3-5.6-1.3-7.8,0c-1.1,0.6-1.6,1.5-1.6,2.3v6.5c0,0.8,0.5,1.7,1.6,2.3
		c2.1,1.3,5.6,1.3,7.8,0c1.1-0.6,1.6-1.5,1.6-2.3V257C62,256.1,61.5,255.3,60.4,254.7"/>
	<path id="Fill-17" class="st0" d="M33.1,282.2l-1.6-1.4c-0.6-0.5-0.6-1.4,0.1-1.9l4.1-3.1c0.4-0.3-0.5,0.3,0,0
		c0.5-0.3,1.5-1.2,2.9-1.1c0.7,0.1,1.3,0.4,1.7,0.9l2.6,3l15,12c0.7,0.5,1.2,1.4,1.2,2.3v1.8"/>
	<path id="Fill-19" class="st0" d="M56.6,292.6c-0.2-0.1-0.5-0.3-0.7-0.4l-20.6-10.4c-2.6-1.5-6.8-1.5-9.4,0c-2.6,1.5-2.6,3.9,0,5.4
		l9.8,6.3l8.6,5.5c0.2,0.1,0.4,0.2,0.6,0.4c3.2,1.9,8.4,1.9,11.7,0C59.8,297.4,59.8,294.4,56.6,292.6"/>
	<path id="Fill-21" class="st0" d="M81.6,278.6c-0.2-0.1-0.5-0.3-0.7-0.4l-20.6-10.4c-2.6-1.5-6.8-1.5-9.4,0c-2.6,1.5-2.6,3.9,0,5.4
		l9.8,6.3l8.6,5.5c0.2,0.1,0.4,0.2,0.6,0.4c3.2,1.9,8.4,1.9,11.7,0C84.8,283.4,84.8,280.4,81.6,278.6"/>
	<path id="Fill-23" class="st0" d="M82.8,276.6L68,264.1l-7.9-4.4l0,0c-2.6-1.4-6.6-1.3-9.1,0.1c-1.1,0.7-1.8,1.8-1.9,2.9
		c0,0.1,0,0.3,0,0.4v6.3c0,1,0.6,2,1.9,2.7l9.8,6.3l8.6,5.5c0.2,0.1,0.4,0.2,0.6,0.4c3.2,1.9,8.4,1.9,11.7,0
		c1.6-0.9,2.4-2.1,2.4-3.4V279C84,278.1,83.6,277.2,82.8,276.6"/>
	<path id="Fill-25" class="st0" d="M50.9,267.1c-2.5-1.4-2.5-4.9,0-6.3c2.5-1.4,6.7-1.4,9.2,0c2.5,1.4,2.5,3.7,0,5.1
		C57.6,267.2,53.4,268.5,50.9,267.1"/>
	<path id="Fill-27" class="st0" d="M57.8,291.6L43,279.1l-7.9-4.4l0,0c-2.6-1.4-6.6-1.3-9.1,0.1c-1.1,0.7-1.8,1.8-1.9,2.9
		c0,0.1,0,0.3,0,0.4v6.3c0,1,0.6,2,1.9,2.7l9.8,6.3l8.6,5.5c0.2,0.1,0.4,0.2,0.6,0.4c3.2,1.9,8.4,1.9,11.7,0
		c1.6-0.9,2.4-2.1,2.4-3.4V294C59,293.1,58.6,292.2,57.8,291.6"/>
	<path id="Fill-29" class="st0" d="M25.9,281.1c-2.5-1.4-2.5-4.9,0-6.3c2.5-1.4,6.7-1.4,9.2,0c2.5,1.4,2.5,3.7,0,5.1
		C32.6,281.2,28.4,282.5,25.9,281.1"/>
	<path id="Fill-31" class="st2" d="M34.4,269.6c-2.1-1.3-5.6-1.3-7.8,0c-1.1,0.6-1.6,1.5-1.6,2.3v6.5c0,0.8,0.5,1.7,1.6,2.3
		c2.1,1.3,5.6,1.3,7.8,0c1.1-0.6,1.6-1.5,1.6-2.3v-6.5C36,271.1,35.5,270.3,34.4,269.6"/>
	<path id="Fill-33" class="st2" d="M60.4,254.7c-2.1-1.3-5.6-1.3-7.8,0c-1.1,0.6-1.6,1.5-1.6,2.3v6.5c0,0.8,0.5,1.7,1.6,2.3
		c2.1,1.3,5.6,1.3,7.8,0c1.1-0.6,1.6-1.5,1.6-2.3V257C62,256.1,61.5,255.3,60.4,254.7"/>
	<path id="Fill-35" class="st0" d="M33.1,282.2l-1.6-1.4c-0.6-0.5-0.6-1.4,0.1-1.9l4.1-3.1c0.4-0.3-0.5,0.3,0,0
		c0.5-0.3,1.5-1.2,2.9-1.1c0.7,0.1,1.3,0.4,1.7,0.9l2.6,3l15,12c0.7,0.5,1.2,1.4,1.2,2.3v1.8"/>
	<path id="Fill-37" class="st0" d="M58.1,268.3l-1.6-1.4c-0.6-0.5-0.6-1.4,0.1-1.9l4.1-3.1c0.4-0.3-0.5,0.3,0,0
		c0.5-0.3,1.5-1.2,2.9-1.1c0.7,0.1,1.3,0.4,1.7,0.9l2.6,3l15,12c0.7,0.5,1.2,1.4,1.2,2.3v1.8"/>
	<path id="Fill-39" class="st0" d="M49.5,257.2c-1.7-1-2.6-2.3-2.6-3.6c-6.6-17.2-1.2-75.4-1.2-75.4l-7.5-52.8
		c-0.1-0.3-0.1-0.6-0.1-0.9c-0.2-2.8,1.5-5.5,5.2-7.6c7-4,18.2-4,25.2,0c3.7,2.1,5.5,20.3,5.4,23.1h0l0,0c0,0,0,0,0,0.1l0.3,0.3
		l-3.7,64.5l-5.6,47.7c0,2.4-0.9,3.7-2.6,4.7C58.6,259.2,53,259.2,49.5,257.2c-1.6-0.9-2.4-2-2.6-3.2h0l0-0.1c0-0.2,0-0.4,0-0.6"/>
	<path id="Fill-41" class="st0" d="M49,138.7c0-0.1,0-0.2,0-0.3l0-0.1h0c0.1-2.7-1.7-5.4-5.3-7.4c-7-4-18.4-4-25.5,0
		c-4,2.3-5.7,5.3-5.2,8.3l7.8,75.7c0,0-5.6,35.6,1.1,52.8c0,1.3,0.9,2.6,2.6,3.6c3.5,2,9.2,2,12.7,0c1.8-1,2.6-2.3,2.6-3.6l0,0
		l6.2-49.7l1.4-35.1"/>
	<path id="Fill-43" class="st3" d="M45.8,221l0.3-2.1l1.4-34.4l0-0.7l0,0c1.1,0,2,1,2,2.1L48.1,219l-2,16.3c0.4,7,1.2,13.1,2.5,17.2
		l0.4,1.1l0.1,0.3l0,0.3c0,0.1,0,0.1,0,0.2l0,0.1c0,0.2,0.1,0.4,0.3,0.6c0.6,0.8,0.8,1.9,0.2,2.8c0,0,0,0,0,0l0,0
		c-0.4-0.2-0.7-0.4-1-0.7c0,0,0,0-0.1,0c-0.1-0.1-0.2-0.2-0.4-0.3c0,0-0.1-0.1-0.1-0.1c-0.1-0.1-0.2-0.2-0.3-0.3
		c0,0-0.1-0.1-0.1-0.1c-0.1-0.1-0.2-0.2-0.2-0.3c0,0,0-0.1-0.1-0.1c-0.1-0.1-0.1-0.2-0.2-0.3c0,0,0-0.1,0-0.1
		c-0.1-0.1-0.1-0.2-0.1-0.4c0,0,0,0,0,0c0-0.1-0.1-0.3-0.1-0.4h0l0,0c0-0.1,0-0.2,0-0.4c-0.9-2.4-1.6-5.5-2.1-9.2
		c-0.4-3-0.7-6.2-0.9-9.7L45.8,221z"/>
	<path id="Fill-45" class="st2" d="M95,134.1c-0.8-2.6-3.1-4.1-4.2-6.1c-0.3-0.5-0.6-0.9-0.9-1.3L63.4,98.1c-2.6-2.9-1.4-9,1.1-11.2
		c2.6-2.2,7.5-0.6,10,2.7l24.8,31.9c0,0,0-0.1,0,0c3.1,1.8,5.4,5.1,6.4,6.3c2.7,3.2,6.2,8.5,3.1,12.1C101.4,148.9,95,134.1,95,134.1
		"/>
	<path id="Fill-47" class="st2" d="M68.3,104.9L64,89.1c5.6,3.2,14.6,0.1,15.7-4.2l0.1,0.2L82,99.4"/>
	<path id="Fill-49" class="st1" d="M13.1,103.1l1.4,18.4L13,139.7c0,4.5,3,11.5,9,14.9c11.9,6.8,31.2,4.8,43.1-2
		c5.9-3.4,8.9-7.9,8.9-12.3l-3.6-25l1-27.3"/>
	<path id="Fill-66" class="st4" d="M33.5,45.9c0.2-0.2,0.4-0.4,0.5-0.6c-4.7-3.2-7.9-8.6-8.1-14.6c2.1,0.8,6.2,1.2,6.2-5
		c0-5.5,1.4-7.9,3.8-8.7"/>
	<path id="Fill-68" class="st4" d="M32.7,0C25.7,0.6,17.8,4.6,17,19.1v7.3c0,0.1,0,0.2,0,0.2c0,2.7-0.6,5.2-1.6,7.6
		C10.7,45.1,7.9,56.8,8,68.6l0.1,12.3C13.8,81.2,36,47.3,36,47.3h-3.3L32.7,0z"/>
	<path id="Fill-70" class="st1" d="M19,103v5.9c0,5.6-9.1,8.8-14.9,5.7c0,0-4.1-1.8-4.1-8.3v-6.2v-7.7c0.8-9.3,1.5-19.7,31.4-42.2
		l19.1-4.3C64.8,50.3,80.1,57,80.7,73.5l0.3,7.7c0.1,3.1,0,6.9-2.9,8.2c-1.4,0.7-5.1,1.3-7.3,0.8"/>
	<path id="Fill-72" class="st5" d="M39,58.1c12.5,1.3,15.4-8.1,15.4-8.1c0.2,0.1,0.5,0.3,0.7,0.4C58.2,52.2,60,66,60,71.9v80.6
		c0,1.3-0.8,2.4-2,2.8c-3.2,1.1-7.8,2.1-10.4,2.5c0,0,0,0,0,0c-1.1,0.2-2.1-0.7-2.1-1.7V84.2C45.5,73.1,41.4,61.7,39,58.1"/>
	<path id="Fill-74" class="st2" d="M51.5,45.9c-0.2-0.1-0.3-0.2-0.5-0.3v-27c0-1.2-0.8-2.4-2.4-3.3c-3.2-1.8-8.3-1.8-11.5,0
		c-1.6,0.9-2.4,2.1-2.4,3.3v25.5c0,0,0,2.1-2.4,4.7c0,0,0,0,0,0c-2.3,2.3-1.6,4.7,2.2,6.8c4.7,2.7,12.3,5.9,17,3.3
		C56.2,56.2,56.2,48.6,51.5,45.9"/>
	<path id="Fill-76" class="st3" d="M53.1,47.9c0.4,0.6,0.7,1.3,0.9,2.1c-3.3,2.5-7.2,3.9-11.5,3.9c-4.3,0-8.2-1.5-11.5-4
		c0.2-0.4,0.5-0.7,0.8-1c0,0,0,0,0,0c0.2-0.2,0.4-0.4,0.5-0.7c2.9,2.2,6.4,3.4,10.2,3.4C46.5,51.7,50.1,50.3,53.1,47.9"/>
	<path id="Fill-78" class="st2" d="M43,5c-9.9,0-18,8-18,18v11c0,9.9,8.1,18,18,18c9.9,0,18-8,18-18V23C61,13,52.9,5,43,5"/>
	<path id="Fill-80" class="st2" d="M62.4,151.5c-2.1-1.8-4.8-1.7-6.8-2.8c-0.5-0.2-1-0.4-1.5-0.5l-40.7-9.4c-3.7-1-6.2-6.9-5.3-10.1
		c0.9-3.4,5.9-4.7,9.7-3.4L59,138.5c0,0-0.1-0.1,0,0c3.5-0.3,7.3,1.3,8.7,1.7c4,1.2,9.7,3.7,9.3,8.5
		C75.8,160.6,62.4,151.5,62.4,151.5"/>
	<path id="Fill-82" class="st2" d="M7.5,132.8L3,115.1c5.3,3.3,13.9,0.1,15-4.2l0.1,0.2l2.9,17.7"/>
	<g id="Group-86" transform="translate(23.000000, 0.000000)">
		<g id="Clip-85">
		</g>
		<defs>
			<filter id="Adobe_OpacityMaskFilter" filterUnits="userSpaceOnUse" x="0.5" y="-0.3" width="19" height="18.9">
				<feColorMatrix  type="matrix" values="1 0 0 0 0  0 1 0 0 0  0 0 1 0 0  0 0 0 1 0"/>
			</filter>
		</defs>
		<mask maskUnits="userSpaceOnUse" x="0.5" y="-0.3" width="19" height="18.9" id="mask-2_1_">
			<g class="st6">
				<polygon id="path-1_1_" class="st7" points="0.5,-0.3 19.5,-0.3 19.5,18.6 0.5,18.6 				"/>
			</g>
		</mask>
		<path id="Fill-84" class="st8" d="M19.5,9.2c0,5.2-4.2,9.5-9.5,9.5s-9.5-4.2-9.5-9.5S4.7-0.3,10-0.3S19.5,3.9,19.5,9.2"/>
	</g>
	<path id="Fill-87" class="st4" d="M31.1,24.1c3.5-7.9,14.8-2.9,19.5-5.6c6.2-3.6,9.6-2.2,9.3-3.4C57.1,8.5,50.7,4,43.3,4
		c-2.9,0.2-5.4,0.8-7.5,1.7C29.4,8.6,25,15.1,25,22.6v9.1C26.1,32.6,27.9,31.1,31.1,24.1"/>
	<path id="Fill-89" class="st5" d="M27,95l0.2,9.8c0,0.9,0.5,1.8,1.3,2.4l1.2,0.9c1.7,1.2,3.9,1.1,5-0.3l1-1.3
		c0.8-1,1.2-2.3,1.2-3.6V90.9c-2.7,2.1-5.9,3.4-9.4,4L27,95z"/>
	<path id="Fill-91" class="st2" d="M82,100l-3,0.8"/>
	<path id="Fill-93" class="st1" d="M47.4,256c0.1,0.1,0.1,0.2,0.2,0.3C47.5,256.3,47.5,256.2,47.4,256"/>
	<path id="Fill-95" class="st1" d="M46.5,254.4c0-0.1-0.1-0.3-0.1-0.4l0,0C46.5,254.1,46.5,254.3,46.5,254.4"/>
	<path id="Fill-97" class="st1" d="M47.4,256.1c0.1,0.1,0.2,0.2,0.3,0.3C47.5,256.3,47.4,256.2,47.4,256.1"/>
	<path id="Fill-99" class="st1" d="M50,257.5c-0.4-0.2-0.7-0.4-1-0.7C49.3,257.1,49.6,257.3,50,257.5L50,257.5z"/>
	<path id="Fill-101" class="st1" d="M48.5,257.2C48.5,257.2,48.5,257.2,48.5,257.2C48.5,257.2,48.5,257.2,48.5,257.2"/>
	<path id="Fill-103" class="st1" d="M48.5,256.2C48.5,256.2,48.5,256.2,48.5,256.2C48.5,256.2,48.5,256.2,48.5,256.2"/>
	<path id="Fill-105" class="st1" d="M48.3,257.1c0.1,0.1,0.2,0.2,0.3,0.3C48.5,257.3,48.4,257.2,48.3,257.1"/>
	<path id="Fill-107" class="st1" d="M47.5,256.2C47.5,256.2,47.5,256.2,47.5,256.2C47.5,256.2,47.5,256.2,47.5,256.2"/>
	<path id="Fill-109" class="st1" d="M47.5,255.2C47.5,255.2,47.5,255.2,47.5,255.2C47.5,255.2,47.5,255.2,47.5,255.2"/>
	<path id="Fill-111" class="st1" d="M47.5,256.2C47.5,256.2,47.5,256.2,47.5,256.2C47.5,256.2,47.5,256.2,47.5,256.2"/>
	<path id="Fill-113" class="st1" d="M46.4,255c0,0.1,0.1,0.2,0.1,0.4C46.5,255.3,46.5,255.1,46.4,255"/>
	<path id="Fill-115" class="st1" d="M46.5,254.2L46.5,254.2C46.5,254.2,46.5,254.2,46.5,254.2L46.5,254.2z"/>
	<path id="Fill-117" class="st1" d="M47.4,255c0.1,0.1,0.1,0.2,0.2,0.3C47.5,255.3,47.5,255.2,47.4,255"/>
	<path id="Fill-119" class="st3" d="M78,148.8c-0.4,4-2.3,5.6-4.6,5.9c-2,0.3-4.3-0.4-6.2-1.1c-0.9-0.3-1.7-0.7-2.3-1.1
		c-0.4-0.2-0.7-0.4-1-0.5c-0.5-0.3-0.7-0.4-0.7-0.4c-0.1-0.1-0.3-0.2-0.4-0.3c-0.3-0.2-0.6-0.4-1-0.6c-1.9-0.9-3.9-1.1-5.5-1.9
		c-0.5-0.2-1-0.4-1.5-0.5l-6.3-1.4l-7.6-1.7l-25.9-5.8l-1.5-0.3c-0.2,0-0.4-0.1-0.5-0.2c0,0,0,0,0,0c0,0.1,0,0.2,0,0.3v0
		c0,1.1,0.8,2,1.8,2.3l0.1,0l2.1,0.5l24.2,5.4l7.2,1.6l5.9,1.3c0.2,0.1,0.7,0.2,1,0.4c1,0.5,2,0.8,3.1,1.1c0.7,0.2,1.4,0.4,2.1,0.7
		c0.5,0.2,0.9,0.4,1.3,0.7c0,0,0,0,0,0l0.1,0.1l0.1,0.1c0,0,0.3,0.2,0.6,0.4c0.3,0.2,0.7,0.4,1.2,0.7c0.3,0.2,0.7,0.3,1,0.5
		c2,1,4.8,2,7.4,2h0c0.3,0,0.6,0,0.9,0C77.1,156.4,77.5,153.4,78,148.8"/>
	<path id="Fill-121" class="st3" d="M4,114.4c2.2,1.2,4.8,1.5,7.3,1.2c0.2,0,0.4-0.1,0.6-0.1c0.1,0,0.2,0,0.3-0.1c0,0,0,0,0,0
		c0.7-0.2,1.4-0.4,2-0.6c0.7-0.3,1.4-0.6,2-1c0.1-0.1,0.2-0.1,0.3-0.2c0.3-0.2,0.6-0.4,0.8-0.6c1.2-1.1,2-2.5,2-4.1V105v-2.1h0
		c1.1,0,2.1,0.9,2.1,2.1v3.8c0,0.5-0.1,1.1-0.2,1.6l2.5,14.2l0.4,2.3l-2.2-0.7l-0.4-2.3l-1.8-10.5c-0.5,0.6-1.1,1.2-1.8,1.7
		c-0.3,0.2-0.6,0.4-0.9,0.6c-0.2,0.1-0.3,0.2-0.5,0.3c-0.6,0.3-1.3,0.6-2,0.9c-0.7,0.2-1.3,0.4-2,0.5c-0.2,0-0.5,0.1-0.7,0.1
		c-0.7,0.1-1.5,0.2-2.2,0.2c-0.5,0-1.1,0-1.6-0.1C6,117.5,4.5,116.2,4,114.4C4,114.4,4,114.4,4,114.4"/>
	<path id="Fill-123" class="st3" d="M70.1,104.1l0.3-7.7l0.2-3.9l0-0.3l0.1-1.5l0-0.4l0-0.2l0.1-3.2l0-0.1l0,0l0-0.6l0.2-5.6
		c1.2,0,2.1,1,2.1,2.1l0,1.2l-0.1,2.1c0,0,0,0,0,0h0l-0.1,1.6l0,0.5l0,0.6l0,1.1l0,0.4c0.4,0,0.8,0,1.2-0.1c0.8-0.1,1.7-0.2,2.4-0.4
		c0.8-0.2,1.4-0.4,1.9-0.6c0.5-0.2,1-0.6,1.3-1l0.4,2.4c-0.2,0.2-0.5,0.3-0.8,0.4c-0.3,0.2-0.8,0.3-1.3,0.5c0,0-0.1,0-0.1,0
		c-0.7,0.2-1.5,0.4-2.3,0.5c-0.9,0.1-1.9,0.2-2.8,0.2l-0.4,10.7l-0.2,5.6h0l-2.1-2.2L70.1,104.1z"/>
	<path id="Fill-125" class="st3" d="M22.6,153.9c5.7,3.3,13.1,4.5,20.6,4.1c1.8-0.1,3.5-0.3,5.3-0.5c4.8-0.7,9.5-2.1,13.5-3.9l0-0.9
		c0,0,0,0,0,0l0.1,0.1l0.1,0.1c0,0,0.3,0.2,0.6,0.4c0.3,0.2,0.7,0.4,1.2,0.7l0,1l0,2.5l8.9,5.1c-0.1,1-1.2,1.7-2.1,1.1l-8.8-5.1
		l0-2.7c-4.1,1.7-8.8,3-13.6,3.7c-1.6,0.2-3.3,0.4-4.9,0.5c-1,0.1-2,0.1-3,0.1c-6.8,0-13.5-1.3-19-4.5c0,0-0.1,0-0.1-0.1
		c-4.2-2.4-6.8-6.8-7.3-11.5l-0.2-2.3C14.9,146,17.8,151.2,22.6,153.9"/>
</g>
<g id="Group-83" transform="translate(294.000000, 0.000000)">
	<g id="Group-3" transform="translate(0.000000, 0.960908)">
		<g id="Clip-2">
		</g>
		<defs>
			<filter id="Adobe_OpacityMaskFilter_1_" filterUnits="userSpaceOnUse" x="0" y="-1" width="9.4" height="54.7">
				<feColorMatrix  type="matrix" values="1 0 0 0 0  0 1 0 0 0  0 0 1 0 0  0 0 0 1 0"/>
			</filter>
		</defs>
		<mask maskUnits="userSpaceOnUse" x="0" y="-1" width="9.4" height="54.7" id="mask-4_1_">
			<g class="st9">
				<polygon id="path-3_1_" class="st7" points="0,-1 9.5,-1 9.5,53.8 0,53.8 				"/>
			</g>
		</mask>
		<path class="st10" d="M2,37.4L0.9-1h7.7L7.5,37.4H2z M0,48.8c0-2.9,2-5,4.7-5c2.9,0,4.7,2.1,4.7,5c0,2.8-1.8,5-4.7,5
			C2,53.8,0,51.6,0,48.8L0,48.8z"/>
	</g>
</g>
<g id="Group-4" transform="translate(300.000000, 299.659478)">
	<g class="st11">
		<polygon class="st12" points="1.4,147.2 71,106.9 140.4,147.1 71,187.4 		"/>
	</g>
	<g id="Group-19" transform="translate(29.520000, 34.520772)">
		<g id="Group-18" transform="translate(0.000000, 0.346683)">
			<g id="Group-5">
				<g id="Clip-4">
				</g>
				<defs>
					<filter id="Adobe_OpacityMaskFilter_2_" filterUnits="userSpaceOnUse" x="0" y="-0.9" width="40.6" height="70">
						<feColorMatrix  type="matrix" values="1 0 0 0 0  0 1 0 0 0  0 0 1 0 0  0 0 0 1 0"/>
					</filter>
				</defs>
				<mask maskUnits="userSpaceOnUse" x="0" y="-0.9" width="40.6" height="70" id="mask-7_1_">
					<g class="st13">
						<polygon id="path-6_1_" class="st7" points="0,-0.9 40.6,-0.9 40.6,69.1 0,69.1 						"/>
					</g>
				</mask>
				<polygon class="st14" points="40.6,45.7 40.6,-0.9 0,22.4 0,69.1 				"/>
			</g>
			<polygon id="Fill-6" class="st15" points="81.1,69 40.6,92.4 0.1,69.1 40.6,45.7 			"/>
			<polygon id="Fill-8" class="st16" points="81.2,22.4 81.1,69 40.6,45.7 40.6,-0.9 			"/>
			<g id="Group-17">
				<polygon id="Fill-10" class="st17" points="40.6,45.8 40.6,92.4 81.2,69.1 81.2,22.4 				"/>
				<polygon id="Fill-12" class="st18" points="0.1,22.5 40.6,-0.9 81.1,22.4 40.6,45.8 				"/>
				<g id="Group-16" transform="translate(0.000000, 23.180140)">
					<g id="Clip-15">
					</g>
					<defs>
						<filter id="Adobe_OpacityMaskFilter_3_" filterUnits="userSpaceOnUse" x="0" y="-0.7" width="40.6" height="69.9">
							<feColorMatrix  type="matrix" values="1 0 0 0 0  0 1 0 0 0  0 0 1 0 0  0 0 0 1 0"/>
						</filter>
					</defs>
					<mask maskUnits="userSpaceOnUse" x="0" y="-0.7" width="40.6" height="69.9" id="mask-9_1_">
						<g class="st19">
							<polygon id="path-8_1_" class="st7" points="0,-0.7 40.6,-0.7 40.6,69.2 0,69.2 							"/>
						</g>
					</mask>
					<polygon id="Fill-14" class="st20" points="0,45.9 0.1,-0.7 40.6,22.6 40.6,69.2 					"/>
				</g>
			</g>
		</g>
	</g>
	<g class="st21">
		<g transform="translate(0.000000, 0.446208)">
			<g>
				<defs>
					<filter id="Adobe_OpacityMaskFilter_4_" filterUnits="userSpaceOnUse" x="0" y="-0.8" width="70" height="121.1">
						<feColorMatrix  type="matrix" values="1 0 0 0 0  0 1 0 0 0  0 0 1 0 0  0 0 0 1 0"/>
					</filter>
				</defs>
				<mask maskUnits="userSpaceOnUse" x="0" y="-0.8" width="70" height="121.1" id="mask-11_1_">
					<g class="st22">
						<polygon id="path-10_1_" class="st7" points="0,-0.8 70,-0.8 70,120.3 0,120.3 						"/>
					</g>
				</mask>
				<polygon class="st23" points="70,79.8 70,-0.8 0,39.5 0.1,120.3 				"/>
			</g>
			<polygon class="st15" points="140,120.2 70,160.7 0.1,120.3 70,79.9 			"/>
			<polygon class="st16" points="140.1,39.5 140,120.2 70,79.9 70,-0.8 			"/>
			<g>
				<polygon class="st16" points="70.1,80 70.1,160.7 140.1,120.3 140,39.6 				"/>
				<polygon class="st15" points="0.2,39.6 70.1,-0.8 140,39.6 70.1,80 				"/>
				<g transform="translate(0.000000, 40.119473)">
					<defs>
						<filter id="Adobe_OpacityMaskFilter_5_" filterUnits="userSpaceOnUse" x="0" y="-0.5" width="70.1" height="121">
							<feColorMatrix  type="matrix" values="1 0 0 0 0  0 1 0 0 0  0 0 1 0 0  0 0 0 1 0"/>
						</filter>
					</defs>
					<mask maskUnits="userSpaceOnUse" x="0" y="-0.5" width="70.1" height="121" id="mask-13_1_">
						<g class="st24">
							<polygon id="path-12_1_" class="st7" points="0,-0.5 70.1,-0.5 70.1,120.5 0,120.5 							"/>
						</g>
					</mask>
					<polygon class="st25" points="0,80.2 0.1,-0.5 70.1,39.9 70.1,120.5 					"/>
				</g>
			</g>
		</g>
	</g>
	<g transform="translate(30.240000, 82.706016)">
		<defs>
			<filter id="Adobe_OpacityMaskFilter_6_" filterUnits="userSpaceOnUse" x="0" y="-0.4" width="18.7" height="36">
				<feColorMatrix  type="matrix" values="1 0 0 0 0  0 1 0 0 0  0 0 1 0 0  0 0 0 1 0"/>
			</filter>
		</defs>
		<mask maskUnits="userSpaceOnUse" x="0" y="-0.4" width="18.7" height="36" id="mask-15_1_">
			<g class="st26">
				<path id="path-14_1_" class="st7" d="M3.8,3.7c0-2.6,1.3-4,3.1-4c0.8,0,1.6,0.3,2.5,0.8c3.1,1.8,5.6,6.2,5.6,9.8l0,6.5l1.9,1.1
					c1,0.6,1.9,2.1,1.9,3.3l0,0.2l0,12.9c0,1.2-0.9,1.6-1.9,1L1.9,26.6C0.8,26,0,24.5,0,23.3l0-13.2c0-1.2,0.9-1.6,1.9-1l1.9,1.1
					 M5.6,11.3l7.5,4.4l0-6.5c0-2.4-1.7-5.3-3.7-6.5C7.4,1.4,5.7,2.3,5.7,4.8 M1.9,24.4l14.9,8.8l0-13.1L1.9,11.3"/>
			</g>
		</mask>
		<path class="st27" d="M9.4,0.4C6.3-1.4,3.8,0,3.8,3.7l0,6.5L1.9,9.1C0.9,8.5,0,9,0,10.2l0,13.1c0,1.2,0.8,2.7,1.9,3.3l14.9,8.8
			c1,0.6,1.9,0.1,1.9-1.1l0-13.1c0-1.2-0.8-2.7-1.9-3.3L15,16.8l0-6.5C15,6.6,12.5,2.2,9.4,0.4 M5.6,11.3l0-6.5
			c0-2.4,1.7-3.4,3.8-2.2c2.1,1.2,3.7,4.1,3.7,6.5l0,6.5L5.6,11.3 M1.9,24.4l0-13.1l14.9,8.8l0,13.1L1.9,24.4"/>
	</g>
	<g transform="translate(93.600000, 77.671737)">
		<defs>
			<filter id="Adobe_OpacityMaskFilter_7_" filterUnits="userSpaceOnUse" x="0" y="-1" width="20.9" height="40.3">
				<feColorMatrix  type="matrix" values="1 0 0 0 0  0 1 0 0 0  0 0 1 0 0  0 0 0 1 0"/>
			</filter>
		</defs>
		<mask maskUnits="userSpaceOnUse" x="0" y="-1" width="20.9" height="40.3" id="mask-17_1_">
			<g class="st28">
				<path id="path-16_1_" class="st7" d="M10.4-0.2c1-0.6,1.9-0.8,2.7-0.8c2,0,3.5,1.7,3.5,4.5l0,7.3l2.1-1.2
					c1.1-0.7,2.1-0.1,2.1,1.2l0,1.1l0,13.6c0,1.3-0.9,3-2.1,3.6l-1.7,1L2.1,39C1,39.7,0,39.1,0,37.8l0-13.7l0-1c0-1.4,0.9-3,2.1-3.7
					l2.1-1.2l0-7.3c0-4,2.7-8.9,6.2-11 M6.2,9.7l0,7.3l8.3-4.9l0-7.3c0-2.7-1.9-3.8-4.2-2.4 M2.1,21.9l0,14.7l16.7-9.8l0-14.7"/>
			</g>
		</mask>
		<path class="st29" d="M10.4-0.1c-3.5,2-6.2,7-6.2,11l0,7.3l-2.1,1.2C0.9,20.1,0,21.8,0,23.1l0,14.7C0,39.1,1,39.7,2.1,39l16.7-9.8
			c1.1-0.7,2.1-2.3,2.1-3.7l0-14.7c0-1.4-0.9-1.9-2.1-1.2l-2.1,1.2l0-7.3C16.6-0.5,13.8-2.2,10.4-0.1 M6.2,17l0-7.3
			c0-2.7,1.9-6,4.2-7.3C12.7,1,14.6,2,14.6,4.8l0,7.3L6.2,17 M2.1,36.5l0-14.7l16.7-9.8l0,14.7L2.1,36.5"/>
	</g>
</g>
<g transform="translate(0.000000, 481.452894)">
	<path id="Fill-1_1_" class="st30" d="M3,73.3c-1,0-2-0.5-2.6-1.5c-0.8-1.4-0.3-3.3,1.1-4.1l9.6-5.5c1.4-0.8,3.3-0.3,4.1,1.1
		c0.8,1.4,0.3,3.3-1.1,4.1l-9.6,5.5C4,73.2,3.5,73.3,3,73.3"/>
	<path id="Path" class="st31" d="M55.5,75.2c-0.5,0-1-0.1-1.5-0.4l-11.4-6.5c-1.4-0.8-1.9-2.7-1.1-4.1c0.8-1.4,2.7-1.9,4.1-1.1
		L57,69.6c1.4,0.8,1.9,2.7,1.1,4.1C57.5,74.7,56.5,75.2,55.5,75.2"/>
	<path class="st32" d="M101.1,101.2c-0.5,0-1-0.1-1.5-0.4l-11.4-6.5c-1.4-0.8-1.9-2.7-1.1-4.1c0.8-1.4,2.7-1.9,4.1-1.1l11.4,6.5
		c1.4,0.8,1.9,2.7,1.1,4.1C103.1,100.7,102.1,101.2,101.1,101.2"/>
	<path class="st33" d="M124.5,106.8c-1,0-2-0.5-2.6-1.5c-0.8-1.4-0.3-3.3,1.1-4.1l10.4-6c1.4-0.8,3.3-0.3,4.1,1.1
		c0.8,1.4,0.3,3.3-1.1,4.1l-10.4,6C125.5,106.7,125,106.8,124.5,106.8"/>
	<path id="Fill-7_1_" class="st34" d="M166.1,82.8c-1,0-2-0.5-2.6-1.5c-0.8-1.4-0.3-3.3,1.1-4.1l10.4-6c1.4-0.8,3.3-0.3,4.1,1.1
		c0.8,1.4,0.3,3.3-1.1,4.1l-10.4,6C167.1,82.7,166.6,82.8,166.1,82.8"/>
	<path id="Fill-9_1_" class="st34" d="M207.7,58.8c-1,0-2-0.5-2.6-1.5c-0.8-1.4-0.3-3.3,1.1-4.1l10.4-6c1.4-0.8,3.3-0.3,4.1,1.1
		c0.8,1.4,0.3,3.3-1.1,4.1l-10.4,6C208.7,58.7,208.2,58.8,207.7,58.8"/>
	<path id="Fill-11_1_" class="st34" d="M249.2,35c-1,0-2-0.5-2.6-1.5c-0.8-1.4-0.3-3.3,1.1-4.1l10.4-6c1.4-0.8,3.3-0.3,4.1,1.1
		c0.8,1.4,0.3,3.3-1.1,4.1l-10.4,6C250.3,34.8,249.8,35,249.2,35"/>
	<path id="Fill-13_1_" class="st34" d="M290.8,11c-1,0-2-0.5-2.6-1.5c-0.8-1.4-0.3-3.3,1.1-4.1l10.4-6c1.4-0.8,3.3-0.3,4.1,1.1
		c0.8,1.4,0.3,3.3-1.1,4.1l-10.4,6C291.8,10.8,291.3,11,290.8,11"/>
</g>
<g id="Group" transform="translate(476.000000, 456.481271)">
	<g id="Group-18-Copy" transform="translate(211.500000, 71.918275) scale(-1, 1) translate(-211.500000, -71.918275) ">
		<path class="st35" d="M80,98.3c-1,0-2-0.5-2.6-1.5c-0.8-1.4-0.3-3.3,1.1-4.1l9.6-5.5c1.4-0.8,3.3-0.3,4.1,1.1
			c0.8,1.4,0.3,3.3-1.1,4.1L81.5,98C81,98.2,80.5,98.3,80,98.3"/>
		<path id="Path_1_" class="st35" d="M41.5,120.5c-1,0-2-0.5-2.6-1.5c-0.8-1.4-0.3-3.3,1.1-4.1l9.6-5.6c1.4-0.8,3.3-0.3,4.1,1.1
			c0.8,1.4,0.3,3.3-1.1,4.1L43,120C42.5,120.4,42,120.5,41.5,120.5"/>
		<path id="Path_2_" class="st35" d="M3,142.6c-1,0-2-0.5-2.6-1.5c-0.8-1.4-0.3-3.3,1.1-4.1l9.6-5.6c1.4-0.8,3.3-0.3,4.1,1.1
			c0.8,1.4,0.3,3.3-1.1,4.1l-9.6,5.6C4,142.5,3.5,142.6,3,142.6"/>
		<path id="Path_3_" class="st35" d="M132.5,100.2c-0.5,0-1-0.1-1.5-0.4l-11.4-6.5c-1.4-0.8-1.9-2.7-1.1-4.1
			c0.8-1.4,2.7-1.9,4.1-1.1l11.4,6.5c1.4,0.8,1.9,2.7,1.1,4.1C134.5,99.7,133.5,100.2,132.5,100.2"/>
		<path id="Path_4_" class="st35" d="M178.1,126.2c-0.5,0-1-0.1-1.5-0.4l-11.4-6.5c-1.4-0.8-1.9-2.7-1.1-4.1
			c0.8-1.4,2.7-1.9,4.1-1.1l11.4,6.5c1.4,0.8,1.9,2.7,1.1,4.1C180.1,125.7,179.1,126.2,178.1,126.2"/>
		<path id="Fill-5_1_" class="st35" d="M201.5,131.7c-1,0-2-0.5-2.6-1.5c-0.8-1.4-0.3-3.3,1.1-4.1l10.4-6c1.4-0.8,3.3-0.3,4.1,1.1
			c0.8,1.4,0.3,3.3-1.1,4.1l-10.4,6C202.5,131.6,202,131.7,201.5,131.7"/>
		<path id="Fill-7_2_" class="st35" d="M243.1,107.8c-1,0-2-0.5-2.6-1.5c-0.8-1.4-0.3-3.3,1.1-4.1l10.4-6c1.4-0.8,3.3-0.3,4.1,1.1
			c0.8,1.4,0.3,3.3-1.1,4.1l-10.4,6C244.1,107.7,243.6,107.8,243.1,107.8"/>
		<path id="Fill-9_2_" class="st35" d="M284.7,83.8c-1,0-2-0.5-2.6-1.5c-0.8-1.4-0.3-3.3,1.1-4.1l10.4-6c1.4-0.8,3.3-0.3,4.1,1.1
			c0.8,1.4,0.3,3.3-1.1,4.1l-10.4,6C285.7,83.7,285.2,83.8,284.7,83.8"/>
		<path id="Fill-11_2_" class="st35" d="M326.2,59.9c-1,0-2-0.5-2.6-1.5c-0.8-1.4-0.3-3.3,1.1-4.1l10.4-6c1.4-0.8,3.3-0.3,4.1,1.1
			c0.8,1.4,0.3,3.3-1.1,4.1l-10.4,6C327.3,59.7,326.8,59.9,326.2,59.9"/>
		<path id="Fill-13_2_" class="st35" d="M367.8,36c-1,0-2-0.5-2.6-1.5c-0.8-1.4-0.3-3.3,1.1-4.1l10.4-6c1.4-0.8,3.3-0.3,4.1,1.1
			c0.8,1.4,0.3,3.3-1.1,4.1l-10.4,6C368.8,35.8,368.3,36,367.8,36"/>
		<g id="Group-17_1_" transform="translate(406.000000, 0.832054)">
			<path id="Fill-15_2_" class="st35" d="M3.4,11.2c-1,0-2-0.5-2.6-1.5C0,8.3,0.5,6.4,1.9,5.6l10.4-6c1.4-0.8,3.3-0.3,4.1,1.1
				c0.8,1.4,0.3,3.3-1.1,4.1l-10.4,6C4.4,11,3.9,11.2,3.4,11.2"/>
		</g>
	</g>
	
		<g id="Group-18-Copy-2" transform="translate(548.500000, 216.254257) scale(-1, 1) translate(-548.500000, -216.254257) translate(436.000000, 149.829739)">
		<path id="Fill-5_2_" class="st35" d="M3.5,131.7c-1,0-2-0.5-2.6-1.5c-0.8-1.4-0.3-3.3,1.1-4.1l10.4-6c1.4-0.8,3.3-0.3,4.1,1.1
			c0.8,1.4,0.3,3.3-1.1,4.1l-10.4,6C4.5,131.6,4,131.7,3.5,131.7"/>
		<path id="Fill-7_3_" class="st35" d="M45.1,107.8c-1,0-2-0.5-2.6-1.5c-0.8-1.4-0.3-3.3,1.1-4.1l10.4-6c1.4-0.8,3.3-0.3,4.1,1.1
			c0.8,1.4,0.3,3.3-1.1,4.1l-10.4,6C46.1,107.7,45.6,107.8,45.1,107.8"/>
		<path id="Fill-9_3_" class="st35" d="M86.7,83.8c-1,0-2-0.5-2.6-1.5c-0.8-1.4-0.3-3.3,1.1-4.1l10.4-6c1.4-0.8,3.3-0.3,4.1,1.1
			c0.8,1.4,0.3,3.3-1.1,4.1l-10.4,6C87.7,83.7,87.2,83.8,86.7,83.8"/>
		<path id="Fill-11_3_" class="st35" d="M128.2,59.9c-1,0-2-0.5-2.6-1.5c-0.8-1.4-0.3-3.3,1.1-4.1l10.4-6c1.4-0.8,3.3-0.3,4.1,1.1
			s0.3,3.3-1.1,4.1l-10.4,6C129.3,59.7,128.8,59.9,128.2,59.9"/>
		<path id="Fill-13_3_" class="st35" d="M169.8,36c-1,0-2-0.5-2.6-1.5c-0.8-1.4-0.3-3.3,1.1-4.1l10.4-6c1.4-0.8,3.3-0.3,4.1,1.1
			s0.3,3.3-1.1,4.1l-10.4,6C170.8,35.8,170.3,36,169.8,36"/>
		<g id="Group-17_2_" transform="translate(208.000000, 0.832054)">
			<path id="Fill-15_3_" class="st35" d="M3.4,11.2c-1,0-2-0.5-2.6-1.5C0,8.3,0.5,6.4,1.9,5.6l10.4-6c1.4-0.8,3.3-0.3,4.1,1.1
				c0.8,1.4,0.3,3.3-1.1,4.1l-10.4,6C4.4,11,3.9,11.2,3.4,11.2"/>
		</g>
	</g>
	<path id="Fill-5_3_" class="st36" d="M995.5,422.4c1,0,2-0.5,2.6-1.5c0.8-1.4,0.3-3.3-1.1-4.1l-10.4-6c-1.4-0.8-3.3-0.3-4.1,1.1
		s-0.3,3.3,1.1,4.1l10.4,6C994.5,422.3,995,422.4,995.5,422.4"/>
	<path id="Fill-7_4_" class="st37" d="M953.9,398.4c1,0,2-0.5,2.6-1.5c0.8-1.4,0.3-3.3-1.1-4.1l-10.4-6c-1.4-0.8-3.3-0.3-4.1,1.1
		c-0.8,1.4-0.3,3.3,1.1,4.1l10.4,6C952.9,398.3,953.4,398.4,953.9,398.4"/>
	<path id="Fill-9_4_" class="st38" d="M912.3,374.5c1,0,2-0.5,2.6-1.5c0.8-1.4,0.3-3.3-1.1-4.1l-10.4-6c-1.4-0.8-3.3-0.3-4.1,1.1
		c-0.8,1.4-0.3,3.3,1.1,4.1l10.4,6C911.3,374.4,911.8,374.5,912.3,374.5"/>
	<path id="Fill-11_4_" class="st39" d="M870.8,350.6c1,0,2-0.5,2.6-1.5c0.8-1.4,0.3-3.3-1.1-4.1l-10.4-6c-1.4-0.8-3.3-0.3-4.1,1.1
		s-0.3,3.3,1.1,4.1l10.4,6C869.7,350.4,870.2,350.6,870.8,350.6"/>
	<path id="Fill-13_4_" class="st35" d="M829.2,326.6c1,0,2-0.5,2.6-1.5c0.8-1.4,0.3-3.3-1.1-4.1l-10.4-6c-1.4-0.8-3.3-0.3-4.1,1.1
		s-0.3,3.3,1.1,4.1l10.4,6C828.2,326.4,828.7,326.6,829.2,326.6"/>
	<g id="Group-17_3_" transform="translate(774.000000, 291.501748)">
		<path id="Fill-15_4_" class="st35" d="M13.6,11.2c1,0,2-0.5,2.6-1.5c0.8-1.4,0.3-3.3-1.1-4.1l-10.4-6C3.3-1.2,1.4-0.7,0.6,0.7
			S0.3,4,1.7,4.8l10.4,6C12.6,11,13.1,11.2,13.6,11.2"/>
	</g>
</g>
</svg>
