<?xml version="1.0" encoding="utf-8"?>
<!-- Generator: Adobe Illustrator 23.1.1, SVG Export Plug-In . SVG Version: 6.00 Build 0)  -->
<svg version="1.1" id="Layer_1" xmlns="http://www.w3.org/2000/svg" xmlns:xlink="http://www.w3.org/1999/xlink" x="0px" y="0px"
	 viewBox="0 0 1475 880" style="enable-background:new 0 0 1475 880;" xml:space="preserve">
<style type="text/css">
	.st0{opacity:0.1;fill:#5392FF;enable-background:new    ;}
	.st1{opacity:0.2;fill:#5392FF;enable-background:new    ;}
	.st2{opacity:0.5;fill:#5392FF;enable-background:new    ;}
	.st3{opacity:0.8;fill:#5392FF;enable-background:new    ;}
	.st4{fill:#5392FF;}
	.st5{fill:#DCDCDC;}
	.st6{opacity:0.1;fill:#DCDCDC;enable-background:new    ;}
	.st7{opacity:0.3;fill:#DCDCDC;enable-background:new    ;}
	.st8{opacity:0.6;fill:#DCDCDC;enable-background:new    ;}
	.st9{opacity:0.9;fill:#DCDCDC;enable-background:new    ;}
	.st10{fill:#565656;}
	.st11{fill:#A4A4A4;}
	.st12{fill:#8C8C8C;}
	.st13{opacity:0.3;enable-background:new    ;}
	.st14{opacity:0.2;fill:#565656;enable-background:new    ;}
	.st15{opacity:0.3;}
	.st16{opacity:0.2;enable-background:new    ;}
	.st17{fill:#408BFC;}
</style>
<g id="Group-18" transform="translate(0.000000, 432.000000)">
	<path id="Fill-1_1_" class="st0" d="M3,123.4c-1,0-2-0.5-2.6-1.5c-0.8-1.4-0.3-3.3,1.1-4.1l9.6-5.5c1.4-0.8,3.3-0.3,4.1,1.1
		s0.3,3.3-1.1,4.1L4.5,123C4,123.3,3.5,123.4,3,123.4"/>
	<path id="Path" class="st1" d="M55.5,125.3c-0.5,0-1-0.1-1.5-0.4l-11.4-6.5c-1.4-0.8-1.9-2.7-1.1-4.1c0.8-1.4,2.7-1.9,4.1-1.1
		l11.4,6.5c1.4,0.8,1.9,2.7,1.1,4.1C57.5,124.8,56.5,125.3,55.5,125.3"/>
	<path class="st2" d="M101.1,151.3c-0.5,0-1-0.1-1.5-0.4l-11.4-6.5c-1.4-0.8-1.9-2.7-1.1-4.1c0.8-1.4,2.7-1.9,4.1-1.1l11.4,6.5
		c1.4,0.8,1.9,2.7,1.1,4.1C103.1,150.8,102.1,151.3,101.1,151.3"/>
	<path id="Fill-5" class="st3" d="M124.5,156.9c-1,0-2-0.5-2.6-1.5c-0.8-1.4-0.3-3.3,1.1-4.1l10.4-6c1.4-0.8,3.3-0.3,4.1,1.1
		c0.8,1.4,0.3,3.3-1.1,4.1l-10.4,6C125.5,156.8,125,156.9,124.5,156.9"/>
	<path id="Fill-7_1_" class="st4" d="M166.1,132.9c-1,0-2-0.5-2.6-1.5c-0.8-1.4-0.3-3.3,1.1-4.1l10.4-6c1.4-0.8,3.3-0.3,4.1,1.1
		c0.8,1.4,0.3,3.3-1.1,4.1l-10.4,6C167.1,132.8,166.6,132.9,166.1,132.9"/>
	<path id="Fill-9_1_" class="st4" d="M207.7,108.9c-1,0-2-0.5-2.6-1.5c-0.8-1.4-0.3-3.3,1.1-4.1l10.4-6c1.4-0.8,3.3-0.3,4.1,1.1
		s0.3,3.3-1.1,4.1l-10.4,6C208.7,108.8,208.2,108.9,207.7,108.9"/>
	<path id="Fill-11_1_" class="st4" d="M249.2,85c-1,0-2-0.5-2.6-1.5c-0.8-1.4-0.3-3.3,1.1-4.1l10.4-6c1.4-0.8,3.3-0.3,4.1,1.1
		c0.8,1.4,0.3,3.3-1.1,4.1l-10.4,6C250.3,84.8,249.8,85,249.2,85"/>
	<path id="Fill-13_1_" class="st4" d="M290.8,61c-1,0-2-0.5-2.6-1.5c-0.8-1.4-0.3-3.3,1.1-4.1l10.4-6c1.4-0.8,3.3-0.3,4.1,1.1
		c0.8,1.4,0.3,3.3-1.1,4.1l-10.4,6C291.8,60.8,291.3,61,290.8,61"/>
	<g id="Group-17" transform="translate(329.000000, 24.833000)">
		<path id="Fill-15_1_" class="st4" d="M3.4,12.2c-1,0-2-0.5-2.6-1.5C0,9.3,0.5,7.4,1.9,6.6l10.4-6c1.4-0.8,3.3-0.3,4.1,1.1
			c0.8,1.4,0.3,3.3-1.1,4.1l-10.4,6C4.4,12,3.9,12.2,3.4,12.2"/>
	</g>
	<g id="Group-17_4_" transform="translate(373.000000, 0.833000)">
		<path id="Fill-15_5_" class="st4" d="M3.9,12.2c-1,0-2-0.5-2.6-1.5C0.5,9.3,1,7.4,2.4,6.6l10.4-6c1.4-0.8,3.3-0.3,4.1,1.1
			c0.8,1.4,0.3,3.3-1.1,4.1l-10.4,6C4.9,12,4.4,12.2,3.9,12.2"/>
	</g>
</g>
<g id="Group" transform="translate(435.000000, 433.000000)">
	<g id="Group-18-Copy" transform="translate(232.000000, 83.500000) scale(-1, 1) translate(-232.000000, -83.500000) ">
		<path class="st5" d="M80,122.4c-1,0-2-0.5-2.6-1.5c-0.8-1.4-0.3-3.3,1.1-4.1l9.6-5.5c1.4-0.8,3.3-0.3,4.1,1.1
			c0.8,1.4,0.3,3.3-1.1,4.1l-9.6,5.6C81,122.3,80.5,122.4,80,122.4"/>
		<path id="Path_1_" class="st5" d="M41.5,144.6c-1,0-2-0.5-2.6-1.5c-0.8-1.4-0.3-3.3,1.1-4.1l9.6-5.6c1.4-0.8,3.3-0.3,4.1,1.1
			s0.3,3.3-1.1,4.1l-9.6,5.5C42.5,144.5,42,144.6,41.5,144.6"/>
		<path id="Path_2_" class="st5" d="M3,166.8c-1,0-2-0.5-2.6-1.5c-0.8-1.4-0.3-3.3,1.1-4.1l9.6-5.6c1.4-0.8,3.3-0.3,4.1,1.1
			c0.8,1.4,0.3,3.3-1.1,4.1l-9.6,5.6C4,166.7,3.5,166.8,3,166.8"/>
		<path id="Path_3_" class="st5" d="M132.5,124.3c-0.5,0-1-0.1-1.5-0.4l-11.4-6.5c-1.4-0.8-1.9-2.7-1.1-4.1c0.8-1.4,2.7-1.9,4.1-1.1
			l11.4,6.5c1.4,0.8,1.9,2.7,1.1,4.1C134.5,123.8,133.5,124.3,132.5,124.3"/>
		<path id="Path_4_" class="st5" d="M178.1,150.3c-0.5,0-1-0.1-1.5-0.4l-11.4-6.5c-1.4-0.8-1.9-2.7-1.1-4.1c0.8-1.4,2.7-1.9,4.1-1.1
			l11.4,6.5c1.4,0.8,1.9,2.7,1.1,4.1C180.1,149.8,179.1,150.3,178.1,150.3"/>
		<path id="Fill-5_1_" class="st5" d="M201.5,155.9c-1,0-2-0.5-2.6-1.5c-0.8-1.4-0.3-3.3,1.1-4.1l10.4-6c1.4-0.8,3.3-0.3,4.1,1.1
			c0.8,1.4,0.3,3.3-1.1,4.1l-10.4,6C202.5,155.8,202,155.9,201.5,155.9"/>
		<path id="Fill-7_2_" class="st5" d="M243.1,131.9c-1,0-2-0.5-2.6-1.5c-0.8-1.4-0.3-3.3,1.1-4.1l10.4-6c1.4-0.8,3.3-0.3,4.1,1.1
			c0.8,1.4,0.3,3.3-1.1,4.1l-10.4,6C244.1,131.8,243.6,131.9,243.1,131.9"/>
		<path id="Fill-9_2_" class="st5" d="M284.7,107.9c-1,0-2-0.5-2.6-1.5c-0.8-1.4-0.3-3.3,1.1-4.1l10.4-6c1.4-0.8,3.3-0.3,4.1,1.1
			c0.8,1.4,0.3,3.3-1.1,4.1l-10.4,6C285.7,107.8,285.2,107.9,284.7,107.9"/>
		<path id="Fill-11_2_" class="st5" d="M326.2,84c-1,0-2-0.5-2.6-1.5c-0.8-1.4-0.3-3.3,1.1-4.1l10.4-6c1.4-0.8,3.3-0.3,4.1,1.1
			c0.8,1.4,0.3,3.3-1.1,4.1l-10.4,6C327.3,83.8,326.8,84,326.2,84"/>
		<path id="Fill-13_2_" class="st5" d="M367.8,60c-1,0-2-0.5-2.6-1.5c-0.8-1.4-0.3-3.3,1.1-4.1l10.4-6c1.4-0.8,3.3-0.3,4.1,1.1
			c0.8,1.4,0.3,3.3-1.1,4.1l-10.4,6C368.8,59.8,368.3,60,367.8,60"/>
		<g id="Group-17_1_" transform="translate(406.000000, 23.833000)">
			<path id="Fill-15_2_" class="st5" d="M3.4,12.2c-1,0-2-0.5-2.6-1.5C0,9.3,0.5,7.4,1.9,6.6l10.4-6c1.4-0.8,3.3-0.3,4.1,1.1
				c0.8,1.4,0.3,3.3-1.1,4.1l-10.4,6C4.4,12,3.9,12.2,3.4,12.2"/>
		</g>
		<g id="Group-17_5_" transform="translate(447.000000, 0.833000)">
			<path id="Fill-15_6_" class="st5" d="M3.6,12.2c-1,0-2-0.5-2.6-1.5C0.2,9.3,0.7,7.4,2.1,6.6l10.4-6c1.4-0.8,3.3-0.3,4.1,1.1
				c0.8,1.4,0.3,3.3-1.1,4.1l-10.4,6C4.6,12,4.1,12.2,3.6,12.2"/>
		</g>
	</g>
	
		<g id="Group-18-Copy-2" transform="translate(589.500000, 239.500000) scale(-1, 1) translate(-589.500000, -239.500000) translate(477.000000, 173.000000)">
		<path id="Fill-5_2_" class="st5" d="M3.5,132.9c-1,0-2-0.5-2.6-1.5c-0.8-1.4-0.3-3.3,1.1-4.1l10.4-6c1.4-0.8,3.3-0.3,4.1,1.1
			c0.8,1.4,0.3,3.3-1.1,4.1l-10.4,6C4.5,132.8,4,132.9,3.5,132.9"/>
		<path id="Fill-7_3_" class="st5" d="M45.1,108.9c-1,0-2-0.5-2.6-1.5c-0.8-1.4-0.3-3.3,1.1-4.1l10.4-6c1.4-0.8,3.3-0.3,4.1,1.1
			c0.8,1.4,0.3,3.3-1.1,4.1l-10.4,6C46.1,108.8,45.6,108.9,45.1,108.9"/>
		<path id="Fill-9_3_" class="st5" d="M86.7,84.9c-1,0-2-0.5-2.6-1.5c-0.8-1.4-0.3-3.3,1.1-4.1l10.4-6c1.4-0.8,3.3-0.3,4.1,1.1
			c0.8,1.4,0.3,3.3-1.1,4.1l-10.4,6C87.7,84.8,87.2,84.9,86.7,84.9"/>
		<path id="Fill-11_3_" class="st5" d="M128.2,61c-1,0-2-0.5-2.6-1.5c-0.8-1.4-0.3-3.3,1.1-4.1l10.4-6c1.4-0.8,3.3-0.3,4.1,1.1
			s0.3,3.3-1.1,4.1l-10.4,6C129.3,60.8,128.8,61,128.2,61"/>
		<path id="Fill-13_3_" class="st5" d="M169.8,37c-1,0-2-0.5-2.6-1.5c-0.8-1.4-0.3-3.3,1.1-4.1l10.4-6c1.4-0.8,3.3-0.3,4.1,1.1
			s0.3,3.3-1.1,4.1l-10.4,6C170.8,36.8,170.3,37,169.8,37"/>
		<g id="Group-17_2_" transform="translate(208.000000, 0.833000)">
			<path id="Fill-15_3_" class="st5" d="M3.4,12.2c-1,0-2-0.5-2.6-1.5C0,9.3,0.5,7.4,1.9,6.6l10.4-6c1.4-0.8,3.3-0.3,4.1,1.1
				c0.8,1.4,0.3,3.3-1.1,4.1l-10.4,6C4.4,12,3.9,12.2,3.4,12.2"/>
		</g>
	</g>
	<path id="Fill-5_3_" class="st6" d="M1036.5,446.9c1,0,2-0.5,2.6-1.5c0.8-1.4,0.3-3.3-1.1-4.1l-10.4-6c-1.4-0.8-3.3-0.3-4.1,1.1
		c-0.8,1.4-0.3,3.3,1.1,4.1l10.4,6C1035.5,446.8,1036,446.9,1036.5,446.9"/>
	<path id="Fill-7_4_" class="st7" d="M994.9,422.9c1,0,2-0.5,2.6-1.5c0.8-1.4,0.3-3.3-1.1-4.1l-10.4-6c-1.4-0.8-3.3-0.3-4.1,1.1
		c-0.8,1.4-0.3,3.3,1.1,4.1l10.4,6C993.9,422.8,994.4,422.9,994.9,422.9"/>
	<path id="Fill-9_4_" class="st8" d="M953.3,398.9c1,0,2-0.5,2.6-1.5c0.8-1.4,0.3-3.3-1.1-4.1l-10.4-6c-1.4-0.8-3.3-0.3-4.1,1.1
		s-0.3,3.3,1.1,4.1l10.4,6C952.3,398.8,952.8,398.9,953.3,398.9"/>
	<path id="Fill-11_4_" class="st9" d="M911.8,375c1,0,2-0.5,2.6-1.5c0.8-1.4,0.3-3.3-1.1-4.1l-10.4-6c-1.4-0.8-3.3-0.3-4.1,1.1
		s-0.3,3.3,1.1,4.1l10.4,6C910.7,374.8,911.2,375,911.8,375"/>
	<path id="Fill-13_4_" class="st5" d="M870.2,351c1,0,2-0.5,2.6-1.5c0.8-1.4,0.3-3.3-1.1-4.1l-10.4-6c-1.4-0.8-3.3-0.3-4.1,1.1
		s-0.3,3.3,1.1,4.1l10.4,6C869.2,350.8,869.7,351,870.2,351"/>
	<g id="Group-17_3_" transform="translate(815.000000, 314.833000)">
		<path id="Fill-15_4_" class="st5" d="M13.6,12.2c1,0,2-0.5,2.6-1.5c0.8-1.4,0.3-3.3-1.1-4.1l-10.4-6C3.3-0.2,1.4,0.3,0.6,1.7
			S0.3,5,1.7,5.8l10.4,6C12.6,12,13.1,12.2,13.6,12.2"/>
	</g>
</g>
<g transform="translate(324.000000, 238.000000) scale(-1, 1) translate(-324.000000, -238.000000) translate(250.000000, 85.000000)">
	<g>
		<g>
			<path class="st10" d="M67.5,56.3c-2.8-1.9-2-4.8-0.8-7c1-1.7,2.5-3,4.3-3.9c2.1-1,5.1-3.1,4.9-6.5c-0.3-5.3,4.9-4.3,4.9-4.3
				l9.4,8.2L67.5,56.3z"/>
			<g transform="translate(56.000000, 108.000000)">
				<path class="st11" d="M26.9,173.9c0.2-0.1,0.5-0.2,0.7-0.4l19.7-10c2.5-1.4,6.5-1.4,9,0s2.5,3.7,0,5.2l-9.4,6l-8.2,5.3
					c-0.2,0.1-0.4,0.2-0.5,0.3c-3.1,1.8-8.1,1.8-11.2,0C23.8,178.6,23.8,175.7,26.9,173.9z"/>
				<path class="st11" d="M2.6,160c0.2-0.1,0.5-0.2,0.7-0.4l19.7-10c2.5-1.4,6.5-1.4,9,0c2.5,1.4,2.5,3.7,0,5.2l-9.4,6l-8.2,5.3
					c-0.2,0.1-0.4,0.2-0.5,0.3c-3.1,1.8-8.1,1.8-11.2,0C-0.5,164.7-0.5,161.8,2.6,160z"/>
				<g transform="translate(0.000000, 141.000000)">
					<path class="st11" d="M0.2,19.7v1.8c0,1.2,0.8,2.3,2.3,3.2c3.1,1.8,8.1,1.8,11.2,0c0.2-0.1,0.4-0.2,0.5-0.3l8.2-5.3l9.4-6
						c1.2-0.7,1.9-1.7,1.9-2.6v-6c0-0.1,0-0.3,0-0.4C33.6,3,33,1.9,31.9,1.3c-2.4-1.4-6.2-1.4-8.7-0.1l0,0l-7.6,4.2l-14.3,12
						C0.7,18,0.2,18.8,0.2,19.7z"/>
					<path class="st11" d="M32,7.8c2.5-1.4,2.5-5.1,0-6.5s-6.5-1.4-9,0S20.5,5,23,6.5C25.5,7.9,29.5,9.3,32,7.8z"/>
				</g>
				<g transform="translate(24.000000, 155.000000)">
					<path class="st11" d="M0.6,19.7v1.8c0,1.2,0.8,2.3,2.3,3.2c3.1,1.8,8.1,1.8,11.2,0c0.2-0.1,0.4-0.2,0.5-0.3l8.2-5.3l9.4-6
						c1.2-0.7,1.9-1.7,1.9-2.6v-6c0-0.1,0-0.3,0-0.4C34,3,33.4,1.9,32.3,1.3c-2.4-1.4-6.2-1.4-8.7-0.1l0,0L16,5.4l-14.3,12
						C1,17.9,0.6,18.8,0.6,19.7z"/>
					<path class="st11" d="M32.3,7.8c2.5-1.4,2.5-5.1,0-6.5s-6.5-1.4-9,0s-2.5,3.7,0,5.2C25.8,7.9,29.8,9.2,32.3,7.8z"/>
				</g>
				<path class="st5" d="M47.7,151.1c2.1-1.2,5.6-1.2,7.7,0c1.1,0.6,1.6,1.4,1.6,2.2l0,0v6.3l0,0c0,0.8-0.5,1.6-1.6,2.2
					c-2.1,1.2-5.6,1.2-7.7,0c-1.1-0.6-1.6-1.4-1.6-2.2v-6.3C46.1,152.6,46.7,151.8,47.7,151.1z"/>
				<path class="st5" d="M23.4,137.1c2.1-1.2,5.6-1.2,7.7,0c1.1,0.6,1.6,1.4,1.6,2.2v6.3c0,0.8-0.5,1.6-1.6,2.2
					c-2.1,1.2-5.6,1.2-7.7,0c-1.1-0.6-1.6-1.4-1.6-2.2v-6.3C21.8,138.5,22.3,137.7,23.4,137.1z"/>
				<path class="st11" d="M49.2,164l1.5-1.4c0.6-0.5,0.6-1.4-0.1-1.9l-3.9-3.1c-0.4-0.3,0.5,0.3,0,0l0,0c-0.5-0.3-1.4-1.3-2.8-1.1
					c-0.6,0.1-1.2,0.4-1.6,0.9l-2.4,3l-14.3,12c-0.7,0.6-1.1,1.4-1.1,2.3v1.8"/>
				<path class="st11" d="M26.9,173.9c0.2-0.1,0.5-0.2,0.7-0.4l19.7-10c2.5-1.4,6.5-1.4,9,0s2.5,3.7,0,5.2l-9.4,6l-8.2,5.3
					c-0.2,0.1-0.4,0.2-0.5,0.3c-3.1,1.8-8.1,1.8-11.2,0C23.8,178.6,23.8,175.7,26.9,173.9z"/>
				<path class="st11" d="M2.6,160c0.2-0.1,0.5-0.2,0.7-0.4l19.7-10c2.5-1.4,6.5-1.4,9,0c2.5,1.4,2.5,3.7,0,5.2l-9.4,6l-8.2,5.3
					c-0.2,0.1-0.4,0.2-0.5,0.3c-3.1,1.8-8.1,1.8-11.2,0C-0.5,164.7-0.5,161.8,2.6,160z"/>
				<g transform="translate(0.000000, 141.000000)">
					<path class="st5" d="M0.2,19.7v1.8c0,1.2,0.8,2.3,2.3,3.2c3.1,1.8,8.1,1.8,11.2,0c0.2-0.1,0.4-0.2,0.5-0.3l8.2-5.3l9.4-6
						c1.2-0.7,1.9-1.7,1.9-2.6v-6c0-0.1,0-0.3,0-0.4C33.6,3,33,1.9,31.9,1.3c-2.4-1.4-6.2-1.4-8.7-0.1l0,0l-7.6,4.2l-14.3,12
						C0.7,18,0.2,18.8,0.2,19.7z"/>
					<path class="st11" d="M32,7.8c2.5-1.4,2.5-5.1,0-6.5s-6.5-1.4-9,0S20.5,5,23,6.5C25.5,7.9,29.5,9.3,32,7.8z"/>
				</g>
				<g transform="translate(24.000000, 155.000000)">
					<path class="st5" d="M0.6,19.7v1.8c0,1.2,0.8,2.3,2.3,3.2c3.1,1.8,8.1,1.8,11.2,0c0.2-0.1,0.4-0.2,0.5-0.3l8.2-5.3l9.4-6
						c1.2-0.7,1.9-1.7,1.9-2.6v-6c0-0.1,0-0.3,0-0.4C34,3,33.4,1.9,32.3,1.3c-2.4-1.4-6.2-1.4-8.7-0.1l0,0L16,5.4l-14.3,12
						C1,17.9,0.6,18.8,0.6,19.7z"/>
					<path class="st11" d="M32.3,7.8c2.5-1.4,2.5-5.1,0-6.5s-6.5-1.4-9,0s-2.5,3.7,0,5.2C25.8,7.9,29.8,9.2,32.3,7.8z"/>
				</g>
				<path class="st12" d="M47.7,151.1c2.1-1.2,5.6-1.2,7.7,0c1.1,0.6,1.6,1.4,1.6,2.2l0,0v6.3l0,0c0,0.8-0.5,1.6-1.6,2.2
					c-2.1,1.2-5.6,1.2-7.7,0c-1.1-0.6-1.6-1.4-1.6-2.2v-6.3C46.1,152.6,46.7,151.8,47.7,151.1z"/>
				<path class="st12" d="M23.4,137.1c2.1-1.2,5.6-1.2,7.7,0c1.1,0.6,1.6,1.4,1.6,2.2v6.3c0,0.8-0.5,1.6-1.6,2.2
					c-2.1,1.2-5.6,1.2-7.7,0c-1.1-0.6-1.6-1.4-1.6-2.2v-6.3C21.8,138.5,22.3,137.7,23.4,137.1z"/>
				<path class="st5" d="M49.2,164l1.5-1.4c0.6-0.5,0.6-1.4-0.1-1.9l-3.9-3.1c-0.4-0.3,0.5,0.3,0,0l0,0c-0.5-0.3-1.4-1.3-2.8-1.1
					c-0.6,0.1-1.2,0.4-1.6,0.9l-2.4,3l-14.3,12c-0.7,0.6-1.1,1.4-1.1,2.3v1.8"/>
				<path class="st5" d="M24.9,150.1l1.5-1.4c0.6-0.5,0.6-1.4-0.1-1.9l-3.9-3.1c-0.4-0.3,0.5,0.3,0,0l0,0c-0.5-0.3-1.4-1.3-2.8-1.1
					c-0.6,0.1-1.2,0.4-1.6,0.9l-2.4,3l-14.3,12c-0.7,0.6-1.1,1.4-1.1,2.3v1.8"/>
				<path class="st11" d="M33.6,139.6c1.7-1,2.5-2.2,2.5-3.5c6.4-16.7,1.2-73.1,1.2-73.1l0,0l7.3-51.2c0.1-0.3,0.1-0.6,0.1-0.8l0,0
					l0,0c0.2-2.7-1.5-5.4-5-7.4c-6.7-3.9-17.6-3.9-24.3,0c-3.5,2-5.3,19.7-5.2,22.3l0,0l0,0c0,0,0,0,0,0.1l3.3,62.7l5.4,46.3
					c0,2.3,0.8,3.6,2.5,4.5C24.8,141.6,30.3,141.6,33.6,139.6c1.5-0.9,2.3-2,2.5-3.1l0,0v-0.1c0-0.2,0-0.4,0-0.6"/>
				<path class="st11" d="M34.4,25.2c0-0.1,0-0.2,0-0.3v-0.1l0,0c-0.1-2.6,1.6-5.2,5-7.2c6.7-3.9,17.6-3.9,24.3,0
					c3.8,2.2,5.4,5.2,4.9,8l-7.5,73.3c0,0,5.4,34.5-1,51.2c0,1.3-0.8,2.5-2.5,3.5c-3.4,1.9-8.8,1.9-12.2,0c-1.7-1-2.5-2.2-2.5-3.5
					l0,0L37,101.9l-3.9-39.1"/>
			</g>
			<path class="st12" d="M63,122.5c0,0-3.2,13.1,2.3,14.6c3,0.8,3.9-1.9,3.9-1.9L69,123.9c-2.1,0.5-3.3,0.2-4.7-0.4
				C63.3,122.9,63,122.5,63,122.5L61.6,85"/>
			<path class="st12" d="M69,123.8l2.3-39.1c0,0-5.2,2.2-9.7,0.2l1.4,37.5C63,122.5,65.6,124.8,69,123.8z"/>
			<path class="st5" d="M124.7,97.5l-1.3,17.9l1.4,17.8l0,0c0,4.3-2.9,11.2-8.7,14.5c-11.5,6.6-30.1,4.6-41.5-2
				c-5.7-3.3-8.6-7.7-8.6-12l3.4-24.4l-1-26.6"/>
			<path class="st5" d="M118.9,99.4c0,0.1,0,4.6,0,4.7c0,5.5,8.9,8.6,14.5,5.6c0,0,3.9-1.8,3.9-8.1V88c-0.8-9.1-1.5-19.2-30.6-41.1
				l0,0l0,0l-18.6-4.2l0,0c-13.9,4.2-28.8,10.8-29.4,26.8L58.4,77c-0.1,3.1,0,6.7,2.8,8c1.4,0.7,5,1.3,7.1,0.8"/>
			<path class="st12" d="M87.8,43c0.2-0.1,0.3-0.2,0.5-0.2V16.6c0-1.2,0.8-2.3,2.3-3.2c3.1-1.8,8-1.8,11,0c1.5,0.9,2.3,2,2.3,3.2
				v24.6c0,0,0,2.1,2.3,4.5l0,0c2.2,2.2,1.5,4.5-2.1,6.6c-4.5,2.6-11.8,5.7-16.3,3.1C83.2,52.9,83.2,45.6,87.8,43z"/>
			<path class="st12" d="M95.9,2.6c9.6,0,17.4,7.8,17.4,17.4v10.7c0,9.6-7.8,17.4-17.4,17.4s-17.4-7.8-17.4-17.4V20.1
				C78.4,10.4,86.2,2.6,95.9,2.6z"/>
			<path class="st11" d="M68.4,82.7l1,26.6"/>
			<polygon class="st11" points="56,145.4 50.2,76.5 27.2,56.1 33,124.8 			"/>
			<polygon class="st11" points="27.2,56.1 33,124.8 9.4,112.5 3.6,43.5 			"/>
			<polygon class="st11" points="76.4,85.5 50.2,76.5 56,145.4 82.3,154.4 			"/>
			<path class="st12" d="M134.3,122.4l1-14.4l0,0c-4.1,4.5-12.6,2.6-15-0.6l0,0v8.8"/>
			<g transform="translate(77.000000, 0.000000)">
				<path class="st10" d="M2.5,9.4c3.8-4.9,11.3-8.7,17.3-8.7c1.6,0.1,3.1,0.4,4.5,0.7c7.4-1,20,0,21,18.4v7.1
					c0,3.1,0.4,6.2,1.2,9.1s2.9,5.3,5.7,6.4c3.6,1.4,6,4.9,6,8.8c0,2.2-1.3,7.3,2.2,8.4C75.5,63.5,72.6,96,60.5,96v-3.9l0,0V88
					c-0.8-9-1.5-19.1-30.2-40.8l0,0c-0.2-0.5-0.5-1-1-1.4l0,0c-0.2-0.2-0.3-0.4-0.5-0.6l0,0c4.5-3.1,7.4-8.1,7.6-13.9
					c-2,0.8-5.9,1.2-5.9-4.8c0-5.2-1.4-7.5-3.5-8.2c-2.1-0.7-5,0-8.2,0.8c-2.4,0.6-4.9,1.3-7.5,1.6c-0.7,0.1-1.5,0.1-2.2,0.1
					c-0.9,0-5.8-0.3-7.6-2c-0.4-0.4-0.7-0.8-0.7-1.4v-3.2C0.8,12.5,1.4,10.8,2.5,9.4z"/>
				<g transform="translate(24.000000, 1.000000)">
					<path class="st10" d="M11.9,10.3c0.9,2.1,1.4,4.5,1.4,6.9"/>
					<path class="st10" d="M0.2,0.4c1,0.2,1.9,0.5,2.7,0.9c4,1.8,7.2,5,8.9,9"/>
				</g>
			</g>
			<path class="st13" d="M69.1,149.9l13.2,4.5L82,151l-0.2-2.2c0.7,0.2,1.4,0.4,2.1,0.7c1.9,0.6,3.9,1,6,1.4
				c1.4,0.2,2.8,0.4,4.3,0.5c0.7,0.1,1.3,0.1,2,0.1c0.7,0,1.3,0.1,2,0.1c6.6,0.1,13-1.2,18-4.1c2.4-1.4,4.3-3.4,5.7-5.6
				c1.3-2.1,2.2-4.3,2.7-6.3l-0.4,4.2c-0.2,2.2-1.1,4.2-2.6,5.9l0,0c-1.2,1.4-2.7,2.6-4.3,3.5c-5.3,3-11.8,4.4-18.4,4.4
				c-0.3,0-0.6,0-0.9,0c-0.7,0-1.3,0-2-0.1c-0.7,0-1.3-0.1-2-0.1c-1.4-0.1-2.7-0.3-4-0.5c-1.9-0.3-3.9-0.8-5.7-1.3l0.5,5.6L69.4,152
				l0,0c-1.2-0.4-2.1-1.5-2.2-2.8l0,0L69.1,149.9z"/>
			<path class="st13" d="M134.3,122.4v-0.7C134.4,122,134.4,122.2,134.3,122.4z"/>
			<path class="st13" d="M135.3,108.1c-3.1,3.4-8.7,3.3-12.6,1.3c-1.9-0.9-3.5-2.6-3.8-4.8c-0.2-1.7,0-3.5,0-5.3c-2.4,0-2,2.8-2,4.4
				c0,1.2,0.2,2.4,0.8,3.5c0.1,0.3,0.3,0.5,0.4,0.8c0.1,0.2,0.1,0.4,0.1,0.6c0,1.5,0,3,0,4.4c0,0.4-0.2,1.5,0.1,1.7
				c0.3,0.3,1.5,0.2,1.9,0.2c0-1.6,0-3.1,0-4.7c3.2,2.4,7.4,3.1,11.3,2.2c0,0,0.1,0,0.2,0C133.7,111.9,135.2,110.1,135.3,108.1
				L135.3,108.1z"/>
			<polygon class="st14" points="6.2,81.1 7.1,79.4 29,90 26.1,55.6 27.2,56.1 28.2,57.1 31.1,91.2 52.1,110.6 49.1,75.6 50.2,76.5 
				51.2,76.9 54.2,112.3 79.7,120.1 79.2,122.1 54.4,114.4 57,145.8 56,145.4 54.9,144.4 52.3,113.5 31.4,94.2 34,125.8 33,124.8 
				31.9,124.3 29.2,92.3 			"/>
			<path class="st12" d="M80,121.6c2.6-0.7,4.9,0.4,7.1,0.3c0.5,0,1,0,1.5,0.1l37,7c3.7,0.6,8.2-3.5,8.7-6.6l0,0
				c0.5-3.3-3.4-6.4-7.3-6.8l-38.9-4c0,0,0.1,0,0,0c-3-1.7-6.9-3.3-8.3-3.5c-4-0.5-10.2,0.7-11.7,5.1C64.5,124,80,121.6,80,121.6z"
				/>
			<path class="st12" d="M3.7,87l2.5,1.4c1.3,0.7,3,0.4,3.8-0.9l0,0c1.4-2.1,2.3-5.8,1.9-8.3l0,0c-0.3-1.6-1.6-3.7-3.1-4.5l-2.2-1.3
				c-2.5-1.5-5.7,0.3-5.7,3.3V82C0.9,84.1,1.9,86,3.7,87z"/>
			<g transform="translate(67.000000, 115.000000)" class="st15">
				<path class="st16" d="M1.2,3.8c0.7,1.6,3,2.4,4.6,2.7c2,0.4,4.2,0.4,6.3,0.2c0.8-0.1,1.5-0.3,2.2-0.3c1.2-0.1,2.3,0.1,3.4,0.3
					c1.4,0.2,2.8,0.1,4.2,0.4c1,0.2,2,0.4,3,0.6c1.6,0.3,3.2,0.6,4.8,0.9c6.8,1.3,13.6,2.6,20.5,3.9c1.3,0.2,2.6,0.5,3.9,0.7
					c0.9,0.2,2.4,0.5,3.3,0.6l0.2,2.1c-7.3-1.4-14.6-2.8-21.8-4.1c-2.6-0.5-5.2-1-7.8-1.5l-5.6-1.1c-0.9-0.2-1.9-0.3-2.9-0.3
					c-1.7,0-3.3-0.5-4.9-0.5l2,23.9l0.2,2.2c-0.7-0.2-1.4-0.4-2.1-0.7l-0.2-2.2l-2-23l0,0l0,0c-2,0.3-4.2,0.4-6.3,0
					C2.8,8.1,0.3,5.2,0.3,1.7V1.6c0-0.5,0,0,0-0.5C1,2,0.9,3,1.2,3.8z"/>
				<path class="st16" d="M0.6,1.3c0,0.2,0,0.3,0,0.3S0.6,1.4,0.6,1.3z"/>
			</g>
		</g>
		<path class="st13" d="M90.1,244.3L90.1,244.3c0-0.1,0-0.2,0-0.2v-0.3l0.1-0.2l0.4-1c1.3-4,2-9.9,2.4-16.6l-1.9-15.7l-3.7-37.1
			c-0.1-1.1,0.7-2.1,1.8-2.2l0,0l3.9,39.1l0.2,2l1.7,13.7c-0.2,3.4-0.5,6.6-0.9,9.4c-0.5,3.6-1.1,6.6-2,8.9c0,0.1,0,0.2,0,0.3l0,0
			l0,0c0,0.1,0,0.3-0.1,0.4l0,0c0,0.1-0.1,0.2-0.1,0.4c0,0,0,0,0,0.1c-0.1,0.1-0.1,0.2-0.2,0.3c0,0,0,0.1-0.1,0.1
			c-0.1,0.1-0.1,0.2-0.2,0.3c0,0,0,0.1-0.1,0.1c-0.1,0.1-0.2,0.2-0.3,0.3l-0.1,0.1c-0.1,0.1-0.2,0.2-0.3,0.3c0,0,0,0-0.1,0
			c-0.3,0.2-0.6,0.5-1,0.7l0,0l0,0c-0.5-0.9-0.4-1.9,0.2-2.8C90,244.7,90.1,244.5,90.1,244.3z"/>
		<path class="st13" d="M105.7,45.2c0.2,0.2,0.3,0.4,0.5,0.6l0,0c0.3,0.3,0.6,0.6,0.7,0.9c-3.1,2.2-7,3.5-11.1,3.5
			c-4.1,0-7.9-1.3-11.1-3.5c0.2-0.6,0.5-1.3,0.9-1.8c2.9,2.1,6.4,3.3,10.2,3.3C99.5,48.2,102.9,47.1,105.7,45.2z"/>
	</g>
</g>
<path id="Shape" class="st17" d="M299,39.6V27c4.6-0.2,8.2-1.2,10.8-3c2.6-1.8,3.9-4.5,3.9-8.1v-1.1c0-3-0.9-5.2-2.7-6.7
	s-4.2-2.2-7.3-2.2c-3.2,0-5.8,0.9-7.7,2.6c-1.9,1.8-3.3,4-4,6.7l-6-2.2c0.5-1.8,1.3-3.4,2.2-5c1-1.6,2.2-2.9,3.6-4.1
	c1.5-1.2,3.2-2.1,5.2-2.8s4.3-1,6.8-1s4.9,0.4,6.9,1.1c2.1,0.7,3.8,1.7,5.2,3s2.6,2.9,3.4,4.8c0.8,1.9,1.2,3.9,1.2,6.2
	c0,2.5-0.5,4.7-1.4,6.6c-0.9,1.9-2.1,3.5-3.5,4.8c-1.4,1.3-3.1,2.4-4.9,3.2c-1.8,0.8-3.7,1.4-5.6,1.7v8.1H299z M302.4,57.5
	c-2.2,0-3.7-0.5-4.6-1.4c-0.9-0.9-1.3-2.1-1.3-3.4v-1.4c0-1.4,0.4-2.5,1.3-3.4c0.9-0.9,2.4-1.4,4.6-1.4c2.2,0,3.7,0.5,4.6,1.4
	c0.9,0.9,1.3,2.1,1.3,3.4v1.4c0,1.4-0.4,2.5-1.3,3.4C306.1,57.1,304.6,57.5,302.4,57.5z"/>
</svg>
