<svg xmlns="http://www.w3.org/2000/svg" xmlns:xlink="http://www.w3.org/1999/xlink" width="80" height="80" viewBox="0 0 80 80"><defs><style>.a{fill:none;}.b{opacity:0.25;}.c{fill:url(#a);}.d{fill:url(#b);}.e{fill:url(#c);}.f{fill:#262626;}.g{fill:#6f6f6f;}.h{fill:#525252;}</style><linearGradient id="a" x1="11.12" y1="43.34" x2="40" y2="43.34" gradientUnits="userSpaceOnUse"><stop offset="0" stop-color="#393939"/><stop offset="1" stop-color="#262626"/></linearGradient><linearGradient id="b" x1="40" y1="43.34" x2="68.88" y2="43.34" gradientUnits="userSpaceOnUse"><stop offset="0" stop-color="#161616"/><stop offset="1" stop-color="#262626"/></linearGradient><linearGradient id="c" x1="32.78" y1="30.83" x2="47.22" y2="5.83" gradientUnits="userSpaceOnUse"><stop offset="0" stop-color="#525252"/><stop offset="1" stop-color="#393939"/></linearGradient></defs><rect class="a" width="80" height="80"/><polygon class="b" points="40 78.34 11.13 61.67 40 45.01 68.86 61.67 40 78.34"/><polygon class="c" points="40 68.35 11.12 51.68 11.13 18.33 40 34.99 40 68.35"/><polygon class="d" points="68.88 51.68 40 68.35 40 34.99 68.87 18.33 68.88 51.68"/><polygon class="e" points="40 34.99 11.13 18.33 40 1.66 68.87 18.33 40 34.99"/><polygon class="f" points="25.97 26.67 54.64 10.12 54.22 9.88 25.54 26.44 25.97 26.67"/><polygon class="g" points="40 35.24 11.13 18.57 11.13 18.33 11.34 18.21 40.21 34.88 40 34.99 40 35.24"/><polygon class="h" points="21.49 33.33 13.29 28.6 13.3 22.91 21.49 27.65 21.49 33.33"/></svg>