<svg xmlns="http://www.w3.org/2000/svg" xmlns:xlink="http://www.w3.org/1999/xlink" width="80" height="80" viewBox="0 0 80 80"><defs><style>.a{fill:none;}.b{opacity:0.25;}.c{fill:url(#a);}.d{fill:url(#b);}.e{fill:url(#c);}.f{fill:url(#d);}.g{fill:url(#e);}.h{fill:#6f6f6f;}</style><linearGradient id="a" x1="17.33" y1="40.68" x2="53.57" y2="19.76" gradientUnits="userSpaceOnUse"><stop offset="0" stop-color="#525252"/><stop offset="1" stop-color="#393939"/></linearGradient><linearGradient id="b" x1="37.21" y1="61.49" x2="71.41" y2="41.74" gradientUnits="userSpaceOnUse"><stop offset="0" stop-color="#262626"/><stop offset="1" stop-color="#393939"/></linearGradient><linearGradient id="c" x1="39.97" y1="32.38" x2="39.97" y2="1.64" xlink:href="#b"/><linearGradient id="d" x1="24.58" y1="44.68" x2="51.62" y2="44.68" gradientUnits="userSpaceOnUse"><stop offset="0" stop-color="#393939"/><stop offset="1" stop-color="#262626"/></linearGradient><linearGradient id="e" x1="32.72" y1="45.46" x2="38.82" y2="41.94" gradientUnits="userSpaceOnUse"><stop offset="0" stop-color="#262626"/><stop offset="1" stop-color="#161616"/></linearGradient></defs><rect class="a" width="80" height="80"/><polygon class="b" points="20.28 60.39 30.55 54.45 61.35 72.24 51.09 78.17 20.28 60.39"/><path class="c" d="M61.16,32.9a1.44,1.44,0,0,0-.5-.51l-1.1-.64L31.08,15.31a.52.52,0,0,0-.5-.06L20.47,21.08c-.11.07,2.16,28.77,2.16,28.77l4.3,2.79L61.26,33.1A1.24,1.24,0,0,0,61.16,32.9Z"/><path class="d" d="M61.16,62.45a.5.5,0,0,0,.23-.48V33.64a1.38,1.38,0,0,0-.13-.54L26.93,52.64,51.05,68.28Z"/><path class="e" d="M46.88,31.4a.85.85,0,0,0,.5.69,2.69,2.69,0,0,0,2.41,0,.85.85,0,0,0,.49-.7h0V18.27c0-5.39-4.15-12-9.46-15.07-3-1.76-6-2-8.22-.78-1.9,1.09-3,3.19-3,5.89V21.5a.85.85,0,0,0,.5.7,2.67,2.67,0,0,0,2.4,0,.87.87,0,0,0,.5-.7V8.31A3.29,3.29,0,0,1,34.3,5.36c1.08-.62,2.88-.33,4.82.79,4.21,2.43,7.76,8,7.76,12.12Z"/><path class="f" d="M50.56,38.22l-1.1-.63L21,21.14a.44.44,0,0,0-.72.42V49.89a1.49,1.49,0,0,0,.23.74,1.42,1.42,0,0,0,.49.51L49.46,67.59l1.1.63a.5.5,0,0,0,.49.06.49.49,0,0,0,.23-.47V39.47a1.61,1.61,0,0,0-.72-1.25Z"/><path class="g" d="M38,41.63a5,5,0,0,0-2.25-3.9c-1.25-.72-2.26-.13-2.26,1.3a4.73,4.73,0,0,0,.84,2.5l-.84,5.31L38,49.44l-.84-6.27A1.48,1.48,0,0,0,38,41.63Z"/><path class="h" d="M51.41,38.51a1.9,1.9,0,0,0-.64-.65l-1.1-.63L21.18,20.78l-.1-.05-.61.35h0a.33.33,0,0,1,.17,0,.6.6,0,0,1,.32.1L49.46,37.59l1.1.63a1.5,1.5,0,0,1,.49.51s.05.09.08.14l.36-.21Z"/></svg>