<svg xmlns="http://www.w3.org/2000/svg" xmlns:xlink="http://www.w3.org/1999/xlink" width="80" height="80" viewBox="0 0 80 80"><defs><style>.a{fill:none;}.b{opacity:0.25;}.c{fill:url(#a);}.d{fill:url(#b);}.e{fill:url(#c);}.f{fill:#525252;}</style><linearGradient id="a" x1="38.9" y1="77.08" x2="38.9" y2="8.15" gradientUnits="userSpaceOnUse"><stop offset="0" stop-color="#262626"/><stop offset="1" stop-color="#393939"/></linearGradient><linearGradient id="b" x1="12.43" y1="10.8" x2="76.33" y2="47.7" gradientUnits="userSpaceOnUse"><stop offset="0" stop-color="#525252"/><stop offset="0.52" stop-color="#393939"/><stop offset="0.61" stop-color="#393939"/><stop offset="0.99" stop-color="#161616"/></linearGradient><linearGradient id="c" x1="39.38" y1="31.37" x2="52.04" y2="9.45" gradientUnits="userSpaceOnUse"><stop offset="0.11" stop-color="#6f6f6f" stop-opacity="0"/><stop offset="0.94" stop-color="#6f6f6f"/></linearGradient></defs><rect class="a" width="80" height="80"/><polygon class="b" points="59.91 78.34 16.91 53.51 21.77 50.7 64.77 75.53 59.91 78.34"/><path class="c" d="M39,6.92c12.15,7,22,24,21.92,38S51,64.49,38.83,57.48s-22-24-21.92-38S26.83-.09,39,6.92Z"/><path class="d" d="M42.85,4.68C36.74,1.15,31.2.82,27.2,3.15L23.54,5.28C27.52,3.08,33,3.45,39,6.92c12.15,7,22,24,21.92,38,0,6.77-2.35,11.58-6.13,13.94l-.07,0c-.32.2,3.66-2.1,3.66-2.1,4-2.3,6.39-7.18,6.41-14.12C64.81,28.7,55,11.69,42.85,4.68Z"/><path class="e" d="M29.11,3.91v.36a19.59,19.59,0,0,1,9.68,3c12,6.94,21.78,23.84,21.74,37.65,0,9.4-4.56,15.23-11.83,15.23a19.54,19.54,0,0,1-9.68-3C27,50.21,17.24,33.32,17.28,19.5c0-9.39,4.56-15.23,11.83-15.23V3.91m0,0c-7.21,0-12.17,5.71-12.2,15.59,0,14,9.77,31,21.92,38a20.12,20.12,0,0,0,9.87,3c7.21,0,12.17-5.71,12.2-15.6,0-13.95-9.77-30.95-21.92-38a20,20,0,0,0-9.87-3Z"/><path class="f" d="M38.93,49.79a6.9,6.9,0,0,1-2.66-2.51,6.11,6.11,0,0,1-.81-3v-1a2.26,2.26,0,0,1,.81-2c.54-.35,1.43-.17,2.66.54a6.71,6.71,0,0,1,2.61,2.5,6.06,6.06,0,0,1,.81,3v1a2.24,2.24,0,0,1-.81,2.05C41,50.66,40.13,50.49,38.93,49.79ZM37.77,38.16,36,22.77V13l5.81,3.36v9.73L40.17,39.55Z"/></svg>