<svg xmlns="http://www.w3.org/2000/svg" xmlns:xlink="http://www.w3.org/1999/xlink" width="80" height="80" viewBox="0 0 80 80"><defs><style>.a{fill:none;}.b{opacity:0.25;}.c{fill:url(#a);}.d{fill:url(#b);}.e{fill:url(#c);}.f{fill:#525252;}.g{fill:url(#d);}</style><linearGradient id="a" x1="30.05" y1="54.31" x2="35.5" y2="54.31" gradientUnits="userSpaceOnUse"><stop offset="0" stop-color="#161616"/><stop offset="1" stop-color="#262626"/></linearGradient><linearGradient id="b" x1="28.61" y1="-3.97" x2="70.69" y2="68.92" gradientUnits="userSpaceOnUse"><stop offset="0" stop-color="#525252"/><stop offset="0.52" stop-color="#393939"/><stop offset="0.61" stop-color="#393939"/><stop offset="1" stop-color="#161616"/></linearGradient><linearGradient id="c" x1="38.01" y1="69.51" x2="38.01" y2="-0.42" gradientUnits="userSpaceOnUse"><stop offset="0" stop-color="#262626"/><stop offset="1" stop-color="#393939"/></linearGradient><linearGradient id="d" x1="15.14" y1="5.72" x2="63.06" y2="33.52" gradientUnits="userSpaceOnUse"><stop offset="0.78" stop-color="#6f6f6f"/><stop offset="0.81" stop-color="#6c6c6c" stop-opacity="0.96"/><stop offset="0.85" stop-color="#636363" stop-opacity="0.84"/><stop offset="0.89" stop-color="#545454" stop-opacity="0.64"/><stop offset="0.93" stop-color="#404040" stop-opacity="0.35"/><stop offset="0.97" stop-color="#262626" stop-opacity="0"/></linearGradient></defs><rect class="a" width="80" height="80"/><polygon class="b" points="15.13 52.11 60.63 78.39 64.88 75.88 19.4 49.63 15.13 52.11"/><path class="c" d="M32.66,52.85l-2.25,4.22a1.08,1.08,0,0,1-.36.35l2.83-1.65a1.08,1.08,0,0,0,.36-.35L35.5,51.2Z"/><path class="d" d="M63.45,26.58,20.63,1.86a1,1,0,0,0-1-.1l-4,2.3a1,1,0,0,1,1,.1L59.48,28.88a3.17,3.17,0,0,1,1.42,2.47l-.1,36.08a1,1,0,0,1-.42.91l4-2.3a1,1,0,0,0,.42-.91L64.88,29A3.14,3.14,0,0,0,63.45,26.58Z"/><path class="e" d="M59.48,28.88a3.17,3.17,0,0,1,1.42,2.47l-.1,36.08c0,.9-.65,1.26-1.42.81l-26.7-15.4-2.26,4.22a.9.9,0,0,1-1.33.28,3.07,3.07,0,0,1-1.22-1.53l-2.33-7.09-9-5.2a3.15,3.15,0,0,1-1.43-2.46L15.23,5c0-.9.64-1.27,1.43-.81Z"/><polygon class="f" points="57.99 37.07 57.98 40.97 18.03 17.9 18.04 14 57.99 37.07"/><polygon class="f" points="57.99 45.11 57.98 49.02 18.03 25.95 18.04 22.05 57.99 45.11"/><polygon class="f" points="44.62 45.04 44.61 48.94 18.03 33.6 18.04 29.7 44.62 45.04"/><path class="g" d="M60.76,30.55a2.54,2.54,0,0,1,.14.8V35.3l.41-.13,0-3.82a3.54,3.54,0,0,0-1.63-2.82L16.86,3.8a2.09,2.09,0,0,0-.44-.19l-.78.45h0A1,1,0,0,1,15.85,4h0L16,4h.1l.23,0,0,0,.27.12L38.07,16.52,59.48,28.88A3.19,3.19,0,0,1,60.76,30.55Z"/></svg>