<svg xmlns="http://www.w3.org/2000/svg" xmlns:xlink="http://www.w3.org/1999/xlink" width="80" height="80" viewBox="0 0 80 80"><defs><style>.a{fill:none;}.b{fill:url(#a);}.c{fill:url(#b);}.d{fill:url(#c);}.e{fill:url(#d);}.f{fill:url(#e);}</style><linearGradient id="a" x1="29.96" y1="45.68" x2="53.15" y2="85.84" gradientUnits="userSpaceOnUse"><stop offset="0" stop-color="#525252" stop-opacity="0.05"/><stop offset="1" stop-opacity="0.1"/></linearGradient><linearGradient id="b" x1="38.9" y1="52.59" x2="38.9" y2="3.3" gradientUnits="userSpaceOnUse"><stop offset="0" stop-color="#c6c6c6"/><stop offset="0.78" stop-color="#e0e0e0"/></linearGradient><linearGradient id="c" x1="18.07" y1="14.06" x2="71.64" y2="44.99" gradientUnits="userSpaceOnUse"><stop offset="0" stop-color="#e0e0e0"/><stop offset="0.13" stop-color="#f4f4f4"/><stop offset="0.56" stop-color="#e0e0e0"/><stop offset="0.62" stop-color="#d8d8d8"/><stop offset="0.7" stop-color="#c6c6c6"/><stop offset="0.89" stop-color="#a8a8a8"/><stop offset="1" stop-color="#8d8d8d"/></linearGradient><linearGradient id="d" x1="27.94" y1="51.19" x2="49.87" y2="13.21" gradientUnits="userSpaceOnUse"><stop offset="0.54" stop-color="#d0d0d0" stop-opacity="0"/><stop offset="0.82" stop-color="#f1f1f1" stop-opacity="0.7"/><stop offset="0.94" stop-color="#fff"/></linearGradient><linearGradient id="e" x1="28.66" y1="26.33" x2="47.15" y2="37" gradientUnits="userSpaceOnUse"><stop offset="0" stop-color="#fff"/><stop offset="0.05" stop-color="#fdfdfd"/><stop offset="0.3" stop-color="#f6f6f6"/><stop offset="1" stop-color="#f4f4f4"/></linearGradient></defs><rect class="a" width="80" height="80"/><polygon class="b" points="59.91 78.34 16.91 53.51 21.77 50.7 64.77 75.53 59.91 78.34"/><path class="c" d="M39,6.92c12.15,7,22,24,21.92,38S51,64.49,38.83,57.48s-22-24-21.92-38S26.83-.09,39,6.92Z"/><path class="d" d="M42.85,4.68C36.74,1.15,31.2.82,27.2,3.15L23.54,5.28C27.52,3.08,33,3.45,39,6.92c12.15,7,22,24,21.92,38,0,6.77-2.35,11.58-6.13,13.94l-.07,0c-.32.2,3.66-2.1,3.66-2.1,4-2.3,6.39-7.18,6.41-14.12C64.81,28.7,55,11.69,42.85,4.68Z"/><path class="e" d="M29.11,3.91v.36a19.59,19.59,0,0,1,9.68,3c12,6.94,21.78,23.84,21.74,37.65,0,9.4-4.56,15.23-11.83,15.23a19.54,19.54,0,0,1-9.68-3C27,50.21,17.24,33.32,17.28,19.5c0-9.39,4.56-15.23,11.83-15.23V3.91m0,0c-7.21,0-12.17,5.71-12.2,15.59,0,14,9.77,31,21.92,38a20.12,20.12,0,0,0,9.87,3c7.21,0,12.17-5.71,12.2-15.6,0-13.95-9.77-30.95-21.92-38a20,20,0,0,0-9.87-3Z"/><path class="f" d="M38.93,49.79a6.9,6.9,0,0,1-2.66-2.51,6.11,6.11,0,0,1-.81-3v-1a2.26,2.26,0,0,1,.81-2c.54-.35,1.43-.17,2.66.54a6.71,6.71,0,0,1,2.61,2.5,6.06,6.06,0,0,1,.81,3v1a2.24,2.24,0,0,1-.81,2.05C41,50.66,40.13,50.49,38.93,49.79ZM37.77,38.16,36,22.77V13l5.81,3.36v9.73L40.17,39.55Z"/></svg>