<svg xmlns="http://www.w3.org/2000/svg" xmlns:xlink="http://www.w3.org/1999/xlink" width="80" height="80" viewBox="0 0 80 80"><defs><style>.a{fill:none;}.b{fill:url(#a);}.c{fill:url(#b);}.d{fill:url(#c);}.e{fill:url(#d);}.f{fill:url(#e);}.g{fill:url(#f);}.h{fill:url(#g);}.i{fill:url(#h);}.j{fill:url(#i);}.k{fill:url(#j);}</style><linearGradient id="a" x1="634.81" y1="667.18" x2="644.85" y2="684.56" gradientTransform="matrix(0.87, 0.5, -1, 0.58, 161.49, -640.11)" gradientUnits="userSpaceOnUse"><stop offset="0" stop-color="#525252" stop-opacity="0.05"/><stop offset="1" stop-opacity="0.1"/></linearGradient><linearGradient id="b" x1="29.21" y1="7.75" x2="56.14" y2="23.3" gradientUnits="userSpaceOnUse"><stop offset="0" stop-color="#f4f4f4"/><stop offset="0.78" stop-color="#e0e0e0"/><stop offset="1" stop-color="#c6c6c6"/></linearGradient><linearGradient id="c" x1="45.47" y1="46.54" x2="55.21" y2="46.54" gradientUnits="userSpaceOnUse"><stop offset="0" stop-color="#a8a8a8"/><stop offset="1" stop-color="#c6c6c6"/></linearGradient><linearGradient id="d" x1="38.25" y1="59.31" x2="38.25" y2="2.99" gradientUnits="userSpaceOnUse"><stop offset="0" stop-color="#c6c6c6"/><stop offset="0.78" stop-color="#e0e0e0"/></linearGradient><linearGradient id="e" x1="28.77" y1="9.54" x2="48.15" y2="40.79" gradientUnits="userSpaceOnUse"><stop offset="0.42" stop-color="#fff"/><stop offset="0.49" stop-color="#fff" stop-opacity="0.99"/><stop offset="0.53" stop-color="#fdfdfd" stop-opacity="0.96"/><stop offset="0.56" stop-color="#fafafa" stop-opacity="0.9"/><stop offset="0.59" stop-color="#f6f6f6" stop-opacity="0.82"/><stop offset="0.62" stop-color="#f2f2f2" stop-opacity="0.71"/><stop offset="0.65" stop-color="#ebebeb" stop-opacity="0.59"/><stop offset="0.67" stop-color="#e4e4e4" stop-opacity="0.43"/><stop offset="0.7" stop-color="#dcdcdc" stop-opacity="0.25"/><stop offset="0.72" stop-color="#d3d3d3" stop-opacity="0.06"/><stop offset="0.73" stop-color="#d0d0d0" stop-opacity="0"/></linearGradient><linearGradient id="f" x1="51.28" y1="68.32" x2="51.34" y2="68.35" gradientUnits="userSpaceOnUse"><stop offset="0.87" stop-color="#fff"/><stop offset="0.89" stop-color="#fefefe" stop-opacity="0.98"/><stop offset="0.9" stop-color="#fcfcfc" stop-opacity="0.93"/><stop offset="0.92" stop-color="#f8f8f8" stop-opacity="0.84"/><stop offset="0.94" stop-color="#f2f2f2" stop-opacity="0.72"/><stop offset="0.95" stop-color="#eaeaea" stop-opacity="0.56"/><stop offset="0.97" stop-color="#e1e1e1" stop-opacity="0.37"/><stop offset="0.99" stop-color="#d7d7d7" stop-opacity="0.14"/><stop offset="1" stop-color="#d0d0d0" stop-opacity="0"/></linearGradient><linearGradient id="g" x1="51.09" y1="68.25" x2="51.22" y2="68.33" xlink:href="#f"/><linearGradient id="h" x1="51.41" y1="68.32" x2="51.46" y2="68.35" xlink:href="#f"/><linearGradient id="i" x1="33.94" y1="19.46" x2="42.79" y2="19.46" gradientUnits="userSpaceOnUse"><stop offset="0" stop-color="#a4a4a4"/><stop offset="1" stop-color="#8c8c8c"/></linearGradient><linearGradient id="j" x1="35.3" y1="23.46" x2="38.85" y2="17.31" gradientUnits="userSpaceOnUse"><stop offset="0" stop-color="#fff"/><stop offset="0.04" stop-color="#fdfdfd" stop-opacity="0.96"/><stop offset="0.12" stop-color="#f7f7f7" stop-opacity="0.84"/><stop offset="0.23" stop-color="#eee" stop-opacity="0.64"/><stop offset="0.36" stop-color="#e2e2e2" stop-opacity="0.38"/><stop offset="0.5" stop-color="#d2d2d2" stop-opacity="0.04"/><stop offset="0.52" stop-color="#d0d0d0" stop-opacity="0"/></linearGradient></defs><rect class="a" width="80" height="80"/><polygon class="b" points="51.59 78.34 24.79 62.86 28.41 60.77 55.21 76.25 51.59 78.34"/><path class="c" d="M45.47,30.38l6.58-3.76,3.12-1.85,0,.15a1.28,1.28,0,0,0-.17-.47L42.19,2.21c-.24-.42-.63-.65-.88-.51L28.47,9.12a.44.44,0,0,0-.18.4l13.88,3a1.38,1.38,0,0,0,.62,1.07Z"/><path class="d" d="M55,66.29a.46.46,0,0,0,.18-.41V25.06a1,1,0,0,0,0-.29l-3.12,1.85-6.58,3.76L51.54,68.3Z"/><path class="e" d="M51.53,26.47,38.69,4.23c-.25-.42-.64-.64-.88-.5L25,11.14a.43.43,0,0,0-.18.4V52.36a1.35,1.35,0,0,0,.62,1.07L51.09,68.26c.34.2.62,0,.62-.36V27.08A1.33,1.33,0,0,0,51.53,26.47ZM37.08,24a6.93,6.93,0,0,1-3.14-5.44c0-2,1.4-2.81,3.14-1.81a7,7,0,0,1,3.13,5.44C40.21,24.2,38.81,25,37.08,24Z"/><path class="f" d="M39.05,4a1.71,1.71,0,0,0-.64-.64l-.6.34h0a.3.3,0,0,1,.16,0,1,1,0,0,1,.72.55L51.53,26.47a1.33,1.33,0,0,1,.18.61V67.9a.41.41,0,0,1-.19.4h0l.58-.34s0,0,0-.06V27.08a1.75,1.75,0,0,0-.24-.82Z"/><path class="g" d="M51.28,68.33h0Z"/><path class="h" d="M51.23,68.32a.42.42,0,0,1-.14-.06A.42.42,0,0,0,51.23,68.32Z"/><path class="i" d="M51.48,68.32l-.08,0Z"/><path class="j" d="M39.66,22.17a6.93,6.93,0,0,1-3.14-5.44,1.36,1.36,0,0,1,0-.21c-1.48-.56-2.6.27-2.6,2.05A6.93,6.93,0,0,0,37.08,24c1.66,1,3,.24,3.11-1.6A3.49,3.49,0,0,1,39.66,22.17Z"/><path class="k" d="M35.67,16.33a2.88,2.88,0,0,1,1.41.43,7,7,0,0,1,3.13,5.44c0,1.42-.7,2.24-1.73,2.24a2.82,2.82,0,0,1-1.4-.43,6.93,6.93,0,0,1-3.14-5.44c0-1.42.7-2.24,1.73-2.24m0-.41h0c-1.3,0-2.15,1-2.15,2.65a7.3,7.3,0,0,0,3.35,5.8,3.23,3.23,0,0,0,1.61.48c1.3,0,2.15-1,2.15-2.65a7.29,7.29,0,0,0-3.35-5.8,3.2,3.2,0,0,0-1.61-.48Z"/></svg>