<svg xmlns="http://www.w3.org/2000/svg" xmlns:xlink="http://www.w3.org/1999/xlink" width="80" height="80" viewBox="0 0 80 80"><defs><style>.a{fill:none;}.b{fill:url(#a);}.c{fill:url(#b);}.d{fill:url(#c);}.e{fill:url(#d);}.f{fill:url(#e);}.g{fill:url(#f);}.h{fill:url(#h);}.i{fill:url(#i);}.j{fill:url(#j);}.k{fill:url(#k);}</style><linearGradient id="a" x1="61.44" y1="66.99" x2="61.44" y2="60.01" gradientUnits="userSpaceOnUse"><stop offset="0" stop-color="#c6c6c6"/><stop offset="0.78" stop-color="#e0e0e0"/></linearGradient><linearGradient id="b" x1="28.49" y1="44.06" x2="53.04" y2="86.58" gradientUnits="userSpaceOnUse"><stop offset="0" stop-color="#525252" stop-opacity="0.05"/><stop offset="1" stop-opacity="0.1"/></linearGradient><linearGradient id="c" x1="30.05" y1="54.31" x2="35.5" y2="54.31" gradientUnits="userSpaceOnUse"><stop offset="0" stop-color="#a4a4a4"/><stop offset="1" stop-color="#bebebe"/></linearGradient><linearGradient id="d" x1="28.61" y1="-3.97" x2="70.69" y2="68.92" gradientUnits="userSpaceOnUse"><stop offset="0" stop-color="#f4f4f4"/><stop offset="0.52" stop-color="#e0e0e0"/><stop offset="0.56" stop-color="#d8d8d8"/><stop offset="0.61" stop-color="#c6c6c6"/><stop offset="0.89" stop-color="#a8a8a8"/><stop offset="0.96" stop-color="#8d8d8d"/></linearGradient><linearGradient id="e" x1="38.01" y1="59.43" x2="38.01" y2="3.27" xlink:href="#a"/><linearGradient id="f" x1="21.52" y1="36.2" x2="61.39" y2="36.2" gradientUnits="userSpaceOnUse"><stop offset="0" stop-color="#e0e0e0"/><stop offset="1" stop-color="#c6c6c6"/></linearGradient><linearGradient id="h" x1="17.68" y1="15.75" x2="55.37" y2="37.5" gradientUnits="userSpaceOnUse"><stop offset="0" stop-color="#fff"/><stop offset="0.05" stop-color="#fdfdfd"/><stop offset="0.3" stop-color="#f6f6f6"/><stop offset="1" stop-color="#f4f4f4"/></linearGradient><linearGradient id="i" x1="14.24" y1="21.81" x2="51.92" y2="43.56" xlink:href="#h"/><linearGradient id="j" x1="10.96" y1="27.56" x2="48.66" y2="49.33" xlink:href="#h"/><linearGradient id="k" x1="15.14" y1="5.72" x2="63.06" y2="33.52" gradientUnits="userSpaceOnUse"><stop offset="0.78" stop-color="#fff"/><stop offset="0.8" stop-color="#fefefe" stop-opacity="0.98"/><stop offset="0.82" stop-color="#fcfcfc" stop-opacity="0.93"/><stop offset="0.85" stop-color="#f8f8f8" stop-opacity="0.84"/><stop offset="0.87" stop-color="#f2f2f2" stop-opacity="0.72"/><stop offset="0.9" stop-color="#eaeaea" stop-opacity="0.56"/><stop offset="0.93" stop-color="#e1e1e1" stop-opacity="0.37"/><stop offset="0.95" stop-color="#d7d7d7" stop-opacity="0.14"/><stop offset="0.97" stop-color="#d0d0d0" stop-opacity="0"/></linearGradient></defs><rect class="a" width="80" height="80"/><path class="b" d="M61.3,68.11a.67.67,0,0,0,.09-.14A.67.67,0,0,1,61.3,68.11Zm.22-.46a1.58,1.58,0,0,0,0-.32l0-7.24,0,7.24A1.58,1.58,0,0,1,61.52,67.65Zm-.09.26a1.18,1.18,0,0,0,.07-.2A1.18,1.18,0,0,1,61.43,67.91Z"/><polygon class="c" points="15.13 52.11 60.63 78.39 64.88 75.88 19.4 49.63 15.13 52.11"/><path class="d" d="M32.66,52.85l-2.25,4.22a1.08,1.08,0,0,1-.36.35l2.83-1.65a1.08,1.08,0,0,0,.36-.35L35.5,51.2Z"/><path class="e" d="M63.45,26.58,20.63,1.86a1,1,0,0,0-1-.1l-4,2.3a1,1,0,0,1,1,.1L59.48,28.88a3.17,3.17,0,0,1,1.42,2.47l-.1,36.08a1,1,0,0,1-.42.91l4-2.3a1,1,0,0,0,.42-.91L64.88,29A3.14,3.14,0,0,0,63.45,26.58Z"/><path class="f" d="M59.48,28.88a3.17,3.17,0,0,1,1.42,2.47l-.1,36.08c0,.9-.65,1.26-1.42.81l-26.7-15.4-2.26,4.22a.9.9,0,0,1-1.33.28,3.07,3.07,0,0,1-1.22-1.53l-2.33-7.09-9-5.2a3.15,3.15,0,0,1-1.43-2.46L15.23,5c0-.9.64-1.27,1.43-.81Z"/><path class="g" d="M59.48,28.88a3.17,3.17,0,0,1,1.42,2.47l-.1,36.08c0,.9-.65,1.26-1.42.81l-26.7-15.4-2.26,4.22a.9.9,0,0,1-1.33.28,3.07,3.07,0,0,1-1.22-1.53l-2.33-7.09-9-5.2a3.15,3.15,0,0,1-1.43-2.46L15.23,5c0-.9.64-1.27,1.43-.81Z"/><path class="f" d="M59.48,28.88a3.17,3.17,0,0,1,1.42,2.47l-.1,36.08c0,.9-.65,1.26-1.42.81l-26.7-15.4-2.26,4.22a.9.9,0,0,1-1.33.28,3.07,3.07,0,0,1-1.22-1.53l-2.33-7.09-9-5.2a3.15,3.15,0,0,1-1.43-2.46L15.23,5c0-.9.64-1.27,1.43-.81Z"/><polygon class="h" points="57.99 37.07 57.98 40.97 18.03 17.9 18.04 14 57.99 37.07"/><polygon class="i" points="57.99 45.11 57.98 49.02 18.03 25.95 18.04 22.05 57.99 45.11"/><polygon class="j" points="44.62 45.04 44.61 48.94 18.03 33.6 18.04 29.7 44.62 45.04"/><path class="k" d="M60.76,30.55a2.54,2.54,0,0,1,.14.8V35.3l.41-.13,0-3.82a3.54,3.54,0,0,0-1.63-2.82L16.86,3.8a2.09,2.09,0,0,0-.44-.19l-.78.45h0A1,1,0,0,1,15.85,4h0L16,4h.1l.23,0,0,0,.27.12L38.07,16.52,59.48,28.88A3.19,3.19,0,0,1,60.76,30.55Z"/></svg>