<svg id="Layer_1" data-name="Layer 1" xmlns="http://www.w3.org/2000/svg" viewBox="0 0 88 88"><defs><style>.cls-1{opacity:0.5;}.cls-2{fill:#dcdcdc;}.cls-3{fill:#bebebe;}.cls-4{fill:#a4a4a4;}.cls-5{fill:#c9deff;}.cls-6{fill:#6ea6ff;}.cls-7{fill:#97c1ff;}</style></defs><title>Empty State - No search results (small, 90px)</title><g id="Exploration"><g class="cls-1"><polygon points="0 60.58 28.66 77.18 57.3 60.58 28.66 43.98 0 60.58"/></g><polygon class="cls-2" points="14.33 41.44 28.66 49.73 42.97 41.44 28.66 33.15 14.33 41.44"/><polygon class="cls-3" points="28.66 49.73 14.33 41.44 14.33 41.48 14.33 41.48 14.33 24.88 0 16.59 0 41.55 0 41.55 0 49.69 14.33 57.99 14.33 57.95 28.66 66.25 28.66 49.73"/><polygon class="cls-4" points="14.33 24.88 14.33 41.39 28.66 33.11 28.66 16.59 14.33 24.88"/><polygon class="cls-2" points="57.3 16.59 42.97 8.29 42.97 8.29 28.66 0 14.33 8.29 14.33 8.29 0 16.59 14.33 24.88 28.66 16.59 28.66 16.59 28.66 16.59 42.97 24.88 57.3 16.59"/><polygon class="cls-3" points="28.66 16.59 28.66 33.11 42.97 41.39 42.97 24.88 28.66 16.59"/><polygon class="cls-4" points="42.97 24.88 42.97 41.44 42.97 41.44 42.97 41.44 28.66 49.73 28.66 66.25 42.97 57.95 42.97 57.95 57.3 49.65 57.3 41.55 57.3 33.15 57.3 16.59 42.97 24.88"/><polygon class="cls-5" points="79.1 66.76 60.39 71.57 52.38 60.55 71.1 55.73 79.1 66.76"/><polygon class="cls-6" points="79.1 66.76 79.22 83.18 60.5 88 60.39 71.57 79.1 66.76"/><polygon class="cls-7" points="60.39 71.57 60.5 88 52.5 76.97 52.38 60.55 60.39 71.57"/></g></svg>