<?xml version="1.0" encoding="utf-8"?>
<!-- Generator: Adobe Illustrator 23.1.1, SVG Export Plug-In . SVG Version: 6.00 Build 0)  -->
<svg version="1.1" id="Layer_1" xmlns="http://www.w3.org/2000/svg" xmlns:xlink="http://www.w3.org/1999/xlink" x="0px" y="0px"
	 viewBox="0 0 120 152" style="enable-background:new 0 0 120 152;" xml:space="preserve">
<style type="text/css">
	.st0{fill:#8B8B8B;}
	.st1{opacity:0.15;}
	.st2{fill:#3D3D3D;}
	.st3{fill:#DADADA;}
	.st4{fill:#A2A2A2;}
	.st5{fill:#FFFFFF;}
	.st6{fill:#565656;}
	.st7{opacity:0.3;enable-background:new    ;}
	.st8{fill:#282828;}
	.st9{opacity:0.75;}
	.st10{fill:#C7DCFD;}
	.st11{fill:#0062FF;}
	.st12{opacity:0.5;}
	.st13{fill:#DCDCDC;}
	.st14{fill:#BEBEBE;}
	.st15{fill:#A4A4A4;}
	.st16{fill:#C9DEFF;}
	.st17{fill:#6EA6FF;}
	.st18{fill:#97C1FF;}
</style>
<title>api-error.lg</title>
<g id="Exploration">
	<path class="st0" d="M57.6,63.4c-0.1,0-0.2,0-0.3,0L57,63.4l-0.2-0.1c-0.2-0.2-0.4-0.4-0.5-0.6c0-0.1-0.1-0.2-0.1-0.3
		c0-0.1,0-0.2,0-0.3c0-0.1,0-0.2,0-0.3c0-0.1,0-0.2,0.1-0.3c0-0.1,0.1-0.2,0.1-0.2c0.1-0.1,0.1-0.1,0.2-0.2c0.1-0.1,0.1-0.1,0.2-0.2
		c0.1-0.1,0.1-0.1,0.2-0.1c0.1,0,0.2-0.1,0.3-0.1c0.2,0,0.4,0,0.5,0c0.1,0,0.2,0,0.3,0.1c0.2,0.1,0.3,0.2,0.5,0.3
		c0.1,0.1,0.1,0.1,0.2,0.2c0.1,0.1,0.1,0.2,0.1,0.2c0,0.1,0.1,0.2,0.1,0.3c0,0.1,0,0.2,0,0.3c0,0.1,0,0.2,0,0.3c0,0.1,0,0.2-0.1,0.3
		c0,0.1-0.1,0.2-0.1,0.2c-0.1,0.2-0.2,0.3-0.4,0.4l-0.2,0.1l-0.3,0.1C57.7,63.5,57.7,63.5,57.6,63.4z"/>
	<path class="st0" d="M49,103.6c-0.5-0.6-0.5-1.4,0-2c0,0,0,0,0,0l0,0c0.6-0.5,1.4-0.5,2,0c0,0,0,0,0,0l0,0c0.5,0.6,0.5,1.4,0,2
		c0,0,0,0,0,0l0,0c-0.3,0.2-0.6,0.4-0.9,0.4l0,0C49.6,104.1,49.3,103.9,49,103.6z M52.7,99.8c-0.6-0.4-0.8-1.3-0.4-1.9c0,0,0,0,0,0
		l0,0l0,0c0.4-0.6,1.3-0.8,1.9-0.4c0,0,0,0,0,0l0,0l0,0c0.6,0.4,0.8,1.3,0.3,1.9l0,0c-0.2,0.4-0.6,0.6-1.1,0.6l0,0
		C53.2,100,52.9,99.9,52.7,99.8z M55.4,95.2c-0.7-0.3-1.1-1.1-0.8-1.8l0,0c0.3-0.7,1.1-1.1,1.8-0.8l0,0c0.7,0.3,1,1,0.8,1.8l0,0
		c-0.2,0.5-0.7,0.9-1.3,0.9l0,0C55.8,95.3,55.6,95.3,55.4,95.2L55.4,95.2z M57.1,90.2c-0.8-0.1-1.3-0.8-1.2-1.6c0,0,0,0,0,0l0,0
		c0.1-0.8,0.8-1.3,1.6-1.2c0,0,0,0,0,0l0,0c0.8,0.1,1.3,0.8,1.1,1.6c0,0,0,0,0,0l0,0c-0.1,0.7-0.7,1.2-1.4,1.2L57.1,90.2L57.1,90.2z
		 M56.2,83.4c0-0.8,0.6-1.4,1.4-1.4c0,0,0,0,0,0l0,0c0.8,0,1.4,0.6,1.4,1.4c0,0,0,0,0,0l0,0c0,0.8-0.6,1.4-1.4,1.4l0,0l0,0
		C56.8,84.8,56.2,84.2,56.2,83.4L56.2,83.4L56.2,83.4z M56.2,78.1c0-0.8,0.6-1.4,1.4-1.4l0,0c0.8,0,1.4,0.6,1.4,1.4l0,0l0,0
		c0,0.8-0.6,1.4-1.4,1.4l0,0C56.8,79.5,56.2,78.9,56.2,78.1L56.2,78.1L56.2,78.1z M56.2,72.8c0-0.8,0.6-1.4,1.4-1.4l0,0
		c0.8,0,1.4,0.6,1.4,1.4l0,0l0,0c0,0.8-0.6,1.4-1.4,1.4l0,0C56.8,74.1,56.2,73.5,56.2,72.8z M56.2,67.4c0-0.8,0.6-1.4,1.4-1.4
		c0,0,0,0,0,0l0,0c0.7,0,1.4,0.6,1.4,1.3l0,0c0,0.8-0.6,1.4-1.4,1.4c0,0,0,0,0,0l0,0C56.8,68.7,56.2,68.1,56.2,67.4L56.2,67.4z"/>
	<path class="st0" d="M45.7,107.2h-0.3c-0.1,0-0.2,0-0.3-0.1c-0.1,0-0.2-0.1-0.2-0.1c-0.1-0.1-0.1-0.1-0.2-0.2
		c-0.3-0.3-0.4-0.6-0.4-1c0-0.1,0-0.2,0-0.3c0-0.1,0-0.2,0.1-0.2c0-0.1,0.1-0.2,0.1-0.2c0.2-0.2,0.4-0.4,0.6-0.5l0.3-0.1
		c0.5-0.1,0.9,0.1,1.2,0.4c0.1,0.1,0.1,0.1,0.2,0.2c0.1,0.1,0.1,0.2,0.1,0.2c0,0.1,0.1,0.2,0.1,0.2c0,0.1,0,0.2,0,0.3
		c0,0.4-0.1,0.7-0.4,1c-0.1,0.1-0.1,0.1-0.2,0.2c-0.1,0.1-0.1,0.1-0.2,0.1c-0.1,0-0.2,0.1-0.3,0.1H45.7z"/>
	<g class="st1">
		<path d="M99.3,125.2l8.7-5c5.3-3.1,4.6-8.5-1.5-12l-5.6-3.2c-6.2-3.6-15.5-3.9-20.8-0.9l-8.7,5c-5.3,3.1-4.7,8.5,1.5,12l5.7,3.2
			C84.6,127.9,94,128.3,99.3,125.2z"/>
	</g>
	<path class="st2" d="M80.8,55.1c0.1,0.1,0.2,0.1,0.3,0.2c0.3,0.2,0.7,0.2,1,0.3c-0.4,0-0.7-0.1-1.1-0.3
		C80.9,55.3,80.9,55.2,80.8,55.1z"/>
	<path class="st3" d="M80.6,55c0,0-0.2,5.2,0.9,5.6c0.6,0.2,1.3-0.1,1.5-0.7v0l-0.1-4.3c-0.6,0.2-1.3,0.1-1.8-0.2
		c-0.4-0.2-0.7-0.5-0.9-0.8"/>
	<path class="st4" d="M89.4,116.9l0.3-0.1l7.6-3.9c1.1-0.6,2.4-0.6,3.5,0c0.6,0.2,0.8,0.8,0.6,1.4c0,0,0,0,0,0
		c-0.1,0.3-0.3,0.5-0.6,0.6l-3.7,2.3l-3.2,2l-0.2,0.1c-1.4,0.7-3,0.7-4.3,0c-0.7-0.2-1-1-0.8-1.7c0,0,0,0,0,0
		C88.8,117.3,89.1,117.1,89.4,116.9z"/>
	<path class="st4" d="M80,111.5l0.3-0.1l7.7-3.9c1.1-0.6,2.4-0.6,3.5,0c0.6,0.2,0.8,0.9,0.6,1.4c-0.1,0.3-0.3,0.5-0.6,0.6l-3.7,2.3
		l-3.2,2l-0.2,0.1c-1.4,0.7-3,0.7-4.3,0c-0.7-0.3-1-1-0.8-1.7C79.3,111.9,79.6,111.7,80,111.5z"/>
	<path class="st4" d="M79.1,111.8v0.7c0,0.5,0.4,1,0.9,1.2c1.4,0.7,3,0.7,4.3,0l0.2-0.1l3.2-2l3.6-2.3c0.4-0.2,0.7-0.6,0.7-1v-2.5
		c-0.1-0.5-0.3-0.9-0.7-1.1c-1.1-0.5-2.3-0.5-3.4,0l0,0l-2.9,1.6l-5.5,4.6C79.3,111.1,79.1,111.5,79.1,111.8z"/>
	<path class="st4" d="M91.3,107.2c0.7-0.4,0.9-1.3,0.5-2c-0.1-0.2-0.3-0.4-0.5-0.5c-1.1-0.5-2.4-0.5-3.5,0c-0.6,0.2-0.8,0.9-0.6,1.4
		c0.1,0.3,0.3,0.5,0.6,0.6C88.9,107.3,90.4,107.8,91.3,107.2z"/>
	<path class="st4" d="M88.6,117.2v0.7c0.1,0.6,0.4,1,0.9,1.3c1.4,0.7,3,0.7,4.3,0l0.2-0.1l3.2-2l3.7-2.3c0.4-0.2,0.7-0.6,0.7-1v-2.3
		c0,0,0-0.1,0-0.2c0-0.5-0.3-0.9-0.7-1.1c-1.1-0.5-2.3-0.5-3.4,0l0,0l-3,1.6l-5.5,4.7C88.7,116.6,88.6,116.9,88.6,117.2z"/>
	<path class="st4" d="M100.8,112.6c0.7-0.4,0.9-1.3,0.5-2c0,0,0,0,0,0c-0.1-0.2-0.3-0.4-0.5-0.5c-1.1-0.5-2.4-0.5-3.5,0
		c-0.6,0.2-0.8,0.9-0.6,1.4c0.1,0.3,0.3,0.5,0.6,0.6C98.3,112.7,99.9,113.2,100.8,112.6z"/>
	<path class="st3" d="M97.5,108.1c0.9-0.5,2.1-0.5,3,0c0.3,0.2,0.6,0.5,0.6,0.9l0,0v2.4l0,0c0,0.4-0.3,0.7-0.6,0.9
		c-0.9,0.5-2.1,0.5-3,0c-0.3-0.2-0.6-0.5-0.6-0.9V109C96.9,108.6,97.2,108.3,97.5,108.1z"/>
	<path class="st3" d="M88.1,102.7c0.9-0.5,2.1-0.5,3,0c0.3,0.2,0.6,0.5,0.6,0.9v2.5c0,0.4-0.3,0.7-0.6,0.9c-0.9,0.5-2.1,0.5-3,0
		c-0.3-0.2-0.6-0.5-0.6-0.9v-2.4C87.5,103.2,87.8,102.8,88.1,102.7z"/>
	<path class="st4" d="M98.1,113.1l0.6-0.5c0.2-0.2,0.2-0.5,0.1-0.7c0,0,0,0,0,0l-0.1-0.1l-1.5-1.2c-0.2-0.1,0.2,0.1,0,0l0,0
		c-0.3-0.3-0.7-0.4-1.1-0.4c-0.2,0-0.5,0.2-0.6,0.4l-0.9,1.1l-5.5,4.7c-0.3,0.2-0.4,0.5-0.4,0.9v0.7"/>
	<path class="st4" d="M89.4,116.9l0.3-0.1l7.6-3.9c1.1-0.6,2.4-0.6,3.5,0c0.6,0.2,0.8,0.8,0.6,1.4c0,0,0,0,0,0
		c-0.1,0.3-0.3,0.5-0.6,0.6l-3.7,2.3l-3.2,2l-0.2,0.1c-1.4,0.7-3,0.7-4.3,0c-0.7-0.2-1-1-0.8-1.7c0,0,0,0,0,0
		C88.8,117.3,89.1,117.1,89.4,116.9z"/>
	<path class="st4" d="M80,111.5l0.3-0.1l7.7-3.9c1.1-0.6,2.4-0.6,3.5,0c0.6,0.2,0.8,0.9,0.6,1.4c-0.1,0.3-0.3,0.5-0.6,0.6l-3.7,2.3
		l-3.2,2l-0.2,0.1c-1.4,0.7-3,0.7-4.3,0c-0.7-0.3-1-1-0.8-1.7C79.3,111.9,79.6,111.7,80,111.5z"/>
	<path class="st2" d="M79.1,111.8v0.7c0,0.5,0.4,1,0.9,1.2c1.4,0.7,3,0.7,4.3,0l0.2-0.1l3.2-2l3.6-2.3c0.4-0.2,0.7-0.6,0.7-1v-2.5
		c-0.1-0.5-0.3-0.9-0.7-1.1c-1.1-0.5-2.3-0.5-3.4,0l0,0l-2.9,1.6l-5.5,4.6C79.3,111.1,79.1,111.5,79.1,111.8z"/>
	<path class="st2" d="M91.3,107.2c0.7-0.4,0.9-1.3,0.5-2c-0.1-0.2-0.3-0.4-0.5-0.5c-1.1-0.5-2.4-0.5-3.5,0c-0.6,0.2-0.8,0.9-0.6,1.4
		c0.1,0.3,0.3,0.5,0.6,0.6C88.9,107.3,90.4,107.8,91.3,107.2z"/>
	<path class="st2" d="M88.6,117.2v0.7c0.1,0.6,0.4,1,0.9,1.3c1.4,0.7,3,0.7,4.3,0l0.2-0.1l3.2-2l3.7-2.3c0.4-0.2,0.7-0.6,0.7-1v-2.3
		c0,0,0-0.1,0-0.2c0-0.5-0.3-0.9-0.7-1.1c-1.1-0.5-2.3-0.5-3.4,0l0,0l-3,1.6l-5.5,4.7C88.7,116.6,88.6,116.9,88.6,117.2z"/>
	<path class="st2" d="M100.8,112.6c0.7-0.4,0.9-1.3,0.5-2c0,0,0,0,0,0c-0.1-0.2-0.3-0.4-0.5-0.5c-1.1-0.5-2.4-0.5-3.5,0
		c-0.6,0.2-0.8,0.9-0.6,1.4c0.1,0.3,0.3,0.5,0.6,0.6C98.3,112.7,99.9,113.2,100.8,112.6z"/>
	<path class="st4" d="M97.5,108.1c0.9-0.5,2.1-0.5,3,0c0.3,0.2,0.6,0.5,0.6,0.9l0,0v2.4l0,0c0,0.4-0.3,0.7-0.6,0.9
		c-0.9,0.5-2.1,0.5-3,0c-0.3-0.2-0.6-0.5-0.6-0.9V109C96.9,108.6,97.2,108.3,97.5,108.1z"/>
	<path class="st4" d="M88.1,102.7c0.9-0.5,2.1-0.5,3,0c0.3,0.2,0.6,0.5,0.6,0.9v2.5c0,0.4-0.3,0.7-0.6,0.9c-0.9,0.5-2.1,0.5-3,0
		c-0.3-0.2-0.6-0.5-0.6-0.9v-2.4C87.5,103.2,87.8,102.8,88.1,102.7z"/>
	<path class="st2" d="M98.1,113.1l0.6-0.5c0.2-0.2,0.2-0.5,0.1-0.7c0,0,0,0,0,0l-0.1-0.1l-1.5-1.2c-0.2-0.1,0.2,0.1,0,0l0,0
		c-0.3-0.3-0.7-0.4-1.1-0.4c-0.2,0-0.5,0.2-0.6,0.4l-0.9,1.1l-5.5,4.7c-0.3,0.2-0.4,0.5-0.4,0.9v0.7"/>
	<path class="st2" d="M88.6,107.7l0.6-0.5c0.2-0.2,0.2-0.5,0.1-0.7c0,0,0,0,0,0h-0.1l-1.5-1.2l0,0c-0.3-0.3-0.7-0.4-1.1-0.4
		c-0.2,0-0.5,0.2-0.6,0.4l-0.9,1.1l-5.5,4.6c-0.3,0.2-0.4,0.5-0.4,0.9v0.7"/>
	<path class="st5" d="M105.7,59.1L105.7,59.1c-0.1,2.3-1.4,4.4-3.3,5.6c-4.4,2.6-11.6,1.8-16.1-0.8c-2.2-1.3-3.3-3-3.3-4.6V33.5"/>
	<path class="st6" d="M82.9,53.8L82.9,53.8c0.1-1.2,0.8-2.3,1.9-2.8c3-1.5,6.5-1.5,9.4,0c1.2,0.5,2,1.6,2,2.9l0,0v0.3L93.4,74
		l-0.5,28.2v0.2l0,0c-0.1,0.5-0.5,1-1,1.2c-1.5,0.7-3.2,0.7-4.7,0c-0.6-0.2-1-0.8-1-1.4l-1.6-24.5L82.9,53.8L82.9,53.8L82.9,53.8z"
		/>
	<path class="st6" d="M92.4,59.3v-0.2l0,0c0.1-1.2,0.9-2.3,2-2.8c3-1.5,6.5-1.5,9.4,0c1.5,0.9,2.2,2,1.9,3.1l-2.9,23.8l-0.4,24.5
		c-0.1,0.6-0.4,1.1-1,1.3c-1.5,0.8-3.2,0.8-4.7,0c-0.6-0.2-0.9-0.8-1-1.4l0,0l-2-23.1l-0.8-10.7"/>
	<path class="st2" d="M105.6,37.7v21.4l0,0c-0.1,2.3-1.4,4.4-3.4,5.6c-4.4,2.6-11.6,1.8-16.1-0.8c-2.2-1.3-3.3-3-3.3-4.6V33.5"/>
	<path class="st3" d="M91.3,22.7l0.2-0.1V12.5c0-0.5,0.4-1,0.9-1.2c1.4-0.7,3-0.7,4.3,0c0.5,0.2,0.8,0.7,0.9,1.2V22
		c0.1,0.7,0.4,1.3,0.9,1.7l0,0c0.9,0.9,0.6,1.7-0.8,2.5c-1.8,1-4.6,2.2-6.4,1.2c-1.3-0.9-1.7-2.7-0.8-4C90.7,23.2,91,22.9,91.3,22.7
		z"/>
	<path class="st2" d="M107.9,32.3c-0.7-1.1-1.5-2-2.5-2.7l-6.7-5.4l0,0l-5.8-2.1c-0.4-0.2-0.8-0.3-1.2-0.5
		c-6.1-3.2-12.1,1.3-12.1,8.4c0,0-0.3,17.3,0.2,22.8c-0.1,1,0.4,2,1.3,2.6c0.6,0.3,1.2,0.4,1.8,0.2"/>
	<path class="st2" d="M95.8,43.6c0.2-0.8,0.6-1.5,1-2.2c-0.1,0.2,1.8-2.5,1.5-4.5l0,0"/>
	<path class="st7" d="M105.6,60c0,0-0.1,0.5-0.1,0.5c-0.1,0.3-0.2,0.5-0.3,0.8c-0.6,1.4-1.6,2.6-2.8,3.4c-4.4,2.6-11.6,1.8-16.1-0.8
		c-1.2-0.6-2.2-1.6-2.8-2.7l0,0c0.1,1.1,0.6,2.1,1.5,2.8c0.3,0.2,0.7,0.4,1,0.6c3,1.6,6.3,2.4,9.6,2.4c2.5,0.1,4.9-0.5,7.1-1.7l0,0
		c1.5-0.9,2.5-2.4,2.7-4.2L105.6,60z"/>
	<path class="st7" d="M104.9,47.9c-0.4,0.5-0.7,1-1.1,1.5c-0.4,0.4-0.9,0.8-1.5,1c-0.9,0.4-1.9,0.6-2.9,0.6c-0.3,0-0.7,0-1-0.1
		c-0.4,0-0.8-0.1-1.1-0.2l-6.9-2.1l-6.7-2L83,46.4v9.1l0,0v3.3l0,0v0.5c0,0.2,0,0.4,0.1,0.7c-0.1,0.3-0.3,0.5-0.6,0.7
		c-0.1-0.3-0.1-0.5-0.2-0.8c0-0.2,0-0.3,0-0.5v-2.9l0,0v-0.7l0,0v-0.8l0,0v-8.7l-0.4-0.1c-0.3,0-0.6-0.2-0.8-0.4v-0.1l-0.7,0.1
		l-0.7,0.1V45l0.7-0.1l0.6-0.1l0.7-0.2h0.2c0,0.1-0.1,0.2-0.2,0.3c-0.1,0.1,0,0.3,0.1,0.4c0,0,0.1,0,0.2,0H82l0.3,0.1l0.7,0.2
		l0.7,0.2L91,48l6.5,2h0.1c1.5,0.4,3.1,0.3,4.5-0.3c0.4-0.1,0.8-0.4,1.2-0.7c0.6-0.8,1.2-1.5,1.7-2.4c0.2-0.4,0.5-0.8,0.8-1.2v0.1
		c0,0.9-0.3,1.7-0.7,2.5L104.9,47.9z"/>
	<path class="st7" d="M106.8,32L106.8,32L106.8,32L106.8,32z"/>
	<path class="st7" d="M82.2,39.2v-5c0-0.4,0.3-0.7,0.8-0.7l0,0v6.6L82.2,40V39.2z"/>
	<path class="st7" d="M95.6,42.2c0.3-0.7,0.7-1.3,1.1-1.9c0.5-0.8,0.8-1.6,0.9-2.5c0-0.4,0.3-0.7,0.7-0.8l0,0c0.2,2-1.2,3.7-2,5.4
		L95.6,42.2z"/>
	<path class="st3" d="M82.2,43.9c0,0.3-0.3,0.6-0.6,0.7c-1.2,0.3-4.1,0.7-5.5-0.2s-1.4-3.1-1.4-4.2c0-0.3-0.2-0.7-0.5-0.8l-2.8-1.2
		C71,38,70.8,37.6,71,37.1c0,0,0,0,0,0l0,0c0.1-0.4,0.5-0.6,0.9-0.5c1.7,0.3,6.3,1.3,7.4,2.6C80.6,40.8,82.6,40.3,82.2,43.9z"/>
	<path class="st3" d="M91.3,22.7l0.2-0.1V12.5c0-0.5,0.4-1,0.9-1.2c1.4-0.7,3-0.7,4.3,0c0.5,0.2,0.8,0.7,0.9,1.2V22
		c0.1,0.7,0.4,1.3,0.9,1.7l0,0c0.9,0.9,0.6,1.7-0.8,2.5c-1.8,1-4.6,2.2-6.4,1.2c-1.3-0.9-1.7-2.7-0.8-4C90.7,23.2,91,22.9,91.3,22.7
		z"/>
	<path class="st3" d="M94.5,7.1c3.7,0,6.7,3,6.7,6.7l0,0V18c0.1,3.7-2.7,6.9-6.5,7s-6.9-2.7-7-6.5l0,0v-4.7
		C87.8,10.1,90.8,7.1,94.5,7.1L94.5,7.1z"/>
	<path class="st6" d="M99,14.4c-1.3-2.8-5.4-1-7.2-2c-2.3-1.3-3.5-0.8-3.4-1.2c1.1-2.4,3.5-4,6.2-4c0.9,0.1,1.9,0.2,2.8,0.6
		c2.4,1.1,4,3.5,4,6.2v3.3C100.8,17.4,100.2,16.9,99,14.4z"/>
	<path class="st3" d="M98.5,23.8L98.5,23.8c0.8,0.9,0.6,1.7-0.8,2.5c-1.7,1-4.6,2.2-6.3,1.2c-1-0.6-1.5-1.8-1.2-3
		C92.8,26,96.1,25.7,98.5,23.8L98.5,23.8z"/>
	<path class="st7" d="M98.3,23.6l0.2,0.2l0,0c0.1,0.1,0.2,0.2,0.3,0.4c-2.6,1.8-5.9,1.8-8.5,0c0.1-0.2,0.2-0.5,0.3-0.7
		C92.9,25.1,96,25.2,98.3,23.6L98.3,23.6z"/>
	<path class="st7" d="M93,73.9l0.3,4.5l-0.1,8.3l-0.3,15.5c0,0.1,0,0.1,0,0.2l0,0c-0.1,0.5-0.5,1-1,1.2l0,0c-0.2-0.3-0.1-0.7,0.1-1
		c0.1-0.1,0.1-0.2,0.1-0.3v-0.1l0.4-23.8l-0.3-3.7C92.3,74.4,92.6,74,93,73.9L93,73.9z"/>
	<path class="st2" d="M98,42.6l-17-2.8c-0.1,0-0.2,0.2-0.2,0.3c0,0,0,0,0,0v0.1c0.5,0.8,1.7,3.1,0.7,4.7c-0.1,0.1,0,0.3,0.1,0.4
		c0,0,0,0,0,0c0.1,0,0.1,0,0.2,0L97.4,50c1.5,0.4,3.1,0.3,4.6-0.3c0.5-0.2,0.9-0.4,1.2-0.8c3.4-4.3,7.4-12.4,4.7-16.6l-0.7-0.9"/>
	<path class="st8" d="M88.3,34.2L88.3,38c0,0.3-0.2,0.7-0.5,0.8l-0.5,0.2c-0.7,0.4-1.5,0.2-1.9-0.5L85,38c-0.3-0.4-0.5-1-0.5-1.5
		v-4.6l0,0c1,1,2.3,1.7,3.6,2.2L88.3,34.2z"/>
	<g class="st9">
		<path class="st10" d="M32.5,43.3L80.4,71c1.4,0.8,2.5,0,2.5-1.9V32.8c0-1.9-1-3.6-2.5-4.8L32.5,0.3c-1.4-0.8-2.5,0-2.5,1.9v36.3
			C30,40.4,30.9,42.2,32.5,43.3z"/>
	</g>
	<g class="st9">
		<path class="st11" d="M63.8,31.5c4,7,4,14.5,0,16.9c-2,1.2-4.7,0.8-7.3-0.8c-3.1-1.9-5.6-4.6-7.3-7.7c-4-7-4-14.5,0-16.9
			c2-1.1,4.6-0.9,7.3,0.7C59.5,25.6,62,28.3,63.8,31.5z M62,45.3c2.8-1.6,3.1-6.4,0.8-11.3l0.9-0.5l-1.8-3L61.1,31
			c-1.2-1.8-2.8-3.3-4.6-4.4c-2.1-1.2-4.1-1.4-5.6-0.6c-2.8,1.6-3.1,6.4-0.8,11.3l-1,0.5l1.8,3l1-0.5c1.2,1.8,2.8,3.3,4.6,4.4
			C58.4,45.9,60.4,46.1,62,45.3"/>
		<polygon class="st11" points="62,30.4 63.8,33.5 62.8,34 51.8,40.3 50.8,40.8 49.1,37.8 50,37.3 61.1,31 		"/>
	</g>
	<g class="st12">
		<polygon points="8.4,135.3 33.6,149.9 58.8,135.3 33.6,120.7 		"/>
	</g>
	<polygon class="st13" points="21,118.5 33.6,125.8 46.2,118.5 33.6,111.2 	"/>
	<polygon class="st14" points="33.6,125.8 21,118.5 21,118.5 21,118.5 21,103.9 8.4,96.7 8.4,118.6 8.4,118.6 8.4,125.8 21,133.1 
		21,133 33.6,140.3 	"/>
	<polygon class="st15" points="21,103.9 21,118.5 33.6,111.2 33.6,96.7 	"/>
	<polygon class="st13" points="58.8,96.7 46.2,89.4 46.2,89.4 33.6,82.1 21,89.4 21,89.4 8.4,96.7 21,103.9 33.6,96.7 33.6,96.7 
		33.6,96.7 46.2,103.9 	"/>
	<polygon class="st14" points="33.6,96.7 33.6,111.2 46.2,118.5 46.2,103.9 	"/>
	<polygon class="st15" points="46.2,103.9 46.2,118.5 46.2,118.5 46.2,118.5 33.6,125.8 33.6,140.3 46.2,133 46.2,133 58.8,125.7 
		58.8,118.6 58.8,111.2 58.8,96.7 	"/>
	<polygon class="st16" points="85.4,133.3 68.9,137.6 61.9,127.9 78.4,123.6 	"/>
	<polygon class="st17" points="85.4,133.3 85.5,147.8 69,152 68.9,137.6 	"/>
	<polygon class="st18" points="68.9,137.6 69,152 62,142.3 61.9,127.9 	"/>
</g>
</svg>
