<svg id="Layer_1" data-name="Layer 1" xmlns="http://www.w3.org/2000/svg" xmlns:xlink="http://www.w3.org/1999/xlink" viewBox="0 0 88 88"><defs><style>.cls-1{fill:#a3a3a3;}.cls-2{fill:url(#linear-gradient);}.cls-3{fill:#6f6f6f;}.cls-4{fill:#bdbdbd;}.cls-5{fill:#8b8b8b;}.cls-6{fill:url(#linear-gradient-2);}.cls-7{fill:url(#linear-gradient-3);}.cls-8{fill:#dbdbdb;}</style><linearGradient id="linear-gradient" x1="13.28" y1="38.59" x2="41.63" y2="38.59" gradientTransform="matrix(1, 0, 0, -1, 0, 88)" gradientUnits="userSpaceOnUse"><stop offset="0" stop-color="#666"/><stop offset="1" stop-color="#333"/></linearGradient><linearGradient id="linear-gradient-2" x1="26.89" y1="22.02" x2="31.87" y2="30.64" gradientTransform="matrix(1, 0, 0, -1, 0, 88)" gradientUnits="userSpaceOnUse"><stop offset="0" stop-color="#a4a4a4"/><stop offset="1" stop-color="#565656"/></linearGradient><linearGradient id="linear-gradient-3" x1="32.68" y1="48.65" x2="37.67" y2="57.26" gradientTransform="matrix(1, 0, 0, -1, 0, 88)" gradientUnits="userSpaceOnUse"><stop offset="0" stop-color="#a4a4a4"/><stop offset="1" stop-color="#3d3d3d"/></linearGradient></defs><title>Empty State - No search results (small, 90px)</title><g id="Exploration"><polygon class="cls-1" points="12.36 17.44 42.56 34.88 42.56 81.36 12.36 63.93 12.36 17.44"/><polygon class="cls-2" points="13.28 19.41 41.63 35.77 41.63 79.41 13.28 63.04 13.28 19.41"/><polygon class="cls-3" points="30.05 86.1 57.08 70.49 57.08 53.6 30.05 69.21 30.05 86.1"/><polygon class="cls-4" points="57.08 53.6 28.73 37.24 1.7 52.84 30.05 69.2 57.08 53.6"/><polygon class="cls-3" points="28.78 55.57 28.78 38.68 4.34 52.8 18.83 61.32 28.78 55.57"/><polygon class="cls-5" points="54.57 53.56 39.95 62.01 28.78 55.57 28.78 38.68 54.57 53.56"/><polygon class="cls-6" points="39.95 62.01 29.98 67.76 18.83 61.32 28.78 55.57 39.95 62.01"/><polygon class="cls-3" points="35.84 59.48 62.87 43.87 62.87 26.98 35.84 42.59 35.84 59.48"/><polygon class="cls-4" points="62.87 26.98 34.52 10.61 7.49 26.21 35.84 42.57 62.87 26.98"/><polygon class="cls-3" points="34.57 28.94 34.57 12.05 10.13 26.17 24.62 34.69 34.57 28.94"/><polygon class="cls-5" points="60.36 26.94 45.74 35.38 34.57 28.94 34.57 12.05 60.36 26.94"/><polygon class="cls-7" points="45.74 35.38 35.77 41.13 24.62 34.69 34.57 28.94 45.74 35.38"/><polygon class="cls-4" points="6.56 21.27 14.3 25.72 17.06 30.1 26.26 35.42 29.02 34.22 36.77 38.69 36.77 60.93 6.56 43.49 6.56 21.27"/><polygon class="cls-1" points="5.79 21.7 13.54 26.17 16.28 30.55 25.5 35.87 28.26 34.67 36 39.14 36 61.37 5.79 43.93 5.79 21.7"/><polygon class="cls-5" points="36.77 38.69 36 39.14 36 61.37 36.77 60.93 36.77 38.69"/><polygon class="cls-8" points="17.06 30.1 16.28 30.55 25.5 35.87 26.26 35.42 17.06 30.1"/><polygon class="cls-8" points="6.56 21.27 5.79 21.7 13.54 26.17 14.3 25.72 6.56 21.27"/><polygon class="cls-8" points="36.77 38.69 29.02 34.22 28.26 34.67 36 39.14 36.77 38.69"/><polygon class="cls-4" points="14.3 25.72 13.54 26.17 16.28 30.55 17.06 30.1 14.3 25.72"/><polygon class="cls-8" points="26.26 35.42 29.02 34.22 28.26 34.67 25.5 35.87 26.26 35.42"/><polygon class="cls-4" points="0.77 47.89 8.51 52.35 11.27 56.73 20.47 62.05 23.23 60.85 30.98 65.32 30.98 87.56 0.77 70.11 0.77 47.89"/><polygon class="cls-1" points="0 48.32 7.73 52.8 10.49 57.17 19.7 62.49 22.46 61.29 30.2 65.76 30.2 88 0 70.56 0 48.32"/><polygon class="cls-5" points="30.98 65.32 30.2 65.76 30.2 88 30.98 87.56 30.98 65.32"/><polygon class="cls-8" points="11.27 56.73 10.49 57.17 19.7 62.49 20.47 62.05 11.27 56.73"/><polygon class="cls-8" points="0.77 47.89 0 48.32 7.73 52.8 8.51 52.35 0.77 47.89"/><polygon class="cls-8" points="30.98 65.32 23.23 60.85 22.46 61.29 30.2 65.76 30.98 65.32"/><polygon class="cls-4" points="8.51 52.35 7.73 52.8 10.49 57.17 11.27 56.73 8.51 52.35"/><polygon class="cls-8" points="20.47 62.05 23.23 60.85 22.46 61.29 19.7 62.49 20.47 62.05"/><polygon class="cls-5" points="72.75 63.93 42.56 81.36 42.56 34.88 72.75 17.44 72.75 63.93"/><polygon class="cls-1" points="41.63 57.97 41.63 79.41 42.56 81.36 42.56 57.62 41.79 58.06 41.63 57.97"/><polygon class="cls-8" points="42.56 0 12.36 17.44 42.56 34.88 72.75 17.44 42.56 0"/><polygon class="cls-1" points="13.28 19.41 41.63 35.77 41.63 57.97 41.79 58.06 42.56 57.62 42.56 34.88 12.36 17.44 12.36 23.41 13.28 22.87 13.28 19.41"/></g></svg>