<svg id="Layer_1" data-name="Layer 1" xmlns="http://www.w3.org/2000/svg" xmlns:xlink="http://www.w3.org/1999/xlink" viewBox="0 0 120 152"><defs><style>.cls-1{opacity:0.15;}.cls-2{fill:#dcdcdc;}.cls-3{fill:#f3f3f3;}.cls-4{fill:#6f6f6f;}.cls-5{fill:#3d3d3d;}.cls-12,.cls-6{fill:none;}.cls-7{fill:#565656;}.cls-8{fill:#a4a4a4;}.cls-9{opacity:0.3;isolation:isolate;}.cls-10{fill:#0062ff;}.cls-11{fill:#fff;}.cls-12{stroke:#565656;stroke-linecap:round;stroke-linejoin:round;stroke-width:0.17px;}.cls-13{fill:#a3a3a3;}.cls-14{fill:url(#linear-gradient);}.cls-15{fill:#bdbdbd;}.cls-16{fill:#8b8b8b;}.cls-17{fill:url(#linear-gradient-2);}.cls-18{fill:url(#linear-gradient-3);}.cls-19{fill:#dbdbdb;}</style><linearGradient id="linear-gradient" x1="64.48" y1="58.73" x2="88.4" y2="58.73" gradientTransform="matrix(1, 0, 0, -1, 0, 152)" gradientUnits="userSpaceOnUse"><stop offset="0" stop-color="#666"/><stop offset="1" stop-color="#333"/></linearGradient><linearGradient id="linear-gradient-2" x1="75.96" y1="44.74" x2="80.16" y2="52.01" gradientTransform="matrix(1, 0, 0, -1, 0, 152)" gradientUnits="userSpaceOnUse"><stop offset="0" stop-color="#a4a4a4"/><stop offset="1" stop-color="#565656"/></linearGradient><linearGradient id="linear-gradient-3" x1="80.85" y1="67.22" x2="85.05" y2="74.49" gradientTransform="matrix(1, 0, 0, -1, 0, 152)" gradientUnits="userSpaceOnUse"><stop offset="0" stop-color="#a4a4a4"/><stop offset="1" stop-color="#3d3d3d"/></linearGradient></defs><title>default.lg</title><g id="Exploration"><g class="cls-1"><path d="M37.35,149.91l8.77-5.06c5.38-3.11,4.7-8.6-1.53-12.2l-5.71-3.29c-6.23-3.6-15.73-4-21.13-.88L9,133.54c-5.39,3.11-4.72,8.61,1.51,12.2L16.22,149C22.46,152.63,32,153,37.35,149.91Z"/></g><path class="cls-2" d="M29.89,49.24a12.58,12.58,0,0,1,2.94-.87c1.5-.26,3.78-.44,4.38,1.19,1.55,4-4.32,3.29-4.32,3.29H32.7"/><path class="cls-3" d="M38.41,62.85,33.82,53l6.73-11.88a.18.18,0,0,1,.16-.09h.09L51.54,47a.37.37,0,0,1,.15.5L42.2,64.91Z"/><path class="cls-4" d="M40.86,41.76,51.11,47.4,42,64.18l-3.12-1.74-4.39-9.37,6.41-11.31m-.16-1.26a.78.78,0,0,0-.66.38L33.18,53,38,63.25l4.39,2.45,9.81-18a.93.93,0,0,0-.36-1.27h0L41,40.6a.65.65,0,0,0-.36-.1Z"/><path class="cls-2" d="M49.27,61.3c0-1.67-1.87-2.94-2.78-3.48a.86.86,0,0,1-.42-.85l.45-1.56a.84.84,0,0,0-.71-1,.85.85,0,0,0-.92.51c-.67,1.67-2.3,4.56-1.78,6.24A17.89,17.89,0,0,1,43.33,64h0l-3.82,4.7,4.82,2.48,1.8-5.28h0C47,64.91,49.31,62.91,49.27,61.3Z"/><path class="cls-5" d="M28.67,135.38a1.51,1.51,0,0,1-.91,1.27l-.27.13-7.75,3.94a3.84,3.84,0,0,1-3.52,0,1.27,1.27,0,0,1-.74-1h0v-4.67l1.26-1.45,6-.36a2.89,2.89,0,0,0,.82-.25h0a4.71,4.71,0,0,1,2.19-.39,4.13,4.13,0,0,1,1.91.51,1.62,1.62,0,0,1,.9,1.16Z"/><path class="cls-5" d="M16.22,136.26a1.48,1.48,0,0,1-.53-2,1.5,1.5,0,0,1,.53-.53,3.9,3.9,0,0,1,3.52,0,1.09,1.09,0,0,1,.61,1.42,1.07,1.07,0,0,1-.61.62C18.76,136.3,17.18,136.83,16.22,136.26Z"/><path class="cls-2" d="M16.46,131.53a3.33,3.33,0,0,1,3,0,1.11,1.11,0,0,1,.62.88h0v2.48h0a1.09,1.09,0,0,1-.62.87,3.33,3.33,0,0,1-3,0,1.09,1.09,0,0,1-.64-.87v-2.48A1.09,1.09,0,0,1,16.46,131.53Z"/><polyline class="cls-2" points="38.23 139.8 38.25 139.8 38.25 140.93 38.25 140.93"/><path class="cls-5" d="M38.25,140.94a1.58,1.58,0,0,1-.91,1.26l-.28.14-7.75,3.94a3.92,3.92,0,0,1-3.53,0,1.26,1.26,0,0,1-.73-1h0v-4.68l1.25-1.48,6.06-.36a3.3,3.3,0,0,0,.81-.25h0a4.69,4.69,0,0,1,2.25-.4,4.36,4.36,0,0,1,1.9.52,1.55,1.55,0,0,1,.9,1.16Z"/><path class="cls-5" d="M25.78,141.81a1.5,1.5,0,0,1-.51-2.05,1.55,1.55,0,0,1,.51-.51,3.92,3.92,0,0,1,3.53,0,1.1,1.1,0,0,1,0,2C28.33,141.85,26.79,142.36,25.78,141.81Z"/><path class="cls-2" d="M26,137.07a3.41,3.41,0,0,1,3.05,0,1.07,1.07,0,0,1,.62.88h0v2.48h0a1.07,1.07,0,0,1-.62.88,3.41,3.41,0,0,1-3.05,0,1.1,1.1,0,0,1-.63-.88V138A1.1,1.1,0,0,1,26,137.07Z"/><path class="cls-5" d="M11.24,78.25h0c-.07-1.09.59-4,2-4.79a10.63,10.63,0,0,1,9.55,0c1.4.8,2,3.75,2,4.79h0v.33l.65,20.69-4,31.8v.23h0a1.72,1.72,0,0,1-1,1.23,5.27,5.27,0,0,1-4.77,0,1.63,1.63,0,0,1-1-1.39l-.17-19.66L11.25,90.09V78.25Z"/><path class="cls-5" d="M20.8,83.83v-.15h0a3.29,3.29,0,0,1,2-2.82,10.59,10.59,0,0,1,9.56,0c1.49.86,2.19,2,1.94,3.15L34,113l-3.08,23.68a1.68,1.68,0,0,1-1,1.39,5.32,5.32,0,0,1-4.79,0,1.68,1.68,0,0,1-1-1.39h0l-.1-21.93L21,98.64"/><path class="cls-6" d="M27.09,44c.44,2.11,1.39,2.3-.08,3.11a7.8,7.8,0,0,1-6.77.18c-.63-.35-2.71-1.44-1.18-2.88h0a3.29,3.29,0,0,0,.84-1.77"/><path class="cls-7" d="M7.82,52.2c0-7.34,8.77-7.37,12.63-7.48l6.86,1.17.45.15,6.29,5.76c3,2.3,4.05,5.74,4.56,8.78a28.11,28.11,0,0,1,.3,5.65l-.06,2,.16.11,1.8-1.1a.49.49,0,0,1,.17,0c.63,0,3.81.31,3.7,4.27l-5.14,7.94a2.71,2.71,0,0,1-2.19,1.43,3.4,3.4,0,0,1-2.61-.69c-3.61-4.91-3.91-17.29-3.91-17.29l6.92,4.59-7-4.61L11.25,69.44a2.45,2.45,0,0,1-1.82-.17,3.89,3.89,0,0,1-1.88-3.15Z"/><path class="cls-2" d="M24,27.43a6.85,6.85,0,0,1,6.83,6.84v4.2a6.85,6.85,0,0,1-13.68,0v-4.2A6.85,6.85,0,0,1,24,27.43Z"/><path class="cls-2" d="M19.91,42.63a3.27,3.27,0,0,1-.8,1.82h0c-1.52,1.43.55,2.52,1.19,2.87a7.78,7.78,0,0,0,6.76-.18c1.47-.81.53-1,.09-3.11"/><path class="cls-7" d="M28.43,35.67c-1.09,3.15,2.46,2.72-2.07,9h0a2,2,0,0,1-.89.44,8,8,0,0,1-2.58.18,7,7,0,0,1-6-7.1V34.21c0-3.55,2-6.67,6.1-7.11a11.81,11.81,0,0,1,4.45.56c1.78.79,3.52,2.69,3.39,4.09v1a.33.33,0,0,1-.16.25,3.58,3.58,0,0,0-1.46,1.09,6.81,6.81,0,0,0-.81,1.59"/><path class="cls-8" d="M11.24,59.58a21.11,21.11,0,0,1,6.52-13.95h0c.15,1.19,1.43,1.91,2,2.19h.06a7.09,7.09,0,0,0,3.44.78,8.57,8.57,0,0,0,4.06-1,3.35,3.35,0,0,0,.73-.52c.75,2.84,2.55,10.12,2.68,15.61,0,0,.27,11.45,3.51,16.7l.3,9.71c0,1.71-1.44,2.86-3.69,4.17C26.4,96,19.11,95.25,14.62,92.69c-2.26-1.33-4.28-3-4.28-4.67Z"/><path class="cls-9" d="M34.29,79.53v1.31S30.9,77.55,30.1,65l0-1a.46.46,0,0,1,.4-.49.48.48,0,0,1,.31.08S31.17,74.36,34.29,79.53Z"/><path class="cls-10" d="M22.27,15V10.23a8,8,0,0,0,4.07-1.1,3.49,3.49,0,0,0,1.47-3.06V5.65a3.1,3.1,0,0,0-1-2.56A4.22,4.22,0,0,0,24,2.24a4.11,4.11,0,0,0-2.88,1,5.19,5.19,0,0,0-1.51,2.53l-2.2-.84A8.23,8.23,0,0,1,18.29,3,5.89,5.89,0,0,1,19.65,1.5a6.54,6.54,0,0,1,2-1.1,8.64,8.64,0,0,1,5.18,0,6,6,0,0,1,2,1.1A5.19,5.19,0,0,1,30,3.3a5.87,5.87,0,0,1,.45,2.34,5.62,5.62,0,0,1-.56,2.62,5.8,5.8,0,0,1-1.31,1.82,7,7,0,0,1-1.81,1.18,8.51,8.51,0,0,1-2.1.64v3Zm1.29,6.73a2.35,2.35,0,0,1-1.73-.5,1.83,1.83,0,0,1-.53-1.29v-.55a1.84,1.84,0,0,1,.5-1.3,2.4,2.4,0,0,1,1.73-.5,2.35,2.35,0,0,1,1.73.5,1.84,1.84,0,0,1,.5,1.3v.55a1.82,1.82,0,0,1-.5,1.29A2.37,2.37,0,0,1,23.56,21.68Z"/><path class="cls-2" d="M18.77,44.74a2.28,2.28,0,0,1,.34-.29Z"/><polygon class="cls-2" points="19.06 44.41 19.06 44.42 19.07 44.4 19.06 44.41"/><path class="cls-7" d="M23.31,48.72a7,7,0,0,1-3.44-.78h-.06c-.61-.34-1.89-1.09-2-2.19h0c.6-.56,1-.85,1-.85h0c-.92,1.27.88,2.19,1.47,2.54A7.78,7.78,0,0,0,27,47.26c.74-.4.87-.65.76-1.09,0,0,.13.45.34,1.22a3.68,3.68,0,0,1-.73.51A8.55,8.55,0,0,1,23.31,48.72Z"/><polygon class="cls-2" points="42.17 65.56 42.1 65.52 42.35 65.23 42.17 65.56"/><path class="cls-9" d="M30.84,48.83a1.5,1.5,0,0,1,1.46.33h0l1.16,1.1.58.52.43.4a10.92,10.92,0,0,1,.89.77,6.16,6.16,0,0,1,.58.61,6.79,6.79,0,0,1,.5.62,15.82,15.82,0,0,1,2.85,7.29,28.12,28.12,0,0,1,.33,3.67l-.76-.42a25.48,25.48,0,0,0-.31-3.14,14.94,14.94,0,0,0-2.87-7.16c-.18-.22-.37-.44-.57-.65s-.46-.45-.71-.67L34,51.76l-.34-.31L33.14,51,31.48,49.5l-.65-.67Z"/><path class="cls-2" d="M19.74,44.79l-.1.11-.07.06.1-.1-.15-.12h.16Z"/><path class="cls-2" d="M19.73,44.74Z"/><path class="cls-9" d="M11.24,90.05a12.55,12.55,0,0,0,3.38,2.64A18.29,18.29,0,0,0,21,94.89a19.35,19.35,0,0,0,4.3.19H26a12.47,12.47,0,0,0,4.9-1.49,13.68,13.68,0,0,0,2.54-1.79,4.35,4.35,0,0,0,.76-1v.35a2.07,2.07,0,0,1-.76,1.49h0a16.74,16.74,0,0,1-2.19,1.42A13.31,13.31,0,0,1,26,95.71a3.21,3.21,0,0,0-.75.06,6.7,6.7,0,0,1-1.19,0,20.3,20.3,0,0,1-3.12-.24,19.86,19.86,0,0,1-6.73-2.19c-.66-.38-1.25-.77-1.78-1.1a3.07,3.07,0,0,1-1.21-2h0Z"/><path class="cls-9" d="M12.47,53.67a.66.66,0,0,0-.9.26,1.17,1.17,0,0,0-.05.11,21.74,21.74,0,0,0-1,5.49l-.3,10a2.36,2.36,0,0,0,.75,0l.31-9.87A19.3,19.3,0,0,1,11.55,57a18.07,18.07,0,0,1,.92-3.29Z"/><path class="cls-11" d="M27.25,47l.35-.26Z"/><path class="cls-9" d="M23.22,110.39,21.3,100h0a.75.75,0,0,0-.6.88h0L23,112.81,20.6,131.07v.07a.09.09,0,0,1,0,.07h0a.61.61,0,0,1-.14.29.83.83,0,0,0-.11,1h0a1.76,1.76,0,0,0,1-1.22h0v-.18l2-15.44.36-2.87Z"/><path class="cls-8" d="M44.33,42.8a.2.2,0,0,0-.28.09h0l-.6,1.1a.21.21,0,0,0,.09.28l3.83,2.13a.2.2,0,0,0,.25-.09l.63-1.1a.21.21,0,0,0-.09-.28Z"/><rect class="cls-12" x="40.6" y="44.77" width="1.2" height="1.2" transform="translate(-18.69 58.36) rotate(-60)"/><rect class="cls-12" x="39.41" y="46.85" width="1.2" height="1.2" transform="translate(-21.09 58.37) rotate(-60)"/><rect class="cls-12" x="38.21" y="48.92" width="1.2" height="1.2" transform="translate(-23.48 58.37) rotate(-60)"/><rect class="cls-12" x="37.02" y="50.99" width="1.2" height="1.2" transform="translate(-25.87 58.37) rotate(-60)"/><polygon class="cls-13" points="63.7 66.31 89.18 81.02 89.18 120.24 63.7 105.53 63.7 66.31"/><polygon class="cls-14" points="64.48 67.96 88.4 81.76 88.4 118.59 64.48 104.78 64.48 67.96"/><polygon class="cls-4" points="78.62 124.23 101.43 111.07 101.43 96.82 78.62 109.98 78.62 124.23"/><polygon class="cls-15" points="101.43 96.82 77.51 83.01 54.7 96.17 78.62 109.98 101.43 96.82"/><polygon class="cls-4" points="77.57 98.48 77.57 84.23 56.93 96.14 69.16 103.33 77.57 98.48"/><polygon class="cls-16" points="99.32 96.78 86.97 103.91 77.57 98.48 77.57 84.23 99.32 96.78"/><polygon class="cls-17" points="86.97 103.91 78.58 108.76 69.16 103.33 77.57 98.48 86.97 103.91"/><polygon class="cls-4" points="83.51 101.77 106.32 88.6 106.32 74.35 83.51 87.52 83.51 101.77"/><polygon class="cls-15" points="106.32 74.35 82.4 60.54 59.59 73.71 83.51 87.52 106.32 74.35"/><polygon class="cls-4" points="82.45 76.02 82.45 61.76 61.82 73.67 74.05 80.86 82.45 76.02"/><polygon class="cls-16" points="104.2 74.32 91.85 81.44 82.45 76.02 82.45 61.76 104.2 74.32"/><polygon class="cls-18" points="91.85 81.44 83.45 86.3 74.05 80.86 82.45 76.02 91.85 81.44"/><polygon class="cls-15" points="58.8 69.52 65.34 73.3 67.67 76.99 75.44 81.48 77.76 80.47 84.3 84.24 84.3 103 58.8 88.28 58.8 69.52"/><polygon class="cls-13" points="58.16 69.9 64.68 73.67 67.02 77.36 74.78 81.85 77.11 80.84 83.64 84.61 83.64 103.37 58.16 88.66 58.16 69.9"/><polygon class="cls-16" points="84.3 84.24 83.64 84.61 83.64 103.37 84.3 102.99 84.3 84.24"/><polygon class="cls-19" points="67.67 76.99 67.02 77.36 74.78 81.85 75.44 81.48 67.67 76.99"/><polygon class="cls-19" points="58.8 69.52 58.16 69.9 64.68 73.67 65.34 73.3 58.8 69.52"/><polygon class="cls-19" points="84.3 84.24 77.76 80.47 77.11 80.84 83.64 84.61 84.3 84.24"/><polygon class="cls-15" points="65.34 73.3 64.68 73.67 67.02 77.36 67.67 76.99 65.34 73.3"/><polygon class="cls-19" points="75.44 81.48 77.76 80.47 77.11 80.84 74.78 81.85 75.44 81.48"/><polygon class="cls-15" points="53.93 91.99 60.45 95.76 62.78 99.46 70.55 103.94 72.87 102.93 79.41 106.71 79.41 125.47 53.93 110.75 53.93 91.99"/><polygon class="cls-13" points="53.27 92.36 59.8 96.14 62.13 99.83 69.9 104.32 72.23 103.31 78.75 107.08 78.75 125.84 53.27 111.13 53.27 92.36"/><polygon class="cls-16" points="79.41 106.71 78.75 107.08 78.75 125.84 79.41 125.46 79.41 106.71"/><polygon class="cls-19" points="62.78 99.46 62.13 99.83 69.9 104.32 70.55 103.94 62.78 99.46"/><polygon class="cls-19" points="53.93 91.99 53.27 92.36 59.8 96.14 60.45 95.76 53.93 91.99"/><polygon class="cls-19" points="79.41 106.71 72.87 102.93 72.23 103.31 78.75 107.08 79.41 106.71"/><polygon class="cls-15" points="60.45 95.76 59.8 96.14 62.13 99.83 62.78 99.46 60.45 95.76"/><polygon class="cls-19" points="70.55 103.94 72.87 102.93 72.23 103.31 69.9 104.32 70.55 103.94"/><polygon class="cls-16" points="114.66 105.52 89.18 120.24 89.18 81.02 114.66 66.3 114.66 105.52"/><polygon class="cls-13" points="88.4 100.5 88.4 118.59 89.18 120.24 89.18 100.2 88.53 100.58 88.4 100.5"/><polygon class="cls-19" points="89.18 51.6 63.7 66.31 89.18 81.02 114.66 66.3 89.18 51.6"/><polygon class="cls-13" points="64.48 67.96 88.4 81.76 88.4 100.5 88.53 100.58 89.18 100.2 89.18 81.02 63.7 66.31 63.7 71.33 64.48 70.88 64.48 67.96"/></g></svg>