<svg id="Layer_1" data-name="Layer 1" xmlns="http://www.w3.org/2000/svg" xmlns:xlink="http://www.w3.org/1999/xlink" viewBox="0 0 88 88"><defs><style>.cls-1{fill:#dcdcdc;}.cls-2{fill:#bebebe;}.cls-3{fill:url(#linear-gradient);}.cls-4{opacity:0.5;}.cls-5{fill:#97c1ff;}.cls-6{fill:#6ea6ff;}.cls-7{fill:#c9deff;}.cls-8{fill:#a4a4a4;}</style><linearGradient id="linear-gradient" x1="61.41" y1="12.15" x2="68.01" y2="12.15" gradientTransform="matrix(1, 0, 0, -1, 0, 88)" gradientUnits="userSpaceOnUse"><stop offset="0" stop-color="#a4a4a4"/><stop offset="1" stop-color="#6f6f6f"/></linearGradient></defs><title>Empty State - No search results (small, 90px)</title><g id="Exploration"><polygon class="cls-1" points="61.41 73.44 44.72 69.6 51.3 59.85 68 63.69 61.41 73.44"/><polygon class="cls-2" points="61.41 73.44 61.42 88 44.73 84.16 44.72 69.6 61.41 73.44"/><polygon class="cls-3" points="68 63.69 68.01 78.25 61.42 88 61.41 73.44 68 63.69"/><g class="cls-4"><polygon points="0 52.32 24.75 66.65 49.49 52.32 24.75 37.98 0 52.32"/></g><polygon class="cls-1" points="49.49 28.65 37.11 21.48 24.75 28.65 37.11 35.81 49.49 28.65"/><polygon class="cls-5" points="37.11 50.1 37.11 35.85 24.75 28.68 24.75 42.95 37.11 50.1"/><polygon class="cls-1" points="24.75 28.65 12.38 21.48 0 28.65 12.38 35.81 24.75 28.65"/><polygon class="cls-6" points="24.75 42.95 24.75 28.68 12.38 35.85 12.38 50.1 24.75 42.95"/><polygon class="cls-7" points="12.38 35.79 24.75 42.96 37.11 35.79 24.75 28.63 12.38 35.79"/><polygon class="cls-1" points="37.11 7.17 24.75 0 12.38 7.17 24.75 14.32 37.11 7.17"/><polygon class="cls-8" points="37.11 21.46 37.11 7.2 24.75 14.37 24.75 28.63 37.11 21.46"/><polygon class="cls-2" points="24.75 28.63 24.75 14.37 12.38 7.2 12.38 21.46 24.75 28.63"/><polygon class="cls-1" points="37.11 35.8 24.75 28.64 12.38 35.8 24.75 42.97 37.11 35.8"/><polygon class="cls-5" points="24.75 57.27 24.75 43 12.38 35.84 12.38 50.1 24.75 57.27"/><polygon class="cls-2" points="24.75 57.27 24.75 42.95 0 28.68 0 42.95 24.75 57.27"/><polygon class="cls-8" points="49.49 42.95 49.49 28.68 24.75 42.95 24.75 57.27 49.49 42.95"/><polygon class="cls-1" points="68.84 54.82 52.67 58.98 45.76 49.47 61.93 45.3 68.84 54.82"/><polygon class="cls-8" points="68.84 54.82 68.94 69.01 52.78 73.17 52.67 58.98 68.84 54.82"/><polygon class="cls-2" points="52.67 58.98 52.78 73.17 45.87 63.65 45.76 49.47 52.67 58.98"/><polygon class="cls-7" points="69.67 37.52 57.3 30.35 44.93 37.52 57.3 44.69 69.67 37.52"/><polygon class="cls-6" points="69.67 51.82 69.67 37.55 57.3 44.72 57.3 58.98 69.67 51.82"/><polygon class="cls-5" points="57.3 58.98 57.3 44.72 44.93 37.55 44.93 51.82 57.3 58.98"/></g></svg>