<?xml version="1.0" encoding="utf-8"?>
<!-- Generator: Adobe Illustrator 23.1.1, SVG Export Plug-In . SVG Version: 6.00 Build 0)  -->
<svg version="1.1" id="Layer_1" xmlns="http://www.w3.org/2000/svg" xmlns:xlink="http://www.w3.org/1999/xlink" x="0px" y="0px"
	 viewBox="0 0 120 152" style="enable-background:new 0 0 120 152;" xml:space="preserve">
<style type="text/css">
	.st0{fill:#DCDCDC;}
	.st1{fill:#BEBEBE;}
	.st2{fill:url(#SVGID_1_);}
	.st3{fill:#8C8C8C;}
	.st4{opacity:0.15;}
	.st5{fill:#C9DEFF;}
	.st6{fill:#6EA6FF;}
	.st7{fill:#97C1FF;}
	.st8{fill:#3D3D3D;}
	.st9{fill:#565656;}
	.st10{fill:#FFFFFF;}
	.st11{fill:none;}
	.st12{opacity:0.3;enable-background:new    ;}
	.st13{opacity:0.5;}
	.st14{fill:#A4A4A4;}
</style>
<title>deploy.lg</title>
<g id="Exploration">
	<polygon class="st0" points="72.3,137.3 55.4,133.4 62.1,123.5 79,127.4 	"/>
	<polygon class="st1" points="72.3,137.3 72.3,152 55.4,148.1 55.4,133.4 	"/>
	
		<linearGradient id="SVGID_1_" gradientUnits="userSpaceOnUse" x1="72.3092" y1="37.695" x2="78.9792" y2="37.695" gradientTransform="matrix(1 0 0 1 0 102)">
		<stop  offset="0" style="stop-color:#A4A4A4"/>
		<stop  offset="1" style="stop-color:#6F6F6F"/>
	</linearGradient>
	<polygon class="st2" points="79,127.4 79,142.1 72.3,152 72.3,137.3 	"/>
	<path class="st3" d="M25.8,43.4l11.5-8.3c0.2-0.1,0.4-0.1,0.6-0.1c0.6-0.1,1.2-0.1,1.7,0c0.2,0,0.4,0,0.7,0
		c1.3-0.1,6.5-0.8,4.4-4.4c-1-1.7-3.4-1.1-5-0.6c-0.9,0.6-1.7,1.3-2.5,2l0,0L22.8,39L25.8,43.4z"/>
	<g class="st4">
		<path d="M18.1,120.9l-8.6-5c-5.3-3.1-4.6-8.4,1.5-12l5.6-3.2c6.1-3.5,15.4-3.9,20.7-0.9l8.6,5c5.3,3,4.6,8.4-1.5,12l-5.6,3.2
			C32.7,123.6,23.5,124,18.1,120.9z"/>
	</g>
	<polygon class="st5" points="63.3,25.7 50.8,18.5 38.2,25.7 50.8,33 	"/>
	<polygon class="st6" points="63.3,40.2 63.3,25.7 50.8,33 50.8,47.4 	"/>
	<polygon class="st7" points="50.8,47.4 50.8,33 38.2,25.7 38.2,40.2 	"/>
	<path class="st3" d="M35.6,47.1l13.1-5.5c0.2-0.1,0.3-0.3,0.4-0.5c0.5-0.6,0.2-0.9,0.4-1.7c0.1-0.2,0.2-0.4,0.3-0.6
		c0.7-1.1,3.7-5.3,5.9-1.8c1,1.6-0.6,3.5-1.8,4.7c-0.8,0.6-1.7,1.2-2.7,1.5l0,0L37.8,52L35.6,47.1z"/>
	<path class="st8" d="M28.8,106.2c-0.1,0.5-0.4,1-0.9,1.2l-0.3,0.1l-7.6,3.9c-1.1,0.6-2.4,0.6-3.5,0c-0.4-0.2-0.6-0.5-0.7-0.9l0,0
		v-4.6l1.2-1.4l5.9-0.3c0.3,0,0.5-0.1,0.8-0.2l0,0c0.7-0.3,1.4-0.4,2.2-0.4c0.7,0,1.3,0.2,1.9,0.5c0.5,0.2,0.8,0.7,0.9,1.2
		L28.8,106.2z"/>
	<path class="st8" d="M16.6,107.1c-0.7-0.4-0.9-1.3-0.5-2c0,0,0,0,0,0c0.1-0.2,0.3-0.4,0.5-0.5c1.1-0.6,2.4-0.6,3.5,0
		c0.6,0.2,0.8,0.8,0.6,1.4c-0.1,0.3-0.3,0.5-0.6,0.6C19.2,107.2,17.6,107.7,16.6,107.1z"/>
	<path class="st3" d="M16.9,102.5c0.9-0.5,2.1-0.5,3,0c0.3,0.2,0.6,0.5,0.6,0.9l0,0v2.4l0,0c0,0.4-0.3,0.7-0.6,0.9
		c-0.9,0.5-2.1,0.5-3,0c-0.3-0.2-0.6-0.5-0.6-0.9v-2.4C16.3,103,16.5,102.6,16.9,102.5z"/>
	<polyline class="st9" points="38.2,110.6 38.2,110.6 38.2,111.7 38.2,111.7 	"/>
	<path class="st8" d="M38.2,111.7c-0.1,0.5-0.4,1-0.9,1.2l-0.3,0.1l-7.6,3.9c-1.1,0.6-2.4,0.6-3.5,0c-0.4-0.2-0.7-0.6-0.7-1l0,0
		v-4.6l1.2-1.4l5.9-0.4c0.3,0,0.5-0.1,0.8-0.2l0,0c0.7-0.3,1.5-0.4,2.2-0.4c0.7,0,1.3,0.2,1.9,0.5c0.5,0.2,0.8,0.6,0.9,1.1
		L38.2,111.7z"/>
	<path class="st8" d="M26,112.6c-0.7-0.4-0.9-1.3-0.5-2c0.1-0.2,0.3-0.4,0.5-0.5c1.1-0.6,2.4-0.6,3.5,0c0.6,0.2,0.8,0.8,0.6,1.4
		c-0.1,0.3-0.3,0.5-0.6,0.6C28.5,112.6,27,113.1,26,112.6z"/>
	<path class="st3" d="M26.2,107.9c0.9-0.5,2.1-0.5,3,0c0.3,0.2,0.6,0.5,0.6,0.9l0,0v2.4l0,0c0,0.4-0.3,0.7-0.6,0.9
		c-0.9,0.5-2.1,0.5-3,0c-0.3-0.2-0.6-0.5-0.6-0.9v-2.4C25.7,108.4,25.9,108.1,26.2,107.9z"/>
	<path class="st8" d="M11.7,50.2L11.7,50.2c-0.1-1.1,0.6-3.9,1.9-4.7c2.9-1.5,6.4-1.5,9.4,0c1.4,0.8,2,3.7,1.9,4.7l0,0v0.3l0.6,20.3
		l-4,31.2v0.2l0,0c-0.1,0.5-0.5,1-1,1.2c-1.5,0.7-3.2,0.7-4.7,0c-0.6-0.2-1-0.8-1-1.4l-0.2-19.3l-3.1-21V50.2H11.7z"/>
	<path class="st8" d="M21.1,55.7v-0.2l0,0c0.1-1.2,0.9-2.3,2-2.8c2.9-1.5,6.4-1.5,9.4,0c1.5,0.8,2.1,2,1.9,3.1l-0.3,28.4l-3,23.2
		c-0.1,0.6-0.4,1.1-1,1.3c-1.5,0.7-3.2,0.7-4.7,0c-0.6-0.2-0.9-0.8-1-1.4l0,0L24.3,86l-3-15.8"/>
	<path class="st10" d="M34.4,55.5L34.4,55.5C34.2,57.8,33,59.9,31,61c-4.4,2.5-11.6,1.8-16-0.8c-2.2-1.3-3.3-3-3.3-4.6V28.2"/>
	<path class="st11" d="M27.3,16.6c0.4,2.1,1.3,2.3-0.1,3.1c-2.1,1.1-4.5,1.1-6.6,0.2c-0.6-0.4-2.7-1.4-1.2-2.8l0,0
		c0.4-0.5,0.7-1.1,0.8-1.8"/>
	<path class="st9" d="M10.8,41.7c0.2,0,0.4,0,0.5,0c0.1,0,0.2,0,0.2,0.1v0l-0.2,13.3c0,1.7,1.4,3.8,3.6,5.1
		c4.4,2.5,11.6,3.3,15.9,0.8c2-1.2,3.2-3.3,3.3-5.6v-4c0.1,0.2,0.3,0.4,0.4,0.6s1.2,1.7,4.8-0.7L51,44.2c0.1-0.1,0-0.2-0.2-0.2
		c-2.4-0.2-2.3-2.1-2.3-2.7c0-0.1-0.1-0.1-0.2-0.1c0,0,0,0,0,0h-0.1l-9,3.2c-0.1,0.1-0.2,0.1-0.2,0c0,0,0,0,0,0c0,0,0-0.1,0-0.1
		v-7.9c-0.3-3.5-0.8-8.9-4.9-12.1l-4.3-3.7l-0.2-0.1l0,0L28,18.9l0,0l-0.4-0.4c0,0-0.1-0.1-0.1,0l-6.7-1.1l0,0
		c-3.8,0.1-12.4,0.1-12.4,7.3l0.6,13.7c0,1.2,0.8,3.4,1.9,3.3"/>
	<path class="st3" d="M24.2,0.3c3.7,0,6.7,3,6.7,6.7v4.1c-0.1,3.7-3.3,6.6-7,6.4c-3.5-0.1-6.3-2.9-6.4-6.4V7.1
		C17.5,3.4,20.5,0.4,24.2,0.3C24.2,0.3,24.2,0.3,24.2,0.3z"/>
	<path class="st3" d="M20.2,15.3c-0.1,0.7-0.4,1.3-0.8,1.7l0,0c-1.5,1.4,0.5,2.5,1.2,2.8c2.1,0.9,4.6,0.9,6.6-0.2
		c1.4-0.8,0.5-1,0.1-3"/>
	<path class="st8" d="M28.7,8.4c-1,3.1,2.4,2.7-2,8.8l0,0c-0.3,0.2-0.6,0.4-0.9,0.4c-0.8,0.2-1.7,0.2-2.5,0.2c-3.4-0.5-6-3.5-5.8-7
		V7c0-3.5,2-6.5,6-7c1.5-0.1,2.9,0.1,4.3,0.6c1.8,0.8,3.5,2.6,3.3,4v1c0,0.1-0.1,0.2-0.2,0.2c-0.6,0.2-1,0.6-1.4,1.1
		C29.2,7.4,28.9,7.9,28.7,8.4"/>
	<path class="st12" d="M10.8,41.7c0.2,0,0.4,0,0.5,0c0.1,0,0.2,0,0.2,0.1v0l0.2-13.6l0,0c-0.4,0-0.7,0.3-0.7,0.7c0,0,0,0,0,0l0,0
		L10.8,41.7"/>
	<path class="st12" d="M34.3,56.3c-0.3,1.6-1.2,3.1-2.4,4.2c-1.5,1.1-3.2,1.8-5.1,2c-3.7,0.5-7.4-0.1-10.8-1.7
		c-1.9-0.8-3.4-2.3-4.3-4.1l0,0c0,1.1,0.5,2.2,1.3,3c1,0.9,2.2,1.6,3.4,2.1c2,0.8,4.2,1.3,6.4,1.5c3.6,0.3,8.1-0.5,10.5-3.4
		c0.6-0.7,0.9-1.6,0.9-2.5l0,0V56C34.3,56.1,34.3,56.2,34.3,56.3z"/>
	<path class="st12" d="M34.4,51.5c-0.4,0.1-0.8-0.1-0.9-0.5l-1.9-8c-0.2-0.9-0.4-1.9-0.5-2.8l0,0c0.1-1.3-0.1-2.6-0.6-3.8
		c-0.2-0.3-0.1-0.7,0.2-1l0,0c1.2,1.4,1.2,3.1,1.2,4.8l0,0c0,0.9,0.2,1.8,0.4,2.7L34.4,51.5L34.4,51.5z"/>
	<circle class="st8" cx="19.6" cy="3.2" r="2.8"/>
	<path class="st12" d="M20.8,102.5c0.1-0.1,0.1-0.2,0.1-0.3l0,0c0,0,0,0,0-0.1V102l2.3-17.9l-2.6-13.7c0.4-0.1,0.8,0.2,0.9,0.6
		l2,10.8l0.5,2.3l-0.4,2.8L21.7,102v0.2l0,0c-0.1,0.5-0.5,1-1,1.2l0,0C20.5,103.1,20.6,102.7,20.8,102.5z"/>
	<g class="st13">
		<polygon points="64,76.1 89,90.6 114.1,76.1 89,61.6 		"/>
	</g>
	<polygon class="st0" points="114.1,52.1 101.6,44.9 89,52.1 101.6,59.4 	"/>
	<polygon class="st7" points="101.6,73.9 101.6,59.4 89,52.2 89,66.6 	"/>
	<polygon class="st0" points="89,52.1 76.5,44.9 64,52.1 76.5,59.4 	"/>
	<polygon class="st6" points="89,66.6 89,52.2 76.5,59.4 76.5,73.9 	"/>
	<polygon class="st5" points="76.5,59.4 89,66.6 101.6,59.4 89,52.1 	"/>
	<polygon class="st0" points="101.6,30.4 89,23.1 76.5,30.4 89,37.6 	"/>
	<polygon class="st14" points="101.6,44.9 101.6,30.4 89,37.7 89,52.1 	"/>
	<polygon class="st1" points="89,52.1 89,37.7 76.5,30.4 76.5,44.9 	"/>
	<polygon class="st0" points="101.6,59.4 89,52.1 76.5,59.4 89,66.6 	"/>
	<polygon class="st7" points="89,81.1 89,66.7 76.5,59.4 76.5,73.9 	"/>
	<polygon class="st1" points="89,81.1 89,66.6 64,52.2 64,66.6 	"/>
	<polygon class="st14" points="114.1,66.6 114.1,52.2 89,66.6 89,81.1 	"/>
	<polygon class="st0" points="79.8,118.4 63.5,122.6 56.5,113 72.8,108.8 	"/>
	<polygon class="st14" points="79.8,118.4 79.9,132.8 63.6,137 63.5,122.6 	"/>
	<polygon class="st1" points="63.5,122.6 63.6,137 56.6,127.3 56.5,113 	"/>
</g>
</svg>
