<svg id="Layer_1" data-name="Layer 1" xmlns="http://www.w3.org/2000/svg" xmlns:xlink="http://www.w3.org/1999/xlink" viewBox="0 0 88 88"><defs><style>.cls-1{fill:#c9deff;}.cls-2{fill:#6ea6ff;}.cls-3{fill:#97c1ff;}.cls-4{fill:url(#linear-gradient);}.cls-5{fill:url(#linear-gradient-2);}.cls-6{fill:url(#linear-gradient-3);}.cls-7{fill:#bebebe;}.cls-8{fill:url(#linear-gradient-4);}.cls-9{fill:url(#linear-gradient-5);}.cls-10{fill:url(#linear-gradient-6);}.cls-11{fill:#004cc5;opacity:0.25;isolation:isolate;}</style><linearGradient id="linear-gradient" x1="2621.05" y1="-2963.88" x2="2608.35" y2="-2959.25" gradientTransform="matrix(-0.5, 0.87, 0.87, 0.5, 3888.96, -765.12)" gradientUnits="userSpaceOnUse"><stop offset="0" stop-color="#6ea6ff"/><stop offset="0.36" stop-color="#71a8ff"/><stop offset="0.63" stop-color="#7baeff"/><stop offset="0.87" stop-color="#8bb9ff"/><stop offset="1" stop-color="#97c1ff"/></linearGradient><linearGradient id="linear-gradient-2" x1="2626.19" y1="-2943.61" x2="2617.56" y2="-2940.47" gradientTransform="matrix(-0.5, 0.87, 0.87, 0.5, 3888.96, -765.12)" gradientUnits="userSpaceOnUse"><stop offset="0" stop-color="#a4a4a4"/><stop offset="0.22" stop-color="#969696"/><stop offset="0.49" stop-color="#8e8e8e"/><stop offset="1" stop-color="#8c8c8c"/></linearGradient><linearGradient id="linear-gradient-3" x1="424.54" y1="-2939.67" x2="433.4" y2="-2939.67" gradientTransform="translate(635.05 2944.92) rotate(-19.89)" xlink:href="#linear-gradient-2"/><linearGradient id="linear-gradient-4" x1="2643.39" y1="-2942.07" x2="2621.91" y2="-2896" gradientTransform="matrix(-0.5, 0.87, 0.87, 0.5, 3888.96, -765.12)" gradientUnits="userSpaceOnUse"><stop offset="0" stop-color="#a4a4a4"/><stop offset="0.38" stop-color="#b6b6b6"/><stop offset="1" stop-color="#dcdcdc"/></linearGradient><linearGradient id="linear-gradient-5" x1="2620.74" y1="-2900.31" x2="2620.89" y2="-2900.31" gradientTransform="matrix(-0.5, 0.87, 0.87, 0.5, 3888.96, -765.12)" gradientUnits="userSpaceOnUse"><stop offset="0" stop-color="#3d3d3d"/><stop offset="0.42" stop-color="#4f4f4f"/><stop offset="1" stop-color="#6f6f6f"/></linearGradient><linearGradient id="linear-gradient-6" x1="2629.14" y1="-2945.19" x2="2610.82" y2="-2905.91" xlink:href="#linear-gradient-5"/></defs><title>Empty State - No search results (small, 90px)</title><g id="Exploration"><polygon class="cls-1" points="60.32 62.27 45.5 53.69 30.67 62.27 45.5 70.87 60.32 62.27"/><polygon class="cls-1" points="63.5 60.44 45.5 50.02 27.5 60.44 45.5 70.87 63.5 60.44"/><polygon class="cls-2" points="60.32 79.42 60.32 62.33 45.5 70.91 45.5 88 60.32 79.42"/><polygon class="cls-3" points="45.5 88 45.5 70.91 30.67 62.33 30.67 79.42 45.5 88"/><path class="cls-4" d="M22.28,35.48h0a4.87,4.87,0,0,0,5.22,1.24c3.37-.93,6.09-4.16,6.09-7.21a4,4,0,0,0-1.09-2.79L11.37,1.63h0A4.78,4.78,0,0,0,6.09.31C2.73,1.23,0,4.47,0,7.52A4.08,4.08,0,0,0,.73,9.93h0l.37.44Z"/><ellipse class="cls-1" cx="27.5" cy="31.18" rx="6.75" ry="4.98" transform="translate(-13.61 24.99) rotate(-40.02)"/><path class="cls-5" d="M29,40.26h0a3.25,3.25,0,0,0,3.49.83,5.53,5.53,0,0,0,4.08-4.83,2.65,2.65,0,0,0-.71-1.91l-4.52-5.6h0a3.22,3.22,0,0,0-3.55-.91,5.55,5.55,0,0,0-4.08,4.85,2.78,2.78,0,0,0,.47,1.61h0l.24.29Z"/><ellipse class="cls-6" cx="33.07" cy="37.86" rx="4.56" ry="3.35" transform="translate(-16.6 30.13) rotate(-40.02)"/><path class="cls-7" d="M27.38,54.26c-9.76-5.67-9.71-14.86.12-20.54s25.69-5.68,35.38,0,9.76,14.86,0,20.53S37.14,59.92,27.38,54.26Zm2.48-19.18C21.36,40,21.32,48,29.76,52.9S52,57.81,60.5,52.9s8.56-12.91.11-17.81-22.24-4.91-30.75,0"/><path class="cls-8" d="M62.88,64.5c4.77-2.74,7.22-6.33,7.37-10h0V43.94a9.51,9.51,0,0,1-1.64,5.13,16.67,16.67,0,0,1-5.73,5.12l-.56.32c-9.78,5.28-25.09,5.28-34.72-.21l-.17-.11a16.44,16.44,0,0,1-5.66-5A9.42,9.42,0,0,1,20.15,44V54.31c0,3.72,2.41,7.43,7.27,10.26C37.14,70.17,53,70.17,62.88,64.5Z"/><path class="cls-9" d="M66.84,54.45V54.3A.38.38,0,0,1,66.84,54.45Z"/><path class="cls-10" d="M29.72,45.33a22.42,22.42,0,0,1,3.21-1.52A35.53,35.53,0,0,1,57,43.7a23,23,0,0,1,3.44,1.63A14.8,14.8,0,0,1,65,49.17a8.45,8.45,0,0,0,1.89-4.92v-.6h0c-.13-3.1-2.22-6.19-6.3-8.56-8.45-4.91-22.24-4.91-30.74,0-4.19,2.42-6.33,5.59-6.41,8.77h0V44a8.38,8.38,0,0,0,1.81,5.06A15.32,15.32,0,0,1,29.72,45.33Z"/><path class="cls-11" d="M60.48,52.9C69,48,69,40,60.58,35.09s-22.24-4.91-30.74,0S21.29,48,29.73,52.91,52,57.81,60.48,52.9Z"/></g></svg>