<?xml version="1.0" encoding="utf-8"?>
<!-- Generator: Adobe Illustrator 23.1.1, SVG Export Plug-In . SVG Version: 6.00 Build 0)  -->
<svg version="1.1" id="Layer_1" xmlns="http://www.w3.org/2000/svg" xmlns:xlink="http://www.w3.org/1999/xlink" x="0px" y="0px"
	 viewBox="0 0 120 152" style="enable-background:new 0 0 120 152;" xml:space="preserve">
<style type="text/css">
	.st0{opacity:0.15;}
	.st1{fill:url(#SVGID_1_);}
	.st2{fill:#C7DCFD;}
	.st3{fill:#0062FF;}
	.st4{fill:#3D3D3D;}
	.st5{fill:#DCDCDC;}
	.st6{fill:#A4A4A4;}
	.st7{fill:#FFFFFF;}
	.st8{opacity:0.3;enable-background:new    ;}
	.st9{fill:#565656;}
	.st10{fill:#97C1FF;}
	.st11{fill:#C9DEFF;}
	.st12{fill:url(#SVGID_2_);}
	.st13{fill:url(#SVGID_3_);}
	.st14{fill:url(#SVGID_4_);}
	.st15{fill:#BEBEBE;}
	.st16{opacity:0.25;fill:#003589;enable-background:new    ;}
</style>
<title>no-search-results.lg</title>
<g id="Exploration">
	<g class="st0">
		<path d="M99.5,149.9l8.8-5.1c5.4-3.1,4.7-8.6-1.6-12.2l-5.8-3.3c-6.3-3.6-15.8-3.9-21.2-0.8l-8.8,5.1c-5.4,3.1-4.7,8.6,1.6,12.2
			l5.8,3.3C84.5,152.6,94.1,153,99.5,149.9z"/>
	</g>
</g>
<g id="Nothing_Small_">
	
		<linearGradient id="SVGID_1_" gradientUnits="userSpaceOnUse" x1="22.7755" y1="49.87" x2="22.7755" y2="19.3" gradientTransform="matrix(1 0 0 1 0 102)">
		<stop  offset="0" style="stop-color:#282828"/>
		<stop  offset="0.3" style="stop-color:#4A4A4A"/>
		<stop  offset="0.77" style="stop-color:#7A7A7A"/>
		<stop  offset="1" style="stop-color:#8C8C8C"/>
	</linearGradient>
	<polygon class="st1" points="36,121.3 9.6,136.6 35.9,151.8 36,151.9 36,151.8 	"/>
	<polygon class="st2" points="62.4,136.6 62.4,136.6 36,121.3 36,121.3 62.4,136.6 	"/>
	<path class="st3" d="M91.3,15.4v-4.9c1.5,0,2.9-0.4,4.2-1.1c1-0.7,1.6-1.9,1.5-3.2V5.8c0.1-1-0.3-2-1-2.6c-0.8-0.6-1.8-0.9-2.8-0.9
		c-1.1-0.1-2.2,0.3-3,1c-0.8,0.7-1.3,1.6-1.6,2.6L86.3,5c0.2-0.7,0.5-1.3,0.9-2c0.4-0.6,0.9-1.1,1.4-1.5c0.6-0.5,1.3-0.9,2-1.1
		C91.5,0.1,92.4,0,93.3,0c0.9,0,1.8,0.1,2.7,0.4c0.8,0.2,1.5,0.7,2.1,1.2c0.6,0.5,1,1.2,1.3,1.9c0.3,0.8,0.5,1.6,0.5,2.4
		c0,1.7-0.7,3.3-1.9,4.4c-0.6,0.5-1.2,0.9-1.9,1.3c-0.7,0.3-1.4,0.5-2.2,0.7v3.2L91.3,15.4z M92.6,22.4c-0.6,0.1-1.3-0.1-1.8-0.5
		c-0.3-0.4-0.5-0.8-0.5-1.3v-0.6c0-0.5,0.2-1,0.5-1.3c0.5-0.4,1.1-0.6,1.8-0.5c0.6-0.1,1.3,0.1,1.8,0.5c0.3,0.4,0.5,0.8,0.5,1.3v0.6
		c0,0.5-0.2,1-0.5,1.4C93.9,22.3,93.3,22.4,92.6,22.4L92.6,22.4z"/>
	<path class="st4" d="M88.5,143.1l0.3-0.1l8-4.1c1.2-0.6,2.5-0.6,3.7,0c0.6,0.2,0.9,0.8,0.7,1.4c0,0,0,0,0,0
		c-0.1,0.3-0.4,0.6-0.7,0.7l-3.8,2.5l-3.3,2.2l-0.2,0.1c-1.4,0.7-3.1,0.7-4.6,0c-0.7-0.2-1.2-0.9-1-1.7c0,0,0,0,0,0
		C87.7,143.6,88.1,143.2,88.5,143.1z"/>
	<path class="st4" d="M78.6,137.5l0.3-0.2l8-4.1c1.1-0.6,2.5-0.6,3.6,0c0.6,0.2,0.9,0.8,0.7,1.4c0,0,0,0,0,0
		c-0.1,0.3-0.4,0.6-0.7,0.7l-3.8,2.5l-3.3,2.2c-0.1,0.1-0.1,0.1-0.2,0.1c-1.4,0.7-3.1,0.7-4.6,0c-0.7-0.2-1.1-1-0.9-1.8c0,0,0,0,0,0
		C77.9,138,78.2,137.7,78.6,137.5z"/>
	<path class="st4" d="M77.7,137.8v0.7c0.1,0.6,0.4,1.1,0.9,1.3c1.4,0.7,3.1,0.7,4.6,0l0.2-0.1l3.3-2.2l3.8-2.5
		c0.4-0.2,0.7-0.6,0.8-1.1v-2.6c-0.1-0.5-0.3-0.9-0.8-1.1c-1.1-0.6-2.4-0.6-3.6,0l0,0l-3.1,1.7l-5.8,4.9
		C77.8,137,77.6,137.4,77.7,137.8z"/>
	<path class="st4" d="M90.5,132.9c0.7-0.4,1-1.4,0.5-2.1c-0.1-0.2-0.3-0.4-0.5-0.5c-1.1-0.6-2.5-0.6-3.6,0c-0.6,0.2-0.9,0.8-0.7,1.4
		c0.1,0.3,0.4,0.6,0.7,0.7C87.9,133,89.5,133.5,90.5,132.9z"/>
	<path class="st4" d="M87.6,143.4v0.7c0.1,0.6,0.4,1.1,1,1.3c1.4,0.7,3.1,0.7,4.5,0l0.2-0.1l3.3-2.2l3.9-2.4
		c0.4-0.2,0.7-0.6,0.7-1.1v-2.4c0-0.1,0-0.1,0-0.2c-0.1-0.5-0.3-0.9-0.7-1.1c-1.1-0.5-2.4-0.5-3.6,0l0,0l-3.1,1.7l-5.8,4.8
		C87.8,142.7,87.6,143.1,87.6,143.4z"/>
	<path class="st4" d="M100.5,138.5c0.7-0.4,1-1.4,0.5-2.1c-0.1-0.2-0.3-0.4-0.5-0.6c-1.1-0.6-2.5-0.6-3.7,0
		c-0.6,0.2-0.9,0.8-0.7,1.4c0,0,0,0,0,0c0.1,0.3,0.4,0.6,0.7,0.7C97.8,138.6,99.4,139.1,100.5,138.5z"/>
	<path class="st5" d="M97,133.8c1-0.5,2.2-0.5,3.1,0c0.4,0.2,0.6,0.5,0.7,0.9l0,0v2.6l0,0c0,0.4-0.3,0.7-0.6,0.9
		c-1,0.5-2.2,0.5-3.1,0c-0.4-0.2-0.6-0.5-0.7-0.9v-2.6C96.3,134.3,96.6,134,97,133.8z"/>
	<path class="st5" d="M87,128.2c1-0.5,2.2-0.5,3.2,0c0.4,0.2,0.6,0.5,0.7,0.9v2.6c0,0.4-0.3,0.8-0.7,0.9c-1,0.5-2.2,0.5-3.2,0
		c-0.4-0.2-0.6-0.5-0.7-0.9v-2.6C86.4,128.7,86.7,128.3,87,128.2z"/>
	<path class="st6" d="M97.5,139.1l0.6-0.6c0.2-0.2,0.2-0.5,0-0.8v-0.1l-1.6-1.3c-0.2-0.1,0.2,0.1,0,0l0,0c-0.3-0.3-0.6-0.4-1-0.4
		c-0.3,0-0.5,0.2-0.7,0.4l-1,1.2l-5.8,4.9c-0.3,0.2-0.5,0.6-0.4,0.9v0.7"/>
	<path class="st6" d="M88.5,143.1l0.3-0.1l8-4.1c1.2-0.6,2.5-0.6,3.7,0c0.6,0.2,0.9,0.8,0.7,1.4c0,0,0,0,0,0
		c-0.1,0.3-0.4,0.6-0.7,0.7l-3.8,2.5l-3.3,2.2l-0.2,0.1c-1.4,0.7-3.1,0.7-4.6,0c-0.7-0.2-1.2-0.9-1-1.7c0,0,0,0,0,0
		C87.7,143.6,88.1,143.2,88.5,143.1z"/>
	<path class="st6" d="M78.6,137.5l0.3-0.2l8-4.1c1.1-0.6,2.5-0.6,3.6,0c0.6,0.2,0.9,0.8,0.7,1.4c0,0,0,0,0,0
		c-0.1,0.3-0.4,0.6-0.7,0.7l-3.8,2.5l-3.3,2.2c-0.1,0.1-0.1,0.1-0.2,0.1c-1.4,0.7-3.1,0.7-4.6,0c-0.7-0.2-1.1-1-0.9-1.8c0,0,0,0,0,0
		C77.9,138,78.2,137.7,78.6,137.5z"/>
	<path class="st4" d="M77.7,137.8v0.7c0.1,0.6,0.4,1.1,0.9,1.3c1.4,0.7,3.1,0.7,4.6,0l0.2-0.1l3.3-2.2l3.8-2.5
		c0.4-0.2,0.7-0.6,0.8-1.1v-2.6c-0.1-0.5-0.3-0.9-0.8-1.1c-1.1-0.6-2.4-0.6-3.6,0l0,0l-3.1,1.7l-5.8,4.9
		C77.8,137,77.6,137.4,77.7,137.8z"/>
	<path class="st4" d="M90.5,132.9c0.7-0.4,1-1.4,0.5-2.1c-0.1-0.2-0.3-0.4-0.5-0.5c-1.1-0.6-2.5-0.6-3.6,0c-0.6,0.2-0.9,0.8-0.7,1.4
		c0.1,0.3,0.4,0.6,0.7,0.7C87.9,133,89.5,133.5,90.5,132.9z"/>
	<path class="st4" d="M87.6,143.4v0.7c0.1,0.6,0.4,1.1,1,1.3c1.4,0.7,3.1,0.7,4.5,0l0.2-0.1l3.3-2.2l3.9-2.4
		c0.4-0.2,0.7-0.6,0.7-1.1v-2.4c0-0.1,0-0.1,0-0.2c-0.1-0.5-0.3-0.9-0.7-1.1c-1.1-0.5-2.4-0.5-3.6,0l0,0l-3.1,1.7l-5.8,4.8
		C87.8,142.7,87.6,143.1,87.6,143.4z"/>
	<path class="st4" d="M100.5,138.5c0.7-0.4,1-1.4,0.5-2.1c-0.1-0.2-0.3-0.4-0.5-0.6c-1.1-0.6-2.5-0.6-3.7,0
		c-0.6,0.2-0.9,0.8-0.7,1.4c0,0,0,0,0,0c0.1,0.3,0.4,0.6,0.7,0.7C97.8,138.6,99.4,139.1,100.5,138.5z"/>
	<path class="st5" d="M97,133.8c1-0.5,2.2-0.5,3.1,0c0.4,0.2,0.6,0.5,0.7,0.9l0,0v2.6l0,0c0,0.4-0.3,0.7-0.6,0.9
		c-1,0.5-2.2,0.5-3.1,0c-0.4-0.2-0.6-0.5-0.7-0.9v-2.6C96.3,134.3,96.6,134,97,133.8z"/>
	<path class="st5" d="M87,128.2c1-0.5,2.2-0.5,3.2,0c0.4,0.2,0.6,0.5,0.7,0.9v2.6c0,0.4-0.3,0.8-0.7,0.9c-1,0.5-2.2,0.5-3.2,0
		c-0.4-0.2-0.6-0.5-0.7-0.9v-2.6C86.4,128.7,86.7,128.3,87,128.2z"/>
	<path class="st4" d="M97.5,139.1l0.6-0.6c0.2-0.2,0.2-0.5,0-0.8v-0.1l-1.6-1.3c-0.2-0.1,0.2,0.1,0,0l0,0c-0.3-0.3-0.6-0.4-1-0.4
		c-0.3,0-0.5,0.2-0.7,0.4l-1,1.2l-5.8,4.9c-0.3,0.2-0.5,0.6-0.4,0.9v0.7"/>
	<path class="st4" d="M87.7,133.4l0.6-0.6c0.2-0.2,0.3-0.5,0.1-0.7l-0.1-0.1l-1.6-1.2c-0.2-0.1,0.2,0.1,0,0l0,0
		c-0.3-0.3-0.7-0.4-1.1-0.4c-0.3,0-0.5,0.2-0.6,0.4l-1,1.2l-5.8,4.9c-0.3,0.2-0.4,0.6-0.4,0.9v0.7"/>
	<path class="st7" d="M105.3,82.4L105.3,82.4c-0.1,2.4-1.4,4.6-3.5,5.9C97.2,91,89.6,90.2,85,87.6c-2.3-1.3-3.5-3.1-3.5-4.8l-0.1-27
		"/>
	<path class="st4" d="M81.4,77L81.4,77c0-1.3,0.8-2.5,2-3c3.1-1.6,6.8-1.6,9.9,0c1.2,0.5,2,1.7,2,3l0,0c0,0.1,0,0.2,0,0.3l-2.8,20.7
		l-0.4,29.6v0.2l0,0c-0.1,0.6-0.5,1-1,1.3c-1.6,0.8-3.4,0.8-5,0c-0.6-0.3-0.9-0.8-1-1.4l-1.9-25.6L81.4,77L81.4,77L81.4,77z"/>
	<path class="st4" d="M91.3,82.7v-0.1l0,0c0.1-1.3,0.8-2.4,2-2.9c3.1-1.6,6.8-1.6,9.9,0c1.5,0.9,2.2,2.1,2,3.3l-2.9,24.8l-0.4,25.7
		c-0.1,0.6-0.4,1.2-1,1.4c-1.6,0.8-3.4,0.8-4.9,0c-0.6-0.3-0.9-0.8-1-1.4l0,0l-2.1-24.2L92,97.9"/>
	<path class="st6" d="M105.2,59.9l0.1,22.5l0,0c-0.1,2.4-1.4,4.6-3.5,5.9C97.2,91,89.6,90.2,85,87.6c-2.3-1.3-3.5-3.1-3.5-4.8
		l-0.1-27"/>
	<path class="st6" d="M103.5,72.2l-4.2-6.5c-0.7-1.2-2.3-1.5-3.4-0.8c-0.1,0.1-0.2,0.1-0.3,0.2l-0.1,0.1c-0.9,0.7-1.2,2-0.7,3
		l6.3,13.9c0.5,1,1.4,1.7,2.5,1.9c1.2,0.1,2.6-0.1,3.1-0.6c4.5-5.5,3.5-19.2,3.5-19.2c-0.3-3.7-1.1-9.3-5.4-12.6l-7-5.6l0,0
		l-6.8-2.4l-0.4-0.2c-6.5-3.5-13.7,1.1-13.7,8.6v0.2L77,64.3c0.1,1.2,1.1,1.3,2.2,1.9c0.6,0.3,1.3,0.4,1.9,0.2"/>
	<path class="st8" d="M99.8,65.3L99.8,65.3c0.4-1.2,0.4-2.5,0.2-3.8c-0.1-0.4,0.1-0.8,0.4-1l0,0c0.9,1.6,0.5,3.3,0.2,5
		c-0.1,0.6-0.2,1.2-0.2,1.9l-0.7-1.1C99.7,65.9,99.7,65.6,99.8,65.3z"/>
	<path class="st9" d="M92.6,49.7c-4.9,0.4-3.6-4.2-3.6-4.2l-0.4,0.2c-1.3,0.8-2,3.4-2,5.9l0.2,36.1c0,0.5,0.3,0.9,0.8,1.1
		c1.4,0.4,2.8,0.8,4.3,1l0,0c0.4,0.1,0.7-0.2,0.8-0.6c0,0,0,0,0,0c0,0,0-0.1,0-0.1l-0.1-32.5c-0.1-2.8,0.8-5.6,2.6-7.8l-1.1,0.4
		L92.6,49.7"/>
	<path class="st5" d="M90.1,44.3l0.2-0.1V33.6c0.1-0.6,0.4-1.1,0.9-1.3c1.4-0.7,3.1-0.7,4.5,0c0.5,0.2,0.9,0.7,0.9,1.3v10
		c0.1,0.7,0.4,1.3,0.9,1.8l0,0c0.9,0.9,0.6,1.8-0.8,2.7c-1.8,1.1-4.8,2.3-6.6,1.3c-1.4-0.9-1.8-2.8-0.9-4.2c0,0,0,0,0,0
		C89.5,44.8,89.8,44.5,90.1,44.3z"/>
	<path class="st5" d="M93.3,27.9c3.9,0,7.1,3.1,7.1,7v4.3c0,3.9-3.1,7.1-7.1,7.1c-3.7,0-6.8-2.8-7.1-6.5c0-0.2,0-0.4,0-0.6v-4.2
		C86.2,31.2,89.4,28,93.3,27.9C93.3,27.9,93.3,27.9,93.3,27.9L93.3,27.9z"/>
	<path class="st9" d="M86.3,39.4L86.3,39.4c0,0.3,0.1,0.6,0.4,0.8c0.7,0.4,1.6,0.5,2.3,0.2c1.7-0.3,3.4,0,4.9,0.7
		c1.2,0.4,2.2,0.8,3,0.5c0.5-0.2,0.9-0.7,1.1-1.2c0.1-0.3,0.2-0.5,0.2-0.8c0.3-1,0.4-1.7,2.2-1.8l0,0v1.4c0.1,3.8-2.8,6.9-6.6,7.2
		h-0.5c-0.2,0-0.5,0-0.7,0c-2.3-0.2-4.4-1.5-5.6-3.5c-0.5-1-0.8-2-0.8-3.1L86.3,39.4L86.3,39.4z"/>
	<path class="st8" d="M93.4,46.5c1.4,0,2.8-0.4,4-1.3l0.2,0.2l0,0c0.1,0.1,0.2,0.2,0.3,0.4c-1.3,0.9-2.9,1.4-4.5,1.4h-0.8
		c-1.3-0.1-2.6-0.6-3.7-1.3c0.1-0.3,0.2-0.5,0.3-0.7c1,0.7,2.2,1.2,3.4,1.3C92.9,46.5,93.2,46.5,93.4,46.5z"/>
	<path class="st8" d="M92.1,52.6c-0.3,0-0.5,0.1-0.8,0.2c-0.6,0.3-0.8,1-0.6,1.6l1,2.6c0,0,0,0.1,0,0.1c-1,0.9-2.7,2.8-2.3,4.8
		c0.3,1.8,2.5,3.6,3.9,4.6l0,0l7.3,15.9c0.6,1.2,1.8,2.1,3.1,2.2h0.2c0.5,0,1-0.3,1.1-0.8l0,0c-0.3,0-0.5,0-0.8,0h-0.4
		c-1.1-0.1-2.1-0.8-2.5-1.8L94.3,67l-0.4-1l0,0c-0.2-0.2-0.5-0.4-0.8-0.6c-1.2-0.9-2.7-2.3-2.9-3.6c-0.3-1.7,1.3-3.4,2.1-4.1
		c0.3-0.3,0.4-0.7,0.2-1l-1.1-3c-0.2-0.5,0.1-0.3,0.6-0.4c0.4-0.1,0.7,0.1,0.9,0.4L92.1,52.6z"/>
	<path class="st8" d="M105.1,84L105.1,84c-0.6,1.8-1.7,3.3-3.3,4.3C97.2,91,89.6,90.3,85,87.6c-1.2-0.6-2.3-1.6-3-2.8l0,0
		c0.1,1.1,0.7,2.1,1.6,2.8c0.3,0.2,0.7,0.4,1,0.6c3.1,1.7,6.6,2.6,10.2,2.5c2.6,0.1,5.2-0.5,7.5-1.8l0,0c1.6-0.9,2.7-2.6,2.9-4.4
		L105.1,84z"/>
	<path class="st5" d="M95,66.1c-0.3,0.2-0.7,0.2-1,0c-1.1-0.7-3.6-2.5-3.9-4.3s1.3-3.4,2.1-4.1c0.3-0.3,0.4-0.7,0.2-1l-1.1-3
		c-0.2-0.4,0.1-0.9,0.5-1.1l0,0c0.4-0.2,0.9,0,1.1,0.3c1,1.5,3.7,5.7,3.5,7.5C96.2,62.6,98.1,63.6,95,66.1z"/>
	<path class="st6" d="M106.9,83.3c-0.5,0.6-1.8,0.8-3.1,0.6c-1.1-0.1-2.1-0.8-2.5-1.8l-7.3-16c0,0,0-0.1,0-0.1
		c1.6-0.9,2.5-2.7,2.5-4.5c0,0,0.1,0,0.1,0c0,0,0,0,0.1,0L104,73"/>
	<path class="st8" d="M92.1,98l0.3,4.7l-0.1,8.7l-0.2,16.3c0,0.1,0,0.1,0,0.2l0,0c-0.1,0.6-0.5,1-1,1.3l0,0c-0.2-0.3-0.1-0.7,0.1-1
		c0.1-0.1,0.1-0.2,0.1-0.3v-0.1l0.3-25l-0.3-3.9C91.3,98.4,91.7,98,92.1,98L92.1,98z"/>
	<path class="st5" d="M64.7,76l0.2,0.1c0.2,0.1,0.4,0.2,0.6,0.1c1.3-0.2,2.2-0.7,3.8,1.8c0.2,0.3,0.1,0.7-0.2,0.9L69,79.1
		c-1.3,0.4-3,2.3-4.6,2.8c-1.8,0.7-3.8,0.2-5.2-1.1c-0.6-0.6-0.6-1.5-0.1-2.1c0,0,0.1-0.1,0.1-0.1l2.2-2l0,0
		C62.2,75.6,63.6,75.4,64.7,76z"/>
	<path class="st6" d="M79,62.4L65.9,75.8c-0.1,0.1,0,0.3,0.1,0.4c0,0,0.1,0,0.1,0c1.5,0.3,2.7,1.3,3.2,2.7c0.1,0.2,0.3,0.2,0.5,0
		l13.8-10c1.3-1,2.3-2.4,2.7-4"/>
	<path class="st10" d="M62.3,76.1L62.3,76.1c-0.1-0.3-0.5-0.6-0.8-0.6c-0.7-0.1-1.3,0.3-1.6,0.8c-0.1,0.2-0.1,0.4,0,0.6l2,5.9l0,0
		c0.1,0.3,0.5,0.6,0.8,0.6c0.6,0.1,1.3-0.3,1.6-0.8c0-0.2,0-0.3,0-0.5l0,0V82L62.3,76.1z"/>
	<ellipse transform="matrix(0.9492 -0.3148 0.3148 0.9492 -20.9692 23.1143)" class="st11" cx="61.1" cy="76.5" rx="1.3" ry="0.9"/>
	<path class="st6" d="M61.5,74.7L61.5,74.7c-0.1-0.2-0.3-0.4-0.6-0.4c-0.5-0.1-0.9,0.2-1.1,0.6c0,0.1,0,0.3,0,0.4l0.4,1.3l0,0
		c0.1,0.2,0.3,0.4,0.6,0.4c0.5,0.1,0.9-0.1,1.1-0.6c0-0.1,0-0.2,0-0.3l0,0V76L61.5,74.7z"/>
	
		<linearGradient id="SVGID_2_" gradientUnits="userSpaceOnUse" x1="1426.4076" y1="-1170.6848" x2="1428.0776" y2="-1170.6848" gradientTransform="matrix(-0.7854 0.619 0.619 0.7854 1907.5845 109.8753)">
		<stop  offset="0" style="stop-color:#A4A4A4"/>
		<stop  offset="0.22" style="stop-color:#969696"/>
		<stop  offset="0.49" style="stop-color:#8E8E8E"/>
		<stop  offset="1" style="stop-color:#8C8C8C"/>
	</linearGradient>
	<path class="st12" d="M60.4,74.3c0.5-0.1,0.9,0,1,0.3s-0.2,0.7-0.6,0.9c-0.5,0.1-0.9,0-1-0.3C59.6,74.8,59.9,74.4,60.4,74.3z"/>
	<path class="st5" d="M64.5,77.6c-0.2-0.2-0.3-0.2-0.4-0.1l-0.6,0.9c-0.2,0.3-0.6,0.4-0.9,0.2c-0.3-0.2-0.5-0.5-0.3-0.9
		c0.2-0.7,0.5-1.3,0.9-1.9L64.5,77.6z"/>
	<path class="st5" d="M62,83.2l1.1-0.1c0.6,0,1-0.5,0.9-1.1c0,0,0,0,0,0l0,0c-0.2-1.1-0.7-2.2-1.5-3l0,0c-0.5-0.5-1.2-0.7-1.9-0.7
		h-0.9c-0.7,0.1-1.2,0.7-1.2,1.4c0,0.3,0.2,0.6,0.3,0.8l1.2,1.7C60.5,82.8,61.2,83.2,62,83.2z"/>
	<path class="st8" d="M81.4,70.5l-0.8,0.6V56.5c0-0.4,0.3-0.8,0.8-0.8l0,0l0,0L81.4,70.5z"/>
	
		<linearGradient id="SVGID_3_" gradientUnits="userSpaceOnUse" x1="49.1605" y1="49.87" x2="49.1605" y2="19.3" gradientTransform="matrix(1 0 0 1 0 102)">
		<stop  offset="0" style="stop-color:#171717"/>
		<stop  offset="0.22" style="stop-color:#2D2D2D"/>
		<stop  offset="0.74" style="stop-color:#5D5D5D"/>
		<stop  offset="1" style="stop-color:#6F6F6F"/>
	</linearGradient>
	<polygon class="st13" points="36,121.3 36,121.3 36,151.8 36,151.9 36,151.8 62.4,136.6 62.4,136.6 	"/>
	<path class="st5" d="M55.9,67.6l1.2-0.1l0.8,0.2l1.4,0.9l1.4,1.4l1,1.7l0.4,1.5v0.7L61.7,75l2-1.5c0,0,1-2-1.4-5.1
		c-2-2.7-4.4-1.7-4.4-1.7L55.9,67.6z"/>
	
		<linearGradient id="SVGID_4_" gradientUnits="userSpaceOnUse" x1="55.1605" y1="80.405" x2="61.8005" y2="80.405" gradientTransform="matrix(1 0 0 -1 0 152)">
		<stop  offset="0" style="stop-color:#A4A4A4"/>
		<stop  offset="0.22" style="stop-color:#969696"/>
		<stop  offset="0.49" style="stop-color:#8E8E8E"/>
		<stop  offset="1" style="stop-color:#8C8C8C"/>
	</linearGradient>
	<path class="st14" d="M57,67.7c-0.2,0.6-0.3,1.2-0.2,1.9c0.2,0.9,0.6,1.8,1.1,2.6c0.6,0.7,1.3,1.3,2,1.8c0.6,0.3,1.2,0.5,1.9,0.7
		l-1,0.9l-1.6-0.2l-1.7-1.1l-1.3-1.7l-0.7-1.7l-0.2-1.3l0.3-1.2l0.9-0.6H57z"/>
	<path class="st15" d="M58.2,67.7c2.1,1.1,3.6,3.1,4,5.4c0.2,2.1-1.2,3.2-3.1,2.3c-2.1-1.1-3.6-3.1-4-5.4
		C54.8,67.9,56.3,66.8,58.2,67.7z M59,75c1.8,0.8,3-0.2,2.8-2.1c-0.4-2.1-1.7-3.9-3.6-4.8c-1.8-0.8-3,0.2-2.8,2.1
		C55.8,72.3,57.1,74.1,59,75"/>
	<path class="st16" d="M58.3,68.1c1.9,1,3.3,2.8,3.6,4.9c0.2,1.9-1.1,2.8-2.8,2.1c-1.9-0.9-3.3-2.7-3.6-4.8
		C55.2,68.2,56.5,67.3,58.3,68.1z"/>
</g>
</svg>
