<svg id="Layer_1" data-name="Layer 1" xmlns="http://www.w3.org/2000/svg" viewBox="0 0 88 88"><defs><style>.cls-1{opacity:0.5;}.cls-2{fill:#6f6f6f;}.cls-3{fill:#a3a3a3;}.cls-4{fill:#565656;}.cls-5{fill:#8b8b8b;}.cls-6{fill:#c7dcfd;}.cls-7{fill:#95bffd;}.cls-8{fill:#6fa4fd;}.cls-9{fill:#3d3d3d;}.cls-10{fill:#8c8c8c;}.cls-11{fill:#1a1a1a;}.cls-12{fill:#383838;}</style></defs><title>Empty State - No search results (small, 90px)</title><g id="Exploration"><g class="cls-1"><polygon points="2.74 69.07 35.4 88 68.08 69.07 35.42 50.15 2.74 69.07"/></g><path class="cls-2" d="M65.46,35.15a.63.63,0,0,1-.22-.69h0a.5.5,0,0,1,.67-.13l2.43,1.56.38.23.11.12a1.27,1.27,0,0,1,.8.55V37a1.27,1.27,0,0,0,0-.9,1.42,1.42,0,0,0-.51-.63l-2.67-1.81a1.34,1.34,0,0,0-1.6,2.14l.15.1L66.86,37l.77-.5Z"/><path class="cls-2" d="M3.09,32.56.54,34.73a1.32,1.32,0,0,0-.42,1.35A1.4,1.4,0,0,1,1,35.29h.17l2.45-2.06a.49.49,0,0,1,.69,0h0a.47.47,0,0,1-.1.62L2.29,35.64a1.31,1.31,0,0,1,.35.6v.16l2.12-1.8a1.33,1.33,0,0,0,.17-1.87h0A1.34,1.34,0,0,0,3.09,32.56Z"/><path class="cls-3" d="M17.75,9.67l-.46,2.55a.49.49,0,0,1-.49.41h-.09a.49.49,0,0,1-.41-.54L16.87,9a.48.48,0,0,1,0-.17,1.29,1.29,0,0,1,.23-1.15,1.35,1.35,0,0,0-1,1L15.53,12a1.34,1.34,0,0,0,2.63.48l.5-2.75H18.5A1.28,1.28,0,0,1,17.75,9.67Z"/><path class="cls-3" d="M55.33,11.89l-.6-3.27a1.34,1.34,0,0,0-1-1A1.4,1.4,0,0,1,54,8.72V8.9l.49,3.19a.49.49,0,0,1-.39.58h0a.49.49,0,0,1-.49-.41l-.46-2.56a1.19,1.19,0,0,1-.7,0h-.16l.51,2.75a1.31,1.31,0,0,0,1.53,1.07h0a1.33,1.33,0,0,0,1-1.59Z"/><path class="cls-4" d="M52.39,67.49a.51.51,0,0,1-.42,0l-.39-.16L49,66.09a.51.51,0,0,1-.25-.64h0a.59.59,0,0,1,.28-.26.53.53,0,0,1,.39,0l1.71.82v-.89l-1.38-.7a1.34,1.34,0,0,0-1.77.63,1.32,1.32,0,0,0,.63,1.77l3,1.45a1.24,1.24,0,0,0,.8.12,1.5,1.5,0,0,0,.85-.51l.13-.23a1.32,1.32,0,0,0,.11-.65A1.27,1.27,0,0,1,52.39,67.49Z"/><path class="cls-5" d="M21.2,65.43l.6-.25H22a.5.5,0,0,1,.43.29.88.88,0,0,1,0,.23.52.52,0,0,1-.31.44l-.42.16-2.65,1h-.17a1.63,1.63,0,0,1-.52.15,1.52,1.52,0,0,1-.73-.18h0a1.34,1.34,0,0,0,1.73.76l3.09-1.21a1.34,1.34,0,0,0,.83-1.48.72.72,0,0,0-.07-.25,1.26,1.26,0,0,0-.48-.61,1.32,1.32,0,0,0-1.23-.15H21.4l-1.83.72V66Z"/><polygon class="cls-6" points="67.63 18.91 34.98 0 2.33 18.91 34.98 37.82 67.63 18.91"/><polygon class="cls-7" points="34.98 75.54 34.98 37.82 2.33 18.91 2.33 56.63 34.98 75.54"/><polygon class="cls-8" points="67.63 56.63 67.63 18.91 34.98 37.82 34.98 75.54 67.63 56.63"/><path class="cls-4" d="M52.64,65.88,52,65.54v.67a.45.45,0,0,0,0,.28l.38.19h0a.5.5,0,0,0,.46-.47V66l-.19-.13Z"/><path class="cls-2" d="M53.05,39.49v2.3a1.34,1.34,0,0,1,.56.9V43a1.22,1.22,0,0,0,.22-.74V38.83A1.34,1.34,0,0,1,53.05,39.49Z"/><path class="cls-2" d="M52.9,43.49l-.1-.67a.43.43,0,0,0,0-.16.31.31,0,0,1-.19,0h0a.48.48,0,0,1-.43-.26.44.44,0,0,0-.22.15.49.49,0,0,0-.09.37v.38a1.27,1.27,0,0,0,.68.19Z"/><path class="cls-2" d="M53,38.62l.12-.09a.47.47,0,0,0,.11-.36v-.46a1.16,1.16,0,0,0-.61-.16,1.07,1.07,0,0,0-.39.07v.64a.85.85,0,0,0,.09.22.39.39,0,0,1,.26-.09A.46.46,0,0,1,53,38.62Z"/><path class="cls-2" d="M52,41.59V39.38a1.36,1.36,0,0,1-.68-1.05h0a1.39,1.39,0,0,0-.14.6v3.24A1.25,1.25,0,0,1,52,41.59Z"/><path class="cls-4" d="M53,31.53h.25l.07-.48a.52.52,0,0,0-.16-.44.54.54,0,0,1-.29.15h0a.55.55,0,0,1-.34-.13.51.51,0,0,0-.13.24l-.08.59A1.21,1.21,0,0,0,53,31.53Z"/><path class="cls-2" d="M53,35.35v-.49a.52.52,0,0,0-.24-.37.46.46,0,0,1-.39.21h0a.4.4,0,0,1-.2-.09.5.5,0,0,0-.1.33v.54h.1A1.33,1.33,0,0,0,53,35.35Z"/><path class="cls-2" d="M52.45,30.58a.52.52,0,0,1,.37-.16h.08a.75.75,0,0,1,.25.13.46.46,0,0,0,.13-.42v-.48h-.17a1.53,1.53,0,0,0-.82.13v.56A.78.78,0,0,0,52.45,30.58Z"/><path class="cls-2" d="M53.24,31.47l-.37,2.18a1.47,1.47,0,0,1,.73.68l.49-3.19a1.06,1.06,0,0,0,0-.61A1.32,1.32,0,0,1,53.24,31.47Z"/><path class="cls-2" d="M51.86,33.68l.37-2.27a1.28,1.28,0,0,1-.71-.8v.09L51,34a1.34,1.34,0,0,0,.12.79A1.33,1.33,0,0,1,51.86,33.68Z"/><path class="cls-2" d="M52.23,31.41l.09-.58a.5.5,0,0,1,.13-.25.79.79,0,0,1-.16-.3v-.55a1.38,1.38,0,0,0-.7.88A1.32,1.32,0,0,0,52.23,31.41Z"/><path class="cls-4" d="M53.15,30.55a.52.52,0,0,1,.16.44l-.07.48a1.33,1.33,0,0,0,.84-.94,1.28,1.28,0,0,0-.87-.88v.48A.52.52,0,0,1,53.15,30.55Z"/><path class="cls-4" d="M52.15,37.62,52,35.48a1.25,1.25,0,0,1-.87-.71,1,1,0,0,0,0,.25l.29,3.27A1.28,1.28,0,0,1,52.15,37.62Z"/><path class="cls-4" d="M52.82,39.54h.23v-.61a.54.54,0,0,0-.09-.26l-.22.08h0a.52.52,0,0,1-.42-.23.49.49,0,0,0-.23.41v.49A1.52,1.52,0,0,0,52.82,39.54Z"/><path class="cls-4" d="M53,35.35l.2,2.36a1.35,1.35,0,0,1,.73,1.12A1.43,1.43,0,0,0,54,38.1l-.29-3.32a1.22,1.22,0,0,0-.13-.45v.09A1.36,1.36,0,0,1,53,35.35Z"/><path class="cls-4" d="M52.36,34.39h0a.57.57,0,0,1,.31.1.35.35,0,0,0,.1-.21l.1-.63a1.41,1.41,0,0,0-.58-.09,1.52,1.52,0,0,0-.43.12l-.08.44a.51.51,0,0,0,.22.49h0A.53.53,0,0,1,52.36,34.39Z"/><path class="cls-2" d="M53.15,37.71v.46a.48.48,0,0,1-.12.36l-.11.09a.5.5,0,0,1,.08.26v.61a1.34,1.34,0,0,0,.83-.66A1.3,1.3,0,0,0,53.15,37.71Z"/><path class="cls-4" d="M52,39.38v-.5a.5.5,0,0,1,.24-.4.85.85,0,0,1-.09-.22v-.64a1.33,1.33,0,0,0-.78.67h0A1.36,1.36,0,0,0,52,39.38Z"/><path class="cls-4" d="M52,35.48v-.54a.5.5,0,0,1,.1-.33.51.51,0,0,1-.22-.49l.07-.44a1.33,1.33,0,0,0-.77,1.09A1.34,1.34,0,0,0,52,35.48Z"/><path class="cls-2" d="M52.87,33.65l-.1.63a.35.35,0,0,1-.1.21.48.48,0,0,1,.23.37v.49a1.37,1.37,0,0,0,.66-.93v-.09A1.47,1.47,0,0,0,52.87,33.65Z"/><path class="cls-4" d="M52.2,45.61l-.33-2.26a1.33,1.33,0,0,1-.65-1.14v-.09a1.33,1.33,0,0,0-.24,1l.47,3.14A1.3,1.3,0,0,1,52.2,45.61Z"/><path class="cls-4" d="M53,47.5h.1v-.58a.42.42,0,0,0,0-.27h-.17a.5.5,0,0,1-.42-.25.47.47,0,0,0-.25.41v.46A1.5,1.5,0,0,0,53,47.5Z"/><path class="cls-4" d="M52.31,42.39a.49.49,0,0,1,.43.27.34.34,0,0,0,.16-.1.51.51,0,0,0,.15-.35v-.42a1.45,1.45,0,0,0-.95-.22h0v.63a.45.45,0,0,0,0,.23h.12Z"/><path class="cls-4" d="M52.9,43.49l.32,2.2a1.31,1.31,0,0,1,.71,1.16,1.3,1.3,0,0,0,.18-.86l-.45-3A1.3,1.3,0,0,1,52.9,43.49Z"/><path class="cls-4" d="M51.87,43.35V43a.52.52,0,0,1,.09-.38.44.44,0,0,1,.22-.15.3.3,0,0,1,0-.23v-.62a1.26,1.26,0,0,0-.83.53v.09A1.34,1.34,0,0,0,51.87,43.35Z"/><path class="cls-2" d="M53.05,41.79v.42a.51.51,0,0,1-.15.35.34.34,0,0,1-.16.1.43.43,0,0,1,0,.16l.1.67A1.3,1.3,0,0,0,53.6,43v-.26A1.33,1.33,0,0,0,53.05,41.79Z"/><path class="cls-2" d="M52,49.67l.09-2.36a1.28,1.28,0,0,1-.61-.93v-.16a1.31,1.31,0,0,0-.18.6l-.11,3.33a1.15,1.15,0,0,0,.1.55A1.33,1.33,0,0,1,52,49.67Z"/><path class="cls-2" d="M53.09,47.47,53,49.61a1.28,1.28,0,0,1,.8.74v-.1L53.93,47v-.07A1.3,1.3,0,0,1,53.09,47.47Z"/><path class="cls-2" d="M53,46.62a.48.48,0,0,0,.25-.51v-.42a1.2,1.2,0,0,0-.64-.16.87.87,0,0,0-.45.07l.09.64a.73.73,0,0,0,.07.19.53.53,0,0,1,.25-.08A.55.55,0,0,1,53,46.62Z"/><path class="cls-2" d="M53.06,51.34v-.51a.54.54,0,0,0-.14-.36h0a.56.56,0,0,1-.41.22h0a.59.59,0,0,1-.29-.13.48.48,0,0,0-.1.29v.59l.38.08A1.37,1.37,0,0,0,53.06,51.34Z"/><path class="cls-2" d="M52.09,47.31v-.46a.47.47,0,0,1,.25-.41.64.64,0,0,1-.08-.19l-.08-.64a1.35,1.35,0,0,0-.76.61v.16A1.29,1.29,0,0,0,52.09,47.31Z"/><path class="cls-4" d="M53.22,45.69v.42a.48.48,0,0,1-.24.51.62.62,0,0,1,0,.27v.58a.9.9,0,0,0,.13-1.78Z"/><path class="cls-4" d="M53.06,51.34v2.18a1.44,1.44,0,0,1,.83.5V50.85a1.24,1.24,0,0,0-.1-.54A1.35,1.35,0,0,1,53.06,51.34Z"/><path class="cls-4" d="M52,53.8V51.46a1.33,1.33,0,0,1-.8-.76v.15l0,3.4a1.28,1.28,0,0,0,.26.78v-.29A1.33,1.33,0,0,1,52,53.8Z"/><path class="cls-4" d="M53,54.41a.48.48,0,0,1-.44.27h-.14a.38.38,0,0,0,0,.15l-.1.68h.29a1.39,1.39,0,0,0,.74-.22v-.36A.5.5,0,0,0,53,54.41Z"/><path class="cls-4" d="M52.64,50.37a.52.52,0,0,1,.32.11.58.58,0,0,0,.09-.26v-.61a1.36,1.36,0,0,0-1,.06v.51a.49.49,0,0,0,.19.39A.51.51,0,0,1,52.64,50.37Z"/><path class="cls-2" d="M53,49.61v.61a.47.47,0,0,1-.08.26h0a.55.55,0,0,1,.14.37v.49a1.34,1.34,0,0,0,.74-1A1.27,1.27,0,0,0,53,49.61Z"/><path class="cls-4" d="M52.06,51.46v-.6a.51.51,0,0,1,.1-.29.44.44,0,0,1-.19-.39v-.51a.9.9,0,0,0-.78,1,.92.92,0,0,0,.78.78Z"/><path class="cls-2" d="M52.29,58.61H52.2v.83a1.33,1.33,0,0,0,1-.29v-.31a.53.53,0,0,0-.13-.36.54.54,0,0,0-.29-.15A.51.51,0,0,1,52.29,58.61Z"/><path class="cls-2" d="M53.85,54.25a1.3,1.3,0,0,1-.61,1.1l-.35,2.24a1.29,1.29,0,0,1,.78.44l.45-2.91a1.43,1.43,0,0,0-.26-1Z"/><path class="cls-2" d="M51.84,57.81l.36-2.33a1.18,1.18,0,0,1-.75-.52L51,58a1.36,1.36,0,0,0,.35,1.11v-.29A1.34,1.34,0,0,1,51.84,57.81Z"/><path class="cls-2" d="M52.8,54.38h.09a.67.67,0,0,0,0-.2v-.64h0a1.27,1.27,0,0,0-1,.23v.48a.61.61,0,0,0,.15.36.82.82,0,0,0,.2.12A.49.49,0,0,1,52.8,54.38Z"/><path class="cls-4" d="M53,53.56v.69a.34.34,0,0,1,0,.2.5.5,0,0,1,.34.54v.36a1.3,1.3,0,0,0,.61-1.1V54.1A1.48,1.48,0,0,0,53,53.56Z"/><path class="cls-2" d="M52.2,55.48l.11-.68a.38.38,0,0,1,0-.15.53.53,0,0,1-.21-.11.54.54,0,0,1-.14-.36V53.8a1.35,1.35,0,0,0-.54.87V55A1.21,1.21,0,0,0,52.2,55.48Z"/><path class="cls-4" d="M53.14,59.19,53,61.52a1.32,1.32,0,0,1,.79.58L54,58.9a1.45,1.45,0,0,0-.32-1l-.07.39A1.29,1.29,0,0,1,53.14,59.19Z"/><path class="cls-4" d="M51.84,57.81v.28a.6.6,0,0,0,.09.37.47.47,0,0,0,.32.19.48.48,0,0,1,.45-.3h.09v-.13l.1-.7h-.13A1.44,1.44,0,0,0,51.84,57.81Z"/><path class="cls-4" d="M52,61.7l.15-2.22h0a1.21,1.21,0,0,1-.77-.42l-.22,3a1.33,1.33,0,0,0,.2.8v-.11A1.32,1.32,0,0,1,52,61.7Z"/><path class="cls-4" d="M52.44,62.68h-.19a.34.34,0,0,0,0,.2v.64h.25a1.42,1.42,0,0,0,.77-.19V62.9a.47.47,0,0,0-.27-.47A.51.51,0,0,1,52.44,62.68Z"/><path class="cls-4" d="M52.12,59.48v-.65a.54.54,0,0,1,0-.18.47.47,0,0,1-.32-.19.6.6,0,0,1-.09-.37v-.28a1.33,1.33,0,0,0-.51,1v.29a1.23,1.23,0,0,0,.77.42Z"/><path class="cls-2" d="M52.79,58.25v.13a.47.47,0,0,1,.29.14.59.59,0,0,1,.13.36v.31a1.24,1.24,0,0,0,.46-.81l.08-.4a1.35,1.35,0,0,0-.79-.43Z"/><path class="cls-2" d="M52,61.7v.44a.59.59,0,0,0,.13.36.44.44,0,0,0,.15.12.52.52,0,0,1,.43-.28.49.49,0,0,1,.24.08.74.74,0,0,0,0-.21v-.65a.57.57,0,0,0-.26,0A1.36,1.36,0,0,0,52,61.7Z"/><path class="cls-2" d="M53.12,63.32,53,66a1.27,1.27,0,0,1,.55.87V67a1.23,1.23,0,0,0,.26-.73L54,63a1.38,1.38,0,0,0-.21-.79v.14A1.29,1.29,0,0,1,53.12,63.32Z"/><path class="cls-2" d="M52.42,66.66a.48.48,0,0,1-.35-.16v-.09l-.2-.1L51.19,66v.11a1.34,1.34,0,0,0,1.21,1.46h.15a.43.43,0,0,0,.15-.18.5.5,0,0,0-.09-.51h-.09Z"/><path class="cls-2" d="M52.1,63.46a1.46,1.46,0,0,1-.8-.58l-.11,2.21.8.38Z"/><path class="cls-2" d="M51.83,66.31l.2.1a.42.42,0,0,1,0-.27v-.67l-.84-.38V66Z"/><path class="cls-4" d="M53,66v.22a.48.48,0,0,1-.46.46h.08a.48.48,0,0,1,.09.51.35.35,0,0,1-.15.17h-.11a1.26,1.26,0,0,0,1.12-.52V66.7A1.32,1.32,0,0,0,53,66Z"/><path class="cls-2" d="M52.1,63.46v-.64a.67.67,0,0,1,0-.2A.53.53,0,0,1,52,62.5a.53.53,0,0,1-.13-.36V61.7a1.33,1.33,0,0,0-.66,1.07v.11A1.43,1.43,0,0,0,52.1,63.46Z"/><path class="cls-4" d="M53,61.52v.65a.67.67,0,0,1,0,.2.48.48,0,0,1,.26.47v.43a1.32,1.32,0,0,0,.64-1V62.1A1.37,1.37,0,0,0,53,61.52Z"/><path class="cls-4" d="M54.09,30l-.49-3.3a1.27,1.27,0,0,0-.54-.88,1.31,1.31,0,0,1-.13,1.23l-.1.1.36,2.48a1.32,1.32,0,0,1,.88.88A1.25,1.25,0,0,0,54.09,30Z"/><path class="cls-4" d="M51.09,27.41h0l.45,3a.74.74,0,0,0,0,.21,1.33,1.33,0,0,1,.69-.89l-.32-2.09A1.44,1.44,0,0,1,51.09,27.41Z"/><path class="cls-4" d="M51.09,26.4l.48.32a.34.34,0,0,0,.26.08.48.48,0,0,1,.4-.37h.09a.5.5,0,0,0-.2-.53l-.31-.22A1.27,1.27,0,0,0,51.09,26.4Z"/><path class="cls-3" d="M28.08,11.92a.47.47,0,0,1,.4-.23.45.45,0,0,0-.26-.44l-.42-.2a1.27,1.27,0,0,0-.44.45,1,1,0,0,0-.16.38l.58.27a.41.41,0,0,0,.22,0A.49.49,0,0,1,28.08,11.92Z"/><path class="cls-5" d="M20.53,8.23l-1.89.51a1.09,1.09,0,0,1,0,.36l-.1.52L21.05,9,21,8.87A1.38,1.38,0,0,1,20.53,8.23Z"/><path class="cls-5" d="M17.57,7.54a1.22,1.22,0,0,1,.59.29l2.5-.66L20.79,7a1.31,1.31,0,0,1,1.33-.41,1.31,1.31,0,0,0-1.25-.33l-3.12.85a1.52,1.52,0,0,0-.69.48A2.15,2.15,0,0,1,17.57,7.54Z"/><path class="cls-5" d="M22.54,7.81l-.42-.35a.56.56,0,0,0-.43-.1h0a.08.08,0,0,1,0,.07.5.5,0,0,1-.36.54h0a.43.43,0,0,0,.15.2l.48.41A1.36,1.36,0,0,0,22.54,7.81Z"/><path class="cls-5" d="M17.55,8.52h-.2a.48.48,0,0,0-.5.41v.13a1.35,1.35,0,0,0,.88.77l.13-.73V9A.46.46,0,0,1,17.55,8.52Z"/><path class="cls-3" d="M25.68,10l-.45-.22a.47.47,0,0,0-.43,0,.42.42,0,0,1,0,.43v.08a.76.76,0,0,1-.17.13.53.53,0,0,0,.23.24l.5.24v-.08A1.31,1.31,0,0,0,25.68,10Z"/><path class="cls-3" d="M21.37,7.59h0a.53.53,0,0,1,.28-.16.5.5,0,0,0-.6-.31l-.45.12a1.4,1.4,0,0,0-.13,1.06l.82-.2A.57.57,0,0,1,21.37,7.59Z"/><path class="cls-3" d="M22.54,7.81l1.64,1.45a1.47,1.47,0,0,1,1-.28L22.67,6.89a1.1,1.1,0,0,0-.55-.32,1.25,1.25,0,0,1,.37.61A1.34,1.34,0,0,1,22.54,7.81Z"/><path class="cls-3" d="M23.69,10.09,22,8.63a1,1,0,0,1-.38.18L21.05,9,23.48,11a1.37,1.37,0,0,0,.74.32A1.31,1.31,0,0,1,23.69,10.09Z"/><path class="cls-3" d="M20.79,7l-.13.19.45-.12a.49.49,0,0,1,.6.31.53.53,0,0,1,.42.1l.41.35a1.34,1.34,0,0,0,0-.63,1.37,1.37,0,0,0-.42-.61A1.31,1.31,0,0,0,20.79,7Z"/><path class="cls-5" d="M22,8.63l-.48-.4A.41.41,0,0,1,21.35,8l-.82.21a1.38,1.38,0,0,0,.42.64l.1.08.54-.14A1,1,0,0,0,22,8.63Z"/><path class="cls-3" d="M18.16,7.83H17.9a.49.49,0,0,0-.36.51.51.51,0,0,1,.27.41.53.53,0,0,0,.35,0l.48-.13A1.29,1.29,0,0,0,18.16,7.83Z"/><path class="cls-5" d="M18.64,8.74l-.48.13a.53.53,0,0,1-.35,0V9l-.13.73a1.19,1.19,0,0,0,.7,0h.16l.1-.52A1.7,1.7,0,0,0,18.64,8.74Z"/><path class="cls-3" d="M16.75,8.72v0a.48.48,0,0,1,.5-.41h.2a.49.49,0,0,1,.36-.51h.26a1.17,1.17,0,0,0-.59-.29,1.42,1.42,0,0,0-.58,0A1.29,1.29,0,0,0,16.75,8.72Z"/><path class="cls-5" d="M29.19,12.28l.09-.22-.52-.32a.66.66,0,0,0-.28,0,.49.49,0,0,1,0,.24h0a.5.5,0,0,1-.42.23.56.56,0,0,0,.23.41l.42.26A1.28,1.28,0,0,0,29.19,12.28Z"/><path class="cls-5" d="M27.2,11.88l-1.92-1a1.33,1.33,0,0,1-1.06.39l.21.12,2.9,1.45A1.36,1.36,0,0,1,27.2,11.88Z"/><path class="cls-5" d="M24.56,10h0a.47.47,0,0,1,.24-.22.49.49,0,0,0-.13-.2l-.49-.42a1.16,1.16,0,0,0-.36.46.94.94,0,0,0-.13.42l.33.29a.52.52,0,0,0,.54,0h0A.47.47,0,0,1,24.56,10Z"/><path class="cls-5" d="M25.68,10l2.12,1a1.29,1.29,0,0,1,1.34,0,1.37,1.37,0,0,0-.56-.51l-3-1.46A1.32,1.32,0,0,0,25.15,9h0A1.34,1.34,0,0,1,25.68,10Z"/><path class="cls-3" d="M27.8,11.05l.42.2a.45.45,0,0,1,.26.44.66.66,0,0,1,.28,0l.52.32a1.33,1.33,0,0,0-.14-1A1.29,1.29,0,0,0,27.8,11.05Z"/><path class="cls-5" d="M28.66,12.86l-.42-.26a.52.52,0,0,1-.24-.4.41.41,0,0,1-.22,0l-.58-.28a1.36,1.36,0,0,0,.18,1h0A1.35,1.35,0,0,0,28.66,12.86Z"/><path class="cls-3" d="M25.28,10.93l-.49-.29a.47.47,0,0,1-.23-.25.52.52,0,0,1-.54,0l-.33-.29a1.33,1.33,0,0,0,.53,1.24A1.34,1.34,0,0,0,25.28,10.93Z"/><path class="cls-5" d="M24.18,9.19l.49.4a.46.46,0,0,1,.13.21.47.47,0,0,1,.43,0l.45.22a1.37,1.37,0,0,0-.47-1h0A1.44,1.44,0,0,0,24.18,9.19Z"/><path class="cls-5" d="M42.74,20.82a1.26,1.26,0,0,0,.19-.75l-.28-.23a.48.48,0,0,0-.62,0,.53.53,0,0,1,0,.52h0l-.1.12.09.12.53.43A1.24,1.24,0,0,0,42.74,20.82Z"/><path class="cls-3" d="M44.36,22.53l-1.81-1.45a1.37,1.37,0,0,1-.84.39L44,23.4a1.25,1.25,0,0,0,1.11.28l-.24-.16A1.3,1.3,0,0,1,44.36,22.53Z"/><path class="cls-3" d="M42.93,20l1.75,1.46a1.22,1.22,0,0,1,.77-.45l-2.26-1.88a1.34,1.34,0,0,0-1-.3l.12.08A1.33,1.33,0,0,1,42.93,20Z"/><path class="cls-3" d="M46.2,22.12,46,22a.47.47,0,0,0-.38-.07.42.42,0,0,0-.29.17.48.48,0,0,1,0,.54h0a.49.49,0,0,0,.12.13l.55.38A1.35,1.35,0,0,0,46.2,22.12Z"/><path class="cls-3" d="M41.91,19.94H42a.81.81,0,0,0-.16-.16l-.5-.42h0a1.33,1.33,0,0,0-.3,1l.33.2a.5.5,0,0,0,.38,0,.42.42,0,0,0,.2-.1A.51.51,0,0,1,41.91,19.94Z"/><path class="cls-5" d="M42,20.58l-.09-.11a.68.68,0,0,1-.21.1.48.48,0,0,1-.37,0L41,20.31a1.37,1.37,0,0,0,.48.91l.22.19a1.27,1.27,0,0,0,.84-.39Z"/><path class="cls-3" d="M41.87,19.65a.61.61,0,0,1,.16.16.48.48,0,0,1,.62,0l.28.23A1.33,1.33,0,0,0,42.31,19l-.12-.08a1.45,1.45,0,0,0-.86.45Z"/><path class="cls-5" d="M49.73,24.27,49.37,24a.48.48,0,0,0-.54,0,.47.47,0,0,1,0,.51h0a.93.93,0,0,1-.14.14.31.31,0,0,0,.13.15l.54.36a1.29,1.29,0,0,0,.16-.17A1.31,1.31,0,0,0,49.73,24.27Z"/><path class="cls-5" d="M47.76,24.42l-1.82-1.26h0a1.3,1.3,0,0,1-.76.43l2.49,1.75a1.45,1.45,0,0,0,.78.23h-.08A1.34,1.34,0,0,1,47.76,24.42Z"/><path class="cls-5" d="M46.2,22.12l2,1.37a1.3,1.3,0,0,1,.91-.38l-2.64-1.84a1.31,1.31,0,0,0-1-.22l.3.26A1.25,1.25,0,0,1,46.2,22.12Z"/><path class="cls-5" d="M45.24,22.11h0a.15.15,0,0,0-.09-.1l-.53-.45-.09.1a1.33,1.33,0,0,0-.23.93l.22.17a.47.47,0,0,0,.69-.06A.47.47,0,0,1,45.24,22.11Z"/><path class="cls-3" d="M45.94,23.16l-.57-.38a.69.69,0,0,1-.11-.13.51.51,0,0,1-.34.17.48.48,0,0,1-.36-.12l-.22-.17a1.39,1.39,0,0,0,.55.93l.25.16a1.29,1.29,0,0,0,.76-.44Z"/><path class="cls-5" d="M44.68,21.5l.53.45a.22.22,0,0,1,.09.1.42.42,0,0,1,.29-.17A.47.47,0,0,1,46,22l.23.17a1.25,1.25,0,0,0-.45-.81l-.3-.26A1.22,1.22,0,0,0,44.68,21.5Z"/><path class="cls-3" d="M49.73,24.27l2.08,1.46a.75.75,0,0,1,.29-.09,1.32,1.32,0,0,1,1,.25,1.27,1.27,0,0,0-.44-.71L49.89,23.3a1.29,1.29,0,0,0-.77-.22l.1.08A1.27,1.27,0,0,1,49.73,24.27Z"/><path class="cls-3" d="M51.09,26.4l-1.75-1.22a1.35,1.35,0,0,1-.91.39L51,27.34v-.26A1.31,1.31,0,0,1,51.09,26.4Z"/><path class="cls-3" d="M48.66,24.17a1.29,1.29,0,0,1,.17-.16.43.43,0,0,0-.14-.16l-.53-.36a.55.55,0,0,0-.17.2,1.29,1.29,0,0,0-.23.73l.36.26a.47.47,0,0,0,.38.07.25.25,0,0,0,.17,0A.48.48,0,0,1,48.66,24.17Z"/><path class="cls-3" d="M52.32,26.43a.33.33,0,0,1,0,.14h0a.52.52,0,0,1-.32.22h-.1a.31.31,0,0,0,0,.19l.09.64a1.32,1.32,0,0,0,.94-.47v-.32a.49.49,0,0,0-.56-.41Z"/><path class="cls-4" d="M53.08,25.84a1.36,1.36,0,0,0-1-.24,1,1,0,0,0-.29.08l.31.22a1.27,1.27,0,0,0,.68,1v.32l.1-.1A1.32,1.32,0,0,0,53.08,25.84Z"/><path class="cls-3" d="M51.83,26.8a.34.34,0,0,1-.26-.08l-.48-.32a1.33,1.33,0,0,0-.11.71v.26h0a1.49,1.49,0,0,0,.82.22L51.71,27A.29.29,0,0,1,51.83,26.8Z"/><path class="cls-3" d="M49.34,25.18l-.54-.37a.35.35,0,0,1-.13-.14H48.5a.47.47,0,0,1-.38-.08l-.36-.26a1.32,1.32,0,0,0,.58,1.12h.09A1.31,1.31,0,0,0,49.34,25.18Z"/><path class="cls-5" d="M48.16,23.49l.53.36a.43.43,0,0,1,.14.16.48.48,0,0,1,.54,0l.36.25a1.27,1.27,0,0,0-.56-1.09l-.1-.07A1.25,1.25,0,0,0,48.16,23.49Z"/><path class="cls-2" d="M17.75,39.49v2.3a1.38,1.38,0,0,0-.56.9V43a1.29,1.29,0,0,1-.22-.74V38.83A1.37,1.37,0,0,0,17.75,39.49Z"/><path class="cls-2" d="M17.86,43.49l.08-.67v-.16a.31.31,0,0,0,.19,0h0a.47.47,0,0,0,.44-.26.54.54,0,0,1,.22.15.49.49,0,0,1,.08.37v.38a1.25,1.25,0,0,1-.68.19A.91.91,0,0,1,17.86,43.49Z"/><path class="cls-2" d="M17.75,38.62l-.11-.09a.48.48,0,0,1-.12-.36v-.46a1.21,1.21,0,0,1,.61-.16,1.09,1.09,0,0,1,.4.07v.64a.85.85,0,0,1-.09.22.43.43,0,0,0-.26-.09A.47.47,0,0,0,17.75,38.62Z"/><path class="cls-2" d="M18.7,41.59V39.38a1.36,1.36,0,0,0,.68-1.05h0a1.27,1.27,0,0,1,.15.6v3.24A1.3,1.3,0,0,0,18.7,41.59Z"/><path class="cls-3" d="M17.75,31.53h-.24v-.48a.47.47,0,0,1,.16-.44.54.54,0,0,0,.29.15h0a.51.51,0,0,0,.33-.13.38.38,0,0,1,.13.24l.09.59A1.23,1.23,0,0,1,17.75,31.53Z"/><path class="cls-2" d="M17.75,35.35v-.49a.52.52,0,0,1,.24-.37.47.47,0,0,0,.39.21h0a.4.4,0,0,0,.2-.09.57.57,0,0,1,.11.33v.54h-.11A1.33,1.33,0,0,1,17.75,35.35Z"/><path class="cls-2" d="M17.93,30.42h0a.58.58,0,0,0-.26.13.46.46,0,0,1-.13-.42l.07-.48.14-.11a1.44,1.44,0,0,1,.82.13l-.07.55a.92.92,0,0,1-.16.31A.52.52,0,0,0,17.93,30.42Z"/><path class="cls-2" d="M17.51,31.47l.36,2.18a1.55,1.55,0,0,0-.73.68l-.52-3.19a1.26,1.26,0,0,1,0-.61A1.34,1.34,0,0,0,17.51,31.47Z"/><path class="cls-2" d="M18.89,33.68l-.38-2.27a1.28,1.28,0,0,0,.71-.8v.09L19.76,34a1.52,1.52,0,0,1-.1.79A1.36,1.36,0,0,0,18.89,33.68Z"/><path class="cls-2" d="M18.51,31.41l-.09-.58a.44.44,0,0,0-.13-.25.67.67,0,0,0,.16-.3l.08-.55a1.33,1.33,0,0,1,.69.88A1.28,1.28,0,0,1,18.51,31.41Z"/><path class="cls-3" d="M17.54,29.65l-.08.48a.52.52,0,0,0,.13.42.49.49,0,0,0-.15.44v.48a1.34,1.34,0,0,1-.85-.94A1.3,1.3,0,0,1,17.54,29.65Z"/><path class="cls-5" d="M18.6,37.62l.19-2.14a1.37,1.37,0,0,0,.88-.71V35l-.29,3.24A1.31,1.31,0,0,0,18.6,37.62Z"/><path class="cls-5" d="M17.75,39.49v-.61a.62.62,0,0,1,.09-.26l.22.09h0a.51.51,0,0,0,.41-.23.47.47,0,0,1,.23.4v.5a1.47,1.47,0,0,1-.77.16Z"/><path class="cls-5" d="M17.75,35.35l-.2,2.36a1.35,1.35,0,0,0-.73,1.12,1.43,1.43,0,0,1-.14-.73L17,34.78a1.22,1.22,0,0,1,.13-.45v.09A1.34,1.34,0,0,0,17.75,35.35Z"/><path class="cls-5" d="M18.38,34.39h0a.57.57,0,0,0-.31.1.41.41,0,0,1-.1-.21l-.1-.63a1.51,1.51,0,0,1,.6-.09,1.66,1.66,0,0,1,.42.12v.44a.51.51,0,0,1-.22.49h0A.53.53,0,0,0,18.38,34.39Z"/><path class="cls-2" d="M17.59,37.71v.46a.48.48,0,0,0,.12.36l.12.09a.43.43,0,0,0-.09.26v.61a1.4,1.4,0,0,1-.83-.66A1.34,1.34,0,0,1,17.59,37.71Z"/><path class="cls-5" d="M18.7,39.38v-.5a.47.47,0,0,0-.23-.4.58.58,0,0,0,.08-.22v-.64a1.32,1.32,0,0,1,.79.67h0A1.37,1.37,0,0,1,18.7,39.38Z"/><path class="cls-5" d="M18.79,35.48v-.54a.56.56,0,0,0-.1-.33.5.5,0,0,0,.21-.49v-.44a1.35,1.35,0,0,1,.79,1.09A1.34,1.34,0,0,1,18.79,35.48Z"/><path class="cls-2" d="M17.87,33.65l.1.63a.41.41,0,0,0,.1.21.51.51,0,0,0-.23.37l-.09.49a1.31,1.31,0,0,1-.63-.93v-.09A1.43,1.43,0,0,1,17.87,33.65Z"/><path class="cls-5" d="M18.54,45.61l.33-2.26a1.32,1.32,0,0,0,.66-1.14v-.09a1.32,1.32,0,0,1,.23,1l-.46,3.14A1.35,1.35,0,0,0,18.54,45.61Z"/><path class="cls-5" d="M17.75,47.5h-.1v-.58a.61.61,0,0,1,0-.27h.18a.52.52,0,0,0,.42-.25.49.49,0,0,1,.25.41v.46A1.53,1.53,0,0,1,17.75,47.5Z"/><path class="cls-5" d="M18.44,42.39a.51.51,0,0,0-.44.27.39.39,0,0,1-.16-.1.5.5,0,0,1-.14-.35v-.42a1.42,1.42,0,0,1,.94-.22h0v.63a.45.45,0,0,1,0,.23h-.11Z"/><path class="cls-5" d="M17.86,43.49l-.34,2.2a1.33,1.33,0,0,0-.71,1.16,1.36,1.36,0,0,1-.17-.86l.45-3A1.29,1.29,0,0,0,17.86,43.49Z"/><path class="cls-5" d="M18.87,43.35V43a.51.51,0,0,0-.08-.38.54.54,0,0,0-.22-.15.45.45,0,0,0,0-.23v-.62a1.31,1.31,0,0,1,.83.53v.09A1.34,1.34,0,0,1,18.87,43.35Z"/><path class="cls-2" d="M17.75,41.79v.42a.56.56,0,0,0,.15.35.34.34,0,0,0,.16.1.43.43,0,0,0,0,.16l-.09.67A1.36,1.36,0,0,1,17.2,43v-.26A1.4,1.4,0,0,1,17.75,41.79Z"/><path class="cls-2" d="M18.74,49.67l-.08-2.36a1.31,1.31,0,0,0,.61-.93v-.16a1.43,1.43,0,0,1,.17.6l.12,3.33a1.28,1.28,0,0,1-.1.55A1.32,1.32,0,0,0,18.74,49.67Z"/><path class="cls-2" d="M17.65,47.47l.1,2.14a1.29,1.29,0,0,0-.79.74v-.1L16.81,47v-.07A1.33,1.33,0,0,0,17.65,47.47Z"/><path class="cls-2" d="M17.75,46.62a.65.65,0,0,1-.16-.13.56.56,0,0,1-.08-.38v-.42a1.12,1.12,0,0,1,.56-.15,1,1,0,0,1,.46.07l-.09.64a.6.6,0,0,1,0,.19.55.55,0,0,0-.25-.07A.56.56,0,0,0,17.75,46.62Z"/><path class="cls-2" d="M17.75,51.34v-.51a.61.61,0,0,1,.15-.36h0a.53.53,0,0,0,.41.22h0a.59.59,0,0,0,.29-.13.48.48,0,0,1,.1.29v.59l-.38.08A1.46,1.46,0,0,1,17.75,51.34Z"/><path class="cls-2" d="M18.66,47.31v-.46a.49.49,0,0,0-.25-.41.6.6,0,0,0,0-.19l.09-.64a1.3,1.3,0,0,1,.75.61v.16A1.29,1.29,0,0,1,18.66,47.31Z"/><path class="cls-5" d="M17.52,45.69v.42a.52.52,0,0,0,.09.38.51.51,0,0,0,.16.13.42.42,0,0,0,0,.27v.58a.9.9,0,0,1-.13-1.78Z"/><path class="cls-5" d="M17.75,51.34v2.18a1.34,1.34,0,0,0-.81.5V50.85a1.62,1.62,0,0,1,.1-.54A1.37,1.37,0,0,0,17.75,51.34Z"/><path class="cls-5" d="M18.71,53.8V51.46a1.31,1.31,0,0,0,.8-.76.38.38,0,0,1,0,.15v3.33a1.17,1.17,0,0,1-.26.78v-.29A1.35,1.35,0,0,0,18.71,53.8Z"/><path class="cls-5" d="M17.75,54.41a.48.48,0,0,0,.44.27h.15v.15l.1.68h-.29a1.39,1.39,0,0,1-.74-.22v-.36A.5.5,0,0,1,17.75,54.41Z"/><path class="cls-5" d="M18.18,50.37a.52.52,0,0,0-.32.11.41.41,0,0,1-.09-.26v-.61a1.14,1.14,0,0,1,.41-.07,1.11,1.11,0,0,1,.59.13v.51a.44.44,0,0,1-.19.39A.48.48,0,0,0,18.18,50.37Z"/><path class="cls-2" d="M17.75,49.61v.61a.58.58,0,0,0,.09.26h0a.55.55,0,0,0-.14.37v.49a1.34,1.34,0,0,1-.74-1A1.28,1.28,0,0,1,17.75,49.61Z"/><path class="cls-5" d="M18.69,51.46v-.6a.52.52,0,0,0-.11-.29.44.44,0,0,0,.19-.39v-.51a.89.89,0,0,1,.78,1,.91.91,0,0,1-.78.78Z"/><path class="cls-2" d="M18.45,58.61h.09a.48.48,0,0,1,0,.17v.66a1.34,1.34,0,0,1-1-.29v-.31a.59.59,0,0,1,.13-.36.54.54,0,0,1,.29-.15A.52.52,0,0,0,18.45,58.61Z"/><path class="cls-2" d="M16.9,54.25a1.3,1.3,0,0,0,.61,1.1l.35,2.24a1.28,1.28,0,0,0-.79.44l-.45-2.91a1.35,1.35,0,0,1,.28-1Z"/><path class="cls-2" d="M18.9,57.81l-.36-2.33A1.23,1.23,0,0,0,19.3,55l.48,3a1.4,1.4,0,0,1-.35,1.11v-.29A1.32,1.32,0,0,0,18.9,57.81Z"/><path class="cls-2" d="M17.94,54.38h-.16l0-.13v-.64h0a1.26,1.26,0,0,1,1,.23v.41a.51.51,0,0,1-.15.36.67.67,0,0,1-.2.12A.48.48,0,0,0,17.94,54.38Z"/><path class="cls-5" d="M17.75,53.56v.69a.67.67,0,0,0,0,.2.51.51,0,0,0-.33.54v.36a1.3,1.3,0,0,1-.61-1.1V54.1A1.36,1.36,0,0,1,17.75,53.56Z"/><path class="cls-2" d="M18.54,55.48l-.1-.68a.38.38,0,0,0,0-.15.56.56,0,0,0,.2-.11.55.55,0,0,0,.15-.36V53.8a1.34,1.34,0,0,1,.53.87V55A1.21,1.21,0,0,1,18.54,55.48Z"/><path class="cls-5" d="M17.61,59.19l.14,2.33a1.43,1.43,0,0,0-.79.58l-.22-3.2a1.45,1.45,0,0,1,.32-1v.39A1.32,1.32,0,0,0,17.61,59.19Z"/><path class="cls-5" d="M18.9,57.81v.28a.54.54,0,0,1-.08.37.45.45,0,0,1-.32.19.5.5,0,0,0-.45-.3H18v-.13l-.1-.7H18A1.42,1.42,0,0,1,18.9,57.81Z"/><path class="cls-5" d="M18.77,61.7l-.14-2.22h0a1.23,1.23,0,0,0,.77-.42l.22,3a1.41,1.41,0,0,1-.21.8v-.11A1.32,1.32,0,0,0,18.77,61.7Z"/><path class="cls-5" d="M18.31,62.68h.19a.67.67,0,0,1,0,.2v.64h-.24a1.43,1.43,0,0,1-.78-.19V62.9a.46.46,0,0,1,.26-.47A.52.52,0,0,0,18.31,62.68Z"/><path class="cls-5" d="M18.66,59.48h0v-.83a.45.45,0,0,0,.32-.19.54.54,0,0,0,.08-.37v-.28a1.3,1.3,0,0,1,.51,1v.29A1.22,1.22,0,0,1,18.66,59.48Z"/><path class="cls-2" d="M17.86,57.55l.1.7v.13a.47.47,0,0,0-.29.14.53.53,0,0,0-.13.36v.31a1.3,1.3,0,0,1-.47-.81V58A1.32,1.32,0,0,1,17.86,57.55Z"/><path class="cls-2" d="M18.77,61.7v.44a.53.53,0,0,1-.13.36.53.53,0,0,1-.14.12.55.55,0,0,0-.44-.28.49.49,0,0,0-.23.08.37.37,0,0,1,0-.21l-.08-.69a.61.61,0,0,1,.27,0A1.31,1.31,0,0,1,18.77,61.7Z"/><path class="cls-2" d="M17.62,63.32l.18,2.91a.49.49,0,0,0,.49.46h0a.46.46,0,0,0,.35-.16.48.48,0,0,0,.12-.36l-.15-2.68a1.42,1.42,0,0,0,.8-.58l.18,3.21a1.33,1.33,0,0,1-2.65.15L16.77,63a1.46,1.46,0,0,1,.2-.79v.14A1.31,1.31,0,0,0,17.62,63.32Z"/><path class="cls-2" d="M18.64,63.46v-.64a.34.34,0,0,0,0-.2.44.44,0,0,0,.15-.12.59.59,0,0,0,.13-.36V61.7a1.32,1.32,0,0,1,.65,1.07v.11A1.4,1.4,0,0,1,18.64,63.46Z"/><path class="cls-5" d="M17.75,61.52v.65a.67.67,0,0,0,0,.2.48.48,0,0,0-.26.47v.43a1.32,1.32,0,0,1-.64-1V62.1A1.47,1.47,0,0,1,17.75,61.52Z"/><path class="cls-3" d="M16.64,30l.49-3.3a1.27,1.27,0,0,1,.54-.88,1.29,1.29,0,0,0,.14,1.23.11.11,0,0,0,.09.1l-.36,2.48a1.32,1.32,0,0,0-.88.88A1.25,1.25,0,0,1,16.64,30Z"/><path class="cls-3" d="M19.66,27.41h0l-.45,3a.67.67,0,0,1,0,.2,1.35,1.35,0,0,0-.7-.88l.32-2.1A1.44,1.44,0,0,0,19.66,27.41Z"/><path class="cls-3" d="M19.66,26.4l-.47.32a.45.45,0,0,1-.26.08.5.5,0,0,0-.42-.37h-.09a.52.52,0,0,1,.21-.53l.3-.22A1.32,1.32,0,0,1,19.66,26.4Z"/><path class="cls-5" d="M41.46,12.09l-1.9,1.15a1.3,1.3,0,0,0-1.06,0l-.24.09a1.33,1.33,0,0,1,.53-.57l2.91-1.71h0A1.3,1.3,0,0,0,41.46,12.09Z"/><path class="cls-5" d="M42.67,11.92a.49.49,0,0,0-.41-.23.47.47,0,0,1,.26-.44l.43-.2a1.49,1.49,0,0,1,.45.45,1.15,1.15,0,0,1,.14.38l-.58.27a.41.41,0,0,1-.22,0A.48.48,0,0,0,42.67,11.92Z"/><path class="cls-5" d="M38.25,14.58a1.51,1.51,0,0,1-.13-.33l.62-.25a.22.22,0,0,1,.16,0,.6.6,0,0,0,0,.19h0a.52.52,0,0,0,.46.23.57.57,0,0,1,0,.26.55.55,0,0,1-.28.28l-.35.14A1.41,1.41,0,0,1,38.25,14.58Z"/><path class="cls-5" d="M40.18,14l1.91-1.14a1.44,1.44,0,0,0,1.25,0h0a1.1,1.1,0,0,1-.44.44L40.15,15A1.33,1.33,0,0,0,40.18,14Z"/><path class="cls-3" d="M50.21,8.23l1.89.51a1.09,1.09,0,0,0,0,.36l.09.52L49.73,9l.11-.08A1.39,1.39,0,0,0,50.21,8.23Z"/><path class="cls-3" d="M53.18,7.54a1.46,1.46,0,0,0-.6.29l-2.5-.66L50,7a1.28,1.28,0,0,0-1.36-.41,1.3,1.3,0,0,1,1.25-.33l3.22.85a1.5,1.5,0,0,1,.7.48A1.89,1.89,0,0,0,53.18,7.54Z"/><path class="cls-3" d="M48.28,7.81l.41-.35a.53.53,0,0,1,.42-.1h0a.08.08,0,0,0,0,.07.5.5,0,0,0,.36.54h0a.48.48,0,0,1-.14.2l-.48.41A1.3,1.3,0,0,1,48.28,7.81Z"/><path class="cls-3" d="M53.19,8.52h.21a.48.48,0,0,1,.49.41v.13a1.34,1.34,0,0,1-.87.77l-.13-.73V9A.41.41,0,0,0,53.19,8.52Z"/><path class="cls-5" d="M45.07,10l.45-.22a.45.45,0,0,1,.42,0,.47.47,0,0,0,0,.43v.08a1.09,1.09,0,0,0,.17.13.45.45,0,0,1-.23.24l-.49.24,0-.06A1.37,1.37,0,0,1,45.07,10Z"/><path class="cls-5" d="M49.37,7.59h0a.5.5,0,0,0-.28-.16.5.5,0,0,1,.6-.31l.45.12a1.35,1.35,0,0,1,.13,1.06l-.81-.2A.57.57,0,0,0,49.37,7.59Z"/><path class="cls-5" d="M48.28,7.81,46.64,9.26a1.49,1.49,0,0,0-1-.28l2.49-2.09a1.13,1.13,0,0,1,.51-.26,1.29,1.29,0,0,0-.38.61A1.37,1.37,0,0,0,48.28,7.81Z"/><path class="cls-5" d="M47.06,10.09l1.71-1.46a1.46,1.46,0,0,0,.38.18l.54.14L47.26,11a1.34,1.34,0,0,1-.74.32A1.31,1.31,0,0,0,47.06,10.09Z"/><path class="cls-5" d="M50,7l.13.19-.45-.12a.48.48,0,0,0-.59.31.56.56,0,0,0-.43.1l-.4.35a1.34,1.34,0,0,1,0-.63,1.27,1.27,0,0,1,.38-.61A1.28,1.28,0,0,1,50,7Z"/><path class="cls-3" d="M48.77,8.63l.48-.4A.51.51,0,0,0,49.4,8l.81.21a1.31,1.31,0,0,1-.42.64l-.1.08-.54-.14A1.46,1.46,0,0,1,48.77,8.63Z"/><path class="cls-5" d="M52.64,7.83h.26a.51.51,0,0,1,.37.51.5.5,0,0,0-.28.41.53.53,0,0,1-.35,0l-.48-.13A1.34,1.34,0,0,1,52.64,7.83Z"/><path class="cls-3" d="M52.1,8.74l.48.13a.53.53,0,0,0,.35,0V9l.13.73a1.19,1.19,0,0,1-.7,0H52.2l-.08-.52A1,1,0,0,1,52.1,8.74Z"/><path class="cls-5" d="M54,8.72v0a.48.48,0,0,0-.5-.41h-.2A.5.5,0,0,0,53,7.85h-.27a1.25,1.25,0,0,1,.6-.29,1.42,1.42,0,0,1,.58,0A1.36,1.36,0,0,1,54,8.72Z"/><path class="cls-3" d="M41.55,12.28l-.09-.19.53-.32a.61.61,0,0,1,.27,0,.33.33,0,0,0,0,.24h0a.5.5,0,0,0,.42.23.54.54,0,0,1-.23.41l-.42.26A1.31,1.31,0,0,1,41.55,12.28Z"/><path class="cls-3" d="M43.54,11.88l1.92-1a1.35,1.35,0,0,0,1.06.39l-.2.12-2.91,1.45A1.32,1.32,0,0,0,43.54,11.88Z"/><path class="cls-3" d="M46.19,10h0a.45.45,0,0,0-.25-.22.63.63,0,0,1,.13-.2l.49-.41a1.43,1.43,0,0,1,.38.47,1.45,1.45,0,0,1,.12.42l-.34.29a.51.51,0,0,1-.53,0h0A.53.53,0,0,0,46.19,10Z"/><path class="cls-3" d="M45.07,10l-2.12,1a1.29,1.29,0,0,0-1.34,0,1.29,1.29,0,0,1,.55-.51l3-1.46A1.39,1.39,0,0,1,45.59,9h0A1.36,1.36,0,0,0,45.07,10Z"/><path class="cls-5" d="M43,11.05l-.43.2a.47.47,0,0,0-.26.44.61.61,0,0,0-.27,0l-.53.32a1.29,1.29,0,0,1,.15-1A1.29,1.29,0,0,1,43,11.05Z"/><path class="cls-3" d="M42.09,12.86l.42-.26a.51.51,0,0,0,.23-.4.41.41,0,0,0,.22,0l.58-.28a1.31,1.31,0,0,1-.17,1h0A1.44,1.44,0,0,1,42.09,12.86Z"/><path class="cls-5" d="M45.46,10.93l.49-.29a.49.49,0,0,0,.24-.25.51.51,0,0,0,.53,0l.34-.29a1.34,1.34,0,0,1-.54,1.24A1.36,1.36,0,0,1,45.46,10.93Z"/><path class="cls-3" d="M46.56,9.19l-.49.4a.57.57,0,0,0-.13.21.45.45,0,0,0-.42,0l-.45.22a1.33,1.33,0,0,1,.46-1h0A1.43,1.43,0,0,1,46.56,9.19Z"/><path class="cls-3" d="M39.56,13.24l-.35.22a.52.52,0,0,0-.23.31A.28.28,0,0,0,39,14h-.16l-.63.25a1.41,1.41,0,0,1,.07-.93l.24-.09A1.31,1.31,0,0,1,39.56,13.24Z"/><path class="cls-5" d="M38.77,15l.35-.14a.55.55,0,0,0,.28-.28.57.57,0,0,0,0-.26.45.45,0,0,0,.23,0l.54-.32a1.41,1.41,0,0,1,0,1h0A1.33,1.33,0,0,1,38.77,15Z"/><path class="cls-3" d="M21,24.27l.36-.24a.48.48,0,0,1,.54,0,.52.52,0,0,0,0,.51h0l.15.14a.47.47,0,0,1-.13.15l-.54.36a.64.64,0,0,1-.16-.17A1.32,1.32,0,0,1,21,24.27Z"/><path class="cls-5" d="M21,24.27l-2.08,1.46a.75.75,0,0,0-.29-.09,1.3,1.3,0,0,0-1,.25,1.25,1.25,0,0,1,.49-.64l2.75-1.88a1.25,1.25,0,0,1,.77-.21l-.1.07A1.28,1.28,0,0,0,21,24.27Z"/><path class="cls-5" d="M19.66,26.4l1.74-1.19a1.35,1.35,0,0,0,.92.39l-2.6,1.77v-.26A1.42,1.42,0,0,0,19.66,26.4Z"/><path class="cls-5" d="M22.12,24.17a1.37,1.37,0,0,0-.18-.16.75.75,0,0,1,.15-.16l.52-.36a.55.55,0,0,1,.17.2,1.23,1.23,0,0,1,.24.73l-.37.26a.44.44,0,0,1-.37.07.28.28,0,0,1-.18,0A.48.48,0,0,0,22.12,24.17Z"/><path class="cls-5" d="M18.42,26.43v.14h0a.55.55,0,0,0,.32.22h.12a.61.61,0,0,1,0,.19l-.09.64a1.32,1.32,0,0,1-.94-.47v-.32a.49.49,0,0,1,.56-.41Z"/><path class="cls-3" d="M17.67,25.84a1.34,1.34,0,0,1,1-.24,1,1,0,0,1,.29.08l-.3.22a1.28,1.28,0,0,1-.69,1v.32s-.07,0-.08-.1A1.29,1.29,0,0,1,17.67,25.84Z"/><path class="cls-5" d="M18.93,26.8a.45.45,0,0,0,.26-.08l.47-.32a1.33,1.33,0,0,1,.1.71v.26h0a1.46,1.46,0,0,1-.81.22L19,27A.31.31,0,0,0,18.93,26.8Z"/><path class="cls-5" d="M21.4,25.18l.54-.37a.29.29,0,0,0,.13-.14h.18a.45.45,0,0,0,.37-.08l.37-.26a1.37,1.37,0,0,1-.58,1.12h-.09A1.32,1.32,0,0,1,21.4,25.18Z"/><path class="cls-3" d="M22.58,23.49l-.52.36a.75.75,0,0,0-.15.16.48.48,0,0,0-.54,0l-.36.25a1.28,1.28,0,0,1,.57-1.09l.1-.07A1.23,1.23,0,0,1,22.58,23.49Z"/><path class="cls-2" d="M17.75,41.79v-2.3a1.35,1.35,0,0,1-.82-.66v3.38a1.28,1.28,0,0,0,.21.74v-.26A1.36,1.36,0,0,1,17.75,41.79Z"/><path class="cls-2" d="M18.19,42.71H18v.16l-.09.66a1,1,0,0,0,.34,0,1.24,1.24,0,0,0,.68-.18V43a.52.52,0,0,0-.09-.38.45.45,0,0,0-.21-.15A.5.5,0,0,1,18.19,42.71Z"/><path class="cls-2" d="M17.59,37.71v.46a.48.48,0,0,0,.12.36l.12.09a.45.45,0,0,1,.42-.23.41.41,0,0,1,.26.09.85.85,0,0,0,.09-.22v-.64a1.07,1.07,0,0,0-.39-.07A1.22,1.22,0,0,0,17.59,37.71Z"/><path class="cls-2" d="M18.7,39.38v2.21a1.29,1.29,0,0,1,.83.53V38.88a1.23,1.23,0,0,0-.15-.59h0A1.36,1.36,0,0,1,18.7,39.38Z"/><path class="cls-3" d="M17.89,30.7a.61.61,0,0,1-.3-.15.49.49,0,0,0-.15.44v.48h.24a1.18,1.18,0,0,0,.76-.12l-.09-.58a.44.44,0,0,0-.13-.24.57.57,0,0,1-.33.13Z"/><path class="cls-2" d="M18.47,34.7a.49.49,0,0,1-.4-.21.51.51,0,0,0-.23.37l-.09.49a1.33,1.33,0,0,0,.89.16h.1V35a.5.5,0,0,0-.1-.33.4.4,0,0,1-.2.09Z"/><path class="cls-2" d="M17.75,29.54h-.17l-.07.48a.47.47,0,0,0,.13.42.5.5,0,0,1,.26-.13h0a.48.48,0,0,1,.36.16.77.77,0,0,0,.16-.31l.08-.55A1.48,1.48,0,0,0,17.75,29.54Z"/><path class="cls-2" d="M17.87,33.65l-.36-2.18a1.36,1.36,0,0,1-.85-.94,1.26,1.26,0,0,0,0,.61l.53,3.19A1.4,1.4,0,0,1,17.87,33.65Z"/><path class="cls-2" d="M18.51,31.41l.38,2.27a1.36,1.36,0,0,1,.78,1.09,1.53,1.53,0,0,0,.11-.79l-.57-3.28v-.09A1.27,1.27,0,0,1,18.51,31.41Z"/><path class="cls-2" d="M18.53,29.73l-.08.55a.67.67,0,0,1-.16.3.44.44,0,0,1,.13.25l.09.58a1.28,1.28,0,0,0,.71-.8,1.25,1.25,0,0,0-.1-.27A1.34,1.34,0,0,0,18.53,29.73Z"/><path class="cls-3" d="M17.51,31.47V31a.47.47,0,0,1,.16-.44.46.46,0,0,1-.13-.42l.07-.48a1.69,1.69,0,0,0-.31.13,1.32,1.32,0,0,0-.56.75A1.31,1.31,0,0,0,17.51,31.47Z"/><path class="cls-5" d="M18.79,35.48l-.19,2.14a1.33,1.33,0,0,1,.78.67L19.67,35v-.25A1.37,1.37,0,0,1,18.79,35.48Z"/><path class="cls-5" d="M18.06,38.71h0l-.31-.09a.5.5,0,0,0-.08.26v.61h.23a1.38,1.38,0,0,0,.77-.16v-.49a.49.49,0,0,0-.23-.41A.5.5,0,0,1,18.06,38.71Z"/><path class="cls-5" d="M17.59,37.71l.16-2.36a1.31,1.31,0,0,1-.63-.93v-.09a1.24,1.24,0,0,0-.14.45l-.29,3.32a1.55,1.55,0,0,0,.15.73A1.33,1.33,0,0,1,17.59,37.71Z"/><path class="cls-5" d="M17.87,33.65l.1.63a.41.41,0,0,0,.1.21.57.57,0,0,1,.31-.1h0a.5.5,0,0,1,.35.18h0a.51.51,0,0,0,.22-.5v-.43a1.66,1.66,0,0,0-.42-.12A1.35,1.35,0,0,0,17.87,33.65Z"/><path class="cls-2" d="M17.75,39.49v-.61a.62.62,0,0,1,.09-.26l-.11-.09a.48.48,0,0,1-.12-.36v-.46a1.35,1.35,0,0,0-.73,1.12A1.38,1.38,0,0,0,17.75,39.49Z"/><path class="cls-5" d="M18.6,37.62v.64a.85.85,0,0,1-.09.22.47.47,0,0,1,.23.4v.5a1.38,1.38,0,0,0,.69-1.05h0A1.36,1.36,0,0,0,18.6,37.62Z"/><path class="cls-5" d="M18.89,33.68v.44a.51.51,0,0,1-.22.49.5.5,0,0,1,.1.33v.54a1.38,1.38,0,0,0,.89-.71A1.36,1.36,0,0,0,18.89,33.68Z"/><path class="cls-2" d="M17.75,35.35v-.49a.52.52,0,0,1,.24-.37.3.3,0,0,1-.1-.21l-.11-.63a1.49,1.49,0,0,0-.72.68v.09A1.3,1.3,0,0,0,17.75,35.35Z"/><path class="cls-5" d="M18.87,43.35l-.33,2.26a1.35,1.35,0,0,1,.76.61l.46-3.14a1.32,1.32,0,0,0-.23-1v.09A1.32,1.32,0,0,1,18.87,43.35Z"/><path class="cls-5" d="M18,46.69h0a.54.54,0,0,1-.18,0,.66.66,0,0,0,0,.28v.58h.11a1.5,1.5,0,0,0,.9-.19v-.47a.48.48,0,0,0-.25-.4A.49.49,0,0,1,18,46.69Z"/><path class="cls-5" d="M17.75,41.79v.42a.56.56,0,0,0,.15.35.34.34,0,0,0,.16.1.49.49,0,0,1,.44-.27h.19a.49.49,0,0,0,0-.24v-.62h0A1.49,1.49,0,0,0,17.75,41.79Z"/><path class="cls-5" d="M17.52,45.69l.34-2.2a1.29,1.29,0,0,1-.77-.54l-.45,3a1.36,1.36,0,0,0,.17.86A1.33,1.33,0,0,1,17.52,45.69Z"/><path class="cls-5" d="M18.7,41.59v.62a.45.45,0,0,1,0,.23.48.48,0,0,1,.22.15A.47.47,0,0,1,19,43v.38a1.32,1.32,0,0,0,.66-1.14v-.09A1.32,1.32,0,0,0,18.7,41.59Z"/><path class="cls-2" d="M17.86,43.49l.08-.67v-.16a.39.39,0,0,1-.16-.1.5.5,0,0,1-.14-.35v-.42a1.35,1.35,0,0,0-.57.9V43A1.37,1.37,0,0,0,17.86,43.49Z"/><path class="cls-2" d="M18.66,47.31l.08,2.36a1.29,1.29,0,0,1,.74,1,1.15,1.15,0,0,0,.11-.55l-.12-3.33a1.43,1.43,0,0,0-.17-.6v.16A1.33,1.33,0,0,1,18.66,47.31Z"/><path class="cls-2" d="M17.75,49.61l-.08-2.14a1.34,1.34,0,0,1-.85-.62V47l.12,3.33v.1A1.34,1.34,0,0,1,17.75,49.61Z"/><path class="cls-2" d="M17.52,45.69v.42a.52.52,0,0,0,.09.38.51.51,0,0,0,.16.13.52.52,0,0,1,.42-.25.55.55,0,0,1,.25.07.6.6,0,0,0,0-.19l.09-.64a1,1,0,0,0-.46-.07A1.33,1.33,0,0,0,17.52,45.69Z"/><path class="cls-2" d="M18.26,50.7a.47.47,0,0,1-.4-.22h0a.51.51,0,0,0-.15.37v.49a1.36,1.36,0,0,0,.63.15l.37-.08v-.59a.43.43,0,0,0-.1-.29.59.59,0,0,1-.29.13Z"/><path class="cls-2" d="M18.54,45.61l-.09.64a.6.6,0,0,1,0,.19.47.47,0,0,1,.25.41v.46a1.28,1.28,0,0,0,.61-.93v-.16A1.34,1.34,0,0,0,18.54,45.61Z"/><path class="cls-5" d="M17.65,47.47v-.58a.61.61,0,0,1,0-.27.65.65,0,0,1-.16-.13.51.51,0,0,1-.08-.38v-.42a.9.9,0,0,0,.13,1.78Z"/><path class="cls-5" d="M17.75,53.56V51.34a1.37,1.37,0,0,1-.74-1,1.62,1.62,0,0,0-.1.54V54A1.36,1.36,0,0,1,17.75,53.56Z"/><path class="cls-5" d="M18.69,51.46V53.8a1.34,1.34,0,0,1,.53.87V55a1.17,1.17,0,0,0,.26-.78V50.85a.38.38,0,0,0,0-.15A1.32,1.32,0,0,1,18.69,51.46Z"/><path class="cls-5" d="M18.22,54.68a.48.48,0,0,1-.44-.27.51.51,0,0,0-.33.54v.36a1.49,1.49,0,0,0,.74.22h.29l-.1-.69a.33.33,0,0,0,0-.14h-.15Z"/><path class="cls-5" d="M17.75,49.61v.61a.58.58,0,0,0,.09.26.52.52,0,0,1,.32-.11.49.49,0,0,1,.39.2.44.44,0,0,0,.19-.39v-.51a1.11,1.11,0,0,0-.59-.13A1.34,1.34,0,0,0,17.75,49.61Z"/><path class="cls-2" d="M17.75,51.34v-.51a.61.61,0,0,1,.15-.36h0a.62.62,0,0,1-.09-.26V49.6a1.33,1.33,0,0,0-.8.74A1.36,1.36,0,0,0,17.75,51.34Z"/><path class="cls-5" d="M18.74,49.67v.51a.44.44,0,0,1-.19.39.52.52,0,0,1,.11.29v.6a.9.9,0,0,0,0-1.79Z"/><path class="cls-2" d="M18.45,58.61a.51.51,0,0,1-.45-.29.47.47,0,0,0-.29.14.59.59,0,0,0-.13.37v.3a1.29,1.29,0,0,0,1,.29v-.65a.54.54,0,0,0,0-.18h-.09Z"/><path class="cls-2" d="M17.51,55.31a1.31,1.31,0,0,1-.61-1.11v-.14a1.34,1.34,0,0,0-.28,1l.45,2.9a1.32,1.32,0,0,1,.79-.43Z"/><path class="cls-2" d="M18.54,55.48l.36,2.33a1.3,1.3,0,0,1,.51,1v.29A1.36,1.36,0,0,0,19.76,58l-.48-3A1.23,1.23,0,0,1,18.54,55.48Z"/><path class="cls-2" d="M17.75,53.56h0v.69a.67.67,0,0,0,0,.2h.16a.49.49,0,0,1,.44.28.56.56,0,0,0,.2-.12.51.51,0,0,0,.15-.36v-.38A1.3,1.3,0,0,0,17.75,53.56Z"/><path class="cls-5" d="M17.51,55.31V55a.51.51,0,0,1,.33-.54.51.51,0,0,1-.09-.16v-.64a1.32,1.32,0,0,0-.81.49v.15A1.33,1.33,0,0,0,17.51,55.31Z"/><path class="cls-2" d="M18.71,53.8v.45a.54.54,0,0,1-.14.36.82.82,0,0,1-.2.12v.14l.1.69a1.2,1.2,0,0,0,.75-.53v-.29A1.31,1.31,0,0,0,18.71,53.8Z"/><path class="cls-5" d="M17.75,61.52l-.14-2.33a1.3,1.3,0,0,1-.47-.81V58a1.52,1.52,0,0,0-.32,1l.22,3.2A1.43,1.43,0,0,1,17.75,61.52Z"/><path class="cls-5" d="M17.86,57.55l.1.7v.13h.09a.5.5,0,0,1,.45.3.45.45,0,0,0,.32-.19.55.55,0,0,0,.08-.38v-.27a1.42,1.42,0,0,0-.91-.29Z"/><path class="cls-5" d="M18.63,59.48l.14,2.22a1.29,1.29,0,0,1,.66,1.07v.11a1.33,1.33,0,0,0,.2-.8l-.22-3a1.21,1.21,0,0,1-.77.42Z"/><path class="cls-5" d="M18.31,62.68a.55.55,0,0,1-.44-.26.45.45,0,0,0-.26.46v.44a1.53,1.53,0,0,0,.78.19h.24v-.64a.74.74,0,0,0,0-.21h-.19Z"/><path class="cls-5" d="M18.9,57.81v.28a.54.54,0,0,1-.08.37.45.45,0,0,1-.32.19v.83h0a1.23,1.23,0,0,0,.77-.42v-.29A1.32,1.32,0,0,0,18.9,57.81Z"/><path class="cls-2" d="M17.61,59.19v-.31a.53.53,0,0,1,.13-.36.47.47,0,0,1,.29-.14v-.13l-.1-.7a1.35,1.35,0,0,0-.79.43v.4A1.3,1.3,0,0,0,17.61,59.19Z"/><path class="cls-2" d="M17.75,61.52v.65a.67.67,0,0,0,0,.2A.48.48,0,0,1,18,62.3a.5.5,0,0,1,.43.28.44.44,0,0,0,.15-.12.59.59,0,0,0,.13-.36v-.44a1.28,1.28,0,0,0-.74-.19A.8.8,0,0,0,17.75,61.52Z"/><path class="cls-2" d="M18.45,66.63h0a.5.5,0,0,0,0,.38h0a.49.49,0,0,0,.45.29A1.29,1.29,0,0,0,19.63,66h0l-.89.35a.2.2,0,0,1,0,.11A.46.46,0,0,1,18.45,66.63Z"/><path class="cls-2" d="M17.75,66.11l-.16-2.79a1.3,1.3,0,0,1-.63-1v-.13a1.38,1.38,0,0,0-.21.79L17,66.24a1.3,1.3,0,0,0,.66,1.09A1.38,1.38,0,0,1,17.75,66.11Z"/><path class="cls-2" d="M18.64,63.46l.12,2,.81-.32-.13-2.28A1.42,1.42,0,0,1,18.64,63.46Z"/><path class="cls-2" d="M18.77,61.7v.44a.53.53,0,0,1-.13.36.53.53,0,0,1-.14.12.67.67,0,0,1,0,.2v.64a1.46,1.46,0,0,0,.8-.58v-.11A1.29,1.29,0,0,0,18.77,61.7Z"/><path class="cls-5" d="M17.62,63.32v-.44a.46.46,0,0,1,.27-.46.37.37,0,0,1,0-.21l-.14-.69a1.43,1.43,0,0,0-.79.58v.13A1.3,1.3,0,0,0,17.62,63.32Z"/><path class="cls-3" d="M17.9,27.17s-.07,0-.09-.1a1.29,1.29,0,0,1-.14-1.23,1.27,1.27,0,0,0-.54.88L16.64,30a1.1,1.1,0,0,0,0,.51,1.32,1.32,0,0,1,.56-.75,1.69,1.69,0,0,1,.31-.13Z"/><path class="cls-3" d="M18.85,27.63l-.19,1.22-.13.88a1.34,1.34,0,0,1,.59.61,1.25,1.25,0,0,1,.1.27.67.67,0,0,0,0-.2l.45-3h0A1.43,1.43,0,0,1,18.85,27.63Z"/><polygon class="cls-3" points="18.66 28.85 18.84 27.63 18.84 27.63 18.66 28.85"/><path class="cls-3" d="M18.93,25.68l-.3.22a.52.52,0,0,0-.21.53h.09a.28.28,0,0,1,.18,0h0l.08.08h0v.12h0a.39.39,0,0,0,.26-.09l.47-.32A1.35,1.35,0,0,0,18.93,25.68Z"/><path class="cls-5" d="M43,11.05l-.43.2a.47.47,0,0,0-.26.44.49.49,0,0,1,.41.23.45.45,0,0,1,0,.28.41.41,0,0,0,.22,0l.58-.28a1.37,1.37,0,0,0-.15-.38A1.38,1.38,0,0,0,43,11.05Z"/><path class="cls-3" d="M52.1,8.74l-1.89-.51a1.31,1.31,0,0,1-.42.64l-.1.08,2.51.67-.08-.52A1.09,1.09,0,0,1,52.1,8.74Z"/><path class="cls-3" d="M50,7l.13.19,2.5.66a1.46,1.46,0,0,1,.6-.29,1.88,1.88,0,0,1,.58,0,1.5,1.5,0,0,0-.7-.48l-3.22-.78a1.3,1.3,0,0,0-1.25.33A1.31,1.31,0,0,1,50,7Z"/><path class="cls-3" d="M49,7.47a.09.09,0,0,1,0-.07h0a.53.53,0,0,0-.42.1l-.41.35a1.28,1.28,0,0,0,.57.83l.47-.41a.43.43,0,0,0,.15-.2h0A.5.5,0,0,1,49,7.47Z"/><path class="cls-3" d="M53.93,8.9V8.77a.47.47,0,0,0-.49-.41h-.2a.42.42,0,0,1-.26.3v.12l.13.73A1.37,1.37,0,0,0,53.93,8.9Z"/><path class="cls-5" d="M46,10.25a.49.49,0,0,1,0-.44.51.51,0,0,0-.42,0L45.1,10a1.24,1.24,0,0,0,.32.84l.07.08.46-.31a.49.49,0,0,0,.24-.25.59.59,0,0,1-.18-.13Z"/><path class="cls-5" d="M50.08,7.17l-.45-.12a.48.48,0,0,0-.59.31.5.5,0,0,1,.27.16h0a.54.54,0,0,1,0,.43l.82.2A1.33,1.33,0,0,0,50.08,7.17Z"/><path class="cls-5" d="M46.56,9.19l1.65-1.46a1.3,1.3,0,0,1,0-.62,1.22,1.22,0,0,1,.38-.61,1.08,1.08,0,0,0-.51.26L45.59,8.85A1.42,1.42,0,0,1,46.56,9.19Z"/><path class="cls-5" d="M48.77,8.63l-1.71,1.46a1.31,1.31,0,0,1-.54,1.23,1.34,1.34,0,0,0,.74-.32L49.73,9l-.53-.14A1.16,1.16,0,0,1,48.77,8.63Z"/><path class="cls-5" d="M48.28,7.81l.41-.35a.53.53,0,0,1,.42-.1.49.49,0,0,1,.59-.31l.46.12L50,7a1.28,1.28,0,0,0-1.36-.41,1.23,1.23,0,0,0-.38,1.24Z"/><path class="cls-3" d="M50.21,8.23,49.4,8a.51.51,0,0,1-.15.21l-.48.4a1.46,1.46,0,0,0,.38.18l.54.14.1-.08A1.31,1.31,0,0,0,50.21,8.23Z"/><path class="cls-5" d="M52.84,7.91h-.26a1.26,1.26,0,0,0-.48.9l.48.13a.53.53,0,0,0,.35,0,.49.49,0,0,1,.28-.41.49.49,0,0,0-.33-.61Z"/><path class="cls-3" d="M52.93,8.82a.43.43,0,0,1-.35,0l-.48-.13a1.15,1.15,0,0,0,0,.37l.09.52h.16a1.38,1.38,0,0,0,.7,0l-.13-.73S52.93,8.87,52.93,8.82Z"/><path class="cls-5" d="M53.18,7.54a1.46,1.46,0,0,0-.6.29h.26a.51.51,0,0,1,.37.51h.2a.49.49,0,0,1,.5.41v0a1.39,1.39,0,0,0-.25-1.15A1.55,1.55,0,0,0,53.18,7.54Z"/><path class="cls-3" d="M42.32,12h0a.3.3,0,0,1,0-.23.66.66,0,0,0-.28,0l-.52.32.09.22a1.26,1.26,0,0,0,.54.58l.42-.26a.54.54,0,0,0,.23-.41A.48.48,0,0,1,42.32,12Z"/><path class="cls-3" d="M43.54,11.88a1.31,1.31,0,0,1-.17,1l2.9-1.45.21-.12a1.34,1.34,0,0,1-1.06-.39Z"/><path class="cls-3" d="M46.56,9.19l-.49.4a.57.57,0,0,0-.13.21.42.42,0,0,1,.25.22h0a.48.48,0,0,1,0,.37h0a.51.51,0,0,0,.53,0l.34-.29a1.55,1.55,0,0,0-.12-.42A1.3,1.3,0,0,0,46.56,9.19Z"/><path class="cls-3" d="M43,11.05l2.12-1a1.33,1.33,0,0,1,.46-1h0a1.26,1.26,0,0,0-.43.13l-3,1.46a1.29,1.29,0,0,0-.55.51A1.29,1.29,0,0,1,43,11.05Z"/><path class="cls-5" d="M41.46,12.09l.53-.32a.61.61,0,0,1,.27,0,.46.46,0,0,1,.26-.43l.43-.21a1.34,1.34,0,0,0-1.34,0A1.35,1.35,0,0,0,41.46,12.09Z"/><path class="cls-3" d="M43.54,11.88l-.58.27a.41.41,0,0,1-.22,0,.51.51,0,0,1-.23.41l-.42.26a1.44,1.44,0,0,0,1.25,0h0A1.35,1.35,0,0,0,43.54,11.88Z"/><path class="cls-5" d="M47.06,10.09l-.34.29a.51.51,0,0,1-.53,0,.53.53,0,0,1-.24.25l-.49.23a1.35,1.35,0,0,0,1.06.39A1.33,1.33,0,0,0,47.06,10.09Z"/><path class="cls-3" d="M45.07,10l.45-.22a.45.45,0,0,1,.42,0,.57.57,0,0,1,.13-.21l.49-.4a1.41,1.41,0,0,0-1-.28h0A1.32,1.32,0,0,0,45.07,10Z"/><path class="cls-3" d="M21.91,24.52a.52.52,0,0,1,0-.51.48.48,0,0,0-.54,0l-.36.25a1.38,1.38,0,0,0,.23.76,1.29,1.29,0,0,0,.16.17l.54-.36a.37.37,0,0,0,.13-.15l-.14-.14Z"/><path class="cls-3" d="M25.17,21.21l.16-.15h0a1.33,1.33,0,0,0-1,.22l-2.66,1.83a1.27,1.27,0,0,1,.9.38l2-1.37h.1a1.57,1.57,0,0,1,.44-.77Z"/><path class="cls-3" d="M25,23.16h-.08l-1.82,1.26a1.37,1.37,0,0,1-.58,1.12h-.09a1.42,1.42,0,0,0,.78-.23l2.49-1.75h0a1.54,1.54,0,0,1-.54-.24Z"/><path class="cls-3" d="M26.16,21.6l-.08-.09-.46.4-.12.17h0a.49.49,0,0,1,0,.44h0a.42.42,0,0,0,.16.11h.18a.49.49,0,0,0,.36-.13l.1-.07h0A1.39,1.39,0,0,0,26.16,21.6Z"/><path class="cls-5" d="M28.89,19.61a.42.42,0,0,0-.09.14h0a.47.47,0,0,1,0,.51.38.38,0,0,0,.13.09.5.5,0,0,0,.38,0l.35-.13v-.16a1.31,1.31,0,0,0-.13-.7l-.47.18Z"/><path class="cls-5" d="M25.47,22.65a.17.17,0,0,0,0-.1.56.56,0,0,1,0-.44h0a.43.43,0,0,0-.29-.18.52.52,0,0,0-.38.08l-.13.1a2.41,2.41,0,0,0,0,.38,1.4,1.4,0,0,0,.27.67l.46-.32A.49.49,0,0,0,25.47,22.65Z"/><path class="cls-5" d="M28.32,20.9h0l-1.68,1.46-.24.21a1.36,1.36,0,0,1-.53.88l-.18.11a1.41,1.41,0,0,0,.41,0,1.22,1.22,0,0,0,.75-.3l2.3-2H28.9A1.38,1.38,0,0,1,28.32,20.9Z"/><path class="cls-5" d="M26.08,21.51h0l1.85-1.58h0a1.31,1.31,0,0,1,0-.28,1.28,1.28,0,0,1,.67-.84h0a1.45,1.45,0,0,0-1,.32l-2.27,2a1.29,1.29,0,0,1,.74.44Z"/><path class="cls-3" d="M26.37,22.59l-.1.07a.49.49,0,0,1-.36.13h-.18a.33.33,0,0,1-.15-.11h0v.1a.74.74,0,0,1-.12.13l-.47.32h0a.58.58,0,0,0,.18.17,1.34,1.34,0,0,0,.54.25l.17-.12A1.29,1.29,0,0,0,26.37,22.59Z"/><path class="cls-5" d="M25.15,21.88a.42.42,0,0,1,.29.17h0l.12-.17.47-.4h0a1.39,1.39,0,0,0-.75-.43l-.16.14H25a1.5,1.5,0,0,0-.44.77l.13-.1A.48.48,0,0,1,25.15,21.88Z"/><path class="cls-3" d="M28.79,20.13h0a.43.43,0,0,1,0-.35.5.5,0,0,0-.67,0L27.9,20a1.6,1.6,0,0,0,.09.53,2.12,2.12,0,0,0,.11.21,1,1,0,0,0,.21.25l.46-.42a.37.37,0,0,0,.12-.13h0A.36.36,0,0,1,28.79,20.13Z"/><path class="cls-3" d="M33.6,18.27v-.11a1.35,1.35,0,0,0-.64-.63,1.38,1.38,0,0,0-1,0l-3,1.15h-.1l-.15.09a1.27,1.27,0,0,1,.74.34l.1.09v.09h.15l2.22-.86.28-.11a.5.5,0,0,1,.38,0,.47.47,0,0,1,.23.23h0a.49.49,0,0,1-.15.52.42.42,0,0,1-.14.09l-.63.25-2.07.79h0a1.47,1.47,0,0,1-.44.83l-.19.16a1.26,1.26,0,0,0,.58-.08L32.58,20l.28-.11a1.27,1.27,0,0,0,.75-.77A1.36,1.36,0,0,0,33.6,18.27Z"/><path class="cls-3" d="M29.78,20.29l-.35.13a.5.5,0,0,1-.38,0,.22.22,0,0,1-.13-.08h0a.49.49,0,0,1-.12.13l-.46.42a1.29,1.29,0,0,0,.58.33h.25l.18-.16A1.41,1.41,0,0,0,29.78,20.29Z"/><path class="cls-5" d="M27.93,19.64a1.22,1.22,0,0,0,0,.27l.22-.18a.48.48,0,0,1,.67,0,.28.28,0,0,1,.08-.15l.18-.12.45-.1v-.09l-.15-.13a1.35,1.35,0,0,0-.74-.35A1.31,1.31,0,0,0,27.93,19.64Z"/><path class="cls-5" d="M18.64,25.6a1,1,0,0,1,.29.08L21,24.23a1.3,1.3,0,0,1,.57-1.09l.1-.07a1.2,1.2,0,0,0-.77.22l-2.75,1.89a1.21,1.21,0,0,0-.49.64A1.29,1.29,0,0,1,18.64,25.6Z"/><path class="cls-5" d="M19.66,26.4a1.33,1.33,0,0,1,.1.71v.26l2.6-1.77a1.35,1.35,0,0,1-.91-.39Z"/><path class="cls-5" d="M22.58,23.49l-.52.36a.75.75,0,0,0-.15.16.93.93,0,0,1,.18.16.51.51,0,0,1,0,.53.48.48,0,0,0,.17,0,.51.51,0,0,0,.38-.08l.36-.26a1.23,1.23,0,0,0-.23-.72A.55.55,0,0,0,22.58,23.49Z"/><polygon class="cls-5" points="17.94 26.85 17.9 27.17 17.9 27.17 17.94 26.85"/><path class="cls-5" d="M18.93,27h0a.31.31,0,0,0,0-.19h0A.31.31,0,0,1,18.93,27Z"/><path class="cls-5" d="M17.94,26.85v0Z"/><path class="cls-5" d="M18.82,26.8a.45.45,0,0,1-.32-.21h0a.38.38,0,0,1,0-.15.47.47,0,0,0-.32.12h0l-.09.1a.48.48,0,0,0,0,.17v.32a1.32,1.32,0,0,0,.94.47l.09-.64a.31.31,0,0,0,0-.19Z"/><path class="cls-3" d="M17.75,27.07a.11.11,0,0,0,.09.1v-.5l.09-.1h0a.52.52,0,0,1,.32-.11.5.5,0,0,1,.2-.53l.31-.22a1,1,0,0,0-.29-.08,1.36,1.36,0,0,0-1,.24A1.3,1.3,0,0,0,17.75,27.07Z"/><path class="cls-3" d="M18,26.63l.09-.1Z"/><path class="cls-3" d="M18.42,26.43a.54.54,0,0,0-.32.11A.54.54,0,0,1,18.42,26.43Z"/><path class="cls-5" d="M19.66,26.4l-.47.32a.45.45,0,0,1-.26.08.31.31,0,0,1,0,.19h0l-.08.64a1.38,1.38,0,0,0,.81-.22h0v-.26A1.37,1.37,0,0,0,19.66,26.4Z"/><polygon class="cls-5" points="18.84 27.63 18.93 26.99 18.93 26.99 18.84 27.63 18.84 27.63"/><path class="cls-5" d="M23,24.42l-.37.26a.44.44,0,0,1-.37.07.28.28,0,0,1-.18,0,.28.28,0,0,1-.13.15l-.54.36a1.32,1.32,0,0,0,.92.4h.09A1.37,1.37,0,0,0,23,24.42Z"/><path class="cls-3" d="M21,24.27l.36-.24a.48.48,0,0,1,.54,0,.46.46,0,0,1,.15-.16l.52-.37a1.26,1.26,0,0,0-.9-.37l-.1.07A1.28,1.28,0,0,0,21,24.27Z"/><path class="cls-5" d="M17.75,66.11v.09a.5.5,0,0,0,.5.46h.13a.43.43,0,0,1,.25-.23h0a.36.36,0,0,0,0-.25v-.65l-.37.14A1.35,1.35,0,0,0,17.75,66.11Z"/><path class="cls-2" d="M18.79,66.14a.36.36,0,0,1,0,.25l.88-.35v-.88l-.81.32Z"/><path class="cls-5" d="M18.89,67.33a.47.47,0,0,1-.45-.29h0a.5.5,0,0,1,0-.38h-.13a.5.5,0,0,1-.5-.46v-.09a1.32,1.32,0,0,0-.14,1.22,1.39,1.39,0,0,0,.72.17A1.48,1.48,0,0,0,18.89,67.33Z"/><path class="cls-2" d="M45.79,51.34l2-1.15a1.39,1.39,0,0,0,1.06,0l.23-.1a1.25,1.25,0,0,1-.52.57l-2.91,1.65h0A1.26,1.26,0,0,0,45.79,51.34Z"/><path class="cls-2" d="M49.18,49.22l-.62.25H48.4a.6.6,0,0,0,0-.19h0A.48.48,0,0,0,48,49a.39.39,0,0,1,0-.26.41.41,0,0,1,.27-.26l.35-.15a1.33,1.33,0,0,1,.51.49A1,1,0,0,1,49.18,49.22Z"/><path class="cls-2" d="M45,51.72v.14a.48.48,0,0,1-.26.28l-.42.2a1.35,1.35,0,0,1-.44-.45,1.63,1.63,0,0,1-.13-.39l.57-.26a.45.45,0,0,1,.23,0,.66.66,0,0,0,0,.28A.49.49,0,0,0,45,51.72Z"/><path class="cls-2" d="M47.12,49.44l-1.92,1.1a1.38,1.38,0,0,0-1.25,0h0a1.3,1.3,0,0,1,.45-.42l2.76-1.69A1.36,1.36,0,0,0,47.12,49.44Z"/><path class="cls-3" d="M38.88,55.28v.25l-.37.3a.47.47,0,0,1-.46,0,.58.58,0,0,0,0-.32h0a.49.49,0,0,0-.28-.23.51.51,0,0,1,.16-.25l.45-.36A1.42,1.42,0,0,1,38.88,55.28Z"/><path class="cls-2" d="M42.16,53.33l-.45.22a.51.51,0,0,1-.42,0,.58.58,0,0,0,0-.45V53a.38.38,0,0,0-.18-.13.6.6,0,0,1,.25-.25l.5-.22h.08A1.32,1.32,0,0,1,42.16,53.33Z"/><path class="cls-2" d="M37.83,55.7v.07a.51.51,0,0,0,.23.15.46.46,0,0,1-.29.33l-.45.18-.13-.13a1.38,1.38,0,0,1-.31-.77l.53-.21a.62.62,0,0,1,.33,0A.47.47,0,0,0,37.83,55.7Z"/><path class="cls-2" d="M38.93,55.53l1.73-1.46a1.25,1.25,0,0,0,1,.29l-2.53,2.07a1.32,1.32,0,0,1-.53.26A1.29,1.29,0,0,0,38.93,55.53Z"/><path class="cls-2" d="M40.17,53.23,38.4,54.68a1.35,1.35,0,0,0-1-.2h0l2.59-2.11a1.27,1.27,0,0,1,.72-.29A1.34,1.34,0,0,0,40.17,53.23Z"/><path class="cls-2" d="M38.4,54.68l-.45.37a.43.43,0,0,0-.16.24.65.65,0,0,0-.34,0l-.52.21a1.32,1.32,0,0,1,.42-1A1.35,1.35,0,0,1,38.4,54.68Z"/><path class="cls-3" d="M37.36,56.41l.45-.17a.49.49,0,0,0,.3-.34.43.43,0,0,0,.46,0l.36-.3a1.32,1.32,0,0,1-.37,1.21A1.32,1.32,0,0,1,37.36,56.41Z"/><path class="cls-5" d="M43.73,51.5l-1.95.92A1.31,1.31,0,0,0,40.72,52a.94.94,0,0,1,.22-.12l2.91-1.45A1.28,1.28,0,0,0,43.73,51.5Z"/><path class="cls-5" d="M45.79,51.34l-.52.31a.57.57,0,0,1-.26,0,1,1,0,0,0,0-.25h0a.49.49,0,0,0-.41-.25.51.51,0,0,1,.25-.41l.42-.24a1.32,1.32,0,0,1,.52.58A1.13,1.13,0,0,1,45.79,51.34Z"/><path class="cls-5" d="M42.16,53.33l2.14-1a1.32,1.32,0,0,0,1.33,0,1.29,1.29,0,0,1-.56.5l-3,1.45a1.13,1.13,0,0,1-.44.1h0A1.31,1.31,0,0,0,42.16,53.33Z"/><path class="cls-5" d="M41,53.3h0a.53.53,0,0,0,.25.24.38.38,0,0,1-.15.18l-.48.4a1.14,1.14,0,0,1-.37-.47,1.45,1.45,0,0,1-.12-.42l.35-.28A.49.49,0,0,1,41,53h0A.53.53,0,0,0,41,53.3Z"/><path class="cls-2" d="M44.3,52.34l.42-.2a.45.45,0,0,0,.26-.28v-.14a.57.57,0,0,0,.26,0l.53-.31a1.38,1.38,0,0,1-.16,1.05A1.33,1.33,0,0,1,44.3,52.34Z"/><path class="cls-5" d="M45.2,50.54l-.42.25a.49.49,0,0,0-.25.41.3.3,0,0,0-.23,0l-.57.26a1.33,1.33,0,0,1,.17-1h0A1.37,1.37,0,0,1,45.2,50.54Z"/><path class="cls-5" d="M41.78,52.42l-.49.21a.67.67,0,0,0-.25.25.49.49,0,0,0-.52,0l-.35.28a1.33,1.33,0,0,1,.55-1.22A1.31,1.31,0,0,1,41.78,52.42Z"/><path class="cls-2" d="M40.66,54.12l.48-.4a.38.38,0,0,0,.15-.18.61.61,0,0,0,.42,0l.45-.22a1.31,1.31,0,0,1-.48,1h0A1.28,1.28,0,0,1,40.66,54.12Z"/><path class="cls-5" d="M50.68,47.56l-2.14.87a1.38,1.38,0,0,0-1.31,0h-.07a1.47,1.47,0,0,1,.73-.68l2.9-1.16A1.3,1.3,0,0,0,50.68,47.56Z"/><path class="cls-5" d="M52.71,47.3v.1l-.49.31a.66.66,0,0,1-.28,0,.28.28,0,0,0,0-.18h0a.54.54,0,0,0-.42-.24.51.51,0,0,1,.23-.43l.38-.24A1.29,1.29,0,0,1,52.71,47.3Z"/><path class="cls-5" d="M48,49.26a.5.5,0,0,0,.45.25.61.61,0,0,1,0,.19.49.49,0,0,1-.24.29l-.35.22a1.49,1.49,0,0,1-.66-.72h0l.53-.3a.49.49,0,0,1,.24,0,.24.24,0,0,0,0,.12Z"/><path class="cls-5" d="M49.18,49.22l2.08-.79a1.32,1.32,0,0,0,1.38,0A1.4,1.4,0,0,1,52,49l-2.9,1.12A1.25,1.25,0,0,0,49.18,49.22Z"/><path class="cls-5" d="M48.54,48.43l-.35.15a.46.46,0,0,0-.27.26.39.39,0,0,0,0,.26.49.49,0,0,0-.24,0l-.53.31a1.31,1.31,0,0,1,0-1h.07A1.35,1.35,0,0,1,48.54,48.43Z"/><path class="cls-2" d="M47.8,50.21l.35-.22a.48.48,0,0,0,.23-.29.31.31,0,0,0,0-.19h.16l.63-.25a1.3,1.3,0,0,1-.09.93l-.23.1A1.42,1.42,0,0,1,47.8,50.21Z"/><path class="cls-2" d="M54.09,45.37l-2,1.25a1.34,1.34,0,0,0-1.11,0h-.14a1.26,1.26,0,0,1,.42-.44l2.83-1.79a1.17,1.17,0,0,1,.54-.19A1.31,1.31,0,0,0,54.09,45.37Z"/><path class="cls-2" d="M52.73,47.4l1.82-1.15a1.21,1.21,0,0,0,1,.32l-.09.08-2.85,1.78h0A1.32,1.32,0,0,0,52.73,47.4Z"/><path class="cls-2" d="M52,47.78a.34.34,0,0,1,0,.2.43.43,0,0,1-.28.26l-.39.16a1.34,1.34,0,0,1-.42-.4,1.79,1.79,0,0,1-.16-.44l.61-.23h.19a.53.53,0,0,0,0,.25A.55.55,0,0,0,52,47.78Z"/><path class="cls-2" d="M56.11,45.42l-.45.27a.48.48,0,0,1-.37,0h0a.45.45,0,0,0,0-.45h0a.39.39,0,0,0-.25-.19.5.5,0,0,1,.19-.24l.51-.3a1.55,1.55,0,0,1,.24.27A1.19,1.19,0,0,1,56.11,45.42Z"/><path class="cls-2" d="M52.09,46.62l-.38.24a.51.51,0,0,0-.23.43.31.31,0,0,0-.19,0l-.61.23a1.29,1.29,0,0,1,.16-1H51A1.34,1.34,0,0,1,52.09,46.62Z"/><path class="cls-5" d="M51.26,48.43l.39-.16a.43.43,0,0,0,.28-.26.34.34,0,0,0,0-.2.42.42,0,0,0,.27,0l.5-.31a.89.89,0,0,1-1.45,1Z"/><path class="cls-5" d="M56.11,45.42,58,44.31a1.36,1.36,0,0,0,.84.46L56.1,46.4a1.23,1.23,0,0,1-.52.17A1.29,1.29,0,0,0,56.11,45.42Z"/><path class="cls-5" d="M57.67,43.32l-2,1.2a1.27,1.27,0,0,0-1-.32l.1-.08,2.91-1.72a1.34,1.34,0,0,1,.81-.17l-.23.19A1.41,1.41,0,0,0,57.67,43.32Z"/><path class="cls-5" d="M58.67,43.83a.51.51,0,0,0,0-.53h0s0-.07-.1-.11l.1-.12.54-.42a1.37,1.37,0,0,1,.19.23,1.29,1.29,0,0,1,.17.74l-.27.23A.54.54,0,0,1,58.67,43.83Z"/><path class="cls-5" d="M55,45.53a.5.5,0,0,0,.25.2.39.39,0,0,1-.18.22l-.5.32a1.38,1.38,0,0,1-.28-.31,1.27,1.27,0,0,1-.18-.58l.43-.28a.51.51,0,0,1,.45,0A.47.47,0,0,0,55,45.53Z"/><path class="cls-2" d="M54.55,46.25l.5-.32a.37.37,0,0,0,.18-.21h0a.5.5,0,0,0,.38,0l.45-.27a1.32,1.32,0,0,1-.54,1.15A1.25,1.25,0,0,1,54.55,46.25Z"/><path class="cls-5" d="M55.66,44.52l-.5.31a.47.47,0,0,1-.6.28l0,0-.43.28a.9.9,0,0,1,.55-1.15A.89.89,0,0,1,55.66,44.52Z"/><path class="cls-2" d="M62,41.17h0a.53.53,0,0,1,.12-.14l.55-.36a1.37,1.37,0,0,1,.26,1l-.25.16a.44.44,0,0,1-.65-.1A.53.53,0,0,0,62,41.17Z"/><path class="cls-2" d="M59,44.7a1.36,1.36,0,0,0,.64-1.09l1.77-1.46a1.36,1.36,0,0,0,.76.45l-2.21,1.88a1.34,1.34,0,0,1-1,.29Z"/><path class="cls-2" d="M61.06,41.17l-1.83,1.45a1.34,1.34,0,0,0-.83-.41l2.35-1.9a1.45,1.45,0,0,1,1.12-.26l-.23.17A1.32,1.32,0,0,0,61.06,41.17Z"/><path class="cls-2" d="M58.57,43.69h0a.29.29,0,0,1-.14.15l-.56.33h0a1.45,1.45,0,0,1-.29-1l.34-.2a.5.5,0,0,1,.38,0,.42.42,0,0,1,.2.1A.5.5,0,0,0,58.57,43.69Z"/><path class="cls-5" d="M58,44.31l.55-.34a.32.32,0,0,0,.14-.14.54.54,0,0,0,.64,0l.28-.24A1.34,1.34,0,0,1,59,44.68h-.13A1.3,1.3,0,0,1,58,44.31Z"/><path class="cls-2" d="M59.23,42.62l-.54.42-.1.12a.41.41,0,0,0-.21-.1.5.5,0,0,0-.38,0l-.33.2a1.49,1.49,0,0,1,.49-.9l.24-.19A1.32,1.32,0,0,1,59.23,42.62Z"/><path class="cls-5" d="M62.9,41.59l2-1.33a1.29,1.29,0,0,0,.9.4l-2.66,1.78a1.47,1.47,0,0,1-1,.21l.3-.25A1.42,1.42,0,0,0,62.9,41.59Z"/><path class="cls-5" d="M61.06,41.17l.22-.18a.5.5,0,0,1,.37-.12.55.55,0,0,1,.32.19.48.48,0,0,0,0,.54h0a.24.24,0,0,1-.1.1l-.54.45a.13.13,0,0,0-.08-.11A1.22,1.22,0,0,1,61.06,41.17Z"/><path class="cls-5" d="M64.49,39.32l-1.85,1.24h0a1.31,1.31,0,0,0-.75-.47l2.52-1.69a1.31,1.31,0,0,1,.79-.21h-.09A1.32,1.32,0,0,0,64.49,39.32Z"/><path class="cls-5" d="M65.56,39.23h0l-.14-.14.14-.15.54-.36a.74.74,0,0,1,.16.19,1.43,1.43,0,0,1,.22.75l-.36.25a.48.48,0,0,1-.54,0A.5.5,0,0,0,65.56,39.23Z"/><path class="cls-5" d="M62.63,40.53h0l-.56.36A.69.69,0,0,0,62,41a.53.53,0,0,0-.32-.19.51.51,0,0,0-.38.12l-.22.17a1.34,1.34,0,0,1,.58-.91l.24-.18A1.37,1.37,0,0,1,62.63,40.53Z"/><path class="cls-2" d="M61.36,42.2l.54-.45a.32.32,0,0,0,.1-.1.53.53,0,0,0,.28.18.57.57,0,0,0,.38-.08l.24-.16a1.42,1.42,0,0,1-.48.81l-.3.25A1.36,1.36,0,0,1,61.36,42.2Z"/><path class="cls-2" d="M64.49,39.32l.36-.25a.47.47,0,0,1,.38-.08.48.48,0,0,1,.17,0,.53.53,0,0,0,0,.52.69.69,0,0,0,.18.16.75.75,0,0,1-.15.16l-.54.36-.17-.2A1.45,1.45,0,0,1,64.49,39.32Z"/><path class="cls-2" d="M66.46,39.49l2.42-1.58a.5.5,0,0,0,.16-.65h0a.51.51,0,0,0-.7-.15L66.1,38.56a1.33,1.33,0,0,0-.9-.39l2.69-1.77a1.33,1.33,0,0,1,1.45,2.22l-2.79,1.82a1.41,1.41,0,0,1-.77.22h.1A1.3,1.3,0,0,0,66.46,39.49Z"/><path class="cls-2" d="M66.09,38.55l-.54.36-.15.15a.48.48,0,0,0-.17,0,.52.52,0,0,0-.38.09l-.36.24a1.3,1.3,0,0,1,.61-1.1h.09A1.33,1.33,0,0,1,66.09,38.55Z"/><path class="cls-5" d="M64.88,40.26l.54-.36a1.07,1.07,0,0,0,.14-.16.48.48,0,0,0,.54,0l.36-.25a1.26,1.26,0,0,1-.58,1.09h-.1A1.29,1.29,0,0,1,64.88,40.26Z"/><path class="cls-3" d="M38.1,57,35,58.23a1.32,1.32,0,0,1-1,0,1.35,1.35,0,0,0,1-.74v-.13l2.34-.93a1.29,1.29,0,0,0,1.19.32A1.2,1.2,0,0,1,38.1,57Z"/><path class="cls-3" d="M34.35,55.7h-.07l2.91-1.12h.2a1.39,1.39,0,0,0-.42,1l-2,.79A1.29,1.29,0,0,0,34.35,55.7Z"/><path class="cls-3" d="M33.48,56.2l.51.24a.46.46,0,0,1,.2.19.49.49,0,0,0-.11.55h0a.47.47,0,0,1-.55.09l-.31-.12A1.34,1.34,0,0,1,33.48,56.2Z"/><path class="cls-5" d="M10.17,44.48l2,1.12a1.35,1.35,0,0,0,.51.94l.21.15a1.33,1.33,0,0,1-.76-.16L9.22,44.92h0A1.43,1.43,0,0,0,10.17,44.48Z"/><path class="cls-5" d="M9.44,43.51a.51.51,0,0,0,0,.48H9.31a.5.5,0,0,1-.38,0l-.39-.27a1.47,1.47,0,0,1,.17-.61A1.54,1.54,0,0,1,9,42.79l.52.37a.37.37,0,0,1,.16.17A.49.49,0,0,0,9.44,43.51Z"/><path class="cls-5" d="M14,46a1.48,1.48,0,0,1-.22.29l-.54-.42a.53.53,0,0,1-.1-.12l.13-.15h0a.53.53,0,0,0,0-.52.55.55,0,0,1,.25-.1.47.47,0,0,1,.36.1l.31.23A1.4,1.4,0,0,1,14,46Z"/><path class="cls-5" d="M12.48,44.63l-2-1.08a1.34,1.34,0,0,0-.6-1.11h0a1.27,1.27,0,0,1,.6.18l2.9,1.54A1.42,1.42,0,0,0,12.48,44.63Z"/><path class="cls-3" d="M2.48,38.83,2,36.94a1.17,1.17,0,0,0,.3-.19l.41-.35.68,2.53H3.22A1.26,1.26,0,0,0,2.48,38.83Z"/><path class="cls-3" d="M.4,36.6A1.36,1.36,0,0,0,.94,37l.68,2.5a1.14,1.14,0,0,0-.1.19,1.33,1.33,0,0,0,.32,1.45,1.29,1.29,0,0,1-.9-.91L.06,37a1.54,1.54,0,0,1,0-.85A1.38,1.38,0,0,0,.4,36.6Z"/><path class="cls-3" d="M3.12,40.77l-.51-.17a.52.52,0,0,1-.31-.32h.08a.49.49,0,0,0,.27-.58h0a.53.53,0,0,1,.25,0l.6.22A1.36,1.36,0,0,1,3.12,40.77Z"/><path class="cls-3" d="M1.23,36.11H1V36a.5.5,0,0,1,.11-.64l.1-.08a1.41,1.41,0,0,1,1.1.38l-.55.48H1.66A.4.4,0,0,0,1.23,36.11Z"/><path class="cls-5" d="M6.59,42.39l-.46-.28a.52.52,0,0,1-.21-.38.47.47,0,0,0,.38-.24h0a.81.81,0,0,0,0-.22.53.53,0,0,1,.33.08l.46.31v.12A1.55,1.55,0,0,1,6.59,42.39Z"/><path class="cls-5" d="M2.33,39.89V40a.58.58,0,0,0,0,.32.48.48,0,0,1-.56-.35l-.12-.45a1.29,1.29,0,0,1,.86-.65l.21.81A.54.54,0,0,0,2.33,39.89Z"/><path class="cls-5" d="M3.12,40.77l2,.73a1.34,1.34,0,0,0,.24,1L2.32,41.38a1.39,1.39,0,0,1-.48-.32,1.11,1.11,0,0,0,.72,0A1.31,1.31,0,0,0,3.12,40.77Z"/><path class="cls-5" d="M5.66,40.63l-2.12-.76a1.48,1.48,0,0,0,0-.42l-.15-.52,3,1.06a1.39,1.39,0,0,1,.62.48A1.32,1.32,0,0,0,5.66,40.63Z"/><path class="cls-5" d="M1.52,39.71a1.74,1.74,0,0,1,.1-.19l.12.45a.48.48,0,0,0,.56.35.49.49,0,0,0,.31.32l.51.18a1.33,1.33,0,0,1-.56.3,1.26,1.26,0,0,1-.72,0A1.34,1.34,0,0,1,1.52,39.71Z"/><path class="cls-3" d="M3.54,39.87l-.6-.16a.49.49,0,0,0-.24,0l-.22-.81a1.33,1.33,0,0,1,.74,0h.14l.15.52A1.71,1.71,0,0,1,3.54,39.87Z"/><path class="cls-5" d="M.94,37l-.08-.26a.53.53,0,0,1,.27-.58.53.53,0,0,0,.49,0,.49.49,0,0,1,.22.27l.13.48A1.32,1.32,0,0,1,.94,37Z"/><path class="cls-3" d="M2,36.94l-.13-.48a.48.48,0,0,0-.22-.28h.12l.55-.48a1.26,1.26,0,0,1,.35.6v.16l-.41.34A1.3,1.3,0,0,1,2,36.94Z"/><path class="cls-5" d="M1,35.35h.17l-.1.09a.49.49,0,0,0-.1.64v.07h.1a.52.52,0,0,0-.26.58L.89,37a1.41,1.41,0,0,1-.53-.37,1.24,1.24,0,0,1-.28-.53A1.37,1.37,0,0,1,1,35.35Z"/><path class="cls-3" d="M10.31,44.29a1.33,1.33,0,0,1-.14.19l-.54-.29a.52.52,0,0,1-.19-.2.6.6,0,0,0,.19-.16h0a.51.51,0,0,0,0-.48.47.47,0,0,1,.46,0l.44.23A1.22,1.22,0,0,1,10.31,44.29Z"/><path class="cls-3" d="M9,42.78,7.26,41.59a1.34,1.34,0,0,0-.2-1.12l.21.11L10,42.43A1.48,1.48,0,0,0,9,42.78Z"/><path class="cls-3" d="M6,41.41H6a.6.6,0,0,0-.07.32.49.49,0,0,1-.24,0l-.59-.22A1.45,1.45,0,0,1,5.36,41a1.14,1.14,0,0,1,.3-.32l.41.15a.51.51,0,0,1,.33.42h0A.47.47,0,0,0,6,41.41Z"/><path class="cls-3" d="M6.59,42.39l1.95,1.32a1.34,1.34,0,0,0,.64,1.18,1.5,1.5,0,0,1-.71-.24L5.7,42.79a1.22,1.22,0,0,1-.32-.32h.08A1.44,1.44,0,0,0,6.59,42.39Z"/><path class="cls-5" d="M8.54,43.71l.39.26a.5.5,0,0,0,.38,0h.13a.41.41,0,0,0,.19.2l.54.3a1.36,1.36,0,0,1-1,.4A1.31,1.31,0,0,1,8.54,43.71Z"/><path class="cls-3" d="M10.49,43.55l-.44-.23a.47.47,0,0,0-.46,0,.69.69,0,0,0-.16-.18L9,42.78a1.48,1.48,0,0,1,1-.35h0A1.35,1.35,0,0,1,10.49,43.55Z"/><path class="cls-5" d="M7.19,41.59l-.45-.31a.67.67,0,0,0-.34-.09.51.51,0,0,0-.33-.42l-.41-.14A1.36,1.36,0,0,1,7,40.47,1.31,1.31,0,0,1,7.19,41.59Z"/><path class="cls-3" d="M5.14,41.5l.59.22a.49.49,0,0,0,.24,0,.53.53,0,0,0,.2.38l.42.27a1.44,1.44,0,0,1-1.13.12H5.38A1.39,1.39,0,0,1,5.14,41.5Z"/><path class="cls-3" d="M17.19,48.32h0l-.53-.26a.41.41,0,0,1-.2-.21.47.47,0,0,0,.13-.11h0a.5.5,0,0,0,0-.5.5.5,0,0,1,.5,0l.4.2A1.34,1.34,0,0,1,17.19,48.32Z"/><path class="cls-3" d="M13.73,46.3l1.77,1.35a1.34,1.34,0,0,0,.67,1.18,1.28,1.28,0,0,1-.84-.27l-2.44-1.87A1.32,1.32,0,0,0,13.73,46.3Z"/><path class="cls-3" d="M13.06,45.24a.53.53,0,0,0,0,.52.56.56,0,0,1-.17.09.62.62,0,0,1-.38,0l-.37-.21a1.36,1.36,0,0,1,.27-.93h0l.53.31a.55.55,0,0,1,.18.16l-.09.08Z"/><path class="cls-3" d="M15.92,46.7l-1.81-1.45a1.35,1.35,0,0,0-.69-1.12h-.07a1.38,1.38,0,0,1,1,.26l2.51,1.94A1.39,1.39,0,0,0,15.92,46.7Z"/><path class="cls-3" d="M12.17,45.6l.37.2a.48.48,0,0,0,.37,0,.37.37,0,0,0,.18-.08.35.35,0,0,0,.1.11l.54.42a1.38,1.38,0,0,1-.84.4l-.21-.15A1.34,1.34,0,0,1,12.17,45.6Z"/><path class="cls-5" d="M14.11,45.32l-.31-.23a.47.47,0,0,0-.36-.1.55.55,0,0,0-.25.1.85.85,0,0,0-.17-.16l-.54-.3a1.42,1.42,0,0,1,.87-.47h.07A1.31,1.31,0,0,1,14.11,45.32Z"/><path class="cls-5" d="M21,49.79a1.19,1.19,0,0,1-.42.47L20.1,50a.46.46,0,0,1-.24-.29h0a.47.47,0,0,0,.38-.25h0a.42.42,0,0,0,0-.31.48.48,0,0,1,.29,0l.52.28A1.37,1.37,0,0,1,21,49.79Z"/><path class="cls-5" d="M16.39,47.43a.48.48,0,0,0,0,.49.32.32,0,0,1-.21.08.48.48,0,0,1-.36-.09l-.33-.26a1.25,1.25,0,0,1,.13-.57,1.33,1.33,0,0,1,.29-.38l.52.41a.44.44,0,0,1,.12.15A.44.44,0,0,0,16.39,47.43Z"/><path class="cls-5" d="M19.56,48.51l-2.1-1.07a1.3,1.3,0,0,0-.5-1l-.14-.11a1.55,1.55,0,0,1,.6.14l2.91,1.45a1.26,1.26,0,0,1,.43.36A1.32,1.32,0,0,0,19.56,48.51Z"/><path class="cls-5" d="M17.13,48.43l1.9,1a1.31,1.31,0,0,0,.27,1.06h-.11L16.29,49h0A1.33,1.33,0,0,0,17.13,48.43Z"/><path class="cls-5" d="M15.5,47.65l.34.26a.46.46,0,0,0,.36.09.32.32,0,0,0,.2-.08.39.39,0,0,0,.21.21l.52.26a1.35,1.35,0,0,1-1,.44A1.34,1.34,0,0,1,15.5,47.65Z"/><path class="cls-3" d="M17.46,47.44l-.4-.2a.5.5,0,0,0-.5,0,.76.76,0,0,0-.11-.14l-.53-.41a1.37,1.37,0,0,1,.9-.35l.14.1A1.31,1.31,0,0,1,17.46,47.44Z"/><path class="cls-3" d="M20.56,50.26l1.92,1a1.32,1.32,0,0,0,0,1L19.67,50.8a1.33,1.33,0,0,1-.4-.35A1.29,1.29,0,0,0,20.56,50.26Z"/><path class="cls-3" d="M19.91,49.33a.5.5,0,0,0,0,.34.45.45,0,0,1-.28,0l-.54-.28a1.06,1.06,0,0,1,.13-.39,1.33,1.33,0,0,1,.4-.45l.46.23a.48.48,0,0,1,.26.37A.42.42,0,0,0,19.91,49.33Z"/><path class="cls-3" d="M23.16,50.53,21.1,49.42a1.35,1.35,0,0,0-.26-1.06H21l2.9,1.57a1.35,1.35,0,0,1,.57.61l-.27-.1A1.36,1.36,0,0,0,23.16,50.53Z"/><path class="cls-3" d="M24.44,51.78a1.36,1.36,0,0,1-.54.55l-.33-.13a.49.49,0,0,1-.32-.55.53.53,0,0,0,.46-.31h0a.33.33,0,0,0,0-.14.19.19,0,0,1,.15,0l.65.23A1,1,0,0,1,24.44,51.78Z"/><path class="cls-3" d="M19,49.35l.54.28a.66.66,0,0,0,.28,0h0a.44.44,0,0,0,.23.29l.47.24a1.31,1.31,0,0,1-1.27.15A1.37,1.37,0,0,1,19,49.35Z"/><path class="cls-5" d="M21.1,49.42l-.53-.27a.37.37,0,0,0-.29,0,.48.48,0,0,0-.26-.37l-.46-.23a1.36,1.36,0,0,1,1.28-.15A1.33,1.33,0,0,1,21.1,49.42Z"/><path class="cls-5" d="M26.77,52.31l-2.21-.81a1.33,1.33,0,0,0-.09-.92l2.91,1.05a1.34,1.34,0,0,1,.8.83l-.28-.13A1.28,1.28,0,0,0,26.77,52.31Z"/><path class="cls-5" d="M23.9,52.33,26,53.1A1.24,1.24,0,0,0,26,54l-2.75-1a1.33,1.33,0,0,1-.77-.72h.13A1.34,1.34,0,0,0,23.9,52.33Z"/><path class="cls-5" d="M27.33,54.12,27.07,54a.55.55,0,0,1-.26-.28.62.62,0,0,1,0-.33.55.55,0,0,0,.47-.27h.16l.59.28A1.26,1.26,0,0,1,27.33,54.12Z"/><path class="cls-5" d="M23.29,51.49h0v.08a.41.41,0,0,1-.22,0l-.55-.29h0a1.39,1.39,0,0,1,.69-.74l.34.19a.44.44,0,0,1,.24.29.45.45,0,0,1,0,.23A.53.53,0,0,0,23.29,51.49Z"/><path class="cls-3" d="M23.9,51.34a.33.33,0,0,0-.14,0,.45.45,0,0,0,0-.23.43.43,0,0,0-.23-.29l-.35-.19a1.32,1.32,0,0,1,1,0l.27.1a1.33,1.33,0,0,1,.09.92Z"/><path class="cls-5" d="M23,51.59a.41.41,0,0,0,.22,0,.49.49,0,0,0,.32.55l.33.13a1.34,1.34,0,0,1-1.26,0h-.13a1.32,1.32,0,0,1,0-1Z"/><path class="cls-3" d="M31,56.09l-.41-.19a.45.45,0,0,1-.26-.46.5.5,0,0,0,.44-.25h0a.67.67,0,0,0,0-.2.34.34,0,0,1,.2,0l.58.28a.88.88,0,0,1,0,.23A1.49,1.49,0,0,1,31,56.09Z"/><path class="cls-3" d="M30.11,54.25l-2-1h0a1.3,1.3,0,0,0,0-.87l2.75,1.28a1.3,1.3,0,0,1,.59.57h-.1A1.32,1.32,0,0,0,30.11,54.25Z"/><path class="cls-3" d="M27.33,54.12l2.17,1a1.26,1.26,0,0,0,.12,1l-2.91-1.35A1.39,1.39,0,0,1,26,54l.38.14A1.38,1.38,0,0,0,27.33,54.12Z"/><path class="cls-3" d="M26.84,53.29a.14.14,0,0,1,0,.09h-.15L26,53.13A.29.29,0,0,1,26,53a1.33,1.33,0,0,1,.68-.66l.27.09a.52.52,0,0,1,.3.64A.5.5,0,0,0,26.84,53.29Z"/><path class="cls-5" d="M28.09,53.36l-.6-.28h-.16a.51.51,0,0,0-.3-.63l-.26-.09a1.25,1.25,0,0,1,1.07,0l.28.13a1.3,1.3,0,0,1,0,.87Z"/><path class="cls-3" d="M26,53.1l.65.25h.15a.47.47,0,0,0,0,.33.55.55,0,0,0,.26.28l.26.13a1.35,1.35,0,0,1-.93,0L26,53.94A1.27,1.27,0,0,1,26,53.1Z"/><path class="cls-5" d="M31,56.09l2.25,1.09a1.58,1.58,0,0,0,.09.31,1.35,1.35,0,0,0,.68.73,1.48,1.48,0,0,1-.78-.12l-3-1.45a1.28,1.28,0,0,1-.59-.56h.11A1.3,1.3,0,0,0,31,56.09Z"/><path class="cls-5" d="M33.48,56.2l-1.9-.92a1.31,1.31,0,0,0-.12-1l2.82,1.35-.23.1A1.3,1.3,0,0,0,33.48,56.2Z"/><path class="cls-5" d="M30.34,55.21a.88.88,0,0,0,0,.23.81.81,0,0,1-.22,0l-.58-.28a1,1,0,0,1,.09-.24,1.31,1.31,0,0,1,.48-.67l.39.19a.46.46,0,0,1,.26.27.31.31,0,0,1,0,.19A.54.54,0,0,0,30.34,55.21Z"/><path class="cls-5" d="M34.12,57.26l.1-.12h0a.42.42,0,0,0,0-.38.17.17,0,0,0,0-.1.7.7,0,0,1,.16-.1l.61-.23a1.26,1.26,0,0,1,0,1l-.3.12A.5.5,0,0,1,34.12,57.26Z"/><path class="cls-3" d="M34,58.22a1.35,1.35,0,0,1-.68-.73,1.58,1.58,0,0,1-.09-.31l.35.16a.47.47,0,0,0,.55-.08.51.51,0,0,0,.6.2l.3-.12a.28.28,0,0,1,0,.13A1.32,1.32,0,0,1,34,58.22Z"/><path class="cls-5" d="M34.19,56.63a.46.46,0,0,0-.2-.19l-.51-.24a1.3,1.3,0,0,1,.57-.44l.23-.1h.07a1.27,1.27,0,0,1,.62.59l-.62.24A.52.52,0,0,0,34.19,56.63Z"/><path class="cls-5" d="M31.58,55.28,31,55h-.21a.31.31,0,0,0,0-.19.46.46,0,0,0-.26-.27l-.42-.29a1.32,1.32,0,0,1,1.25,0h.1A1.32,1.32,0,0,1,31.58,55.28Z"/><path class="cls-3" d="M29.5,55.12l.58.28h.22a.45.45,0,0,0,.26.46l.41.19a1.36,1.36,0,0,1-1.24,0h-.11A1.31,1.31,0,0,1,29.5,55.12Z"/><path class="cls-2" d="M38.1,57,35,58.23a1.32,1.32,0,0,1-1,0,1.35,1.35,0,0,0,1-.74v-.13l2.34-.93a1.29,1.29,0,0,0,1.19.32A1.2,1.2,0,0,1,38.1,57Z"/><path class="cls-2" d="M34.35,55.7h-.07l2.91-1.12h.2a1.39,1.39,0,0,0-.42,1l-2,.79A1.29,1.29,0,0,0,34.35,55.7Z"/><path class="cls-2" d="M33.48,56.2l.51.24a.46.46,0,0,1,.2.19.49.49,0,0,0-.11.55h0a.47.47,0,0,1-.55.09l-.31-.12A1.34,1.34,0,0,1,33.48,56.2Z"/><path class="cls-2" d="M10.17,44.48l2,1.12a1.35,1.35,0,0,0,.51.94l.21.15a1.33,1.33,0,0,1-.76-.16L9.22,44.92h0A1.43,1.43,0,0,0,10.17,44.48Z"/><path class="cls-2" d="M9.44,43.51a.51.51,0,0,0,0,.48H9.31a.5.5,0,0,1-.38,0l-.39-.27a1.47,1.47,0,0,1,.17-.61A1.54,1.54,0,0,1,9,42.79l.52.37a.37.37,0,0,1,.16.17A.49.49,0,0,0,9.44,43.51Z"/><path class="cls-2" d="M14,46a1.48,1.48,0,0,1-.22.29l-.54-.42a.53.53,0,0,1-.1-.12l.13-.15h0a.53.53,0,0,0,0-.52.55.55,0,0,1,.25-.1.47.47,0,0,1,.36.1l.31.23A1.4,1.4,0,0,1,14,46Z"/><path class="cls-2" d="M12.48,44.63l-2-1.08a1.34,1.34,0,0,0-.6-1.11h0a1.27,1.27,0,0,1,.6.18l2.9,1.54A1.42,1.42,0,0,0,12.48,44.63Z"/><path class="cls-5" d="M2.48,38.83,2,36.94a1.17,1.17,0,0,0,.3-.19l.41-.35.68,2.53H3.22A1.26,1.26,0,0,0,2.48,38.83Z"/><path class="cls-5" d="M.4,36.6A1.36,1.36,0,0,0,.94,37l.68,2.5a1.14,1.14,0,0,0-.1.19,1.33,1.33,0,0,0,.32,1.45,1.29,1.29,0,0,1-.9-.91L.06,37a1.54,1.54,0,0,1,0-.85A1.38,1.38,0,0,0,.4,36.6Z"/><path class="cls-5" d="M3.12,40.77l-.51-.17a.52.52,0,0,1-.31-.32h.08a.49.49,0,0,0,.27-.58h0a.53.53,0,0,1,.25,0l.6.22A1.36,1.36,0,0,1,3.12,40.77Z"/><path class="cls-5" d="M1.23,36.11H1V36a.5.5,0,0,1,.11-.64l.1-.08a1.41,1.41,0,0,1,1.1.38l-.55.48H1.66A.4.4,0,0,0,1.23,36.11Z"/><path class="cls-2" d="M6.59,42.39l-.46-.28a.52.52,0,0,1-.21-.38.47.47,0,0,0,.38-.24h0a.81.81,0,0,0,0-.22.53.53,0,0,1,.33.08l.46.31v.12A1.55,1.55,0,0,1,6.59,42.39Z"/><path class="cls-2" d="M2.33,39.89V40a.58.58,0,0,0,0,.32.48.48,0,0,1-.56-.35l-.12-.45a1.29,1.29,0,0,1,.86-.65l.21.81A.54.54,0,0,0,2.33,39.89Z"/><path class="cls-2" d="M3.12,40.77l2,.73a1.34,1.34,0,0,0,.24,1L2.32,41.38a1.39,1.39,0,0,1-.48-.32,1.11,1.11,0,0,0,.72,0A1.31,1.31,0,0,0,3.12,40.77Z"/><path class="cls-2" d="M5.66,40.63l-2.12-.76a1.48,1.48,0,0,0,0-.42l-.15-.52,3,1.06a1.39,1.39,0,0,1,.62.48A1.32,1.32,0,0,0,5.66,40.63Z"/><path class="cls-2" d="M1.52,39.71a1.74,1.74,0,0,1,.1-.19l.12.45a.48.48,0,0,0,.56.35.49.49,0,0,0,.31.32l.51.18a1.33,1.33,0,0,1-.56.3,1.26,1.26,0,0,1-.72,0A1.34,1.34,0,0,1,1.52,39.71Z"/><path class="cls-5" d="M3.54,39.87l-.6-.16a.49.49,0,0,0-.24,0l-.22-.81a1.33,1.33,0,0,1,.74,0h.14l.15.52A1.71,1.71,0,0,1,3.54,39.87Z"/><path class="cls-2" d="M.94,37l-.08-.26a.53.53,0,0,1,.27-.58.53.53,0,0,0,.49,0,.49.49,0,0,1,.22.27l.13.48A1.32,1.32,0,0,1,.94,37Z"/><path class="cls-5" d="M2,36.94l-.13-.48a.48.48,0,0,0-.22-.28h.12l.55-.48a1.26,1.26,0,0,1,.35.6v.16l-.41.34A1.3,1.3,0,0,1,2,36.94Z"/><path class="cls-2" d="M1,35.35h.17l-.1.09a.49.49,0,0,0-.1.64v.07h.1a.52.52,0,0,0-.26.58L.89,37a1.41,1.41,0,0,1-.53-.37,1.24,1.24,0,0,1-.28-.53A1.37,1.37,0,0,1,1,35.35Z"/><path class="cls-5" d="M10.31,44.29a1.33,1.33,0,0,1-.14.19l-.54-.29a.52.52,0,0,1-.19-.2.6.6,0,0,0,.19-.16h0a.51.51,0,0,0,0-.48.47.47,0,0,1,.46,0l.44.23A1.22,1.22,0,0,1,10.31,44.29Z"/><path class="cls-5" d="M9,42.78,7.26,41.59a1.34,1.34,0,0,0-.2-1.12l.21.11L10,42.43A1.48,1.48,0,0,0,9,42.78Z"/><path class="cls-5" d="M6,41.41H6a.6.6,0,0,0-.07.32.49.49,0,0,1-.24,0l-.59-.22A1.45,1.45,0,0,1,5.36,41a1.14,1.14,0,0,1,.3-.32l.41.15a.51.51,0,0,1,.33.42h0A.47.47,0,0,0,6,41.41Z"/><path class="cls-5" d="M6.59,42.39l1.95,1.32a1.34,1.34,0,0,0,.64,1.18,1.5,1.5,0,0,1-.71-.24L5.7,42.79a1.22,1.22,0,0,1-.32-.32h.08A1.44,1.44,0,0,0,6.59,42.39Z"/><path class="cls-2" d="M8.54,43.71l.39.26a.5.5,0,0,0,.38,0h.13a.41.41,0,0,0,.19.2l.54.3a1.36,1.36,0,0,1-1,.4A1.31,1.31,0,0,1,8.54,43.71Z"/><path class="cls-5" d="M10.49,43.55l-.44-.23a.47.47,0,0,0-.46,0,.69.69,0,0,0-.16-.18L9,42.78a1.48,1.48,0,0,1,1-.35h0A1.35,1.35,0,0,1,10.49,43.55Z"/><path class="cls-2" d="M7.19,41.59l-.45-.31a.67.67,0,0,0-.34-.09.51.51,0,0,0-.33-.42l-.41-.14A1.36,1.36,0,0,1,7,40.47,1.31,1.31,0,0,1,7.19,41.59Z"/><path class="cls-5" d="M5.14,41.5l.59.22a.49.49,0,0,0,.24,0,.53.53,0,0,0,.2.38l.42.27a1.44,1.44,0,0,1-1.13.12H5.38A1.39,1.39,0,0,1,5.14,41.5Z"/><path class="cls-5" d="M17.19,48.32h0l-.53-.26a.41.41,0,0,1-.2-.21.47.47,0,0,0,.13-.11h0a.5.5,0,0,0,0-.5.5.5,0,0,1,.5,0l.4.2A1.34,1.34,0,0,1,17.19,48.32Z"/><path class="cls-5" d="M13.73,46.3l1.77,1.35a1.34,1.34,0,0,0,.67,1.18,1.28,1.28,0,0,1-.84-.27l-2.44-1.87A1.32,1.32,0,0,0,13.73,46.3Z"/><path class="cls-5" d="M13.06,45.24a.53.53,0,0,0,0,.52.56.56,0,0,1-.17.09.62.62,0,0,1-.38,0l-.37-.21a1.36,1.36,0,0,1,.27-.93h0l.53.31a.55.55,0,0,1,.18.16l-.09.08Z"/><path class="cls-5" d="M15.92,46.7l-1.81-1.45a1.35,1.35,0,0,0-.69-1.12h-.07a1.38,1.38,0,0,1,1,.26l2.51,1.94A1.39,1.39,0,0,0,15.92,46.7Z"/><path class="cls-5" d="M12.17,45.6l.37.2a.48.48,0,0,0,.37,0,.37.37,0,0,0,.18-.08.35.35,0,0,0,.1.11l.54.42a1.38,1.38,0,0,1-.84.4l-.21-.15A1.34,1.34,0,0,1,12.17,45.6Z"/><path class="cls-2" d="M14.11,45.32l-.31-.23a.47.47,0,0,0-.36-.1.55.55,0,0,0-.25.1.85.85,0,0,0-.17-.16l-.54-.3a1.42,1.42,0,0,1,.87-.47h.07A1.31,1.31,0,0,1,14.11,45.32Z"/><path class="cls-2" d="M21,49.79a1.19,1.19,0,0,1-.42.47L20.1,50a.46.46,0,0,1-.24-.29h0a.47.47,0,0,0,.38-.25h0a.42.42,0,0,0,0-.31.48.48,0,0,1,.29,0l.52.28A1.37,1.37,0,0,1,21,49.79Z"/><path class="cls-2" d="M16.39,47.43a.48.48,0,0,0,0,.49.32.32,0,0,1-.21.08.48.48,0,0,1-.36-.09l-.33-.26a1.25,1.25,0,0,1,.13-.57,1.33,1.33,0,0,1,.29-.38l.52.41a.44.44,0,0,1,.12.15A.44.44,0,0,0,16.39,47.43Z"/><path class="cls-2" d="M19.56,48.51l-2.1-1.07a1.3,1.3,0,0,0-.5-1l-.14-.11a1.55,1.55,0,0,1,.6.14l2.91,1.45a1.26,1.26,0,0,1,.43.36A1.32,1.32,0,0,0,19.56,48.51Z"/><path class="cls-2" d="M17.13,48.43l1.9,1a1.31,1.31,0,0,0,.27,1.06h-.11L16.29,49h0A1.33,1.33,0,0,0,17.13,48.43Z"/><path class="cls-2" d="M15.5,47.65l.34.26a.46.46,0,0,0,.36.09.32.32,0,0,0,.2-.08.39.39,0,0,0,.21.21l.52.26a1.35,1.35,0,0,1-1,.44A1.34,1.34,0,0,1,15.5,47.65Z"/><path class="cls-5" d="M17.46,47.44l-.4-.2a.5.5,0,0,0-.5,0,.76.76,0,0,0-.11-.14l-.53-.41a1.37,1.37,0,0,1,.9-.35l.14.1A1.31,1.31,0,0,1,17.46,47.44Z"/><path class="cls-5" d="M20.56,50.26l1.92,1a1.32,1.32,0,0,0,0,1L19.67,50.8a1.33,1.33,0,0,1-.4-.35A1.29,1.29,0,0,0,20.56,50.26Z"/><path class="cls-5" d="M19.91,49.33a.5.5,0,0,0,0,.34.45.45,0,0,1-.28,0l-.54-.28a1.06,1.06,0,0,1,.13-.39,1.33,1.33,0,0,1,.4-.45l.46.23a.48.48,0,0,1,.26.37A.42.42,0,0,0,19.91,49.33Z"/><path class="cls-5" d="M23.16,50.53,21.1,49.42a1.35,1.35,0,0,0-.26-1.06H21l2.9,1.57a1.35,1.35,0,0,1,.57.61l-.27-.1A1.36,1.36,0,0,0,23.16,50.53Z"/><path class="cls-5" d="M24.44,51.78a1.36,1.36,0,0,1-.54.55l-.33-.13a.49.49,0,0,1-.32-.55.53.53,0,0,0,.46-.31h0a.33.33,0,0,0,0-.14.19.19,0,0,1,.15,0l.65.23A1,1,0,0,1,24.44,51.78Z"/><path class="cls-5" d="M19,49.35l.54.28a.66.66,0,0,0,.28,0h0a.44.44,0,0,0,.23.29l.47.24a1.31,1.31,0,0,1-1.27.15A1.37,1.37,0,0,1,19,49.35Z"/><path class="cls-2" d="M21.1,49.42l-.53-.27a.37.37,0,0,0-.29,0,.48.48,0,0,0-.26-.37l-.46-.23a1.36,1.36,0,0,1,1.28-.15A1.33,1.33,0,0,1,21.1,49.42Z"/><path class="cls-2" d="M26.77,52.31l-2.21-.81a1.33,1.33,0,0,0-.09-.92l2.91,1.05a1.34,1.34,0,0,1,.8.83l-.28-.13A1.28,1.28,0,0,0,26.77,52.31Z"/><path class="cls-2" d="M23.9,52.33,26,53.1A1.24,1.24,0,0,0,26,54l-2.75-1a1.33,1.33,0,0,1-.77-.72h.13A1.34,1.34,0,0,0,23.9,52.33Z"/><path class="cls-2" d="M27.33,54.12,27.07,54a.55.55,0,0,1-.26-.28.62.62,0,0,1,0-.33.55.55,0,0,0,.47-.27h.16l.59.28A1.26,1.26,0,0,1,27.33,54.12Z"/><path class="cls-2" d="M23.29,51.49h0v.08a.41.41,0,0,1-.22,0l-.55-.29h0a1.39,1.39,0,0,1,.69-.74l.34.19a.44.44,0,0,1,.24.29.45.45,0,0,1,0,.23A.53.53,0,0,0,23.29,51.49Z"/><path class="cls-5" d="M23.9,51.34a.33.33,0,0,0-.14,0,.45.45,0,0,0,0-.23.43.43,0,0,0-.23-.29l-.35-.19a1.32,1.32,0,0,1,1,0l.27.1a1.33,1.33,0,0,1,.09.92Z"/><path class="cls-2" d="M23,51.59a.41.41,0,0,0,.22,0,.49.49,0,0,0,.32.55l.33.13a1.34,1.34,0,0,1-1.26,0h-.13a1.32,1.32,0,0,1,0-1Z"/><path class="cls-5" d="M31,56.09l-.41-.19a.45.45,0,0,1-.26-.46.5.5,0,0,0,.44-.25h0a.67.67,0,0,0,0-.2.34.34,0,0,1,.2,0l.58.28a.88.88,0,0,1,0,.23A1.49,1.49,0,0,1,31,56.09Z"/><path class="cls-5" d="M30.11,54.25l-2-1h0a1.3,1.3,0,0,0,0-.87l2.75,1.28a1.3,1.3,0,0,1,.59.57h-.1A1.32,1.32,0,0,0,30.11,54.25Z"/><path class="cls-5" d="M27.33,54.12l2.17,1a1.26,1.26,0,0,0,.12,1l-2.91-1.35A1.39,1.39,0,0,1,26,54l.38.14A1.38,1.38,0,0,0,27.33,54.12Z"/><path class="cls-5" d="M26.84,53.29a.14.14,0,0,1,0,.09h-.15L26,53.13A.29.29,0,0,1,26,53a1.33,1.33,0,0,1,.68-.66l.27.09a.52.52,0,0,1,.3.64A.5.5,0,0,0,26.84,53.29Z"/><path class="cls-2" d="M28.09,53.36l-.6-.28h-.16a.51.51,0,0,0-.3-.63l-.26-.09a1.25,1.25,0,0,1,1.07,0l.28.13a1.3,1.3,0,0,1,0,.87Z"/><path class="cls-5" d="M26,53.1l.65.25h.15a.47.47,0,0,0,0,.33.55.55,0,0,0,.26.28l.26.13a1.35,1.35,0,0,1-.93,0L26,53.94A1.27,1.27,0,0,1,26,53.1Z"/><path class="cls-2" d="M31,56.09l2.25,1.09a1.58,1.58,0,0,0,.09.31,1.35,1.35,0,0,0,.68.73,1.48,1.48,0,0,1-.78-.12l-3-1.45a1.28,1.28,0,0,1-.59-.56h.11A1.3,1.3,0,0,0,31,56.09Z"/><path class="cls-2" d="M33.48,56.2l-1.9-.92a1.31,1.31,0,0,0-.12-1l2.82,1.35-.23.1A1.3,1.3,0,0,0,33.48,56.2Z"/><path class="cls-2" d="M30.34,55.21a.88.88,0,0,0,0,.23.81.81,0,0,1-.22,0l-.58-.28a1,1,0,0,1,.09-.24,1.31,1.31,0,0,1,.48-.67l.39.19a.46.46,0,0,1,.26.27.31.31,0,0,1,0,.19A.54.54,0,0,0,30.34,55.21Z"/><path class="cls-2" d="M34.12,57.26l.1-.12h0a.42.42,0,0,0,0-.38.17.17,0,0,0,0-.1.7.7,0,0,1,.16-.1l.61-.23a1.26,1.26,0,0,1,0,1l-.3.12A.5.5,0,0,1,34.12,57.26Z"/><path class="cls-2" d="M34,58.22a1.35,1.35,0,0,1-.68-.73,1.58,1.58,0,0,1-.09-.31l.35.16a.47.47,0,0,0,.55-.08.51.51,0,0,0,.6.2l.3-.12a.28.28,0,0,1,0,.13A1.32,1.32,0,0,1,34,58.22Z"/><path class="cls-2" d="M34.19,56.63a.46.46,0,0,0-.2-.19l-.51-.24a1.3,1.3,0,0,1,.57-.44l.23-.1h.07a1.27,1.27,0,0,1,.62.59l-.62.24A.52.52,0,0,0,34.19,56.63Z"/><path class="cls-2" d="M31.58,55.28,31,55h-.21a.31.31,0,0,0,0-.19.46.46,0,0,0-.26-.27l-.42-.29a1.32,1.32,0,0,1,1.25,0h.1A1.32,1.32,0,0,1,31.58,55.28Z"/><path class="cls-5" d="M29.5,55.12l.58.28h.22a.45.45,0,0,0,.26.46l.41.19a1.36,1.36,0,0,1-1.24,0h-.11A1.31,1.31,0,0,1,29.5,55.12Z"/><path class="cls-4" d="M47.8,50.21l-2,1.13a1.29,1.29,0,0,1-.16,1h0l2.91-1.66a1.33,1.33,0,0,0,.53-.57l-.24.1A1.46,1.46,0,0,1,47.8,50.21Z"/><path class="cls-4" d="M48.54,48.43l-.35.15a.46.46,0,0,0-.27.26.39.39,0,0,0,0,.26.5.5,0,0,1,.45.25h0a.61.61,0,0,1,0,.19h.16l.62-.25A1,1,0,0,0,49,49,1.25,1.25,0,0,0,48.54,48.43Z"/><path class="cls-4" d="M44.59,51.47a.62.62,0,0,1,0-.27.3.3,0,0,0-.23,0l-.57.26a2,2,0,0,0,.13.39,1.45,1.45,0,0,0,.44.45l.42-.2a.55.55,0,0,0,.26-.28v-.15A.49.49,0,0,1,44.59,51.47Z"/><path class="cls-4" d="M45.2,50.54l1.92-1.1a1.31,1.31,0,0,1,0-1l-2.76,1.63a1.24,1.24,0,0,0-.46.42h0A1.36,1.36,0,0,1,45.2,50.54Z"/><path class="cls-2" d="M38.4,54.68l-.45.37a.43.43,0,0,0-.16.24.52.52,0,0,1,.27.24h0a.58.58,0,0,1,0,.32.49.49,0,0,0,.47,0l.37-.31v-.25A1.55,1.55,0,0,0,38.4,54.68Z"/><path class="cls-4" d="M41.78,52.42l-.49.21a.67.67,0,0,0-.25.25.46.46,0,0,1,.18.13v.07a.61.61,0,0,1,0,.46.61.61,0,0,0,.42,0l.45-.22a1.37,1.37,0,0,0-.29-.85Z"/><path class="cls-4" d="M38.1,55.9a.46.46,0,0,1-.23-.14v-.07a.47.47,0,0,1,0-.4.62.62,0,0,0-.33,0L37,55.5a1.38,1.38,0,0,0,.31.77.8.8,0,0,0,.13.13l.45-.18A.46.46,0,0,0,38.1,55.9Z"/><path class="cls-4" d="M39,55.53a1.37,1.37,0,0,1-.39,1.2,1.2,1.2,0,0,0,.53-.26l2.53-2.06a1.3,1.3,0,0,1-1-.29Z"/><path class="cls-4" d="M38.4,54.68l1.77-1.45A1.33,1.33,0,0,1,40.72,52a1.3,1.3,0,0,0-.73.29l-2.58,2.11h0A1.31,1.31,0,0,1,38.4,54.68Z"/><path class="cls-4" d="M37.79,55.29a.43.43,0,0,1,.16-.24l.45-.37a1.35,1.35,0,0,0-1-.2,1.34,1.34,0,0,0-.42,1l.52-.2A.57.57,0,0,1,37.79,55.29Z"/><path class="cls-2" d="M39,55.53l-.38.3a.47.47,0,0,1-.46,0,.51.51,0,0,1-.3.34l-.45.17a1.32,1.32,0,0,0,1.2.32A1.39,1.39,0,0,0,39,55.53Z"/><path class="cls-2" d="M43.73,51.5a1.3,1.3,0,0,1,.17-1L41,52a.94.94,0,0,0-.22.12,1.35,1.35,0,0,1,1.06.4Z"/><path class="cls-2" d="M45.2,50.54l-.42.25a.49.49,0,0,0-.25.41.47.47,0,0,1,.41.24h0a1,1,0,0,1,0,.25.57.57,0,0,0,.26,0l.52-.31a.88.88,0,0,0,0-.23A1.4,1.4,0,0,0,45.2,50.54Z"/><path class="cls-2" d="M44.3,52.34l-2.14,1a1.31,1.31,0,0,1-.48,1h0a1.13,1.13,0,0,0,.44-.1l3-1.45a1.35,1.35,0,0,0,.56-.5A1.29,1.29,0,0,1,44.3,52.34Z"/><path class="cls-2" d="M41,53.3h0a.48.48,0,0,1,0-.37h0a.49.49,0,0,0-.52,0l-.35.27a1.45,1.45,0,0,0,.12.42,1.14,1.14,0,0,0,.37.47l.48-.39a.45.45,0,0,0,.15-.19A.57.57,0,0,1,41,53.3Z"/><path class="cls-4" d="M45.79,51.34l-.52.31a.57.57,0,0,1-.26,0v.14a.48.48,0,0,1-.26.28l-.42.2a1.32,1.32,0,0,0,1.33,0A1.25,1.25,0,0,0,45.79,51.34Z"/><path class="cls-2" d="M43.73,51.5l.57-.26a.45.45,0,0,1,.23,0,.51.51,0,0,1,.25-.41l.42-.25a1.38,1.38,0,0,0-1.25,0h0A1.26,1.26,0,0,0,43.73,51.5Z"/><path class="cls-2" d="M40.17,53.23l.35-.28A.49.49,0,0,1,41,53a.58.58,0,0,1,.25-.24l.49-.22a1.34,1.34,0,0,0-1.06-.41A1.37,1.37,0,0,0,40.17,53.23Z"/><path class="cls-4" d="M42.16,53.33l-.45.22a.51.51,0,0,1-.42,0,.45.45,0,0,1-.15.19l-.48.39a1.25,1.25,0,0,0,1,.29h0A1.3,1.3,0,0,0,42.16,53.33Z"/><path class="cls-2" d="M48.54,48.43l2.14-.84a1.29,1.29,0,0,1,.16-1l-2.91,1.16a1.53,1.53,0,0,0-.73.69h.08A1.34,1.34,0,0,1,48.54,48.43Z"/><path class="cls-2" d="M52.09,46.62l-.38.24a.51.51,0,0,0-.23.43.54.54,0,0,1,.42.24h0a.54.54,0,0,1,0,.18.66.66,0,0,0,.28,0l.49-.31v-.1A1.34,1.34,0,0,0,52.09,46.62Z"/><path class="cls-2" d="M48,49.26h0a.2.2,0,0,1,0-.11.33.33,0,0,0-.24,0l-.53.3h0a1.43,1.43,0,0,0,.66.71l.35-.21a.51.51,0,0,0,.24-.3.54.54,0,0,0,0-.18A.52.52,0,0,1,48,49.26Z"/><path class="cls-2" d="M51.26,48.43l-2.08.82a1.25,1.25,0,0,1-.09.93L52,49.06a1.5,1.5,0,0,0,.64-.63A1.32,1.32,0,0,1,51.26,48.43Z"/><path class="cls-2" d="M47.12,49.44l.54-.31a.45.45,0,0,1,.23,0,.39.39,0,0,1,0-.26.46.46,0,0,1,.27-.26l.35-.15a1.38,1.38,0,0,0-1.31,0h-.07A1.38,1.38,0,0,0,47.12,49.44Z"/><path class="cls-4" d="M49.18,49.22l-.62.25H48.4a.54.54,0,0,1,0,.18.51.51,0,0,1-.24.3l-.35.21a1.42,1.42,0,0,0,1.07,0l.23-.1A1.28,1.28,0,0,0,49.18,49.22Z"/><path class="cls-4" d="M52.09,46.62l2-1.25a1.3,1.3,0,0,1,.53-1.17,1.13,1.13,0,0,0-.54.19l-2.82,1.78a1.33,1.33,0,0,0-.42.43H51A1.34,1.34,0,0,1,52.09,46.62Z"/><path class="cls-4" d="M54.55,46.25,52.73,47.4a1.32,1.32,0,0,1-.09,1h0l2.91-1.78.09-.08A1.24,1.24,0,0,1,54.55,46.25Z"/><path class="cls-4" d="M51.54,47.53a.33.33,0,0,1,0-.24.31.31,0,0,0-.19,0l-.61.23a1.31,1.31,0,0,0,.16.43,1.27,1.27,0,0,0,.42.41l.39-.16a.45.45,0,0,0,.28-.26.34.34,0,0,0,0-.2A.52.52,0,0,1,51.54,47.53Z"/><path class="cls-4" d="M55.66,44.52l-.5.31a.43.43,0,0,0-.19.23.41.41,0,0,1,.24.19h0a.45.45,0,0,1,0,.45h0a.5.5,0,0,0,.38,0l.45-.26a1.3,1.3,0,0,0-.2-.63A1.75,1.75,0,0,0,55.66,44.52Z"/><path class="cls-4" d="M50.68,47.56l.61-.23h.19a.5.5,0,0,1,.23-.42l.38-.25a1.34,1.34,0,0,0-1.11,0h-.14A1.29,1.29,0,0,0,50.68,47.56Z"/><path class="cls-2" d="M52.73,47.4l-.5.31a.61.61,0,0,1-.27,0,.34.34,0,0,1,0,.2.45.45,0,0,1-.28.26l-.39.16a.88.88,0,0,0,1.45-1Z"/><path class="cls-2" d="M56.11,45.42a1.29,1.29,0,0,1-.53,1.15,1.23,1.23,0,0,0,.52-.17l2.72-1.63a1.36,1.36,0,0,1-.84-.46Z"/><path class="cls-2" d="M55.66,44.52l2-1.2a1.49,1.49,0,0,1,.49-.9l.24-.19a1.37,1.37,0,0,0-.82.17l-2.9,1.72-.11.08A1.27,1.27,0,0,1,55.66,44.52Z"/><path class="cls-2" d="M59.23,42.62l-.54.42-.1.12s.08,0,.1.11h0a.55.55,0,0,1,0,.53.54.54,0,0,0,.64,0l.27-.24a1.3,1.3,0,0,0-.17-.74Z"/><path class="cls-2" d="M55,45.53a.45.45,0,0,1,0-.45.45.45,0,0,0-.45,0l-.42.27a1.27,1.27,0,0,0,.17.58,1.38,1.38,0,0,0,.28.31l.51-.32a.41.41,0,0,0,.17-.22A.56.56,0,0,1,55,45.53Z"/><path class="cls-4" d="M56.11,45.42l-.45.27a.48.48,0,0,1-.37,0h0a.46.46,0,0,1-.18.21l-.51.32a1.24,1.24,0,0,0,1,.32A1.3,1.3,0,0,0,56.11,45.42Z"/><path class="cls-2" d="M54.09,45.37l.43-.28a.47.47,0,0,0,.62-.22l0,0,.5-.31a.9.9,0,0,0-1.26-.18A.92.92,0,0,0,54.09,45.37Z"/><path class="cls-4" d="M62.64,40.56l-.55.36a.37.37,0,0,0-.12.13h0a.52.52,0,0,1,0,.54.54.54,0,0,0,.28.19.65.65,0,0,0,.38-.09l.24-.16A1.34,1.34,0,0,0,62.64,40.56Z"/><path class="cls-4" d="M61.36,42.2l-1.77,1.45A1.34,1.34,0,0,1,59,44.74h-.13a1.35,1.35,0,0,0,1-.29l2.28-1.83A1.4,1.4,0,0,1,61.36,42.2Z"/><path class="cls-4" d="M61.06,41.17a1.3,1.3,0,0,1,.58-.92l.23-.17a1.45,1.45,0,0,0-1.12.26l-2.29,1.89a1.28,1.28,0,0,1,.82.4Z"/><path class="cls-4" d="M58.57,43.69a.49.49,0,0,1,0-.52.54.54,0,0,0-.2-.1.5.5,0,0,0-.38,0l-.33.2a1.44,1.44,0,0,0,.29,1h0l.55-.34a.32.32,0,0,0,.14-.14h0Z"/><path class="cls-2" d="M59.59,43.61l-.28.23a.51.51,0,0,1-.64,0,.4.4,0,0,1-.14.15l-.55.33a1.31,1.31,0,0,0,.84.46H59A1.32,1.32,0,0,0,59.59,43.61Z"/><path class="cls-4" d="M57.67,43.32l.33-.21a.5.5,0,0,1,.38,0,.43.43,0,0,1,.21.11l.1-.12.54-.42a1.34,1.34,0,0,0-.83-.41l-.24.19A1.44,1.44,0,0,0,57.67,43.32Z"/><path class="cls-2" d="M62.9,41.59a1.42,1.42,0,0,1-.48.81l-.3.25a1.47,1.47,0,0,0,1-.21l2.6-1.78a1.29,1.29,0,0,1-.9-.4Z"/><path class="cls-2" d="M62,41.05a.51.51,0,0,0-.32-.19.46.46,0,0,0-.37.12l-.22.17a1.28,1.28,0,0,0,.22.93l.08.12.54-.45a.32.32,0,0,0,.1-.1h0A.48.48,0,0,1,62,41.05Z"/><path class="cls-2" d="M62.63,40.53h0l1.84-1.24a1.34,1.34,0,0,1,.61-1.1h.09a1.26,1.26,0,0,0-.78.21l-2.53,1.69A1.31,1.31,0,0,1,62.63,40.53Z"/><path class="cls-2" d="M66.09,38.55l-.54.36-.15.15.15.14h0a.52.52,0,0,1,0,.51.48.48,0,0,0,.54,0l.36-.25a1.45,1.45,0,0,0-.22-.75A1.07,1.07,0,0,0,66.09,38.55Z"/><path class="cls-2" d="M61.06,41.17l.22-.18a.5.5,0,0,1,.37-.12.55.55,0,0,1,.32.19.49.49,0,0,1,.12-.13l.55-.36h0a1.36,1.36,0,0,0-.75-.47l-.24.18A1.31,1.31,0,0,0,61.06,41.17Z"/><path class="cls-4" d="M62.9,41.59l-.24.16a.57.57,0,0,1-.38.08.53.53,0,0,1-.28-.18.32.32,0,0,1-.1.1l-.54.45a1.36,1.36,0,0,0,.76.45l.3-.25A1.42,1.42,0,0,0,62.9,41.59Z"/><path class="cls-4" d="M65.39,39.58a.53.53,0,0,1,0-.52.54.54,0,0,0-.18,0,.49.49,0,0,0-.37.09l-.37.24a1.49,1.49,0,0,0,.22.74l.18.21L65.4,40a.57.57,0,0,0,.15-.16A.53.53,0,0,1,65.39,39.58Z"/><path class="cls-4" d="M68.63,37a.47.47,0,0,0,.41-.42.51.51,0,0,0-.1-.38,1.34,1.34,0,0,0-1,.17l-.23.16h.08l.54.35a.34.34,0,0,0,.2,0h.15Z"/><path class="cls-4" d="M67.64,37.53,66.87,37l-1.68,1.12a1.35,1.35,0,0,1,.9.39Z"/><path class="cls-4" d="M69.79,36.92a.14.14,0,0,1,0,.09l-.11.23a1.46,1.46,0,0,1-.6.5h0a.34.34,0,0,1-.14.15l-2.42,1.59a1.29,1.29,0,0,1-.58,1.09h-.1a1.33,1.33,0,0,0,.77-.22l2.79-1.83A1.32,1.32,0,0,0,69.79,36.92Z"/><path class="cls-4" d="M64.49,39.32l.36-.25a.47.47,0,0,1,.38-.08.48.48,0,0,1,.17,0l.15-.15.54-.36a1.41,1.41,0,0,0-.9-.4H65.1A1.34,1.34,0,0,0,64.49,39.32Z"/><path class="cls-2" d="M66.46,39.49l-.36.25a.48.48,0,0,1-.54,0,1.07,1.07,0,0,1-.14.16l-.54.36a1.29,1.29,0,0,0,.9.4h.1A1.3,1.3,0,0,0,66.46,39.49Z"/><path class="cls-2" d="M69,37.26h0a.47.47,0,0,0-.32-.22h-.38l-.68.45h.17a1.36,1.36,0,0,0,1.21.1A.47.47,0,0,0,69,37.26Z"/><path class="cls-4" d="M68.33,37.08h.17a.34.34,0,0,1-.2,0l-.54-.35h-.09l-.77.5.77.49Z"/><path class="cls-2" d="M68.92,36.21a.51.51,0,0,1,.1.38.47.47,0,0,1-.4.42h.08a.45.45,0,0,1,.32.22h0a.44.44,0,0,1,0,.49h0a1.31,1.31,0,0,0,.6-.49l.11-.24a.11.11,0,0,0,0-.08v-.16A1.26,1.26,0,0,0,68.92,36.21Z"/><path class="cls-3" d="M31.33,14.88a1.27,1.27,0,0,1-.38-.65L30.56,14l-1.9-1.14a1.36,1.36,0,0,1-1.24,0h0a1,1,0,0,0,.44.44L30.59,15h.07a1.37,1.37,0,0,0,1,.15L31.36,15Z"/><path class="cls-3" d="M31.52,12.78a1.51,1.51,0,0,1,.33-.13L29.18,11h0a1.34,1.34,0,0,1,.15,1.05l1.84,1.1.09-.13A1.66,1.66,0,0,1,31.52,12.78Z"/><path class="cls-3" d="M32.62,14.25a1.16,1.16,0,0,0,0-.64h-.1a.48.48,0,0,0-.46-.11.6.6,0,0,0-.25.16v.18a.31.31,0,0,1,0,.19.22.22,0,0,1,0,.16.66.66,0,0,0,.12.17l.46.39h0l.1-.11A1.49,1.49,0,0,0,32.62,14.25Z"/><path class="cls-9" d="M32.93,16.32h0a16.22,16.22,0,0,0-1.37,2.3h0a.91.91,0,0,0,0,.33h0a.21.21,0,0,0,0,.11h0a.47.47,0,0,0,.54.38.46.46,0,0,0,.19-.08h0c.6-.78.58-1.45,1.45-2.34L33,16.34ZM31.67,18.5Zm0,0Z"/><path class="cls-5" d="M39.56,12.85a1.09,1.09,0,0,1,.14.23l1.7-1a1.31,1.31,0,0,1,.15-1h0l-2.41,1.45h.16A1.7,1.7,0,0,1,39.56,12.85Z"/><path class="cls-5" d="M38.9,13.77a.44.44,0,0,1,.15-.22h0a.41.41,0,0,0-.17-.22.46.46,0,0,0-.48,0,.54.54,0,0,0-.21.16,1.4,1.4,0,0,0,0,.86,1.89,1.89,0,0,0,.13.33l.18.22.29-.44.22-.32a.11.11,0,0,1,0-.08A.46.46,0,0,1,38.9,13.77Z"/><path class="cls-5" d="M43.34,12.91a1.44,1.44,0,0,1-1.25,0L40.18,14l-.42.25a.43.43,0,0,1,0,.16l-.52.78a1.22,1.22,0,0,0,.91-.16h0l2.78-1.67a1.21,1.21,0,0,0,.44-.43Z"/><path class="cls-3" d="M38.42,14.8l-.53.83.23.08h.22a1.19,1.19,0,0,1,.22.12h0l.53-.8a1.38,1.38,0,0,1-.39-.13Z"/><path class="cls-3" d="M39.14,13.46l-.09.09a.47.47,0,0,1,0,.4V14a.17.17,0,0,0,0,.1h0a.5.5,0,0,0,.45.24.45.45,0,0,0,.23,0l.12-.08a1,1,0,0,0,.13-.42,1.36,1.36,0,0,0-.13-.74l-.28.16Z"/><path class="cls-3" d="M37.16,16.72a.49.49,0,0,1-.19.16.52.52,0,0,1-.51,0h0a.4.4,0,0,1-.14-.15.53.53,0,0,1-.08-.17v-.18h-.18a1.4,1.4,0,0,0-.19-.94l-.25.37a1.33,1.33,0,0,0-.23.75,1.42,1.42,0,0,0,.35.87,1.75,1.75,0,0,0,.24.23,1.52,1.52,0,0,0,.69.22,1.33,1.33,0,0,0,1.16-.6h0L38,17a3.19,3.19,0,0,0-.79-.32Z"/><path class="cls-3" d="M36,15.31h.87l1-1.46.27-.45h0a1.3,1.3,0,0,1,.53-.56l.43-.27a1.21,1.21,0,0,0-.42-.13,1.33,1.33,0,0,0-1.22.54h0l-1.57,2.37h.09Z"/><path class="cls-3" d="M38.19,13.31h0a.83.83,0,0,1,.21-.16.51.51,0,0,1,.48,0,.46.46,0,0,1,.17.22h0l.09-.08.35-.22.27-.16a1.76,1.76,0,0,0-.14-.23,1.47,1.47,0,0,0-.31-.3h-.16l-.43.27A1.28,1.28,0,0,0,38.19,13.31Z"/><path class="cls-5" d="M39.76,14.25l-.11.07a.49.49,0,0,1-.24,0,.51.51,0,0,1-.45-.23h0A.21.21,0,0,1,39,14l-.22.32-.29.44a1.77,1.77,0,0,0,.35.26,1.17,1.17,0,0,0,.4.13l.52-.78A.69.69,0,0,0,39.76,14.25Z"/><path class="cls-5" d="M39.7,17.37h0a.24.24,0,0,1,0,.12h0v.16h0v.26h0v.27h0v.11h0l1.68,1a1.39,1.39,0,0,1,.85-.45l-2.5-1.56h0Z"/><path class="cls-5" d="M41,20.31,39.2,19.17l-.18.32v.35h0l2.11,1.31a1.33,1.33,0,0,0,.8.2l-.22-.19A1.35,1.35,0,0,1,41,20.31Z"/><path class="cls-5" d="M38.1,19.11l.11-.17.08-.19.11-.16h0a.45.45,0,0,1,.2-.62.11.11,0,0,1,.07,0h.09a.81.81,0,0,0-.18-.44h0l-.07-.09h0a1.31,1.31,0,0,0-.43.25,1.38,1.38,0,0,0-.28.31,1.18,1.18,0,0,0-.19.58,1.32,1.32,0,0,0,.5,1.16h0Z"/><path class="cls-9" d="M39.65,18.29h0l-.09-.12-.44-.28a.71.71,0,0,0-.29,0h0a.43.43,0,0,1,0,.16l-.09.18-.1.19-.1.17h0a.51.51,0,0,0,.13.16l.51.32.18.1h0l.27-.52h0v-.13h0v-.13h0Zm0,.11Z"/><path class="cls-9" d="M39,17a2.34,2.34,0,0,1,.71.3l-.13-.24h0a2.33,2.33,0,0,0-1-1.1l-.56.88s.13,0,.3.2A1.47,1.47,0,0,1,39,17Z"/><path class="cls-9" d="M38,19.36h0v.12l-.1.17-.08.18h0V20h0a.46.46,0,0,0,.62.19l.06,0h.07v-.45h0l-.73-.46A.24.24,0,0,1,38,19.36Zm-.08.31Zm.32.17Zm0,0Z"/><path class="cls-9" d="M38.83,19.84v-.35l.18-.32-.18-.1-.51-.32a.51.51,0,0,1-.13-.16l-.1.16-.09.19-.1.17-.1.18h0a.23.23,0,0,0,.1.07l.73.45h0Z"/><path class="cls-5" d="M38.41,17.11h0l.07.09h0a.83.83,0,0,1,.18.43h0a.71.71,0,0,1,.29,0l.43.28.18.11h0v-.1h0v0h0v-.16h0v-.16h0a.24.24,0,0,0,0-.12h0V17.2a1.22,1.22,0,0,0-.51-.19,1.26,1.26,0,0,0-.61,0h0Zm1.31.78Z"/><path class="cls-3" d="M38.56,16a1.19,1.19,0,0,0-.22-.12h-.22l-.23-.09-.4.58-.21.34a3.77,3.77,0,0,1,.78.32l.57-.87h0Z"/><path class="cls-5" d="M36,16.35h-.9a.31.31,0,0,1-.19,0h-.13a3.38,3.38,0,0,0-.89.4h0l.15.11a1.34,1.34,0,0,0,.71.31,1.31,1.31,0,0,0,.9-.24,1.13,1.13,0,0,0,.26-.23,1.45,1.45,0,0,0,.28-.57h-.09Z"/><path class="cls-5" d="M33.1,16.16h0l.16-.11.22-.15h.13l-1.29-1.1a1.32,1.32,0,0,1-.42.36,1.66,1.66,0,0,1-.31.12l1.31,1.1.13-.11Z"/><path class="cls-5" d="M31.33,14.38a.49.49,0,0,0,.45-.24h0a.4.4,0,0,1,0-.37.41.41,0,0,0-.19-.22l-.35-.22h-.13a1.58,1.58,0,0,0-.19.44,1.3,1.3,0,0,0,0,.62l.15.09A.46.46,0,0,0,31.33,14.38Z"/><path class="cls-5" d="M32.55,13.31a1.76,1.76,0,0,1,.1.3l.28.23,1.69,1.45.17.16h1.06a.82.82,0,0,0-.23-.26h0L33.15,13.1a1.2,1.2,0,0,0-.55-.28,1.16,1.16,0,0,0-.69,0l.19.1A1.41,1.41,0,0,1,32.55,13.31Z"/><path class="cls-5" d="M31.61,13.46a.51.51,0,0,1,.19.22v-.09a.56.56,0,0,1,.24-.16.5.5,0,0,1,.47.1h.1c0-.1-.06-.19-.1-.29a1.31,1.31,0,0,0-.51-.56l-.19-.11a1.13,1.13,0,0,0-.64.4l-.09.13h.14Z"/><path class="cls-3" d="M32.39,14.7h0l-.46-.4a.66.66,0,0,1-.12-.17h0a.5.5,0,0,1-.45.23.45.45,0,0,1-.23,0L31,14.27a1.3,1.3,0,0,0,.38.66h0l.31.25a1.57,1.57,0,0,0,.3-.12A1.22,1.22,0,0,0,32.39,14.7Z"/><path class="cls-9" d="M37.87,15.63a4.1,4.1,0,0,0-.78-.22h0a6.86,6.86,0,0,0-.9-.09h-.11a5.89,5.89,0,0,0-.84,0h0a5.92,5.92,0,0,0-1.54.45,2.27,2.27,0,0,0,.92.76,5,5,0,0,1,2.67,0c.1-.16.35-.54.61-.92Z"/><path class="cls-5" d="M33.74,16.93a3.71,3.71,0,0,1,.89-.39.52.52,0,0,1-.23-.1l-.32-.26-.44-.38h-.13l-.22.15-.16.11h0l-.13.12.79.68h0Z"/><polygon class="cls-10" points="39.57 19.06 37.36 22.85 28.96 21.19 31.17 17.4 39.57 19.06"/><polygon class="cls-9" points="39.57 19.06 39.56 22.62 37.35 26.41 37.36 22.85 39.57 19.06"/><polygon class="cls-2" points="37.36 22.85 37.35 26.41 28.95 24.75 28.96 21.19 37.36 22.85"/><polygon class="cls-11" points="33.31 23.11 33.25 24.54 33.02 24.49 33.06 23.07 33.31 23.11"/><path class="cls-12" d="M33.19,22.84A1.25,1.25,0,0,1,34.25,24a.87.87,0,0,1-.94.8l-.19,0a1.27,1.27,0,0,1-1-1.18A.86.86,0,0,1,33,22.8.45.45,0,0,1,33.19,22.84Zm0,1.7V23.08h-.25v1.46h.24"/></g></svg>