<svg width="320" height="180" viewBox="0 0 320 180" fill="none" xmlns="http://www.w3.org/2000/svg">
<rect x="60" y="41" width="200" height="109" fill="white"/>
<rect x="60" y="29" width="200" height="13" fill="#171717"/>
<rect opacity="0.844385" x="94" y="34.5" width="22" height="3" fill="#C6C6C6"/>
<rect opacity="0.844385" x="67" y="34.5" width="22" height="3" fill="#C6C6C6"/>
<rect opacity="0.844385" x="121" y="34.5" width="22" height="3" fill="#C6C6C6"/>
<rect opacity="0.844385" x="239" y="33" width="5" height="5" fill="#C6C6C6"/>
<rect opacity="0.844385" x="249" y="33" width="5" height="5" fill="#C6C6C6"/>
<g style="mix-blend-mode:multiply">
<rect x="60.5" y="29.5" width="199" height="121" fill="#F4F4F4"/>
<rect x="60.5" y="29.5" width="199" height="121" stroke="#C6C6C6"/>
</g>
<path fill-rule="evenodd" clip-rule="evenodd" d="M61 42H259V54.2449V62H61V42Z" fill="white"/>
<rect x="61" y="42" width="48" height="108" fill="white"/>
<rect x="61" y="62" width="198" height="0.5" fill="#C6C6C6"/>
<rect x="61" y="73" width="48" height="8" fill="#E0E0E0"/>
<rect x="61" y="73" width="2" height="8" fill="#0F62FE"/>
<rect x="67" y="68" width="22" height="2" fill="#A8A8A8"/>
<rect x="67" y="76" width="22" height="2" fill="#8D8D8D"/>
<rect x="67" y="84" width="22" height="2" fill="#A8A8A8"/>
<rect x="67" y="92" width="22" height="2" fill="#A8A8A8"/>
<rect x="67" y="100" width="22" height="2" fill="#A8A8A8"/>
</svg>
