<svg width="320" height="180" viewBox="0 0 320 180" fill="none" xmlns="http://www.w3.org/2000/svg">
<path fill-rule="evenodd" clip-rule="evenodd" d="M59.4368 79.9167H74.5619C75.9541 79.9167 77.0827 81.0454 77.0827 82.4376V97.5626C77.0827 98.9548 75.9541 100.083 74.5619 100.083H59.4368C58.0446 100.083 56.916 98.9548 56.916 97.5626V82.4376C56.916 81.0454 58.0446 79.9167 59.4368 79.9167Z" fill="white"/>
<path fill-rule="evenodd" clip-rule="evenodd" d="M59.1435 80.8333H74.8578C75.581 80.8333 76.1673 81.4195 76.1673 82.1428V97.8571C76.1673 98.5803 75.581 99.1666 74.8578 99.1666H59.1435C58.4203 99.1666 57.834 98.5803 57.834 97.8571V82.1428C57.834 81.4195 58.4203 80.8333 59.1435 80.8333Z" fill="#0F62FE"/>
<path fill-rule="evenodd" clip-rule="evenodd" d="M66.9862 85.875C67.5558 85.875 68.0175 85.4133 68.0175 84.8438C68.0175 84.2742 67.5558 83.8125 66.9862 83.8125C66.4167 83.8125 65.955 84.2742 65.955 84.8438C65.955 85.4133 66.4167 85.875 66.9862 85.875ZM64.25 95.5894H69.75V94.0425H67.7769V89.4019V88.625V87.855H64.9375V89.4019H66.23V94.0425H64.25V95.5894Z" fill="white"/>
<path fill-rule="evenodd" clip-rule="evenodd" d="M143.452 98.6267C143.168 99.1624 142.612 99.5 142.004 99.5C141.396 99.5 140.84 99.1624 140.555 98.6254L132.203 82.9376C131.928 82.4529 131.928 81.8288 132.216 81.3205C132.532 80.792 133.085 80.4851 133.677 80.5006L150.356 80.5002C150.941 80.5003 151.479 80.8123 151.773 81.317C152.064 81.8127 152.076 82.4285 151.804 82.9381L143.452 98.6267Z" fill="white"/>
<path fill-rule="evenodd" clip-rule="evenodd" d="M150.922 82.4677L142.569 98.1568C142.457 98.3682 142.24 98.5 142.004 98.5C141.768 98.5 141.551 98.3682 141.439 98.1568L133.086 82.4677C132.971 82.2654 132.971 82.0163 133.086 81.814C133.206 81.6139 133.421 81.4942 133.651 81.5002H150.357C150.583 81.5003 150.793 81.622 150.909 81.8205C151.026 82.0188 151.03 82.2648 150.922 82.4677Z" fill="#F1C21B"/>
<path fill-rule="evenodd" clip-rule="evenodd" d="M142.75 84H141.25V89H142.75V84ZM142 93C142.552 93 143 92.5523 143 92C143 91.4477 142.552 91 142 91C141.448 91 141 91.4477 141 92C141 92.5523 141.448 93 142 93Z" fill="#161616"/>
<path fill-rule="evenodd" clip-rule="evenodd" d="M180.452 81.3733C180.168 80.8376 179.612 80.5 179.004 80.5C178.396 80.5 177.84 80.8376 177.555 81.3746L169.203 97.0624C168.928 97.5471 168.928 98.1712 169.216 98.6795C169.532 99.208 170.085 99.5149 170.677 99.4994L187.356 99.4998C187.941 99.4997 188.479 99.1877 188.773 98.683C189.064 98.1873 189.076 97.5715 188.804 97.0619L180.452 81.3733Z" fill="white"/>
<path fill-rule="evenodd" clip-rule="evenodd" d="M187.922 97.5323L179.569 81.8432C179.457 81.6318 179.24 81.5 179.004 81.5C178.768 81.5 178.551 81.6318 178.439 81.8432L170.086 97.5323C169.971 97.7346 169.971 97.9837 170.086 98.186C170.206 98.3861 170.421 98.5058 170.651 98.4998H187.357C187.583 98.4997 187.793 98.378 187.909 98.1795C188.026 97.9812 188.03 97.7352 187.922 97.5323Z" fill="#FF832B"/>
<path fill-rule="evenodd" clip-rule="evenodd" d="M179.75 87H178.25V92H179.75V87ZM179 96C179.552 96 180 95.5523 180 95C180 94.4477 179.552 94 179 94C178.448 94 178 94.4477 178 95C178 95.5523 178.448 96 179 96Z" fill="black"/>
<circle cx="215" cy="90" r="9.625" fill="#DA1E28"/>
<path fill-rule="evenodd" clip-rule="evenodd" d="M210.186 86.2761L211.279 85.1823L219.811 93.714L218.717 94.8078L210.186 86.2761Z" fill="white"/>
<mask id="mask0_37_4773" style="mask-type:alpha" maskUnits="userSpaceOnUse" x="210" y="85" width="10" height="10">
<path fill-rule="evenodd" clip-rule="evenodd" d="M210.186 86.2761L211.279 85.1823L219.811 93.714L218.717 94.8078L210.186 86.2761Z" fill="white"/>
</mask>
<g mask="url(#mask0_37_4773)">
</g>
<circle cx="105" cy="90" r="9.625" fill="#42BE65"/>
<path fill-rule="evenodd" clip-rule="evenodd" d="M103.625 93.7812L100.188 90.3438L101.281 89.3125L103.625 91.6156L108.719 86.5625L109.812 87.6488L103.625 93.7812V93.7812Z" fill="white"/>
<mask id="mask1_37_4773" style="mask-type:alpha" maskUnits="userSpaceOnUse" x="100" y="86" width="10" height="8">
<path fill-rule="evenodd" clip-rule="evenodd" d="M103.625 93.7812L100.188 90.3438L101.281 89.3125L103.625 91.6156L108.719 86.5625L109.812 87.6488L103.625 93.7812V93.7812Z" fill="white"/>
</mask>
<g mask="url(#mask1_37_4773)">
</g>
<circle cx="252" cy="90" r="9.625" fill="black"/>
<path fill-rule="evenodd" clip-rule="evenodd" d="M255.719 94.8125L252 91.0931L248.281 94.8125L247.188 93.7194L250.907 90L247.188 86.2806L248.281 85.1875L252 88.9069L255.719 85.1875L256.812 86.2806L253.093 90L256.812 93.7194L255.719 94.8125V94.8125Z" fill="white"/>
<mask id="mask2_37_4773" style="mask-type:alpha" maskUnits="userSpaceOnUse" x="247" y="85" width="10" height="10">
<path fill-rule="evenodd" clip-rule="evenodd" d="M255.719 94.8125L252 91.0931L248.281 94.8125L247.188 93.7194L250.907 90L247.188 86.2806L248.281 85.1875L252 88.9069L255.719 85.1875L256.812 86.2806L253.093 90L256.812 93.7194L255.719 94.8125V94.8125Z" fill="white"/>
</mask>
<g mask="url(#mask2_37_4773)">
</g>
</svg>
