<svg width="320" height="180" viewBox="0 0 320 180" fill="none" xmlns="http://www.w3.org/2000/svg">
<path d="M63 92C63 87.0294 67.0294 83 72 83H101C105.971 83 110 87.0294 110 92V92C110 96.9706 105.971 101 101 101H72C67.0294 101 63 96.9706 63 92V92Z" fill="#D0E2FF"/>
<path d="M77.6 88.512V87.624H71.264V88.512H73.928V96H74.936V88.512H77.6ZM83.4034 96V95.16H82.6954V91.752C82.6954 90.444 81.8074 89.664 80.3194 89.664C79.2034 89.664 78.4594 90.216 78.1234 90.876L78.6994 91.416C79.0354 90.852 79.5274 90.492 80.2714 90.492C81.2554 90.492 81.7354 90.972 81.7354 91.848V92.46H80.5114C78.7114 92.46 77.8714 93.108 77.8714 94.272C77.8714 95.424 78.6394 96.144 79.9474 96.144C80.8114 96.144 81.4714 95.748 81.7354 94.992H81.7954C81.8674 95.568 82.1554 96 82.8634 96H83.4034ZM80.1034 95.328C79.3594 95.328 78.8794 94.98 78.8794 94.368V94.116C78.8794 93.516 79.3714 93.18 80.4634 93.18H81.7354V94.2C81.7354 94.836 81.0514 95.328 80.1034 95.328ZM90.3136 96.684C90.3136 95.664 89.6536 95.04 88.1176 95.04H86.7976C86.2336 95.04 85.8496 94.944 85.8496 94.572C85.8496 94.188 86.2576 93.984 86.6656 93.876C86.8456 93.912 87.0616 93.936 87.2656 93.936C88.6816 93.936 89.6056 93.06 89.6056 91.8C89.6056 91.14 89.3416 90.588 88.8976 90.204V89.808H90.0736V88.968H89.1496C88.6336 88.968 88.4296 89.316 88.4296 89.796V89.904C88.0936 89.748 87.6976 89.664 87.2536 89.664C85.8496 89.664 84.9256 90.54 84.9256 91.8C84.9256 92.664 85.3576 93.348 86.0896 93.696V93.744C85.4656 93.9 85.0216 94.2 85.0216 94.824C85.0216 95.244 85.2256 95.52 85.5736 95.688V95.82C84.9616 95.988 84.5896 96.348 84.5896 97.02C84.5896 97.992 85.3816 98.544 87.3136 98.544C89.3056 98.544 90.3136 97.956 90.3136 96.684ZM89.4136 96.756C89.4136 97.428 88.7896 97.764 87.7216 97.764H86.8336C85.8616 97.764 85.4896 97.32 85.4896 96.78C85.4896 96.396 85.6696 96.12 86.0656 95.94H88.1296C89.0896 95.94 89.4136 96.264 89.4136 96.756ZM87.2656 93.168C86.4496 93.168 85.9336 92.784 85.9336 91.968V91.632C85.9336 90.816 86.4496 90.432 87.2656 90.432C88.0816 90.432 88.5976 90.816 88.5976 91.632V91.968C88.5976 92.784 88.0816 93.168 87.2656 93.168ZM100.453 96V95.112H98.2934V87.624H96.7214L94.5014 89.7L95.0894 90.336L97.2014 88.368H97.2854V95.112H94.9454V96H100.453Z" fill="#0043CE"/>
<rect width="6" height="18" transform="translate(104 83)" fill="white" style="mix-blend-mode:multiply"/>
<path d="M117 92C117 87.0294 121.029 83 126 83H155C159.971 83 164 87.0294 164 92V92C164 96.9706 159.971 101 155 101H126C121.029 101 117 96.9706 117 92V92Z" fill="#A7F0BA"/>
<path d="M131.6 88.512V87.624H125.264V88.512H127.928V96H128.936V88.512H131.6ZM137.403 96V95.16H136.695V91.752C136.695 90.444 135.807 89.664 134.319 89.664C133.203 89.664 132.459 90.216 132.123 90.876L132.699 91.416C133.035 90.852 133.527 90.492 134.271 90.492C135.255 90.492 135.735 90.972 135.735 91.848V92.46H134.511C132.711 92.46 131.871 93.108 131.871 94.272C131.871 95.424 132.639 96.144 133.947 96.144C134.811 96.144 135.471 95.748 135.735 94.992H135.795C135.867 95.568 136.155 96 136.863 96H137.403ZM134.103 95.328C133.359 95.328 132.879 94.98 132.879 94.368V94.116C132.879 93.516 133.371 93.18 134.463 93.18H135.735V94.2C135.735 94.836 135.051 95.328 134.103 95.328ZM144.314 96.684C144.314 95.664 143.654 95.04 142.118 95.04H140.798C140.234 95.04 139.85 94.944 139.85 94.572C139.85 94.188 140.258 93.984 140.666 93.876C140.846 93.912 141.062 93.936 141.266 93.936C142.682 93.936 143.606 93.06 143.606 91.8C143.606 91.14 143.342 90.588 142.898 90.204V89.808H144.074V88.968H143.15C142.634 88.968 142.43 89.316 142.43 89.796V89.904C142.094 89.748 141.698 89.664 141.254 89.664C139.85 89.664 138.926 90.54 138.926 91.8C138.926 92.664 139.358 93.348 140.09 93.696V93.744C139.466 93.9 139.022 94.2 139.022 94.824C139.022 95.244 139.226 95.52 139.574 95.688V95.82C138.962 95.988 138.59 96.348 138.59 97.02C138.59 97.992 139.382 98.544 141.314 98.544C143.306 98.544 144.314 97.956 144.314 96.684ZM143.414 96.756C143.414 97.428 142.79 97.764 141.722 97.764H140.834C139.862 97.764 139.49 97.32 139.49 96.78C139.49 96.396 139.67 96.12 140.066 95.94H142.13C143.09 95.94 143.414 96.264 143.414 96.756ZM141.266 93.168C140.45 93.168 139.934 92.784 139.934 91.968V91.632C139.934 90.816 140.45 90.432 141.266 90.432C142.082 90.432 142.598 90.816 142.598 91.632V91.968C142.598 92.784 142.082 93.168 141.266 93.168ZM154.285 95.112H149.881L152.137 93.084C153.205 92.124 153.973 91.212 153.973 89.916C153.973 88.488 153.037 87.48 151.405 87.48C149.785 87.48 149.041 88.464 148.717 89.448L149.617 89.796C149.845 89.004 150.325 88.38 151.357 88.38C152.389 88.38 152.905 89.016 152.905 89.94V90.084C152.905 90.888 152.305 91.728 151.525 92.448L148.789 94.968V96H154.285V95.112Z" fill="#0E6027"/>
<rect width="6" height="18" transform="translate(158 83)" fill="white" style="mix-blend-mode:multiply"/>
<path d="M171 92C171 87.0294 175.029 83 180 83H209C213.971 83 218 87.0294 218 92V92C218 96.9706 213.971 101 209 101H180C175.029 101 171 96.9706 171 92V92Z" fill="#E8DAFF"/>
<path d="M185.6 88.512V87.624H179.264V88.512H181.928V96H182.936V88.512H185.6ZM191.403 96V95.16H190.695V91.752C190.695 90.444 189.807 89.664 188.319 89.664C187.203 89.664 186.459 90.216 186.123 90.876L186.699 91.416C187.035 90.852 187.527 90.492 188.271 90.492C189.255 90.492 189.735 90.972 189.735 91.848V92.46H188.511C186.711 92.46 185.871 93.108 185.871 94.272C185.871 95.424 186.639 96.144 187.947 96.144C188.811 96.144 189.471 95.748 189.735 94.992H189.795C189.867 95.568 190.155 96 190.863 96H191.403ZM188.103 95.328C187.359 95.328 186.879 94.98 186.879 94.368V94.116C186.879 93.516 187.371 93.18 188.463 93.18H189.735V94.2C189.735 94.836 189.051 95.328 188.103 95.328ZM198.314 96.684C198.314 95.664 197.654 95.04 196.118 95.04H194.798C194.234 95.04 193.85 94.944 193.85 94.572C193.85 94.188 194.258 93.984 194.666 93.876C194.846 93.912 195.062 93.936 195.266 93.936C196.682 93.936 197.606 93.06 197.606 91.8C197.606 91.14 197.342 90.588 196.898 90.204V89.808H198.074V88.968H197.15C196.634 88.968 196.43 89.316 196.43 89.796V89.904C196.094 89.748 195.698 89.664 195.254 89.664C193.85 89.664 192.926 90.54 192.926 91.8C192.926 92.664 193.358 93.348 194.09 93.696V93.744C193.466 93.9 193.022 94.2 193.022 94.824C193.022 95.244 193.226 95.52 193.574 95.688V95.82C192.962 95.988 192.59 96.348 192.59 97.02C192.59 97.992 193.382 98.544 195.314 98.544C197.306 98.544 198.314 97.956 198.314 96.684ZM197.414 96.756C197.414 97.428 196.79 97.764 195.722 97.764H194.834C193.862 97.764 193.49 97.32 193.49 96.78C193.49 96.396 193.67 96.12 194.066 95.94H196.13C197.09 95.94 197.414 96.264 197.414 96.756ZM195.266 93.168C194.45 93.168 193.934 92.784 193.934 91.968V91.632C193.934 90.816 194.45 90.432 195.266 90.432C196.082 90.432 196.598 90.816 196.598 91.632V91.968C196.598 92.784 196.082 93.168 195.266 93.168ZM204.109 91.176V92.052H205.093C206.269 92.052 206.893 92.616 206.893 93.6V93.696C206.893 94.68 206.269 95.244 205.093 95.244C204.073 95.244 203.581 94.8 203.149 94.14L202.393 94.716C202.909 95.436 203.653 96.144 205.105 96.144C206.809 96.144 207.949 95.148 207.949 93.708C207.949 92.448 207.085 91.776 206.185 91.596V91.548C207.073 91.32 207.793 90.672 207.793 89.592C207.793 88.236 206.665 87.48 205.249 87.48C203.905 87.48 203.173 88.176 202.753 88.848L203.497 89.424C203.845 88.788 204.361 88.38 205.225 88.38C206.113 88.38 206.725 88.824 206.725 89.7V89.784C206.725 90.588 206.149 91.176 205.021 91.176H204.109Z" fill="#6929C4"/>
<rect width="6" height="18" transform="translate(212 83)" fill="white" style="mix-blend-mode:multiply"/>
<path d="M225 92C225 87.0294 229.029 83 234 83H247C251.971 83 256 87.0294 256 92V92C256 96.9706 251.971 101 247 101H234C229.029 101 225 96.9706 225 92V92Z" fill="#E0E0E0"/>
<path d="M237.056 95.256V92.748H239.396V91.932H237.056V89.424H236.144V91.932H233.804V92.748H236.144V95.256H237.056ZM242.735 91.176V92.052H243.719C244.895 92.052 245.519 92.616 245.519 93.6V93.696C245.519 94.68 244.895 95.244 243.719 95.244C242.699 95.244 242.207 94.8 241.775 94.14L241.019 94.716C241.535 95.436 242.279 96.144 243.731 96.144C245.435 96.144 246.575 95.148 246.575 93.708C246.575 92.448 245.711 91.776 244.811 91.596V91.548C245.699 91.32 246.419 90.672 246.419 89.592C246.419 88.236 245.291 87.48 243.875 87.48C242.531 87.48 241.799 88.176 241.379 88.848L242.123 89.424C242.471 88.788 242.987 88.38 243.851 88.38C244.739 88.38 245.351 88.824 245.351 89.7V89.784C245.351 90.588 244.775 91.176 243.647 91.176H242.735Z" fill="#161616"/>
<rect width="6" height="18" transform="translate(250 83)" fill="white" style="mix-blend-mode:multiply"/>
<path d="M65 65V72L72 65H65Z" fill="#D12771"/>
<path d="M257 65V72L250 65H257Z" fill="#D12771"/>
<line x1="65" y1="65.5" x2="255" y2="65.5" stroke="#D12771" stroke-dasharray="2 2"/>
</svg>
