<svg width="320" height="180" viewBox="0 0 320 180" fill="none" xmlns="http://www.w3.org/2000/svg">
<rect x="56" y="44" width="208" height="17" fill="#F3F3F3"/>
<rect x="56" y="61" width="208" height="18" fill="#E0E0E0"/>
<rect x="56" y="79" width="208" height="56" fill="#F3F3F3"/>
<rect x="64" y="67.7817" width="46" height="4" fill="#8D8D8D"/>
<rect opacity="0.748019" x="64" y="86.7817" width="46" height="4" fill="#A8A8A8"/>
<rect opacity="0.748019" x="64" y="104.782" width="46" height="4" fill="#A8A8A8"/>
<rect x="137" y="67.7817" width="46" height="4" fill="#8D8D8D"/>
<rect opacity="0.748019" x="137" y="87" width="46" height="4" fill="#A8A8A8"/>
<rect opacity="0.748019" x="137" y="104" width="46" height="4" fill="#A8A8A8"/>
<rect opacity="0.748019" x="64" y="123.782" width="46" height="4" fill="#A8A8A8"/>
<rect opacity="0.748019" x="137" y="123.782" width="46" height="4" fill="#A8A8A8"/>
<rect x="211" y="67.7817" width="46" height="4" fill="#8D8D8D"/>
<rect opacity="0.748019" x="211" y="86.7817" width="46" height="4" fill="#A8A8A8"/>
<rect opacity="0.748019" x="211" y="104.782" width="46" height="4" fill="#A8A8A8"/>
<rect opacity="0.748019" x="211" y="123.782" width="46" height="4" fill="#A8A8A8"/>
<path fill-rule="evenodd" clip-rule="evenodd" d="M187.354 50.3247C187.549 50.52 187.549 50.8364 187.354 51.0317L183.604 54.7817H182V53.1782L185.75 49.4282C185.945 49.2334 186.262 49.2334 186.457 49.4282L187.354 50.3247ZM188.25 55.5317H181.75V56.0317H188.25V55.5317ZM186.103 49.7815L187 50.6782L186.25 51.4282L185.353 50.5315L186.103 49.7815ZM182.5 53.3853V54.2817H183.396L185.896 51.7817L185 50.8851L182.5 53.3853Z" fill="black"/>
<mask id="mask0_7_2956" style="mask-type:alpha" maskUnits="userSpaceOnUse" x="181" y="49" width="8" height="8">
<path fill-rule="evenodd" clip-rule="evenodd" d="M187.354 50.3247C187.549 50.52 187.549 50.8364 187.354 51.0317L183.604 54.7817H182V53.1782L185.75 49.4282C185.945 49.2334 186.262 49.2334 186.457 49.4282L187.354 50.3247ZM188.25 55.5317H181.75V56.0317H188.25V55.5317ZM186.103 49.7815L187 50.6782L186.25 51.4282L185.353 50.5315L186.103 49.7815ZM182.5 53.3853V54.2817H183.396L185.896 51.7817L185 50.8851L182.5 53.3853Z" fill="white"/>
</mask>
<g mask="url(#mask0_7_2956)">
</g>
<path fill-rule="evenodd" clip-rule="evenodd" d="M203.75 52.9817V52.5817L204.25 52.1817C204.45 52.0317 204.45 51.7317 204.35 51.5317L203.75 50.5317C203.65 50.3817 203.5 50.2817 203.3 50.2817C203.25 50.2817 203.2 50.2817 203.15 50.3317L202.55 50.5317C202.512 50.5131 202.475 50.4876 202.435 50.4603C202.368 50.4142 202.294 50.3631 202.2 50.3317L202.05 49.6817C202.05 49.4317 201.85 49.2817 201.6 49.2817H200.4C200.15 49.2817 199.95 49.4317 199.9 49.6817L199.8 50.3317C199.65 50.3817 199.55 50.4317 199.45 50.4817L199.45 50.4817L198.85 50.2817H198.7C198.5 50.2817 198.35 50.3817 198.25 50.5317L197.65 51.5317C197.55 51.7317 197.6 51.9817 197.8 52.1817L198.25 52.6317V53.0317L197.8 53.3817C197.6 53.5317 197.55 53.8317 197.7 54.0317L198.3 55.0317C198.35 55.1817 198.5 55.2817 198.7 55.2817C198.75 55.2817 198.8 55.2817 198.85 55.2317L199.45 55.0317C199.487 55.0504 199.524 55.0759 199.564 55.1032L199.564 55.1032C199.631 55.1493 199.705 55.2004 199.8 55.2317L199.95 55.8817C200 56.1317 200.2 56.2817 200.45 56.2817H201.65C201.9 56.2817 202.1 56.1317 202.15 55.8817L202.3 55.2317L202.3 55.2317C202.4 55.1817 202.5 55.1317 202.65 55.0317L203.25 55.2317C203.275 55.2317 203.3 55.2442 203.325 55.2567C203.35 55.2692 203.375 55.2817 203.4 55.2817C203.6 55.2817 203.75 55.1817 203.85 55.0317L204.4 54.0317C204.5 53.8317 204.5 53.5817 204.3 53.3817L203.75 52.9817ZM199.487 52.8595C199.487 53.7095 200.137 54.3595 200.987 54.3595C201.837 54.3595 202.487 53.6595 202.487 52.8595C202.487 52.0095 201.837 51.3595 200.987 51.3595C200.137 51.3595 199.487 52.0095 199.487 52.8595ZM199.987 52.8095C199.987 52.2595 200.437 51.8595 200.987 51.8595C201.587 51.8595 201.987 52.3095 201.987 52.8595V52.9095C201.987 53.4595 201.537 53.8595 200.987 53.8595H200.937C200.387 53.8595 199.987 53.4095 199.987 52.8595V52.8095ZM202.45 54.4817L203.3 54.7817L203.9 53.7817L203.2 53.1817C203.25 52.9317 203.25 52.6317 203.2 52.3817L203.9 51.7817L203.3 50.7817L202.5 51.0817C202.43 51.0398 202.364 50.9978 202.299 50.9569C202.134 50.8517 201.98 50.7538 201.8 50.6817L201.6 49.7817H200.4L200.25 50.6817C200 50.7817 199.75 50.8817 199.55 51.0817L198.7 50.7817L198.1 51.7817L198.8 52.3817C198.75 52.6317 198.75 52.9317 198.8 53.1817L198.1 53.7817L198.7 54.7817L199.5 54.4817C199.57 54.5237 199.636 54.5657 199.7 54.6066C199.865 54.7118 200.02 54.8097 200.2 54.8817L200.4 55.7817H201.6L201.75 54.8817C202 54.7817 202.25 54.6317 202.45 54.4817Z" fill="black"/>
<path fill-rule="evenodd" clip-rule="evenodd" d="M172.499 55.9317L170.349 53.7817C171.299 52.6317 171.149 50.8817 169.999 49.9317C168.849 48.9817 167.099 49.1317 166.149 50.2817C165.199 51.4317 165.349 53.1817 166.499 54.1317C167.499 54.9817 168.999 54.9817 169.999 54.1317L172.149 56.2817L172.499 55.9317ZM165.999 52.0317C165.999 50.7817 166.999 49.7817 168.249 49.7817C169.499 49.7817 170.499 50.7817 170.499 52.0317C170.499 53.2817 169.499 54.2817 168.249 54.2817C166.999 54.2817 165.999 53.2817 165.999 52.0317Z" fill="black"/>
<rect x="56" y="97" width="208" height="1" fill="#C6C6C6"/>
<rect x="56" y="115" width="208" height="1" fill="#C6C6C6"/>
<rect x="211" y="44" width="53" height="17" fill="#0F6DFF"/>
</svg>
