<svg width="320" height="180" viewBox="0 0 320 180" fill="none" xmlns="http://www.w3.org/2000/svg">
<rect x="97" y="75" width="51" height="30" fill="#E0E0E0"/>
<rect x="104" y="83" width="14" height="14" fill="#F1C21B"/>
<rect x="150" y="75" width="73" height="30" fill="#E0E0E0"/>
<path d="M130.081 95V94.16H128.905V87.464H130.081V86.624H126.721V87.464H127.897V94.16H126.721V95H130.081Z" fill="black"/>
<path d="M133.444 95V91.424H135.772C137.272 91.424 138.112 90.5 138.112 89.024C138.112 87.548 137.272 86.624 135.772 86.624H132.436V95H133.444ZM133.444 87.512H135.772C136.564 87.512 137.032 87.944 137.032 88.712V89.336C137.032 90.104 136.564 90.536 135.772 90.536H133.444V87.512Z" fill="black"/>
<path d="M166.563 95V94.112H164.403V86.624H162.831L160.611 88.7L161.199 89.336L163.311 87.368H163.395V94.112H161.055V95H166.563Z" fill="black"/>
<path d="M171.309 95.144C173.313 95.144 174.189 93.548 174.189 90.812C174.189 88.076 173.313 86.48 171.309 86.48C169.305 86.48 168.429 88.076 168.429 90.812C168.429 93.548 169.305 95.144 171.309 95.144ZM171.309 94.268C170.001 94.268 169.485 93.116 169.485 91.496V90.128C169.485 88.508 170.001 87.356 171.309 87.356C172.617 87.356 173.133 88.508 173.133 90.128V91.496C173.133 93.116 172.617 94.268 171.309 94.268Z" fill="black"/>
<path d="M177.051 95.144C177.555 95.144 177.783 94.856 177.783 94.448V94.292C177.783 93.884 177.555 93.596 177.051 93.596C176.547 93.596 176.319 93.884 176.319 94.292V94.448C176.319 94.856 176.547 95.144 177.051 95.144Z" fill="black"/>
<path d="M182.802 95.144C184.806 95.144 185.682 93.548 185.682 90.812C185.682 88.076 184.806 86.48 182.802 86.48C180.798 86.48 179.922 88.076 179.922 90.812C179.922 93.548 180.798 95.144 182.802 95.144ZM182.802 94.268C181.494 94.268 180.978 93.116 180.978 91.496V90.128C180.978 88.508 181.494 87.356 182.802 87.356C184.11 87.356 184.626 88.508 184.626 90.128V91.496C184.626 93.116 184.11 94.268 182.802 94.268Z" fill="black"/>
<path d="M188.544 95.144C189.048 95.144 189.276 94.856 189.276 94.448V94.292C189.276 93.884 189.048 93.596 188.544 93.596C188.04 93.596 187.812 93.884 187.812 94.292V94.448C187.812 94.856 188.04 95.144 188.544 95.144Z" fill="black"/>
<path d="M194.296 95.144C196.3 95.144 197.176 93.548 197.176 90.812C197.176 88.076 196.3 86.48 194.296 86.48C192.292 86.48 191.416 88.076 191.416 90.812C191.416 93.548 192.292 95.144 194.296 95.144ZM194.296 94.268C192.988 94.268 192.472 93.116 192.472 91.496V90.128C192.472 88.508 192.988 87.356 194.296 87.356C195.604 87.356 196.12 88.508 196.12 90.128V91.496C196.12 93.116 195.604 94.268 194.296 94.268Z" fill="black"/>
<path d="M200.037 95.144C200.541 95.144 200.769 94.856 200.769 94.448V94.292C200.769 93.884 200.541 93.596 200.037 93.596C199.533 93.596 199.305 93.884 199.305 94.292V94.448C199.305 94.856 199.533 95.144 200.037 95.144Z" fill="black"/>
<path d="M205.789 95.144C207.793 95.144 208.669 93.548 208.669 90.812C208.669 88.076 207.793 86.48 205.789 86.48C203.785 86.48 202.909 88.076 202.909 90.812C202.909 93.548 203.785 95.144 205.789 95.144ZM205.789 94.268C204.481 94.268 203.965 93.116 203.965 91.496V90.128C203.965 88.508 204.481 87.356 205.789 87.356C207.097 87.356 207.613 88.508 207.613 90.128V91.496C207.613 93.116 207.097 94.268 205.789 94.268Z" fill="black"/>
</svg>
