<svg width="320" height="180" viewBox="0 0 320 180" fill="none" xmlns="http://www.w3.org/2000/svg">
<path d="M63.0807 95V94.16H61.9047V87.464H63.0807V86.624H59.7207V87.464H60.8967V94.16H59.7207V95H63.0807Z" fill="black"/>
<path d="M67.9077 95V94.16H66.6477V89.648H68.0037V88.808H66.6477V87.092H65.7837V88.244C65.7837 88.664 65.6517 88.808 65.2437 88.808H64.6677V89.648H65.6877V93.98C65.6877 94.58 66.0477 95 66.7077 95H67.9077Z" fill="black"/>
<path d="M72.3421 95.144C73.5061 95.144 74.3941 94.568 74.7901 93.728L74.1061 93.236C73.7821 93.92 73.1821 94.304 72.4021 94.304C71.2501 94.304 70.5661 93.5 70.5661 92.432V92.144H75.0181V91.688C75.0181 89.936 73.9981 88.664 72.3421 88.664C70.6621 88.664 69.5581 89.936 69.5581 91.904C69.5581 93.872 70.6621 95.144 72.3421 95.144ZM72.3421 89.468C73.3261 89.468 73.9861 90.2 73.9861 91.292V91.424H70.5661V91.34C70.5661 90.26 71.2981 89.468 72.3421 89.468Z" fill="black"/>
<path d="M78.0743 95V90.704C78.0743 89.912 78.7943 89.528 79.5503 89.528C80.4623 89.528 80.8823 90.092 80.8823 91.196V95H81.8423V90.704C81.8423 89.912 82.5383 89.528 83.2943 89.528C84.2303 89.528 84.6503 90.104 84.6503 91.196V95H85.6103V91.028C85.6103 89.528 84.8543 88.664 83.5943 88.664C82.5383 88.664 81.9383 89.252 81.7103 89.924H81.6863C81.3503 89.036 80.6063 88.664 79.7903 88.664C78.8303 88.664 78.3983 89.18 78.1223 89.816H78.0743V88.808H77.1143V95H78.0743Z" fill="black"/>
<path d="M96.9994 95V94.112H94.8394V86.624H93.2674L91.0474 88.7L91.6354 89.336L93.7474 87.368H93.8314V94.112H91.4914V95H96.9994Z" fill="black"/>
<path d="M99.777 93.596C99.273 93.596 99.045 93.884 99.045 94.304V94.472C99.045 94.796 99.189 95.036 99.513 95.108C99.381 95.672 99.093 96.092 98.613 96.596H99.417C100.101 96.008 100.509 95.12 100.509 94.472V94.304C100.509 93.884 100.281 93.596 99.777 93.596Z" fill="black"/>
<path d="M109.359 95V94.16H108.183V87.464H109.359V86.624H105.999V87.464H107.175V94.16H105.999V95H109.359Z" fill="black"/>
<path d="M114.186 95V94.16H112.926V89.648H114.282V88.808H112.926V87.092H112.062V88.244C112.062 88.664 111.93 88.808 111.522 88.808H110.946V89.648H111.966V93.98C111.966 94.58 112.326 95 112.986 95H114.186Z" fill="black"/>
<path d="M118.62 95.144C119.784 95.144 120.672 94.568 121.068 93.728L120.384 93.236C120.06 93.92 119.46 94.304 118.68 94.304C117.528 94.304 116.844 93.5 116.844 92.432V92.144H121.296V91.688C121.296 89.936 120.276 88.664 118.62 88.664C116.94 88.664 115.836 89.936 115.836 91.904C115.836 93.872 116.94 95.144 118.62 95.144ZM118.62 89.468C119.604 89.468 120.264 90.2 120.264 91.292V91.424H116.844V91.34C116.844 90.26 117.576 89.468 118.62 89.468Z" fill="black"/>
<path d="M124.353 95V90.704C124.353 89.912 125.073 89.528 125.829 89.528C126.741 89.528 127.161 90.092 127.161 91.196V95H128.121V90.704C128.121 89.912 128.817 89.528 129.573 89.528C130.509 89.528 130.929 90.104 130.929 91.196V95H131.889V91.028C131.889 89.528 131.133 88.664 129.873 88.664C128.817 88.664 128.217 89.252 127.989 89.924H127.965C127.629 89.036 126.885 88.664 126.069 88.664C125.109 88.664 124.677 89.18 124.401 89.816H124.353V88.808H123.393V95H124.353Z" fill="black"/>
<path d="M143.11 94.112H138.706L140.962 92.084C142.03 91.124 142.798 90.212 142.798 88.916C142.798 87.488 141.862 86.48 140.23 86.48C138.61 86.48 137.866 87.464 137.542 88.448L138.442 88.796C138.67 88.004 139.15 87.38 140.182 87.38C141.214 87.38 141.73 88.016 141.73 88.94V89.084C141.73 89.888 141.13 90.728 140.35 91.448L137.614 93.968V95H143.11V94.112Z" fill="black"/>
<path d="M146.055 93.596C145.551 93.596 145.323 93.884 145.323 94.304V94.472C145.323 94.796 145.467 95.036 145.791 95.108C145.659 95.672 145.371 96.092 144.891 96.596H145.695C146.379 96.008 146.787 95.12 146.787 94.472V94.304C146.787 93.884 146.559 93.596 146.055 93.596Z" fill="black"/>
<path d="M155.637 95V94.16H154.461V87.464H155.637V86.624H152.277V87.464H153.453V94.16H152.277V95H155.637Z" fill="black"/>
<path d="M160.464 95V94.16H159.204V89.648H160.56V88.808H159.204V87.092H158.34V88.244C158.34 88.664 158.208 88.808 157.8 88.808H157.224V89.648H158.244V93.98C158.244 94.58 158.604 95 159.264 95H160.464Z" fill="black"/>
<path d="M164.899 95.144C166.063 95.144 166.951 94.568 167.347 93.728L166.663 93.236C166.339 93.92 165.739 94.304 164.959 94.304C163.807 94.304 163.123 93.5 163.123 92.432V92.144H167.575V91.688C167.575 89.936 166.555 88.664 164.899 88.664C163.219 88.664 162.115 89.936 162.115 91.904C162.115 93.872 163.219 95.144 164.899 95.144ZM164.899 89.468C165.883 89.468 166.543 90.2 166.543 91.292V91.424H163.123V91.34C163.123 90.26 163.855 89.468 164.899 89.468Z" fill="black"/>
<path d="M170.631 95V90.704C170.631 89.912 171.351 89.528 172.107 89.528C173.019 89.528 173.439 90.092 173.439 91.196V95H174.399V90.704C174.399 89.912 175.095 89.528 175.851 89.528C176.787 89.528 177.207 90.104 177.207 91.196V95H178.167V91.028C178.167 89.528 177.411 88.664 176.151 88.664C175.095 88.664 174.495 89.252 174.267 89.924H174.243C173.907 89.036 173.163 88.664 172.347 88.664C171.387 88.664 170.955 89.18 170.679 89.816H170.631V88.808H169.671V95H170.631Z" fill="black"/>
<path d="M185.212 90.176V91.052H186.196C187.372 91.052 187.996 91.616 187.996 92.6V92.696C187.996 93.68 187.372 94.244 186.196 94.244C185.176 94.244 184.684 93.8 184.252 93.14L183.496 93.716C184.012 94.436 184.756 95.144 186.208 95.144C187.912 95.144 189.052 94.148 189.052 92.708C189.052 91.448 188.188 90.776 187.288 90.596V90.548C188.176 90.32 188.896 89.672 188.896 88.592C188.896 87.236 187.768 86.48 186.352 86.48C185.008 86.48 184.276 87.176 183.856 87.848L184.6 88.424C184.948 87.788 185.464 87.38 186.328 87.38C187.216 87.38 187.828 87.824 187.828 88.7V88.784C187.828 89.588 187.252 90.176 186.124 90.176H185.212Z" fill="black"/>
<path d="M192.334 93.596C191.83 93.596 191.602 93.884 191.602 94.304V94.472C191.602 94.796 191.746 95.036 192.07 95.108C191.938 95.672 191.65 96.092 191.17 96.596H191.974C192.658 96.008 193.066 95.12 193.066 94.472V94.304C193.066 93.884 192.838 93.596 192.334 93.596Z" fill="black"/>
<path d="M201.916 95V94.16H200.74V87.464H201.916V86.624H198.556V87.464H199.732V94.16H198.556V95H201.916Z" fill="black"/>
<path d="M206.743 95V94.16H205.483V89.648H206.839V88.808H205.483V87.092H204.619V88.244C204.619 88.664 204.487 88.808 204.079 88.808H203.503V89.648H204.523V93.98C204.523 94.58 204.883 95 205.543 95H206.743Z" fill="black"/>
<path d="M211.177 95.144C212.341 95.144 213.229 94.568 213.625 93.728L212.941 93.236C212.617 93.92 212.017 94.304 211.237 94.304C210.085 94.304 209.401 93.5 209.401 92.432V92.144H213.853V91.688C213.853 89.936 212.833 88.664 211.177 88.664C209.497 88.664 208.393 89.936 208.393 91.904C208.393 93.872 209.497 95.144 211.177 95.144ZM211.177 89.468C212.161 89.468 212.821 90.2 212.821 91.292V91.424H209.401V91.34C209.401 90.26 210.133 89.468 211.177 89.468Z" fill="black"/>
<path d="M216.909 95V90.704C216.909 89.912 217.629 89.528 218.385 89.528C219.297 89.528 219.717 90.092 219.717 91.196V95H220.677V90.704C220.677 89.912 221.373 89.528 222.129 89.528C223.065 89.528 223.485 90.104 223.485 91.196V95H224.445V91.028C224.445 89.528 223.689 88.664 222.429 88.664C221.373 88.664 220.773 89.252 220.545 89.924H220.521C220.185 89.036 219.441 88.664 218.625 88.664C217.665 88.664 217.233 89.18 216.957 89.816H216.909V88.808H215.949V95H216.909Z" fill="black"/>
<path d="M234.73 95V93.356H235.942V92.516H234.73V86.624H233.23L229.726 92.468V93.356H233.77V95H234.73ZM233.71 87.404H233.77V92.516H230.674L233.71 87.404Z" fill="black"/>
<path d="M238.612 93.596C238.108 93.596 237.88 93.884 237.88 94.304V94.472C237.88 94.796 238.024 95.036 238.348 95.108C238.216 95.672 237.928 96.092 237.448 96.596H238.252C238.936 96.008 239.344 95.12 239.344 94.472V94.304C239.344 93.884 239.116 93.596 238.612 93.596Z" fill="black"/>
<path d="M248.194 95V94.16H247.018V87.464H248.194V86.624H244.834V87.464H246.01V94.16H244.834V95H248.194Z" fill="black"/>
<path d="M251.065 95.144C251.569 95.144 251.797 94.856 251.797 94.448V94.292C251.797 93.884 251.569 93.596 251.065 93.596C250.561 93.596 250.333 93.884 250.333 94.292V94.448C250.333 94.856 250.561 95.144 251.065 95.144Z" fill="black"/>
<path d="M254.849 95.144C255.353 95.144 255.581 94.856 255.581 94.448V94.292C255.581 93.884 255.353 93.596 254.849 93.596C254.345 93.596 254.117 93.884 254.117 94.292V94.448C254.117 94.856 254.345 95.144 254.849 95.144Z" fill="black"/>
<path d="M258.633 95.144C259.137 95.144 259.365 94.856 259.365 94.448V94.292C259.365 93.884 259.137 93.596 258.633 93.596C258.129 93.596 257.901 93.884 257.901 94.292V94.448C257.901 94.856 258.129 95.144 258.633 95.144Z" fill="black"/>
</svg>
