<svg width="320" height="180" viewBox="0 0 320 180" fill="none" xmlns="http://www.w3.org/2000/svg">
<rect x="60" y="41" width="200" height="109" fill="white"/>
<rect x="60" y="29" width="200" height="13" fill="#171717"/>
<rect x="60" y="42" width="200" height="13" fill="#525252"/>
<rect opacity="0.844385" x="94" y="34.5" width="22" height="3" fill="#C6C6C6"/>
<rect opacity="0.844385" x="67" y="34.5" width="22" height="3" fill="#C6C6C6"/>
<rect opacity="0.844385" x="121" y="34.5" width="22" height="3" fill="#C6C6C6"/>
<rect opacity="0.844385" x="239" y="33" width="5" height="5" fill="#C6C6C6"/>
<rect opacity="0.844385" x="249" y="33" width="5" height="5" fill="#C6C6C6"/>
<g style="mix-blend-mode:multiply">
<rect x="60.5" y="41.5" width="199" height="109" fill="#F4F4F4"/>
<rect x="60.5" y="41.5" width="199" height="109" stroke="#C6C6C6"/>
</g>
<rect opacity="0.891745" x="66" y="75" width="78" height="2" fill="#A8A8A8"/>
<rect opacity="0.891745" x="81" y="47" width="78" height="2" fill="#A8A8A8"/>
<rect opacity="0.891745" x="228" y="47" width="24" height="2" fill="#78A9FF"/>
<rect opacity="0.891745" x="162" y="75" width="14" height="2" fill="#A8A8A8"/>
<rect opacity="0.891745" x="162" y="83" width="14" height="2" fill="#A8A8A8"/>
<rect opacity="0.891745" x="186" y="75" width="14" height="2" fill="#A8A8A8"/>
<rect opacity="0.891745" x="186" y="83" width="14" height="2" fill="#A8A8A8"/>
<rect opacity="0.891745" x="66" y="65" width="34" height="4" fill="#8D8D8D"/>
<rect opacity="0.891745" x="66" y="98" width="34" height="4" fill="#8D8D8D"/>
<rect opacity="0.891745" x="66" y="108" width="44" height="42" fill="white"/>
<rect opacity="0.891745" x="66" y="83" width="78" height="2" fill="#A8A8A8"/>
<rect opacity="0.891745" x="66" y="79" width="67" height="2" fill="#A8A8A8"/>
<rect x="60" y="42" width="2" height="13" fill="#78A9FF"/>
<circle cx="71" cy="48" r="3.5" fill="#78A9FF"/>
<path fill-rule="evenodd" clip-rule="evenodd" d="M71.0009 46.5C71.208 46.5 71.3759 46.3321 71.3759 46.125C71.3759 45.9179 71.208 45.75 71.0009 45.75C70.7938 45.75 70.6259 45.9179 70.6259 46.125C70.6259 46.3321 70.7938 46.5 71.0009 46.5ZM70.0059 50.0325H72.0059V49.47H71.2884V47.7825V47.5V47.22H70.2559V47.7825H70.7259V49.47H70.0059V50.0325Z" fill="black"/>
<mask id="mask0_77_16944" style="mask-type:alpha" maskUnits="userSpaceOnUse" x="70" y="45" width="3" height="6">
<path fill-rule="evenodd" clip-rule="evenodd" d="M71.0009 46.5C71.208 46.5 71.3759 46.3321 71.3759 46.125C71.3759 45.9179 71.208 45.75 71.0009 45.75C70.7938 45.75 70.6259 45.9179 70.6259 46.125C70.6259 46.3321 70.7938 46.5 71.0009 46.5ZM70.0059 50.0325H72.0059V49.47H71.2884V47.7825V47.5V47.22H70.2559V47.7825H70.7259V49.47H70.0059V50.0325Z" fill="white"/>
</mask>
<g mask="url(#mask0_77_16944)">
</g>
<path fill-rule="evenodd" clip-rule="evenodd" d="M226.209 100.937L227.625 102.361L227.36 102.625L225.937 101.209C225.089 101.912 223.838 101.825 223.096 101.01C222.354 100.196 222.384 98.9419 223.163 98.1629C223.942 97.3839 225.195 97.3547 226.01 98.0965C226.824 98.8383 226.912 100.089 226.209 100.937ZM224.625 97.9375C223.693 97.9375 222.937 98.693 222.937 99.625C222.937 100.557 223.693 101.312 224.625 101.312C225.557 101.312 226.312 100.557 226.312 99.625C226.312 98.693 225.557 97.9375 224.625 97.9375Z" fill="black"/>
<mask id="mask1_77_16944" style="mask-type:alpha" maskUnits="userSpaceOnUse" x="222" y="97" width="6" height="6">
<path fill-rule="evenodd" clip-rule="evenodd" d="M226.209 100.937L227.625 102.361L227.36 102.625L225.937 101.209C225.089 101.912 223.838 101.825 223.096 101.01C222.354 100.196 222.384 98.9419 223.163 98.1629C223.942 97.3839 225.195 97.3547 226.01 98.0965C226.824 98.8383 226.912 100.089 226.209 100.937ZM224.625 97.9375C223.693 97.9375 222.937 98.693 222.937 99.625C222.937 100.557 223.693 101.312 224.625 101.312C225.557 101.312 226.312 100.557 226.312 99.625C226.312 98.693 225.557 97.9375 224.625 97.9375Z" fill="white"/>
</mask>
<g mask="url(#mask1_77_16944)">
<rect width="12" height="12" transform="translate(222 97)" fill="#161616"/>
</g>
<path fill-rule="evenodd" clip-rule="evenodd" d="M236.375 102.25H235.625C235.418 102.25 235.25 102.082 235.25 101.875V100.452L233.861 99.0625C233.79 98.9925 233.75 98.8974 233.75 98.7981V98.125C233.75 97.9179 233.918 97.75 234.125 97.75H237.875C238.082 97.75 238.25 97.9179 238.25 98.125V98.7981C238.25 98.8974 238.21 98.9925 238.139 99.0625L236.75 100.452V101.875C236.75 102.082 236.582 102.25 236.375 102.25ZM234.125 98.125V98.7981L235.625 100.298V101.875H236.375V100.298L237.875 98.7981V98.125H234.125Z" fill="black"/>
<path fill-rule="evenodd" clip-rule="evenodd" d="M249.801 99.9362C249.35 98.7706 248.249 97.985 247 97.9375C245.751 97.985 244.65 98.7706 244.199 99.9362C244.184 99.9774 244.184 100.023 244.199 100.064C244.65 101.229 245.751 102.015 247 102.062C248.249 102.015 249.35 101.229 249.801 100.064C249.816 100.023 249.816 99.9774 249.801 99.9362ZM247 101.688C246.006 101.688 244.956 100.951 244.576 100C244.956 99.0494 246.006 98.3125 247 98.3125C247.994 98.3125 249.044 99.0494 249.424 100C249.044 100.951 247.994 101.688 247 101.688ZM247 98.875C246.379 98.875 245.875 99.3787 245.875 100C245.875 100.621 246.379 101.125 247 101.125C247.621 101.125 248.125 100.621 248.125 100C248.125 99.3787 247.621 98.875 247 98.875ZM247 100.75C246.586 100.75 246.25 100.414 246.25 100C246.25 99.5858 246.586 99.25 247 99.25C247.414 99.25 247.75 99.5858 247.75 100C247.75 100.199 247.671 100.39 247.53 100.53C247.39 100.671 247.199 100.75 247 100.75Z" fill="#161616"/>
<rect opacity="0.891745" x="114" y="108" width="44" height="42" fill="white"/>
<rect opacity="0.891745" x="162" y="108" width="44" height="42" fill="white"/>
<rect opacity="0.891745" x="210" y="108" width="44" height="42" fill="white"/>
</svg>
