<svg width="320" height="180" viewBox="0 0 320 180" fill="none" xmlns="http://www.w3.org/2000/svg">
<path d="M62.2277 87V86.112H58.1237V83.208H61.9877V82.32H58.1237V79.512H62.2277V78.624H57.1157V87H62.2277Z" fill="black"/>
<path d="M63.2477 87H64.3158L66.0557 84.576H66.0918L67.6997 87H68.8278L66.5957 83.808L68.7797 80.808H67.7118L66.0798 83.112H66.0437L64.4718 80.808H63.3438L65.5398 83.88L63.2477 87Z" fill="black"/>
<path d="M72.6658 87V86.16H71.4058V81.648H72.7618V80.808H71.4058V79.092H70.5418V80.244C70.5418 80.664 70.4098 80.808 70.0018 80.808H69.4258V81.648H70.4458V85.98C70.4458 86.58 70.8058 87 71.4658 87H72.6658Z" fill="black"/>
<path d="M76.5859 87.144C77.7499 87.144 78.6379 86.568 79.0339 85.728L78.3499 85.236C78.0259 85.92 77.4259 86.304 76.6459 86.304C75.4939 86.304 74.8099 85.5 74.8099 84.432V84.144H79.2619V83.688C79.2619 81.936 78.2419 80.664 76.5859 80.664C74.9059 80.664 73.8019 81.936 73.8019 83.904C73.8019 85.872 74.9059 87.144 76.5859 87.144ZM76.5859 81.468C77.5699 81.468 78.2299 82.2 78.2299 83.292V83.424H74.8099V83.34C74.8099 82.26 75.5419 81.468 76.5859 81.468Z" fill="black"/>
<path d="M81.8039 87V82.8C81.8039 82.212 82.4279 81.768 83.4599 81.768H84.0239V80.808H83.6519C82.6439 80.808 82.0799 81.36 81.8639 81.948H81.8039V80.808H80.8439V87H81.8039Z" fill="black"/>
<path d="M86.2101 87V82.704C86.2101 81.912 86.9541 81.528 87.7221 81.528C88.6461 81.528 89.1261 82.092 89.1261 83.196V87H90.0861V83.028C90.0861 81.528 89.2821 80.664 88.0101 80.664C87.0861 80.664 86.5581 81.12 86.2581 81.816H86.2101V80.808H85.2501V87H86.2101Z" fill="black"/>
<path d="M97.1104 87V86.16H96.4024V82.752C96.4024 81.444 95.5144 80.664 94.0264 80.664C92.9104 80.664 92.1664 81.216 91.8304 81.876L92.4064 82.416C92.7424 81.852 93.2344 81.492 93.9784 81.492C94.9624 81.492 95.4424 81.972 95.4424 82.848V83.46H94.2184C92.4184 83.46 91.5784 84.108 91.5784 85.272C91.5784 86.424 92.3464 87.144 93.6544 87.144C94.5184 87.144 95.1784 86.748 95.4424 85.992H95.5024C95.5744 86.568 95.8624 87 96.5704 87H97.1104ZM93.8104 86.328C93.0664 86.328 92.5864 85.98 92.5864 85.368V85.116C92.5864 84.516 93.0784 84.18 94.1704 84.18H95.4424V85.2C95.4424 85.836 94.7584 86.328 93.8104 86.328Z" fill="black"/>
<path d="M100.353 87V86.16H99.4406V78.12H98.4806V86.004C98.4806 86.58 98.8406 87 99.5006 87H100.353Z" fill="black"/>
<path d="M106.458 87V86.16H105.546V78.12H104.586V86.004C104.586 86.58 104.946 87 105.606 87H106.458Z" fill="black"/>
<path d="M108.336 79.356C108.744 79.356 108.924 79.14 108.924 78.816V78.66C108.924 78.336 108.744 78.12 108.336 78.12C107.928 78.12 107.748 78.336 107.748 78.66V78.816C107.748 79.14 107.928 79.356 108.336 79.356ZM107.856 87H108.816V80.808H107.856V87Z" fill="black"/>
<path d="M111.816 87V82.704C111.816 81.912 112.56 81.528 113.328 81.528C114.252 81.528 114.732 82.092 114.732 83.196V87H115.692V83.028C115.692 81.528 114.888 80.664 113.616 80.664C112.692 80.664 112.164 81.12 111.864 81.816H111.816V80.808H110.856V87H111.816Z" fill="black"/>
<path d="M117.676 87H118.636V84.792L119.56 83.844L121.612 87H122.776L120.256 83.256L122.548 80.808H121.384L119.632 82.692L118.684 83.748H118.636V78.12H117.676V87Z" fill="black"/>
<path d="M125.864 87.144C127.28 87.144 128.156 86.412 128.156 85.212C128.156 84.276 127.628 83.676 126.26 83.472L125.78 83.4C125.012 83.28 124.592 83.04 124.592 82.44C124.592 81.852 125.012 81.48 125.804 81.48C126.596 81.48 127.124 81.852 127.4 82.236L128.036 81.66C127.532 81.036 126.872 80.664 125.876 80.664C124.616 80.664 123.668 81.264 123.668 82.488C123.668 83.64 124.52 84.108 125.66 84.276L126.152 84.348C126.968 84.468 127.232 84.84 127.232 85.32C127.232 85.956 126.752 86.328 125.936 86.328C125.156 86.328 124.58 85.98 124.1 85.38L123.416 85.932C123.968 86.664 124.724 87.144 125.864 87.144Z" fill="black"/>
<path d="M132.688 87H133.648V82.704C133.648 81.912 134.392 81.528 135.16 81.528C136.084 81.528 136.564 82.092 136.564 83.196V87H137.524V83.028C137.524 81.528 136.72 80.664 135.448 80.664C134.524 80.664 133.996 81.12 133.696 81.816H133.648V78.12H132.688V87Z" fill="#0F62FE"/>
<path d="M142.076 87V86.16H140.816V81.648H142.172V80.808H140.816V79.092H139.952V80.244C139.952 80.664 139.82 80.808 139.412 80.808H138.836V81.648H139.856V85.98C139.856 86.58 140.216 87 140.876 87H142.076Z" fill="#0F62FE"/>
<path d="M146.177 87V86.16H144.918V81.648H146.273V80.808H144.918V79.092H144.053V80.244C144.053 80.664 143.921 80.808 143.513 80.808H142.938V81.648H143.957V85.98C143.957 86.58 144.317 87 144.978 87H146.177Z" fill="#0F62FE"/>
<path d="M147.817 89.4H148.777V85.992H148.825C149.197 86.76 149.785 87.144 150.637 87.144C152.185 87.144 153.157 85.884 153.157 83.904C153.157 81.924 152.185 80.664 150.637 80.664C149.785 80.664 149.149 81.036 148.825 81.816H148.777V80.808H147.817V89.4ZM150.373 86.28C149.497 86.28 148.777 85.824 148.777 85.02V82.716C148.777 82.032 149.497 81.528 150.373 81.528C151.453 81.528 152.125 82.272 152.125 83.376V84.432C152.125 85.536 151.453 86.28 150.373 86.28Z" fill="#0F62FE"/>
<path d="M156.637 87.144C158.053 87.144 158.929 86.412 158.929 85.212C158.929 84.276 158.401 83.676 157.033 83.472L156.553 83.4C155.785 83.28 155.365 83.04 155.365 82.44C155.365 81.852 155.785 81.48 156.577 81.48C157.369 81.48 157.897 81.852 158.173 82.236L158.809 81.66C158.305 81.036 157.645 80.664 156.649 80.664C155.389 80.664 154.441 81.264 154.441 82.488C154.441 83.64 155.293 84.108 156.433 84.276L156.925 84.348C157.741 84.468 158.005 84.84 158.005 85.32C158.005 85.956 157.525 86.328 156.709 86.328C155.929 86.328 155.353 85.98 154.873 85.38L154.189 85.932C154.741 86.664 155.497 87.144 156.637 87.144Z" fill="#0F62FE"/>
<path d="M161.357 87.144C161.861 87.144 162.089 86.856 162.089 86.448V86.292C162.089 85.884 161.861 85.596 161.357 85.596C160.853 85.596 160.625 85.884 160.625 86.292V86.448C160.625 86.856 160.853 87.144 161.357 87.144ZM161.357 82.212C161.861 82.212 162.089 81.924 162.089 81.516V81.36C162.089 80.952 161.861 80.664 161.357 80.664C160.853 80.664 160.625 80.952 160.625 81.36V81.516C160.625 81.924 160.853 82.212 161.357 82.212Z" fill="#0F62FE"/>
<path d="M164.081 88.812L167.213 78.12H166.349L163.217 88.812H164.081Z" fill="#0F62FE"/>
<path d="M167.233 88.812L170.365 78.12H169.501L166.369 88.812H167.233Z" fill="#0F62FE"/>
<path d="M172.883 87H174.047L174.911 84.024L175.439 82.14H175.463L176.003 84.024L176.867 87H178.055L179.699 80.808H178.799L178.127 83.484L177.491 86.196H177.467L176.699 83.484L175.895 80.808H175.043L174.263 83.484L173.507 86.196H173.483L172.823 83.484L172.163 80.808H171.227L172.883 87Z" fill="#0F62FE"/>
<path d="M182.094 87H183.258L184.122 84.024L184.65 82.14H184.674L185.214 84.024L186.078 87H187.266L188.91 80.808H188.01L187.338 83.484L186.702 86.196H186.678L185.91 83.484L185.106 80.808H184.254L183.474 83.484L182.718 86.196H182.694L182.034 83.484L181.374 80.808H180.438L182.094 87Z" fill="#0F62FE"/>
<path d="M191.305 87H192.469L193.333 84.024L193.861 82.14H193.885L194.425 84.024L195.289 87H196.477L198.121 80.808H197.221L196.549 83.484L195.913 86.196H195.889L195.121 83.484L194.317 80.808H193.465L192.685 83.484L191.929 86.196H191.905L191.245 83.484L190.585 80.808H189.649L191.305 87Z" fill="#0F62FE"/>
<path d="M199.757 87.144C200.261 87.144 200.489 86.856 200.489 86.448V86.292C200.489 85.884 200.261 85.596 199.757 85.596C199.253 85.596 199.025 85.884 199.025 86.292V86.448C199.025 86.856 199.253 87.144 199.757 87.144Z" fill="#0F62FE"/>
<path d="M202.894 79.356C203.302 79.356 203.482 79.14 203.482 78.816V78.66C203.482 78.336 203.302 78.12 202.894 78.12C202.486 78.12 202.306 78.336 202.306 78.66V78.816C202.306 79.14 202.486 79.356 202.894 79.356ZM202.414 87H203.374V80.808H202.414V87Z" fill="#0F62FE"/>
<path d="M205.414 87H206.374V85.992H206.422C206.794 86.76 207.382 87.144 208.234 87.144C209.782 87.144 210.754 85.884 210.754 83.904C210.754 81.924 209.782 80.664 208.234 80.664C207.382 80.664 206.746 81.036 206.422 81.816H206.374V78.12H205.414V87ZM207.97 86.28C207.094 86.28 206.374 85.824 206.374 85.02V82.716C206.374 82.032 207.094 81.528 207.97 81.528C209.05 81.528 209.722 82.272 209.722 83.376V84.432C209.722 85.536 209.05 86.28 207.97 86.28Z" fill="#0F62FE"/>
<path d="M213.335 87V82.704C213.335 81.912 214.055 81.528 214.811 81.528C215.723 81.528 216.143 82.092 216.143 83.196V87H217.103V82.704C217.103 81.912 217.799 81.528 218.555 81.528C219.491 81.528 219.911 82.104 219.911 83.196V87H220.871V83.028C220.871 81.528 220.115 80.664 218.855 80.664C217.799 80.664 217.199 81.252 216.971 81.924H216.947C216.611 81.036 215.867 80.664 215.051 80.664C214.091 80.664 213.659 81.18 213.383 81.816H213.335V80.808H212.375V87H213.335Z" fill="#0F62FE"/>
<path d="M223.464 87.144C223.968 87.144 224.196 86.856 224.196 86.448V86.292C224.196 85.884 223.968 85.596 223.464 85.596C222.96 85.596 222.732 85.884 222.732 86.292V86.448C222.732 86.856 222.96 87.144 223.464 87.144Z" fill="#0F62FE"/>
<path d="M228.308 87.144C229.484 87.144 230.288 86.568 230.684 85.68L229.988 85.212C229.652 85.92 229.088 86.292 228.308 86.292C227.168 86.292 226.58 85.512 226.58 84.432V83.376C226.58 82.296 227.168 81.516 228.308 81.516C229.064 81.516 229.592 81.888 229.82 82.524L230.624 82.116C230.264 81.264 229.532 80.664 228.308 80.664C226.568 80.664 225.548 81.924 225.548 83.904C225.548 85.884 226.568 87.144 228.308 87.144Z" fill="#0F62FE"/>
<path d="M234.309 87.144C235.965 87.144 237.105 85.872 237.105 83.904C237.105 81.936 235.965 80.664 234.309 80.664C232.653 80.664 231.513 81.936 231.513 83.904C231.513 85.872 232.653 87.144 234.309 87.144ZM234.309 86.292C233.277 86.292 232.545 85.656 232.545 84.348V83.46C232.545 82.152 233.277 81.516 234.309 81.516C235.341 81.516 236.073 82.152 236.073 83.46V84.348C236.073 85.656 235.341 86.292 234.309 86.292Z" fill="#0F62FE"/>
<path d="M239.644 87V82.704C239.644 81.912 240.364 81.528 241.12 81.528C242.032 81.528 242.452 82.092 242.452 83.196V87H243.412V82.704C243.412 81.912 244.108 81.528 244.864 81.528C245.8 81.528 246.22 82.104 246.22 83.196V87H247.18V83.028C247.18 81.528 246.424 80.664 245.164 80.664C244.108 80.664 243.508 81.252 243.28 81.924H243.256C242.92 81.036 242.176 80.664 241.36 80.664C240.4 80.664 239.968 81.18 239.692 81.816H239.644V80.808H238.684V87H239.644Z" fill="#0F62FE"/>
<path d="M59.5877 103V102.16H58.3277V97.648H59.6837V96.808H58.3277V95.092H57.4637V96.244C57.4637 96.664 57.3317 96.808 56.9237 96.808H56.3477V97.648H57.3677V101.98C57.3677 102.58 57.7277 103 58.3877 103H59.5877Z" fill="black"/>
<path d="M61.2267 103H62.1867V98.704C62.1867 97.912 62.9307 97.528 63.6987 97.528C64.6227 97.528 65.1027 98.092 65.1027 99.196V103H66.0627V99.028C66.0627 97.528 65.2587 96.664 63.9867 96.664C63.0627 96.664 62.5347 97.12 62.2347 97.816H62.1867V94.12H61.2267V103Z" fill="black"/>
<path d="M73.087 103V102.16H72.379V98.752C72.379 97.444 71.491 96.664 70.003 96.664C68.887 96.664 68.143 97.216 67.807 97.876L68.383 98.416C68.719 97.852 69.211 97.492 69.955 97.492C70.939 97.492 71.419 97.972 71.419 98.848V99.46H70.195C68.395 99.46 67.555 100.108 67.555 101.272C67.555 102.424 68.323 103.144 69.631 103.144C70.495 103.144 71.155 102.748 71.419 101.992H71.479C71.551 102.568 71.839 103 72.547 103H73.087ZM69.787 102.328C69.043 102.328 68.563 101.98 68.563 101.368V101.116C68.563 100.516 69.055 100.18 70.147 100.18H71.419V101.2C71.419 101.836 70.735 102.328 69.787 102.328Z" fill="black"/>
<path d="M77.0252 103V102.16H75.7652V97.648H77.1212V96.808H75.7652V95.092H74.9012V96.244C74.9012 96.664 74.7692 96.808 74.3612 96.808H73.7852V97.648H74.8052V101.98C74.8052 102.58 75.1652 103 75.8252 103H77.0252Z" fill="black"/>
<path d="M86.5401 103V102.16H85.8321V98.752C85.8321 97.444 84.9441 96.664 83.4561 96.664C82.3401 96.664 81.5961 97.216 81.2601 97.876L81.8361 98.416C82.1721 97.852 82.6641 97.492 83.4081 97.492C84.3921 97.492 84.8721 97.972 84.8721 98.848V99.46H83.6481C81.8481 99.46 81.0081 100.108 81.0081 101.272C81.0081 102.424 81.7761 103.144 83.0841 103.144C83.9481 103.144 84.6081 102.748 84.8721 101.992H84.9321C85.0041 102.568 85.2921 103 86.0001 103H86.5401ZM83.2401 102.328C82.4961 102.328 82.0161 101.98 82.0161 101.368V101.116C82.0161 100.516 82.5081 100.18 83.6001 100.18H84.8721V101.2C84.8721 101.836 84.1881 102.328 83.2401 102.328Z" fill="black"/>
<path d="M87.9103 105.4H88.8703V101.992H88.9183C89.2903 102.76 89.8783 103.144 90.7303 103.144C92.2783 103.144 93.2503 101.884 93.2503 99.904C93.2503 97.924 92.2783 96.664 90.7303 96.664C89.8783 96.664 89.2423 97.036 88.9183 97.816H88.8703V96.808H87.9103V105.4ZM90.4663 102.28C89.5903 102.28 88.8703 101.824 88.8703 101.02V98.716C88.8703 98.032 89.5903 97.528 90.4663 97.528C91.5463 97.528 92.2183 98.272 92.2183 99.376V100.432C92.2183 101.536 91.5463 102.28 90.4663 102.28Z" fill="black"/>
<path d="M94.8712 105.4H95.8312V101.992H95.8792C96.2512 102.76 96.8392 103.144 97.6912 103.144C99.2392 103.144 100.211 101.884 100.211 99.904C100.211 97.924 99.2392 96.664 97.6912 96.664C96.8392 96.664 96.2032 97.036 95.8792 97.816H95.8312V96.808H94.8712V105.4ZM97.4272 102.28C96.5512 102.28 95.8312 101.824 95.8312 101.02V98.716C95.8312 98.032 96.5512 97.528 97.4272 97.528C98.5072 97.528 99.1792 98.272 99.1792 99.376V100.432C99.1792 101.536 98.5072 102.28 97.4272 102.28Z" fill="black"/>
<path d="M104.16 103.144C105.324 103.144 106.212 102.568 106.608 101.728L105.924 101.236C105.6 101.92 105 102.304 104.22 102.304C103.068 102.304 102.384 101.5 102.384 100.432V100.144H106.836V99.688C106.836 97.936 105.816 96.664 104.16 96.664C102.48 96.664 101.376 97.936 101.376 99.904C101.376 101.872 102.48 103.144 104.16 103.144ZM104.16 97.468C105.144 97.468 105.804 98.2 105.804 99.292V99.424H102.384V99.34C102.384 98.26 103.116 97.468 104.16 97.468Z" fill="black"/>
<path d="M113.458 103V102.16H112.75V98.752C112.75 97.444 111.862 96.664 110.374 96.664C109.258 96.664 108.514 97.216 108.178 97.876L108.754 98.416C109.09 97.852 109.582 97.492 110.326 97.492C111.31 97.492 111.79 97.972 111.79 98.848V99.46H110.566C108.766 99.46 107.926 100.108 107.926 101.272C107.926 102.424 108.694 103.144 110.002 103.144C110.866 103.144 111.526 102.748 111.79 101.992H111.85C111.922 102.568 112.21 103 112.918 103H113.458ZM110.158 102.328C109.414 102.328 108.934 101.98 108.934 101.368V101.116C108.934 100.516 109.426 100.18 110.518 100.18H111.79V101.2C111.79 101.836 111.106 102.328 110.158 102.328Z" fill="black"/>
<path d="M115.788 103V98.8C115.788 98.212 116.412 97.768 117.444 97.768H118.008V96.808H117.636C116.628 96.808 116.064 97.36 115.848 97.948H115.788V96.808H114.828V103H115.788Z" fill="black"/>
<path d="M127.11 103V102.16H126.402V98.752C126.402 97.444 125.514 96.664 124.026 96.664C122.91 96.664 122.166 97.216 121.83 97.876L122.406 98.416C122.742 97.852 123.234 97.492 123.978 97.492C124.962 97.492 125.442 97.972 125.442 98.848V99.46H124.218C122.418 99.46 121.578 100.108 121.578 101.272C121.578 102.424 122.346 103.144 123.654 103.144C124.518 103.144 125.178 102.748 125.442 101.992H125.502C125.574 102.568 125.862 103 126.57 103H127.11ZM123.81 102.328C123.066 102.328 122.586 101.98 122.586 101.368V101.116C122.586 100.516 123.078 100.18 124.17 100.18H125.442V101.2C125.442 101.836 124.758 102.328 123.81 102.328Z" fill="black"/>
<path d="M130.353 103V102.16H129.441V94.12H128.481V102.004C128.481 102.58 128.841 103 129.501 103H130.353Z" fill="black"/>
<path d="M134.09 103.144C135.746 103.144 136.886 101.872 136.886 99.904C136.886 97.936 135.746 96.664 134.09 96.664C132.434 96.664 131.294 97.936 131.294 99.904C131.294 101.872 132.434 103.144 134.09 103.144ZM134.09 102.292C133.058 102.292 132.326 101.656 132.326 100.348V99.46C132.326 98.152 133.058 97.516 134.09 97.516C135.122 97.516 135.854 98.152 135.854 99.46V100.348C135.854 101.656 135.122 102.292 134.09 102.292Z" fill="black"/>
<path d="M139.425 103V98.704C139.425 97.912 140.169 97.528 140.937 97.528C141.861 97.528 142.341 98.092 142.341 99.196V103H143.301V99.028C143.301 97.528 142.497 96.664 141.225 96.664C140.301 96.664 139.773 97.12 139.473 97.816H139.425V96.808H138.465V103H139.425Z" fill="black"/>
<path d="M150.505 103.684C150.505 102.664 149.845 102.04 148.309 102.04H146.989C146.425 102.04 146.041 101.944 146.041 101.572C146.041 101.188 146.449 100.984 146.857 100.876C147.037 100.912 147.253 100.936 147.457 100.936C148.873 100.936 149.797 100.06 149.797 98.8C149.797 98.14 149.533 97.588 149.089 97.204V96.808H150.265V95.968H149.341C148.825 95.968 148.621 96.316 148.621 96.796V96.904C148.285 96.748 147.889 96.664 147.445 96.664C146.041 96.664 145.117 97.54 145.117 98.8C145.117 99.664 145.549 100.348 146.281 100.696V100.744C145.657 100.9 145.213 101.2 145.213 101.824C145.213 102.244 145.417 102.52 145.765 102.688V102.82C145.153 102.988 144.781 103.348 144.781 104.02C144.781 104.992 145.573 105.544 147.505 105.544C149.497 105.544 150.505 104.956 150.505 103.684ZM149.605 103.756C149.605 104.428 148.981 104.764 147.913 104.764H147.025C146.053 104.764 145.681 104.32 145.681 103.78C145.681 103.396 145.861 103.12 146.257 102.94H148.321C149.281 102.94 149.605 103.264 149.605 103.756ZM147.457 100.168C146.641 100.168 146.125 99.784 146.125 98.968V98.632C146.125 97.816 146.641 97.432 147.457 97.432C148.273 97.432 148.789 97.816 148.789 98.632V98.968C148.789 99.784 148.273 100.168 147.457 100.168Z" fill="black"/>
<path d="M153.485 103.144C154.901 103.144 155.777 102.412 155.777 101.212C155.777 100.276 155.249 99.676 153.881 99.472L153.401 99.4C152.633 99.28 152.213 99.04 152.213 98.44C152.213 97.852 152.633 97.48 153.425 97.48C154.217 97.48 154.745 97.852 155.021 98.236L155.657 97.66C155.153 97.036 154.493 96.664 153.497 96.664C152.237 96.664 151.289 97.264 151.289 98.488C151.289 99.64 152.141 100.108 153.281 100.276L153.773 100.348C154.589 100.468 154.853 100.84 154.853 101.32C154.853 101.956 154.373 102.328 153.557 102.328C152.777 102.328 152.201 101.98 151.721 101.38L151.037 101.932C151.589 102.664 152.345 103.144 153.485 103.144Z" fill="black"/>
<path d="M157.953 95.356C158.361 95.356 158.541 95.14 158.541 94.816V94.66C158.541 94.336 158.361 94.12 157.953 94.12C157.545 94.12 157.365 94.336 157.365 94.66V94.816C157.365 95.14 157.545 95.356 157.953 95.356ZM157.473 103H158.433V96.808H157.473V103Z" fill="black"/>
<path d="M164.433 103H165.393V94.12H164.433V97.816H164.385C164.061 97.036 163.425 96.664 162.573 96.664C161.025 96.664 160.053 97.924 160.053 99.904C160.053 101.884 161.025 103.144 162.573 103.144C163.425 103.144 164.013 102.76 164.385 101.992H164.433V103ZM162.837 102.28C161.757 102.28 161.085 101.536 161.085 100.432V99.376C161.085 98.272 161.757 97.528 162.837 97.528C163.713 97.528 164.433 98.032 164.433 98.716V101.02C164.433 101.824 163.713 102.28 162.837 102.28Z" fill="black"/>
<path d="M169.762 103.144C170.926 103.144 171.814 102.568 172.21 101.728L171.526 101.236C171.202 101.92 170.602 102.304 169.822 102.304C168.67 102.304 167.986 101.5 167.986 100.432V100.144H172.438V99.688C172.438 97.936 171.418 96.664 169.762 96.664C168.082 96.664 166.978 97.936 166.978 99.904C166.978 101.872 168.082 103.144 169.762 103.144ZM169.762 97.468C170.746 97.468 171.406 98.2 171.406 99.292V99.424H167.986V99.34C167.986 98.26 168.718 97.468 169.762 97.468Z" fill="black"/>
<path d="M179.424 103V102.16H178.164V97.648H179.52V96.808H178.164V95.092H177.3V96.244C177.3 96.664 177.168 96.808 176.76 96.808H176.184V97.648H177.204V101.98C177.204 102.58 177.564 103 178.224 103H179.424Z" fill="black"/>
<path d="M183.344 103.144C184.508 103.144 185.396 102.568 185.792 101.728L185.108 101.236C184.784 101.92 184.184 102.304 183.404 102.304C182.252 102.304 181.568 101.5 181.568 100.432V100.144H186.02V99.688C186.02 97.936 185 96.664 183.344 96.664C181.664 96.664 180.56 97.936 180.56 99.904C180.56 101.872 181.664 103.144 183.344 103.144ZM183.344 97.468C184.328 97.468 184.988 98.2 184.988 99.292V99.424H181.568V99.34C181.568 98.26 182.3 97.468 183.344 97.468Z" fill="black"/>
<path d="M186.693 103H187.761L189.501 100.576H189.537L191.145 103H192.273L190.041 99.808L192.225 96.808H191.157L189.525 99.112H189.489L187.917 96.808H186.789L188.985 99.88L186.693 103Z" fill="black"/>
<path d="M196.111 103V102.16H194.851V97.648H196.207V96.808H194.851V95.092H193.987V96.244C193.987 96.664 193.855 96.808 193.447 96.808H192.871V97.648H193.891V101.98C193.891 102.58 194.251 103 194.911 103H196.111Z" fill="black"/>
<path d="M198.362 103.144C198.866 103.144 199.094 102.856 199.094 102.448V102.292C199.094 101.884 198.866 101.596 198.362 101.596C197.858 101.596 197.63 101.884 197.63 102.292V102.448C197.63 102.856 197.858 103.144 198.362 103.144Z" fill="black"/>
<path fill-rule="evenodd" clip-rule="evenodd" d="M261.75 87.5H254.25C253.836 87.5 253.5 87.1642 253.5 86.75V79.25C253.5 78.8358 253.836 78.5 254.25 78.5H257.625V79.25H254.25V86.75H261.75V83.375H262.5V86.75C262.5 87.1642 262.164 87.5 261.75 87.5ZM259.875 77.75V78.5H261.971L258.75 81.7213L259.279 82.25L262.5 79.0288V81.125H263.25V77.75H259.875Z" fill="#0F62FE"/>
<mask id="mask0_52_6290" style="mask-type:alpha" maskUnits="userSpaceOnUse" x="253" y="77" width="11" height="11">
<path fill-rule="evenodd" clip-rule="evenodd" d="M261.75 87.5H254.25C253.836 87.5 253.5 87.1642 253.5 86.75V79.25C253.5 78.8358 253.836 78.5 254.25 78.5H257.625V79.25H254.25V86.75H261.75V83.375H262.5V86.75C262.5 87.1642 262.164 87.5 261.75 87.5ZM259.875 77.75V78.5H261.971L258.75 81.7213L259.279 82.25L262.5 79.0288V81.125H263.25V77.75H259.875Z" fill="white"/>
</mask>
<g mask="url(#mask0_52_6290)">
</g>
</svg>
