<svg width="320" height="180" viewBox="0 0 320 180" fill="none" xmlns="http://www.w3.org/2000/svg">
<rect x="60" y="41" width="200" height="109" fill="white"/>
<rect x="60" y="29" width="200" height="13" fill="#171717"/>
<rect opacity="0.844385" x="94" y="34.5" width="22" height="3" fill="#C6C6C6"/>
<rect opacity="0.844385" x="67" y="34.5" width="22" height="3" fill="#C6C6C6"/>
<rect opacity="0.844385" x="121" y="34.5" width="22" height="3" fill="#C6C6C6"/>
<rect opacity="0.844385" x="239" y="33" width="5" height="5" fill="#C6C6C6"/>
<rect opacity="0.844385" x="249" y="33" width="5" height="5" fill="#C6C6C6"/>
<g style="mix-blend-mode:multiply">
<rect x="60.5" y="29.5" width="199" height="121" fill="#F4F4F4"/>
<rect x="60.5" y="29.5" width="199" height="121" stroke="#C6C6C6"/>
</g>
<rect x="117" y="60" width="136" height="84" fill="white"/>
<rect x="67" y="51" width="186" height="9" fill="white"/>
<path fill-rule="evenodd" clip-rule="evenodd" d="M196.507 56.2812L197.687 57.4672L197.466 57.6875L196.28 56.5078C195.574 57.0936 194.531 57.0205 193.913 56.3418C193.295 55.663 193.319 54.6183 193.968 53.9691C194.617 53.3199 195.662 53.2956 196.341 53.9137C197.02 54.5319 197.093 55.5744 196.507 56.2812ZM195.187 53.7812C194.41 53.7812 193.78 54.4108 193.78 55.1875C193.78 55.9641 194.41 56.5937 195.187 56.5937C195.963 56.5937 196.593 55.9641 196.593 55.1875C196.593 54.4108 195.963 53.7812 195.187 53.7812Z" fill="black"/>
<mask id="mask0_118_5475" style="mask-type:alpha" maskUnits="userSpaceOnUse" x="193" y="53" width="5" height="5">
<path fill-rule="evenodd" clip-rule="evenodd" d="M196.507 56.2812L197.687 57.4672L197.466 57.6875L196.28 56.5078C195.574 57.0936 194.531 57.0205 193.913 56.3418C193.295 55.663 193.319 54.6183 193.968 53.9691C194.617 53.3199 195.662 53.2956 196.341 53.9137C197.02 54.5319 197.093 55.5744 196.507 56.2812ZM195.187 53.7812C194.41 53.7812 193.78 54.4108 193.78 55.1875C193.78 55.9641 194.41 56.5937 195.187 56.5937C195.963 56.5937 196.593 55.9641 196.593 55.1875C196.593 54.4108 195.963 53.7812 195.187 53.7812Z" fill="white"/>
</mask>
<g mask="url(#mask0_118_5475)">
<rect width="10" height="10" transform="translate(193 53)" fill="#161616"/>
</g>
<path fill-rule="evenodd" clip-rule="evenodd" d="M207.219 55.375V55.625L207.562 55.875C207.688 56 207.688 56.1562 207.625 56.2812L207.281 56.9062C207.219 57 207.125 57.0625 207 57.0625C206.984 57.0625 206.969 57.0547 206.953 57.0469C206.938 57.0391 206.922 57.0312 206.906 57.0312L206.531 56.9062C206.438 56.9687 206.375 57 206.313 57.0312L206.312 57.0312L206.219 57.4375C206.188 57.5938 206.062 57.6875 205.906 57.6875H205.156C205 57.6875 204.875 57.5938 204.844 57.4375L204.75 57.0312C204.691 57.0116 204.645 56.9797 204.603 56.9509C204.578 56.9338 204.555 56.9179 204.531 56.9062L204.156 57.0312C204.125 57.0625 204.094 57.0625 204.062 57.0625C203.938 57.0625 203.844 57 203.812 56.9062L203.438 56.2812C203.344 56.1562 203.375 55.9688 203.5 55.875L203.781 55.6562V55.4062L203.5 55.125C203.375 55 203.344 54.8438 203.406 54.7188L203.781 54.0938C203.844 54 203.938 53.9375 204.062 53.9375H204.156L204.531 54.0625C204.594 54.0312 204.656 54 204.75 53.9688L204.812 53.5625C204.844 53.4062 204.969 53.3125 205.125 53.3125H205.875C206.031 53.3125 206.156 53.4062 206.156 53.5625L206.25 53.9688C206.309 53.9884 206.355 54.0203 206.397 54.0491C206.422 54.0662 206.445 54.0821 206.469 54.0938L206.844 53.9688C206.875 53.9375 206.906 53.9375 206.938 53.9375C207.062 53.9375 207.156 54 207.219 54.0938L207.594 54.7188C207.656 54.8438 207.656 55.0312 207.531 55.125L207.219 55.375ZM206.406 56.5625L206.938 56.75L207.312 56.125L206.875 55.75C206.906 55.5938 206.906 55.4062 206.875 55.25L207.312 54.875L206.938 54.25L206.438 54.4375C206.394 54.4113 206.352 54.385 206.312 54.3595C206.209 54.2937 206.113 54.2325 206 54.1875L205.875 53.625H205.125L205.031 54.1875C204.875 54.25 204.719 54.3125 204.594 54.4375L204.062 54.25L203.688 54.875L204.125 55.25C204.094 55.4062 204.094 55.5938 204.125 55.75L203.688 56.125L204.062 56.75L204.562 56.5625C204.606 56.5887 204.648 56.615 204.688 56.6405C204.791 56.7063 204.887 56.7675 205 56.8125L205.125 57.375H205.875L205.969 56.8125C206.125 56.75 206.281 56.6562 206.406 56.5625Z" fill="black"/>
<rect x="67" y="60" width="50" height="81" fill="white"/>
<rect x="117" y="69" width="136" height="9" fill="#E0E0E0"/>
<rect x="71" y="64" width="13" height="2" fill="#A8A8A8"/>
<rect x="71" y="82" width="13" height="2" fill="#C6C6C6"/>
<rect x="124" y="82" width="19" height="2" fill="#DDE1E6"/>
<rect x="124" y="91" width="19" height="2" fill="#DDE1E6"/>
<rect x="124" y="100" width="19" height="2" fill="#DDE1E6"/>
<rect x="124" y="109" width="19" height="2" fill="#DDE1E6"/>
<rect x="124" y="118" width="19" height="2" fill="#DDE1E6"/>
<rect x="124" y="127" width="19" height="2" fill="#DDE1E6"/>
<rect x="124" y="136" width="19" height="2" fill="#DDE1E6"/>
<rect x="158" y="82" width="19" height="2" fill="#DDE1E6"/>
<rect x="158" y="91" width="19" height="2" fill="#DDE1E6"/>
<rect x="158" y="100" width="19" height="2" fill="#DDE1E6"/>
<rect x="158" y="109" width="19" height="2" fill="#DDE1E6"/>
<rect x="158" y="118" width="19" height="2" fill="#DDE1E6"/>
<rect x="158" y="127" width="19" height="2" fill="#DDE1E6"/>
<rect x="158" y="136" width="19" height="2" fill="#DDE1E6"/>
<rect x="192" y="82" width="19" height="2" fill="#DDE1E6"/>
<rect x="192" y="91" width="19" height="2" fill="#DDE1E6"/>
<rect x="192" y="100" width="19" height="2" fill="#DDE1E6"/>
<rect x="192" y="109" width="19" height="2" fill="#DDE1E6"/>
<rect x="192" y="118" width="19" height="2" fill="#DDE1E6"/>
<rect x="192" y="127" width="19" height="2" fill="#DDE1E6"/>
<rect x="192" y="136" width="19" height="2" fill="#DDE1E6"/>
<rect x="226" y="82" width="19" height="2" fill="#DDE1E6"/>
<rect x="226" y="91" width="19" height="2" fill="#DDE1E6"/>
<rect x="226" y="100" width="19" height="2" fill="#DDE1E6"/>
<rect x="226" y="109" width="19" height="2" fill="#DDE1E6"/>
<rect x="226" y="118" width="19" height="2" fill="#DDE1E6"/>
<rect x="226" y="127" width="19" height="2" fill="#DDE1E6"/>
<rect x="226" y="136" width="19" height="2" fill="#DDE1E6"/>
<rect x="124" y="73" width="19" height="2" fill="#C6C6C6"/>
<rect x="158" y="73" width="19" height="2" fill="#C6C6C6"/>
<rect x="192" y="73" width="19" height="2" fill="#C6C6C6"/>
<rect x="226" y="73" width="19" height="2" fill="#C6C6C6"/>
<rect x="108" y="100" width="4" height="2" fill="#C6C6C6"/>
<rect x="108" y="108" width="4" height="2" fill="#C6C6C6"/>
<rect x="108" y="116" width="4" height="2" fill="#C6C6C6"/>
<rect x="108" y="124" width="4" height="2" fill="#C6C6C6"/>
<rect x="71" y="70" width="41" height="6" fill="#F4F4F4"/>
<path fill-rule="evenodd" clip-rule="evenodd" d="M107.807 73.625L108.75 74.5737L108.574 74.75L107.625 73.8062C107.06 74.2749 106.226 74.2164 105.731 73.6734C105.237 73.1304 105.256 72.2946 105.776 71.7753C106.295 71.256 107.131 71.2364 107.674 71.731C108.217 72.2255 108.275 73.0595 107.807 73.625ZM106.75 71.625C106.129 71.625 105.625 72.1287 105.625 72.75C105.625 73.3713 106.129 73.875 106.75 73.875C107.372 73.875 107.875 73.3713 107.875 72.75C107.875 72.1287 107.372 71.625 106.75 71.625Z" fill="black"/>
<mask id="mask1_118_5475" style="mask-type:alpha" maskUnits="userSpaceOnUse" x="105" y="71" width="4" height="4">
<path fill-rule="evenodd" clip-rule="evenodd" d="M107.807 73.625L108.75 74.5737L108.574 74.75L107.625 73.8062C107.06 74.2749 106.226 74.2164 105.731 73.6734C105.237 73.1304 105.256 72.2946 105.776 71.7753C106.295 71.256 107.131 71.2364 107.674 71.731C108.217 72.2255 108.275 73.0595 107.807 73.625ZM106.75 71.625C106.129 71.625 105.625 72.1287 105.625 72.75C105.625 73.3713 106.129 73.875 106.75 73.875C107.372 73.875 107.875 73.3713 107.875 72.75C107.875 72.1287 107.372 71.625 106.75 71.625Z" fill="white"/>
</mask>
<g mask="url(#mask1_118_5475)">
<rect width="8" height="8" transform="translate(105 71)" fill="#161616"/>
</g>
<rect x="121" y="63" width="24" height="4" rx="2" fill="#E0E0E0"/>
<rect x="123" y="63" width="24" height="4" rx="2" fill="#E0E0E0"/>
<rect x="150" y="63" width="24" height="4" rx="2" fill="#E0E0E0"/>
<rect x="177" y="63" width="14" height="4" rx="2" fill="#E0E0E0"/>
<rect x="213" y="51" width="40" height="9" fill="#0F62FE"/>
<rect x="92" y="135" width="24" height="9" fill="#0F62FE"/>
<rect x="67" y="135" width="24" height="9" fill="#393939"/>
<line x1="116.5" y1="60" x2="116.5" y2="144" stroke="#E0E0E0"/>
<line x1="76.5" y1="51" x2="76.5" y2="61" stroke="#E0E0E0"/>
<line x1="253" y1="60.5" x2="76" y2="60.5" stroke="#E0E0E0"/>
<line x1="112" y1="76.5" x2="71" y2="76.5" stroke="#8D8D8D"/>
<line x1="253" y1="87.5" x2="116" y2="87.5" stroke="#E0E0E0"/>
<line x1="112" y1="87.5" x2="71" y2="87.5" stroke="#E0E0E0"/>
<line x1="112" y1="94.5" x2="71" y2="94.5" stroke="#E0E0E0"/>
<line x1="253" y1="96.5" x2="116" y2="96.5" stroke="#E0E0E0"/>
<line x1="253" y1="105.5" x2="116" y2="105.5" stroke="#E0E0E0"/>
<line x1="253" y1="114.5" x2="116" y2="114.5" stroke="#E0E0E0"/>
<line x1="253" y1="123.5" x2="116" y2="123.5" stroke="#E0E0E0"/>
<line x1="253" y1="132.5" x2="116" y2="132.5" stroke="#E0E0E0"/>
<line x1="253" y1="141.5" x2="116" y2="141.5" stroke="#E0E0E0"/>
<rect opacity="0.891745" x="226" y="64" width="16" height="2" fill="#78A9FF"/>
<path fill-rule="evenodd" clip-rule="evenodd" d="M71.8125 57.375H71.1875C71.0149 57.375 70.875 57.2351 70.875 57.0625V55.8766L69.7172 54.7188C69.6585 54.6604 69.6253 54.5812 69.625 54.4984V53.9375C69.625 53.7649 69.7649 53.625 69.9375 53.625H73.0625C73.2351 53.625 73.375 53.7649 73.375 53.9375V54.4984C73.3747 54.5812 73.3415 54.6604 73.2828 54.7188L72.125 55.8766V57.0625C72.125 57.2351 71.9851 57.375 71.8125 57.375ZM69.9375 53.9375V54.4984L71.1875 55.7484V57.0625H71.8125V55.7484L73.0625 54.4984V53.9375H69.9375Z" fill="black"/>
<rect opacity="0.891745" x="78" y="100" width="21" height="2" fill="#A8A8A8"/>
<rect opacity="0.891745" x="71" y="90" width="21" height="2" fill="#A8A8A8"/>
<rect opacity="0.891745" x="78" y="108" width="21" height="2" fill="#A8A8A8"/>
<rect opacity="0.891745" x="78" y="116" width="21" height="2" fill="#A8A8A8"/>
<rect opacity="0.891745" x="78" y="124" width="21" height="2" fill="#A8A8A8"/>
<path fill-rule="evenodd" clip-rule="evenodd" d="M74.0625 99.625H70.9375C70.7649 99.625 70.625 99.7649 70.625 99.9375V103.062C70.625 103.235 70.7649 103.375 70.9375 103.375H74.0625C74.2351 103.375 74.375 103.235 74.375 103.062V99.9375C74.375 99.7649 74.2351 99.625 74.0625 99.625ZM70.9375 103.062V99.9375H74.0625V103.062H70.9375Z" fill="black"/>
<path fill-rule="evenodd" clip-rule="evenodd" d="M74.0625 115.625H70.9375C70.7649 115.625 70.625 115.765 70.625 115.938V119.062C70.625 119.235 70.7649 119.375 70.9375 119.375H74.0625C74.2351 119.375 74.375 119.235 74.375 119.062V115.938C74.375 115.765 74.2351 115.625 74.0625 115.625ZM70.9375 119.062V115.938H74.0625V119.062H70.9375Z" fill="black"/>
<path fill-rule="evenodd" clip-rule="evenodd" d="M74.0625 123.625H70.9375C70.7649 123.625 70.625 123.765 70.625 123.938V127.062C70.625 127.235 70.7649 127.375 70.9375 127.375H74.0625C74.2351 127.375 74.375 127.235 74.375 127.062V123.938C74.375 123.765 74.2351 123.625 74.0625 123.625ZM70.9375 127.062V123.938H74.0625V127.062H70.9375Z" fill="black"/>
<path fill-rule="evenodd" clip-rule="evenodd" d="M74.0625 107.625H70.9375C70.7649 107.625 70.625 107.765 70.625 107.938V111.062C70.625 111.235 70.7649 111.375 70.9375 111.375H74.0625C74.2351 111.375 74.375 111.235 74.375 111.062V107.938C74.375 107.765 74.2351 107.625 74.0625 107.625ZM72.1875 110.359L71.4062 109.578L71.6547 109.344L72.1875 109.867L73.3453 108.719L73.5938 108.966L72.1875 110.359Z" fill="black"/>
<path fill-rule="evenodd" clip-rule="evenodd" d="M204.6 55.5375C204.6 56.0687 205.006 56.475 205.537 56.475C206.068 56.475 206.475 56.0375 206.475 55.5375C206.475 55.0062 206.068 54.6 205.537 54.6C205.006 54.6 204.6 55.0062 204.6 55.5375ZM204.912 55.5062C204.912 55.1625 205.193 54.9125 205.537 54.9125C205.912 54.9125 206.162 55.1937 206.162 55.5375V55.5687C206.162 55.9125 205.881 56.1625 205.537 56.1625H205.506C205.162 56.1625 204.912 55.8812 204.912 55.5375V55.5062Z" fill="black"/>
<path d="M110 91.75L111.25 90.5L111.073 90.3233L110 91.3965L108.927 90.3233L108.75 90.5L110 91.75V91.75Z" fill="black"/>
<mask id="mask2_118_5475" style="mask-type:alpha" maskUnits="userSpaceOnUse" x="108" y="90" width="4" height="2">
<path d="M110 91.75L111.25 90.5L111.073 90.3233L110 91.3965L108.927 90.3233L108.75 90.5L110 91.75V91.75Z" fill="white"/>
</mask>
<g mask="url(#mask2_118_5475)">
<rect width="10" height="10" transform="matrix(1 0 0 -1 108 93)" fill="black"/>
</g>
<path d="M247 65.75L248.25 64.5L248.073 64.3233L247 65.3965L245.927 64.3233L245.75 64.5L247 65.75V65.75Z" fill="black"/>
<mask id="mask3_118_5475" style="mask-type:alpha" maskUnits="userSpaceOnUse" x="245" y="64" width="4" height="2">
<path d="M247 65.75L248.25 64.5L248.073 64.3233L247 65.3965L245.927 64.3233L245.75 64.5L247 65.75V65.75Z" fill="white"/>
</mask>
<g mask="url(#mask3_118_5475)">
<rect width="10" height="10" transform="matrix(1 0 0 -1 245 67)" fill="black"/>
</g>
<path d="M112.177 65L113 64.1768L112.823 64L112 64.8233L111.177 64L111 64.1768L111.823 65L111 65.8233L111.177 66L112 65.1768L112.823 66L113 65.8233L112.177 65V65Z" fill="black"/>
<mask id="mask4_118_5475" style="mask-type:alpha" maskUnits="userSpaceOnUse" x="111" y="64" width="2" height="2">
<path d="M112.177 65L113 64.1768L112.823 64L112 64.8233L111.177 64L111 64.1768L111.823 65L111 65.8233L111.177 66L112 65.1768L112.823 66L113 65.8233L112.177 65V65Z" fill="white"/>
</mask>
<g mask="url(#mask4_118_5475)">
<rect width="8" height="8" transform="translate(110 63)" fill="#171717"/>
</g>
</svg>
