<svg width="320" height="180" viewBox="0 0 320 180" fill="none" xmlns="http://www.w3.org/2000/svg">
<path d="M120.687 73V72.112H117.123V64.624H116.115V73H120.687Z" fill="#6F6F6F"/>
<path d="M127.574 73V72.16H126.866V68.752C126.866 67.444 125.978 66.664 124.49 66.664C123.374 66.664 122.63 67.216 122.294 67.876L122.87 68.416C123.206 67.852 123.698 67.492 124.442 67.492C125.426 67.492 125.906 67.972 125.906 68.848V69.46H124.682C122.882 69.46 122.042 70.108 122.042 71.272C122.042 72.424 122.81 73.144 124.118 73.144C124.982 73.144 125.642 72.748 125.906 71.992H125.966C126.038 72.568 126.326 73 127.034 73H127.574ZM124.274 72.328C123.53 72.328 123.05 71.98 123.05 71.368V71.116C123.05 70.516 123.542 70.18 124.634 70.18H125.906V71.2C125.906 71.836 125.222 72.328 124.274 72.328Z" fill="#6F6F6F"/>
<path d="M129.458 73H130.418V71.992H130.466C130.838 72.76 131.426 73.144 132.278 73.144C133.826 73.144 134.798 71.884 134.798 69.904C134.798 67.924 133.826 66.664 132.278 66.664C131.426 66.664 130.79 67.036 130.466 67.816H130.418V64.12H129.458V73ZM132.014 72.28C131.138 72.28 130.418 71.824 130.418 71.02V68.716C130.418 68.032 131.138 67.528 132.014 67.528C133.094 67.528 133.766 68.272 133.766 69.376V70.432C133.766 71.536 133.094 72.28 132.014 72.28Z" fill="#6F6F6F"/>
<path d="M139.261 73.144C140.425 73.144 141.313 72.568 141.709 71.728L141.025 71.236C140.701 71.92 140.101 72.304 139.321 72.304C138.169 72.304 137.485 71.5 137.485 70.432V70.144H141.937V69.688C141.937 67.936 140.917 66.664 139.261 66.664C137.581 66.664 136.477 67.936 136.477 69.904C136.477 71.872 137.581 73.144 139.261 73.144ZM139.261 67.468C140.245 67.468 140.905 68.2 140.905 69.292V69.424H137.485V69.34C137.485 68.26 138.217 67.468 139.261 67.468Z" fill="#6F6F6F"/>
<path d="M145.905 73V72.16H144.993V64.12H144.033V72.004C144.033 72.58 144.393 73 145.053 73H145.905Z" fill="#6F6F6F"/>
<path d="M130.315 104V101.928H125.275V84.456H121.607L116.427 89.3L117.799 90.784L122.727 86.192H122.923V101.928H117.463V104H130.315Z" fill="#161616"/>
<path d="M140.188 104.336C144.864 104.336 146.908 100.612 146.908 94.228C146.908 87.844 144.864 84.12 140.188 84.12C135.512 84.12 133.468 87.844 133.468 94.228C133.468 100.612 135.512 104.336 140.188 104.336ZM140.188 102.292C137.136 102.292 135.932 99.604 135.932 95.824V92.632C135.932 88.852 137.136 86.164 140.188 86.164C143.24 86.164 144.444 88.852 144.444 92.632V95.824C144.444 99.604 143.24 102.292 140.188 102.292Z" fill="#161616"/>
<path d="M156.977 104.336C161.653 104.336 163.697 100.612 163.697 94.228C163.697 87.844 161.653 84.12 156.977 84.12C152.301 84.12 150.257 87.844 150.257 94.228C150.257 100.612 152.301 104.336 156.977 104.336ZM156.977 102.292C153.925 102.292 152.721 99.604 152.721 95.824V92.632C152.721 88.852 153.925 86.164 156.977 86.164C160.029 86.164 161.233 88.852 161.233 92.632V95.824C161.233 99.604 160.029 102.292 156.977 102.292Z" fill="#161616"/>
<path d="M169.174 104.336C170.35 104.336 170.882 103.664 170.882 102.712V102.348C170.882 101.396 170.35 100.724 169.174 100.724C167.998 100.724 167.466 101.396 167.466 102.348V102.712C167.466 103.664 167.998 104.336 169.174 104.336Z" fill="#161616"/>
<path d="M181.395 104.336C186.071 104.336 188.115 100.612 188.115 94.228C188.115 87.844 186.071 84.12 181.395 84.12C176.719 84.12 174.675 87.844 174.675 94.228C174.675 100.612 176.719 104.336 181.395 104.336ZM181.395 102.292C178.343 102.292 177.139 99.604 177.139 95.824V92.632C177.139 88.852 178.343 86.164 181.395 86.164C184.447 86.164 185.651 88.852 185.651 92.632V95.824C185.651 99.604 184.447 102.292 181.395 102.292Z" fill="#161616"/>
<path d="M192.164 104H194.404V98.848L196.56 96.636L201.348 104H204.064L198.184 95.264L203.532 89.552H200.816L196.728 93.948L194.516 96.412H194.404V83.28H192.164V104Z" fill="#161616"/>
</svg>
