<svg width="320" height="180" viewBox="0 0 320 180" fill="none" xmlns="http://www.w3.org/2000/svg">
<path fill-rule="evenodd" clip-rule="evenodd" d="M201 85C201 85.5523 200.552 86 200 86C199.448 86 199 85.5523 199 85C199 84.4477 199.448 84 200 84C200.552 84 201 84.4477 201 85ZM201 90C201 90.5523 200.552 91 200 91C199.448 91 199 90.5523 199 90C199 89.4477 199.448 89 200 89C200.552 89 201 89.4477 201 90ZM200 96C200.552 96 201 95.5523 201 95C201 94.4477 200.552 94 200 94C199.448 94 199 94.4477 199 95C199 95.5523 199.448 96 200 96Z" fill="black"/>
<mask id="mask0_77_5917" style="mask-type:alpha" maskUnits="userSpaceOnUse" x="199" y="84" width="2" height="12">
<path fill-rule="evenodd" clip-rule="evenodd" d="M201 85C201 85.5523 200.552 86 200 86C199.448 86 199 85.5523 199 85C199 84.4477 199.448 84 200 84C200.552 84 201 84.4477 201 85ZM201 90C201 90.5523 200.552 91 200 91C199.448 91 199 90.5523 199 90C199 89.4477 199.448 89 200 89C200.552 89 201 89.4477 201 90ZM200 96C200.552 96 201 95.5523 201 95C201 94.4477 200.552 94 200 94C199.448 94 199 94.4477 199 95C199 95.5523 199.448 96 200 96Z" fill="white"/>
</mask>
<g mask="url(#mask0_77_5917)">
<rect width="40" height="40" transform="translate(192 82)" fill="#161616"/>
</g>
<rect x="140" y="70" width="40" height="40" fill="#E0E0E0"/>
<path fill-rule="evenodd" clip-rule="evenodd" d="M164.707 85.086C165.097 85.4766 165.097 86.1094 164.707 86.5L157.207 94H154V90.793L161.5 83.293C161.891 82.9033 162.523 82.9033 162.914 83.293L164.707 85.086ZM166.5 95.5H153.5V96.5H166.5V95.5ZM162.207 83.9995L164 85.793L162.5 87.293L160.707 85.4996L162.207 83.9995ZM155 91.2071V93H156.793L161.793 88L160 86.2067L155 91.2071Z" fill="#161616"/>
<path fill-rule="evenodd" clip-rule="evenodd" d="M120.5 89.5V85.5H119.5V89.5H115.5V90.5H119.5V94.5H120.5V90.5H124.5V89.5H120.5V89.5Z" fill="#161616"/>
<rect width="0" height="4" transform="matrix(1 0 0 -1 160 119)" fill="white" style="mix-blend-mode:multiply"/>
<path d="M156 119L160 115L164 119H156Z" fill="#393939"/>
<rect x="119" y="119" width="81" height="22.001" rx="2" fill="#393939"/>
<rect x="132" y="128" width="55" height="4" fill="#A8A8A8"/>
</svg>
