<svg width="320" height="180" viewBox="0 0 320 180" fill="none" xmlns="http://www.w3.org/2000/svg">
<rect x="56.5" y="78.5" width="157" height="23" fill="#F4F4F4" stroke="#0F62FE"/>
<path fill-rule="evenodd" clip-rule="evenodd" d="M70.4182 91.875L73.2494 94.7213L72.7207 95.25L69.8744 92.4188C68.178 93.8248 65.6761 93.6494 64.1925 92.0204C62.7089 90.3914 62.7674 87.884 64.3254 86.326C65.8834 84.768 68.3908 84.7095 70.0197 86.1931C71.6487 87.6767 71.8242 90.1786 70.4182 91.875ZM67.2494 85.875C65.3855 85.875 63.8744 87.3861 63.8744 89.25C63.8744 91.114 65.3855 92.625 67.2494 92.625C69.1134 92.625 70.6244 91.114 70.6244 89.25C70.6244 87.3861 69.1134 85.875 67.2494 85.875Z" fill="black"/>
<mask id="mask0_77_10375" style="mask-type:alpha" maskUnits="userSpaceOnUse" x="63" y="85" width="11" height="11">
<path fill-rule="evenodd" clip-rule="evenodd" d="M70.4182 91.875L73.2494 94.7213L72.7207 95.25L69.8744 92.4188C68.178 93.8248 65.6761 93.6494 64.1925 92.0204C62.7089 90.3914 62.7674 87.884 64.3254 86.326C65.8834 84.768 68.3908 84.7095 70.0197 86.1931C71.6487 87.6767 71.8242 90.1786 70.4182 91.875ZM67.2494 85.875C65.3855 85.875 63.8744 87.3861 63.8744 89.25C63.8744 91.114 65.3855 92.625 67.2494 92.625C69.1134 92.625 70.6244 91.114 70.6244 89.25C70.6244 87.3861 69.1134 85.875 67.2494 85.875Z" fill="white"/>
</mask>
<g mask="url(#mask0_77_10375)">
<rect width="24" height="24" transform="translate(62 84)" fill="#161616"/>
</g>
<path d="M188.53 90L191 87.5303L190.47 87L188 89.4697L185.53 87L185 87.5303L187.47 90L185 92.4698L185.53 93L188 90.5302L190.47 93L191 92.4698L188.53 90V90Z" fill="black"/>
<mask id="mask1_77_10375" style="mask-type:alpha" maskUnits="userSpaceOnUse" x="185" y="87" width="6" height="6">
<path d="M188.53 90L191 87.5303L190.47 87L188 89.4697L185.53 87L185 87.5303L187.47 90L185 92.4698L185.53 93L188 90.5302L190.47 93L191 92.4698L188.53 90V90Z" fill="white"/>
</mask>
<g mask="url(#mask1_77_10375)">
<rect width="30" height="30" transform="translate(182 84)" fill="#161616"/>
</g>
<rect x="80" y="88" width="55" height="5" fill="#A8A8A8"/>
</svg>
