<svg width="320" height="180" viewBox="0 0 320 180" fill="none" xmlns="http://www.w3.org/2000/svg">
<path fill-rule="evenodd" clip-rule="evenodd" d="M126.999 70.3333C122.949 70.3333 119.666 67.05 119.666 63C119.666 58.9499 122.949 55.6666 126.999 55.6666C131.049 55.6666 134.333 58.9499 134.333 63C134.333 67.05 131.049 70.3333 126.999 70.3333Z" fill="white"/>
<circle cx="127.001" cy="63" r="6.66667" fill="#24A148"/>
<path fill-rule="evenodd" clip-rule="evenodd" d="M130.5 61.0334L129.8 60.3334L126 64.1334L124.2 62.3334L123.5 63.0334L126 65.5334L130.5 61.0334Z" fill="white"/>
<path fill-rule="evenodd" clip-rule="evenodd" d="M126.999 94.3333C122.949 94.3333 119.666 91.05 119.666 87C119.666 82.9499 122.949 79.6666 126.999 79.6666C131.049 79.6666 134.333 82.9499 134.333 87C134.333 91.05 131.049 94.3333 126.999 94.3333Z" fill="white"/>
<circle cx="127.001" cy="87" r="6.66667" fill="#24A148"/>
<path fill-rule="evenodd" clip-rule="evenodd" d="M130.5 85.0334L129.8 84.3334L126 88.1334L124.2 86.3334L123.5 87.0334L126 89.5334L130.5 85.0334Z" fill="white"/>
<path fill-rule="evenodd" clip-rule="evenodd" d="M126.999 118.333C122.949 118.333 119.666 115.05 119.666 111C119.666 106.95 122.949 103.667 126.999 103.667C131.049 103.667 134.333 106.95 134.333 111C134.333 115.05 131.049 118.333 126.999 118.333Z" fill="white"/>
<circle cx="127.001" cy="111" r="6.66667" fill="#24A148"/>
<path fill-rule="evenodd" clip-rule="evenodd" d="M130.5 109.033L129.8 108.333L126 112.133L124.2 110.333L123.5 111.033L126 113.533L130.5 109.033Z" fill="white"/>
<rect x="146" y="60" width="55" height="5" fill="#A8A8A8"/>
<rect x="120" y="36" width="45" height="5" fill="#8D8D8D"/>
<rect x="146" y="85" width="55" height="5" fill="#A8A8A8"/>
<rect x="146" y="109" width="55" height="5" fill="#A8A8A8"/>
<rect x="146" y="133" width="55" height="5" fill="#A8A8A8"/>
<path fill-rule="evenodd" clip-rule="evenodd" d="M127 129C123.134 129 120 132.134 120 136C120 139.866 123.134 143 127 143C130.866 143 134 139.866 134 136C134 134.143 133.263 132.363 131.95 131.05C130.637 129.737 128.857 129 127 129ZM127 142C123.686 142 121 139.314 121 136C121 132.686 123.686 130 127 130C130.314 130 133 132.686 133 136C133 139.314 130.314 142 127 142V142Z" fill="black"/>
</svg>
