<svg width="320" height="180" viewBox="0 0 320 180" fill="none" xmlns="http://www.w3.org/2000/svg">
<path fill-rule="evenodd" clip-rule="evenodd" d="M122.999 97.3333C118.949 97.3333 115.666 94.0501 115.666 90C115.666 85.9499 118.949 82.6667 122.999 82.6667C127.049 82.6667 130.333 85.9499 130.333 90C130.333 94.0501 127.049 97.3333 122.999 97.3333Z" fill="white"/>
<circle cx="123.001" cy="90" r="6.66667" fill="#24A148"/>
<path fill-rule="evenodd" clip-rule="evenodd" d="M126.5 88.0333L125.8 87.3333L122 91.1333L120.2 89.3333L119.5 90.0333L122 92.5333L126.5 88.0333Z" fill="white"/>
<path d="M141.468 94.144C143.268 94.144 144.348 93.16 144.348 91.624C144.348 90.376 143.64 89.656 142.008 89.284L141.324 89.128C140.268 88.888 139.752 88.528 139.752 87.736C139.752 86.836 140.412 86.368 141.48 86.368C142.452 86.368 143.088 86.764 143.544 87.4L144.3 86.848C143.676 85.96 142.788 85.48 141.528 85.48C139.884 85.48 138.756 86.284 138.756 87.772C138.756 89.056 139.596 89.728 141.12 90.076L141.804 90.232C142.908 90.484 143.352 90.88 143.352 91.672C143.352 92.632 142.704 93.256 141.504 93.256C140.532 93.256 139.836 92.836 139.248 92.056L138.504 92.68C139.176 93.592 140.124 94.144 141.468 94.144Z" fill="black"/>
<path d="M148.561 94V93.16H147.301V88.648H148.657V87.808H147.301V86.092H146.437V87.244C146.437 87.664 146.305 87.808 145.897 87.808H145.321V88.648H146.341V92.98C146.341 93.58 146.701 94 147.361 94H148.561Z" fill="black"/>
<path d="M155.24 94V93.16H154.532V89.752C154.532 88.444 153.644 87.664 152.156 87.664C151.04 87.664 150.296 88.216 149.96 88.876L150.536 89.416C150.872 88.852 151.364 88.492 152.108 88.492C153.092 88.492 153.572 88.972 153.572 89.848V90.46H152.348C150.548 90.46 149.708 91.108 149.708 92.272C149.708 93.424 150.476 94.144 151.784 94.144C152.648 94.144 153.308 93.748 153.572 92.992H153.632C153.704 93.568 153.992 94 154.7 94H155.24ZM151.94 93.328C151.196 93.328 150.716 92.98 150.716 92.368V92.116C150.716 91.516 151.208 91.18 152.3 91.18H153.572V92.2C153.572 92.836 152.888 93.328 151.94 93.328Z" fill="black"/>
<path d="M159.178 94V93.16H157.918V88.648H159.274V87.808H157.918V86.092H157.054V87.244C157.054 87.664 156.922 87.808 156.514 87.808H155.938V88.648H156.958V92.98C156.958 93.58 157.318 94 157.978 94H159.178Z" fill="black"/>
<path d="M164.633 94H165.593V87.808H164.633V92.092C164.633 92.908 163.889 93.28 163.133 93.28C162.209 93.28 161.717 92.716 161.717 91.612V87.808H160.757V91.78C160.757 93.28 161.573 94.144 162.845 94.144C163.877 94.144 164.345 93.58 164.585 92.992H164.633V94Z" fill="black"/>
<path d="M169.497 94.144C170.913 94.144 171.789 93.412 171.789 92.212C171.789 91.276 171.261 90.676 169.893 90.472L169.413 90.4C168.645 90.28 168.225 90.04 168.225 89.44C168.225 88.852 168.645 88.48 169.437 88.48C170.229 88.48 170.757 88.852 171.033 89.236L171.669 88.66C171.165 88.036 170.505 87.664 169.509 87.664C168.249 87.664 167.301 88.264 167.301 89.488C167.301 90.64 168.153 91.108 169.293 91.276L169.785 91.348C170.601 91.468 170.865 91.84 170.865 92.32C170.865 92.956 170.385 93.328 169.569 93.328C168.789 93.328 168.213 92.98 167.733 92.38L167.049 92.932C167.601 93.664 168.357 94.144 169.497 94.144Z" fill="black"/>
<path d="M178.193 94V93.16H177.281V85.12H176.321V93.004C176.321 93.58 176.681 94 177.341 94H178.193Z" fill="black"/>
<path d="M184.63 94V93.16H183.922V89.752C183.922 88.444 183.034 87.664 181.546 87.664C180.43 87.664 179.686 88.216 179.35 88.876L179.926 89.416C180.262 88.852 180.754 88.492 181.498 88.492C182.482 88.492 182.962 88.972 182.962 89.848V90.46H181.738C179.938 90.46 179.098 91.108 179.098 92.272C179.098 93.424 179.866 94.144 181.174 94.144C182.038 94.144 182.698 93.748 182.962 92.992H183.022C183.094 93.568 183.382 94 184.09 94H184.63ZM181.33 93.328C180.586 93.328 180.106 92.98 180.106 92.368V92.116C180.106 91.516 180.598 91.18 181.69 91.18H182.962V92.2C182.962 92.836 182.278 93.328 181.33 93.328Z" fill="black"/>
<path d="M186 94H186.96V92.992H187.008C187.38 93.76 187.968 94.144 188.82 94.144C190.368 94.144 191.34 92.884 191.34 90.904C191.34 88.924 190.368 87.664 188.82 87.664C187.968 87.664 187.332 88.036 187.008 88.816H186.96V85.12H186V94ZM188.556 93.28C187.68 93.28 186.96 92.824 186.96 92.02V89.716C186.96 89.032 187.68 88.528 188.556 88.528C189.636 88.528 190.308 89.272 190.308 90.376V91.432C190.308 92.536 189.636 93.28 188.556 93.28Z" fill="black"/>
<path d="M195.289 94.144C196.453 94.144 197.341 93.568 197.737 92.728L197.053 92.236C196.729 92.92 196.129 93.304 195.349 93.304C194.197 93.304 193.513 92.5 193.513 91.432V91.144H197.965V90.688C197.965 88.936 196.945 87.664 195.289 87.664C193.609 87.664 192.505 88.936 192.505 90.904C192.505 92.872 193.609 94.144 195.289 94.144ZM195.289 88.468C196.273 88.468 196.933 89.2 196.933 90.292V90.424H193.513V90.34C193.513 89.26 194.245 88.468 195.289 88.468Z" fill="black"/>
<path d="M201.419 94V93.16H200.507V85.12H199.547V93.004C199.547 93.58 199.907 94 200.567 94H201.419Z" fill="black"/>
</svg>
