<svg width="320" height="180" viewBox="0 0 320 180" fill="none" xmlns="http://www.w3.org/2000/svg">
<path d="M68.5801 85.2102V84.2727H75.1255V85.2102H72.3812V93H71.3244V85.2102H68.5801Z" fill="black"/>
<path d="M75.9405 93V86.4546H76.9121V87.4432H76.9803C77.0996 87.1193 77.3155 86.8565 77.628 86.6548C77.9405 86.4531 78.2928 86.3523 78.6848 86.3523C78.7587 86.3523 78.851 86.3537 78.9618 86.3565C79.0726 86.3594 79.1564 86.3636 79.2132 86.3693V87.3921C79.1792 87.3835 79.101 87.3707 78.9789 87.3537C78.8596 87.3338 78.7331 87.3239 78.5996 87.3239C78.2814 87.3239 77.9973 87.3906 77.7473 87.5242C77.5002 87.6548 77.3042 87.8367 77.1593 88.0696C77.0172 88.2997 76.9462 88.5625 76.9462 88.858V93H75.9405Z" fill="black"/>
<path d="M84.5304 90.3239V86.4546H85.536V93H84.5304V91.8921H84.4622C84.3088 92.2244 84.0701 92.5071 83.7463 92.7401C83.4224 92.9702 83.0133 93.0852 82.519 93.0852C82.1099 93.0852 81.7463 92.9958 81.4281 92.8168C81.1099 92.635 80.8599 92.3622 80.6781 91.9986C80.4963 91.6321 80.4054 91.1705 80.4054 90.6136V86.4546H81.411V90.5455C81.411 91.0227 81.5446 91.4034 81.8116 91.6875C82.0815 91.9716 82.4252 92.1136 82.8429 92.1136C83.0929 92.1136 83.3471 92.0497 83.6056 91.9219C83.867 91.794 84.0858 91.598 84.2619 91.3338C84.4409 91.0696 84.5304 90.733 84.5304 90.3239Z" fill="black"/>
<path d="M88.3837 89.0625V93H87.378V86.4546H88.3496V87.4773H88.4348C88.5882 87.1449 88.8212 86.8779 89.1337 86.6761C89.4462 86.4716 89.8496 86.3693 90.3439 86.3693C90.7871 86.3693 91.1749 86.4602 91.5073 86.6421C91.8397 86.821 92.0982 87.0938 92.2828 87.4602C92.4675 87.8239 92.5598 88.2841 92.5598 88.8409V93H91.5542V88.9091C91.5542 88.3949 91.4206 87.9943 91.1536 87.7074C90.8865 87.4176 90.5201 87.2727 90.0542 87.2727C89.7331 87.2727 89.4462 87.3423 89.1934 87.4815C88.9434 87.6208 88.7459 87.8239 88.601 88.0909C88.4561 88.358 88.3837 88.6818 88.3837 89.0625Z" fill="black"/>
<path d="M97.0566 93.1364C96.443 93.1364 95.9146 92.9915 95.4714 92.7017C95.0282 92.4119 94.6873 92.0128 94.4487 91.5043C94.2101 90.9958 94.0907 90.4148 94.0907 89.7614C94.0907 89.0966 94.2129 88.51 94.4572 88.0014C94.7044 87.4901 95.0481 87.0909 95.4885 86.804C95.9316 86.5142 96.4487 86.3693 97.0396 86.3693C97.4998 86.3693 97.9146 86.4546 98.2839 86.625C98.6532 86.7955 98.9558 87.0341 99.1916 87.3409C99.4274 87.6477 99.5737 88.0057 99.6305 88.4148H98.6248C98.5481 88.1165 98.3777 87.8523 98.1135 87.6222C97.8521 87.3892 97.4998 87.2727 97.0566 87.2727C96.6646 87.2727 96.3208 87.375 96.0254 87.5796C95.7328 87.7813 95.5041 88.0668 95.3393 88.4361C95.1774 88.8026 95.0964 89.233 95.0964 89.7273C95.0964 90.233 95.176 90.6733 95.3351 91.0483C95.497 91.4233 95.7243 91.7145 96.0169 91.9219C96.3123 92.1293 96.6589 92.233 97.0566 92.233C97.318 92.233 97.5552 92.1875 97.7683 92.0966C97.9814 92.0057 98.1618 91.875 98.3095 91.7046C98.4572 91.5341 98.5623 91.3296 98.6248 91.0909H99.6305C99.5737 91.4773 99.4331 91.8253 99.2086 92.135C98.987 92.4418 98.693 92.6861 98.3265 92.8679C97.9629 93.0469 97.5396 93.1364 97.0566 93.1364Z" fill="black"/>
<path d="M103.027 93.1534C102.612 93.1534 102.236 93.0753 101.898 92.919C101.559 92.76 101.291 92.5313 101.092 92.233C100.893 91.9318 100.794 91.5682 100.794 91.1421C100.794 90.7671 100.868 90.4631 101.015 90.2301C101.163 89.9943 101.361 89.8097 101.608 89.6761C101.855 89.5426 102.128 89.4432 102.426 89.3779C102.727 89.3097 103.03 89.2557 103.334 89.2159C103.731 89.1648 104.054 89.1264 104.301 89.1009C104.551 89.0725 104.733 89.0256 104.846 88.9602C104.963 88.8949 105.021 88.7813 105.021 88.6193V88.5852C105.021 88.1648 104.906 87.8381 104.676 87.6051C104.449 87.3722 104.104 87.2557 103.64 87.2557C103.16 87.2557 102.784 87.3608 102.511 87.571C102.238 87.7813 102.047 88.0057 101.936 88.2443L100.981 87.9034C101.152 87.5057 101.379 87.196 101.663 86.9744C101.95 86.75 102.263 86.5938 102.601 86.5057C102.942 86.4148 103.277 86.3693 103.606 86.3693C103.817 86.3693 104.058 86.3949 104.331 86.446C104.606 86.4943 104.872 86.5952 105.128 86.7486C105.386 86.902 105.601 87.1335 105.771 87.4432C105.942 87.7529 106.027 88.1676 106.027 88.6875V93H105.021V92.1136H104.97C104.902 92.2557 104.788 92.4077 104.629 92.5696C104.47 92.7315 104.258 92.8693 103.994 92.983C103.73 93.0966 103.407 93.1534 103.027 93.1534ZM103.18 92.25C103.578 92.25 103.913 92.1719 104.186 92.0156C104.461 91.8594 104.669 91.6577 104.808 91.4105C104.95 91.1634 105.021 90.9034 105.021 90.6307V89.7102C104.979 89.7614 104.885 89.8082 104.74 89.8509C104.598 89.8906 104.433 89.9261 104.246 89.9574C104.061 89.9858 103.881 90.0114 103.704 90.0341C103.531 90.054 103.39 90.071 103.282 90.0852C103.021 90.1193 102.777 90.1747 102.55 90.2514C102.325 90.3253 102.143 90.4375 102.004 90.5881C101.868 90.7358 101.8 90.9375 101.8 91.1932C101.8 91.5426 101.929 91.8068 102.187 91.9858C102.449 92.1619 102.78 92.25 103.18 92.25Z" fill="black"/>
<path d="M110.709 86.4546V87.3068H107.317V86.4546H110.709ZM108.306 84.8864H109.311V91.125C109.311 91.4091 109.352 91.6222 109.435 91.7642C109.52 91.9034 109.628 91.9972 109.759 92.0455C109.892 92.0909 110.033 92.1136 110.181 92.1136C110.291 92.1136 110.382 92.108 110.453 92.0966C110.524 92.0824 110.581 92.071 110.624 92.0625L110.828 92.9659C110.76 92.9915 110.665 93.0171 110.543 93.0426C110.421 93.071 110.266 93.0852 110.078 93.0852C109.794 93.0852 109.516 93.0242 109.243 92.902C108.973 92.7798 108.749 92.5938 108.57 92.3438C108.394 92.0938 108.306 91.7784 108.306 91.3977V84.8864Z" fill="black"/>
<path d="M112.222 93V86.4546H113.227V93H112.222ZM112.733 85.3636C112.537 85.3636 112.368 85.2969 112.226 85.1634C112.087 85.0298 112.017 84.8693 112.017 84.6818C112.017 84.4943 112.087 84.3338 112.226 84.2003C112.368 84.0668 112.537 84 112.733 84C112.929 84 113.097 84.0668 113.236 84.2003C113.378 84.3338 113.449 84.4943 113.449 84.6818C113.449 84.8693 113.378 85.0298 113.236 85.1634C113.097 85.2969 112.929 85.3636 112.733 85.3636Z" fill="black"/>
<path d="M117.729 93.1364C117.138 93.1364 116.619 92.9958 116.173 92.7145C115.73 92.4333 115.383 92.0398 115.133 91.5341C114.886 91.0284 114.763 90.4375 114.763 89.7614C114.763 89.0796 114.886 88.4844 115.133 87.9759C115.383 87.4673 115.73 87.0725 116.173 86.7912C116.619 86.51 117.138 86.3693 117.729 86.3693C118.319 86.3693 118.836 86.51 119.28 86.7912C119.726 87.0725 120.072 87.4673 120.319 87.9759C120.569 88.4844 120.694 89.0796 120.694 89.7614C120.694 90.4375 120.569 91.0284 120.319 91.5341C120.072 92.0398 119.726 92.4333 119.28 92.7145C118.836 92.9958 118.319 93.1364 117.729 93.1364ZM117.729 92.233C118.177 92.233 118.547 92.1179 118.836 91.8878C119.126 91.6577 119.341 91.3551 119.48 90.9801C119.619 90.6051 119.689 90.1989 119.689 89.7614C119.689 89.3239 119.619 88.9162 119.48 88.5384C119.341 88.1605 119.126 87.8551 118.836 87.6222C118.547 87.3892 118.177 87.2727 117.729 87.2727C117.28 87.2727 116.91 87.3892 116.621 87.6222C116.331 87.8551 116.116 88.1605 115.977 88.5384C115.838 88.9162 115.768 89.3239 115.768 89.7614C115.768 90.1989 115.838 90.6051 115.977 90.9801C116.116 91.3551 116.331 91.6577 116.621 91.8878C116.91 92.1179 117.28 92.233 117.729 92.233Z" fill="black"/>
<path d="M123.235 89.0625V93H122.23V86.4546H123.201V87.4773H123.286C123.44 87.1449 123.673 86.8779 123.985 86.6761C124.298 86.4716 124.701 86.3693 125.195 86.3693C125.639 86.3693 126.026 86.4602 126.359 86.6421C126.691 86.821 126.95 87.0938 127.134 87.4602C127.319 87.8239 127.411 88.2841 127.411 88.8409V93H126.406V88.9091C126.406 88.3949 126.272 87.9943 126.005 87.7074C125.738 87.4176 125.372 87.2727 124.906 87.2727C124.585 87.2727 124.298 87.3423 124.045 87.4815C123.795 87.6208 123.597 87.8239 123.453 88.0909C123.308 88.358 123.235 88.6818 123.235 89.0625Z" fill="black"/>
<path d="M134.55 93.1534C134.135 93.1534 133.759 93.0753 133.421 92.919C133.083 92.76 132.814 92.5313 132.616 92.233C132.417 91.9318 132.317 91.5682 132.317 91.1421C132.317 90.7671 132.391 90.4631 132.539 90.2301C132.687 89.9943 132.884 89.8097 133.131 89.6761C133.378 89.5426 133.651 89.4432 133.949 89.3779C134.251 89.3097 134.553 89.2557 134.857 89.2159C135.255 89.1648 135.577 89.1264 135.824 89.1009C136.074 89.0725 136.256 89.0256 136.37 88.9602C136.486 88.8949 136.545 88.7813 136.545 88.6193V88.5852C136.545 88.1648 136.43 87.8381 136.199 87.6051C135.972 87.3722 135.627 87.2557 135.164 87.2557C134.684 87.2557 134.307 87.3608 134.035 87.571C133.762 87.7813 133.57 88.0057 133.459 88.2443L132.505 87.9034C132.675 87.5057 132.903 87.196 133.187 86.9744C133.474 86.75 133.786 86.5938 134.124 86.5057C134.465 86.4148 134.8 86.3693 135.13 86.3693C135.34 86.3693 135.581 86.3949 135.854 86.446C136.13 86.4943 136.395 86.5952 136.651 86.7486C136.91 86.902 137.124 87.1335 137.295 87.4432C137.465 87.7529 137.55 88.1676 137.55 88.6875V93H136.545V92.1136H136.493C136.425 92.2557 136.312 92.4077 136.153 92.5696C135.993 92.7315 135.782 92.8693 135.518 92.983C135.253 93.0966 134.931 93.1534 134.55 93.1534ZM134.704 92.25C135.101 92.25 135.437 92.1719 135.709 92.0156C135.985 91.8594 136.192 91.6577 136.331 91.4105C136.474 91.1634 136.545 90.9034 136.545 90.6307V89.7102C136.502 89.7614 136.408 89.8082 136.263 89.8509C136.121 89.8906 135.956 89.9261 135.769 89.9574C135.584 89.9858 135.404 90.0114 135.228 90.0341C135.055 90.054 134.914 90.071 134.806 90.0852C134.545 90.1193 134.3 90.1747 134.073 90.2514C133.849 90.3253 133.667 90.4375 133.528 90.5881C133.391 90.7358 133.323 90.9375 133.323 91.1932C133.323 91.5426 133.452 91.8068 133.711 91.9858C133.972 92.1619 134.303 92.25 134.704 92.25Z" fill="black"/>
<path d="M140.392 89.0625V93H139.386V86.4546H140.357V87.4773H140.443C140.596 87.1449 140.829 86.8779 141.142 86.6761C141.454 86.4716 141.857 86.3693 142.352 86.3693C142.795 86.3693 143.183 86.4602 143.515 86.6421C143.847 86.821 144.106 87.0938 144.291 87.4602C144.475 87.8239 144.568 88.2841 144.568 88.8409V93H143.562V88.9091C143.562 88.3949 143.428 87.9943 143.161 87.7074C142.894 87.4176 142.528 87.2727 142.062 87.2727C141.741 87.2727 141.454 87.3423 141.201 87.4815C140.951 87.6208 140.754 87.8239 140.609 88.0909C140.464 88.358 140.392 88.6818 140.392 89.0625Z" fill="black"/>
<path d="M148.877 93.1364C148.331 93.1364 147.85 92.9986 147.432 92.723C147.015 92.4446 146.688 92.0526 146.452 91.5469C146.216 91.0384 146.099 90.4375 146.099 89.7443C146.099 89.0568 146.216 88.4602 146.452 87.9546C146.688 87.4489 147.016 87.0583 147.437 86.7827C147.857 86.5071 148.343 86.3693 148.894 86.3693C149.32 86.3693 149.657 86.4404 149.904 86.5824C150.154 86.7216 150.344 86.8807 150.475 87.0597C150.608 87.2358 150.712 87.3807 150.786 87.4943H150.871V84.2727H151.877V93H150.905V91.9943H150.786C150.712 92.1136 150.607 92.2642 150.471 92.446C150.334 92.625 150.14 92.7855 149.887 92.9276C149.634 93.0668 149.297 93.1364 148.877 93.1364ZM149.013 92.233C149.417 92.233 149.758 92.1279 150.036 91.9176C150.314 91.7046 150.526 91.4105 150.671 91.0355C150.816 90.6577 150.888 90.2216 150.888 89.7273C150.888 89.2386 150.817 88.8111 150.675 88.4446C150.533 88.0753 150.323 87.7884 150.045 87.5838C149.766 87.3764 149.422 87.2727 149.013 87.2727C148.587 87.2727 148.232 87.3821 147.948 87.6009C147.667 87.8168 147.455 88.1108 147.313 88.483C147.174 88.8523 147.104 89.2671 147.104 89.7273C147.104 90.1932 147.175 90.6165 147.317 90.9972C147.462 91.375 147.675 91.6761 147.956 91.9006C148.241 92.1222 148.593 92.233 149.013 92.233Z" fill="black"/>
<path d="M160.08 86.4546V87.3068H156.688V86.4546H160.08ZM157.677 84.8864H158.682V91.125C158.682 91.4091 158.724 91.6222 158.806 91.7642C158.891 91.9034 158.999 91.9972 159.13 92.0455C159.263 92.0909 159.404 92.1136 159.552 92.1136C159.662 92.1136 159.753 92.108 159.824 92.0966C159.895 92.0824 159.952 92.071 159.995 92.0625L160.199 92.9659C160.131 92.9915 160.036 93.0171 159.914 93.0426C159.792 93.071 159.637 93.0852 159.449 93.0852C159.165 93.0852 158.887 93.0242 158.614 92.902C158.344 92.7798 158.12 92.5938 157.941 92.3438C157.765 92.0938 157.677 91.7784 157.677 91.3977V84.8864Z" fill="black"/>
<path d="M164.267 93.1364C163.636 93.1364 163.092 92.9972 162.635 92.7188C162.18 92.4375 161.829 92.0455 161.582 91.5426C161.338 91.0369 161.216 90.4489 161.216 89.7784C161.216 89.108 161.338 88.5171 161.582 88.0057C161.829 87.4915 162.173 87.0909 162.613 86.804C163.057 86.5142 163.574 86.3693 164.165 86.3693C164.506 86.3693 164.842 86.4261 165.175 86.5398C165.507 86.6534 165.809 86.8381 166.082 87.0938C166.355 87.3466 166.572 87.6818 166.734 88.0994C166.896 88.5171 166.977 89.0313 166.977 89.6421V90.0682H161.932V89.1989H165.954C165.954 88.8296 165.881 88.5 165.733 88.2102C165.588 87.9205 165.381 87.6918 165.111 87.5242C164.844 87.3565 164.528 87.2727 164.165 87.2727C163.764 87.2727 163.417 87.3722 163.125 87.571C162.835 87.7671 162.612 88.0227 162.456 88.3381C162.3 88.6534 162.221 88.9915 162.221 89.3523V89.9318C162.221 90.4261 162.307 90.8452 162.477 91.1889C162.65 91.5298 162.89 91.7898 163.197 91.9688C163.504 92.1449 163.861 92.233 164.267 92.233C164.531 92.233 164.77 92.196 164.983 92.1222C165.199 92.0455 165.385 91.9318 165.541 91.7813C165.697 91.6279 165.818 91.4375 165.903 91.2102L166.875 91.483C166.773 91.8125 166.601 92.1023 166.359 92.3523C166.118 92.5994 165.819 92.7926 165.464 92.9318C165.109 93.0682 164.71 93.1364 164.267 93.1364Z" fill="black"/>
<path d="M169.081 86.4546L170.649 89.1307L172.218 86.4546H173.377L171.263 89.7273L173.377 93H172.218L170.649 90.4602L169.081 93H167.922L170.002 89.7273L167.922 86.4546H169.081Z" fill="black"/>
<path d="M177.658 86.4546V87.3068H174.266V86.4546H177.658ZM175.255 84.8864H176.26V91.125C176.26 91.4091 176.302 91.6222 176.384 91.7642C176.469 91.9034 176.577 91.9972 176.708 92.0455C176.841 92.0909 176.982 92.1136 177.13 92.1136C177.241 92.1136 177.331 92.108 177.403 92.0966C177.474 92.0824 177.53 92.071 177.573 92.0625L177.778 92.9659C177.709 92.9915 177.614 93.0171 177.492 93.0426C177.37 93.071 177.215 93.0852 177.028 93.0852C176.743 93.0852 176.465 93.0242 176.192 92.902C175.922 92.7798 175.698 92.5938 175.519 92.3438C175.343 92.0938 175.255 91.7784 175.255 91.3977V84.8864Z" fill="black"/>
<path d="M185.461 86.4546V87.3068H181.932V86.4546H185.461ZM182.989 93V85.5511C182.989 85.1761 183.077 84.8636 183.253 84.6136C183.43 84.3636 183.658 84.1761 183.939 84.0511C184.221 83.9261 184.518 83.8636 184.83 83.8636C185.077 83.8636 185.279 83.8835 185.435 83.9233C185.591 83.9631 185.708 84 185.785 84.0341L185.495 84.9034C185.444 84.8864 185.373 84.8651 185.282 84.8395C185.194 84.8139 185.077 84.8011 184.932 84.8011C184.6 84.8011 184.36 84.885 184.212 85.0526C184.067 85.2202 183.995 85.4659 183.995 85.7898V93H182.989Z" fill="black"/>
<path d="M189.26 93.1364C188.669 93.1364 188.15 92.9958 187.704 92.7145C187.261 92.4333 186.915 92.0398 186.665 91.5341C186.417 91.0284 186.294 90.4375 186.294 89.7614C186.294 89.0796 186.417 88.4844 186.665 87.9759C186.915 87.4673 187.261 87.0725 187.704 86.7912C188.15 86.51 188.669 86.3693 189.26 86.3693C189.851 86.3693 190.368 86.51 190.811 86.7912C191.257 87.0725 191.604 87.4673 191.851 87.9759C192.101 88.4844 192.226 89.0796 192.226 89.7614C192.226 90.4375 192.101 91.0284 191.851 91.5341C191.604 92.0398 191.257 92.4333 190.811 92.7145C190.368 92.9958 189.851 93.1364 189.26 93.1364ZM189.26 92.233C189.709 92.233 190.078 92.1179 190.368 91.8878C190.657 91.6577 190.872 91.3551 191.011 90.9801C191.15 90.6051 191.22 90.1989 191.22 89.7614C191.22 89.3239 191.15 88.9162 191.011 88.5384C190.872 88.1605 190.657 87.8551 190.368 87.6222C190.078 87.3892 189.709 87.2727 189.26 87.2727C188.811 87.2727 188.442 87.3892 188.152 87.6222C187.862 87.8551 187.648 88.1605 187.508 88.5384C187.369 88.9162 187.3 89.3239 187.3 89.7614C187.3 90.1989 187.369 90.6051 187.508 90.9801C187.648 91.3551 187.862 91.6577 188.152 91.8878C188.442 92.1179 188.811 92.233 189.26 92.233Z" fill="black"/>
<path d="M193.761 93V86.4546H194.732V87.4432H194.801C194.92 87.1193 195.136 86.8565 195.448 86.6548C195.761 86.4531 196.113 86.3523 196.505 86.3523C196.579 86.3523 196.671 86.3537 196.782 86.3565C196.893 86.3594 196.977 86.3636 197.034 86.3693V87.3921C196.999 87.3835 196.921 87.3707 196.799 87.3537C196.68 87.3338 196.553 87.3239 196.42 87.3239C196.102 87.3239 195.818 87.3906 195.568 87.5242C195.32 87.6548 195.124 87.8367 194.98 88.0696C194.838 88.2997 194.767 88.5625 194.767 88.858V93H193.761Z" fill="black"/>
<path d="M198.226 93V86.4546H199.197V87.4773H199.282C199.419 87.1279 199.639 86.8565 199.943 86.6634C200.247 86.4673 200.612 86.3693 201.038 86.3693C201.47 86.3693 201.829 86.4673 202.116 86.6634C202.406 86.8565 202.632 87.1279 202.794 87.4773H202.862C203.03 87.1392 203.281 86.8708 203.616 86.6719C203.952 86.4702 204.354 86.3693 204.822 86.3693C205.407 86.3693 205.886 86.5526 206.258 86.919C206.631 87.2827 206.817 87.8494 206.817 88.6193V93H205.811V88.6193C205.811 88.1364 205.679 87.7912 205.415 87.5838C205.15 87.3764 204.839 87.2727 204.481 87.2727C204.021 87.2727 203.665 87.4119 203.412 87.6904C203.159 87.9659 203.032 88.3154 203.032 88.7386V93H202.01V88.5171C202.01 88.1449 201.889 87.8452 201.648 87.6179C201.406 87.3878 201.095 87.2727 200.714 87.2727C200.453 87.2727 200.209 87.3423 199.981 87.4815C199.757 87.6208 199.575 87.8139 199.436 88.0611C199.3 88.3054 199.231 88.5881 199.231 88.9091V93H198.226Z" fill="black"/>
<path d="M210.581 93.1534C210.167 93.1534 209.79 93.0753 209.452 92.919C209.114 92.76 208.846 92.5313 208.647 92.233C208.448 91.9318 208.349 91.5682 208.349 91.1421C208.349 90.7671 208.422 90.4631 208.57 90.2301C208.718 89.9943 208.915 89.8097 209.162 89.6761C209.41 89.5426 209.682 89.4432 209.981 89.3779C210.282 89.3097 210.584 89.2557 210.888 89.2159C211.286 89.1648 211.608 89.1264 211.856 89.1009C212.106 89.0725 212.287 89.0256 212.401 88.9602C212.518 88.8949 212.576 88.7813 212.576 88.6193V88.5852C212.576 88.1648 212.461 87.8381 212.231 87.6051C212.003 87.3722 211.658 87.2557 211.195 87.2557C210.715 87.2557 210.339 87.3608 210.066 87.571C209.793 87.7813 209.601 88.0057 209.491 88.2443L208.536 87.9034C208.706 87.5057 208.934 87.196 209.218 86.9744C209.505 86.75 209.817 86.5938 210.155 86.5057C210.496 86.4148 210.831 86.3693 211.161 86.3693C211.371 86.3693 211.613 86.3949 211.885 86.446C212.161 86.4943 212.427 86.5952 212.682 86.7486C212.941 86.902 213.155 87.1335 213.326 87.4432C213.496 87.7529 213.581 88.1676 213.581 88.6875V93H212.576V92.1136H212.525C212.456 92.2557 212.343 92.4077 212.184 92.5696C212.025 92.7315 211.813 92.8693 211.549 92.983C211.285 93.0966 210.962 93.1534 210.581 93.1534ZM210.735 92.25C211.133 92.25 211.468 92.1719 211.741 92.0156C212.016 91.8594 212.224 91.6577 212.363 91.4105C212.505 91.1634 212.576 90.9034 212.576 90.6307V89.7102C212.533 89.7614 212.439 89.8082 212.295 89.8509C212.153 89.8906 211.988 89.9261 211.8 89.9574C211.616 89.9858 211.435 90.0114 211.259 90.0341C211.086 90.054 210.945 90.071 210.837 90.0852C210.576 90.1193 210.332 90.1747 210.104 90.2514C209.88 90.3253 209.698 90.4375 209.559 90.5881C209.422 90.7358 209.354 90.9375 209.354 91.1932C209.354 91.5426 209.483 91.8068 209.742 91.9858C210.003 92.1619 210.334 92.25 210.735 92.25Z" fill="black"/>
<path d="M218.264 86.4546V87.3068H214.872V86.4546H218.264ZM215.86 84.8864H216.866V91.125C216.866 91.4091 216.907 91.6222 216.99 91.7642C217.075 91.9034 217.183 91.9972 217.313 92.0455C217.447 92.0909 217.588 92.1136 217.735 92.1136C217.846 92.1136 217.937 92.108 218.008 92.0966C218.079 92.0824 218.136 92.071 218.178 92.0625L218.383 92.9659C218.315 92.9915 218.22 93.0171 218.097 93.0426C217.975 93.071 217.82 93.0852 217.633 93.0852C217.349 93.0852 217.07 93.0242 216.798 92.902C216.528 92.7798 216.303 92.5938 216.124 92.3438C215.948 92.0938 215.86 91.7784 215.86 91.3977V84.8864Z" fill="black"/>
<path d="M222.623 86.4546V87.3068H219.231V86.4546H222.623ZM220.22 84.8864H221.225V91.125C221.225 91.4091 221.267 91.6222 221.349 91.7642C221.434 91.9034 221.542 91.9972 221.673 92.0455C221.806 92.0909 221.947 92.1136 222.095 92.1136C222.205 92.1136 222.296 92.108 222.367 92.0966C222.438 92.0824 222.495 92.071 222.538 92.0625L222.742 92.9659C222.674 92.9915 222.579 93.0171 222.457 93.0426C222.335 93.071 222.18 93.0852 221.992 93.0852C221.708 93.0852 221.43 93.0242 221.157 92.902C220.887 92.7798 220.663 92.5938 220.484 92.3438C220.308 92.0938 220.22 91.7784 220.22 91.3977V84.8864Z" fill="black"/>
<path d="M224.136 93V86.4546H225.142V93H224.136ZM224.647 85.3636C224.451 85.3636 224.282 85.2969 224.14 85.1634C224.001 85.0298 223.931 84.8693 223.931 84.6818C223.931 84.4943 224.001 84.3338 224.14 84.2003C224.282 84.0668 224.451 84 224.647 84C224.843 84 225.011 84.0668 225.15 84.2003C225.292 84.3338 225.363 84.4943 225.363 84.6818C225.363 84.8693 225.292 85.0298 225.15 85.1634C225.011 85.2969 224.843 85.3636 224.647 85.3636Z" fill="black"/>
<path d="M227.989 89.0625V93H226.983V86.4546H227.955V87.4773H228.04C228.194 87.1449 228.427 86.8779 228.739 86.6761C229.052 86.4716 229.455 86.3693 229.949 86.3693C230.393 86.3693 230.78 86.4602 231.113 86.6421C231.445 86.821 231.704 87.0938 231.888 87.4602C232.073 87.8239 232.165 88.2841 232.165 88.8409V93H231.16V88.9091C231.16 88.3949 231.026 87.9943 230.759 87.7074C230.492 87.4176 230.126 87.2727 229.66 87.2727C229.339 87.2727 229.052 87.3423 228.799 87.4815C228.549 87.6208 228.351 87.8239 228.206 88.0909C228.062 88.358 227.989 88.6818 227.989 89.0625Z" fill="black"/>
<path d="M236.645 95.5909C236.159 95.5909 235.742 95.5284 235.392 95.4034C235.043 95.2813 234.752 95.1193 234.519 94.9176C234.289 94.7188 234.105 94.5057 233.969 94.2784L234.77 93.7159C234.861 93.8352 234.976 93.9716 235.115 94.125C235.254 94.2813 235.445 94.4162 235.686 94.5298C235.931 94.6463 236.25 94.7046 236.645 94.7046C237.173 94.7046 237.61 94.5767 237.953 94.321C238.297 94.0654 238.469 93.6648 238.469 93.1193V91.7898H238.384C238.31 91.9091 238.205 92.0568 238.068 92.233C237.935 92.4063 237.742 92.5611 237.489 92.6975C237.239 92.831 236.901 92.8977 236.475 92.8977C235.946 92.8977 235.472 92.7727 235.051 92.5227C234.634 92.2727 234.303 91.9091 234.058 91.4318C233.817 90.9546 233.696 90.375 233.696 89.6932C233.696 89.0227 233.814 88.4389 234.05 87.9418C234.286 87.4418 234.614 87.0554 235.034 86.7827C235.455 86.5071 235.941 86.3693 236.492 86.3693C236.918 86.3693 237.256 86.4404 237.506 86.5824C237.759 86.7216 237.952 86.8807 238.085 87.0597C238.222 87.2358 238.327 87.3807 238.401 87.4943H238.503V86.4546H239.475V93.1875C239.475 93.75 239.347 94.2074 239.091 94.5597C238.838 94.9148 238.497 95.1747 238.068 95.3395C237.642 95.5071 237.168 95.5909 236.645 95.5909ZM236.611 91.9943C237.014 91.9943 237.355 91.902 237.634 91.7173C237.912 91.5327 238.124 91.2671 238.269 90.9205C238.414 90.5739 238.486 90.1591 238.486 89.6761C238.486 89.2046 238.415 88.7884 238.273 88.4276C238.131 88.0668 237.921 87.7841 237.642 87.5796C237.364 87.375 237.02 87.2727 236.611 87.2727C236.185 87.2727 235.83 87.3807 235.546 87.5966C235.264 87.8125 235.053 88.1023 234.911 88.4659C234.771 88.8296 234.702 89.233 234.702 89.6761C234.702 90.1307 234.773 90.5327 234.915 90.8821C235.06 91.2287 235.273 91.5014 235.554 91.7003C235.838 91.8963 236.191 91.9943 236.611 91.9943Z" fill="black"/>
<path d="M242.048 93.0682C241.838 93.0682 241.658 92.9929 241.507 92.8423C241.357 92.6918 241.281 92.5114 241.281 92.3011C241.281 92.0909 241.357 91.9105 241.507 91.76C241.658 91.6094 241.838 91.5341 242.048 91.5341C242.259 91.5341 242.439 91.6094 242.59 91.76C242.74 91.9105 242.816 92.0909 242.816 92.3011C242.816 92.4404 242.78 92.5682 242.709 92.6847C242.641 92.8011 242.548 92.8949 242.432 92.9659C242.318 93.0341 242.191 93.0682 242.048 93.0682Z" fill="black"/>
<path d="M245.353 93.0682C245.143 93.0682 244.963 92.9929 244.812 92.8423C244.661 92.6918 244.586 92.5114 244.586 92.3011C244.586 92.0909 244.661 91.9105 244.812 91.76C244.963 91.6094 245.143 91.5341 245.353 91.5341C245.563 91.5341 245.744 91.6094 245.894 91.76C246.045 91.9105 246.12 92.0909 246.12 92.3011C246.12 92.4404 246.085 92.5682 246.014 92.6847C245.945 92.8011 245.853 92.8949 245.737 92.9659C245.623 93.0341 245.495 93.0682 245.353 93.0682Z" fill="black"/>
<path d="M248.658 93.0682C248.448 93.0682 248.267 92.9929 248.117 92.8423C247.966 92.6918 247.891 92.5114 247.891 92.3011C247.891 92.0909 247.966 91.9105 248.117 91.76C248.267 91.6094 248.448 91.5341 248.658 91.5341C248.868 91.5341 249.048 91.6094 249.199 91.76C249.35 91.9105 249.425 92.0909 249.425 92.3011C249.425 92.4404 249.389 92.5682 249.318 92.6847C249.25 92.8011 249.158 92.8949 249.041 92.9659C248.928 93.0341 248.8 93.0682 248.658 93.0682Z" fill="black"/>
</svg>
