<svg width="320" height="180" viewBox="0 0 320 180" fill="none" xmlns="http://www.w3.org/2000/svg">
<path d="M243.415 94L240.487 85.624H239.203L236.275 94H237.295L238.135 91.528H241.519L242.359 94H243.415ZM241.267 90.64H238.375L239.791 86.56H239.851L241.267 90.64Z" fill="#0F62FE"/>
<path d="M248.987 94H249.947V85.12H248.987V88.816H248.939C248.615 88.036 247.979 87.664 247.127 87.664C245.579 87.664 244.607 88.924 244.607 90.904C244.607 92.884 245.579 94.144 247.127 94.144C247.979 94.144 248.567 93.76 248.939 92.992H248.987V94ZM247.391 93.28C246.311 93.28 245.639 92.536 245.639 91.432V90.376C245.639 89.272 246.311 88.528 247.391 88.528C248.267 88.528 248.987 89.032 248.987 89.716V92.02C248.987 92.824 248.267 93.28 247.391 93.28Z" fill="#0F62FE"/>
<path d="M256.268 94H257.228V85.12H256.268V88.816H256.22C255.896 88.036 255.26 87.664 254.408 87.664C252.86 87.664 251.888 88.924 251.888 90.904C251.888 92.884 252.86 94.144 254.408 94.144C255.26 94.144 255.848 93.76 256.22 92.992H256.268V94ZM254.672 93.28C253.592 93.28 252.92 92.536 252.92 91.432V90.376C252.92 89.272 253.592 88.528 254.672 88.528C255.548 88.528 256.268 89.032 256.268 89.716V92.02C256.268 92.824 255.548 93.28 254.672 93.28Z" fill="#0F62FE"/>
<rect x="61" y="81" width="47" height="18" rx="9" fill="#E0E0E0"/>
<path d="M103 86.7L102.3 86L99 89.3L95.7 86L95 86.7L98.3 90L95 93.3L95.7 94L99 90.7L102.3 94L103 93.3L99.7 90L103 86.7Z" fill="#161616"/>
<path d="M75.336 86.428V85.54H69V86.428H71.664V93.916H72.672V86.428H75.336Z" fill="#161616"/>
<path d="M81.1394 93.916V93.076H80.4314V89.668C80.4314 88.36 79.5434 87.58 78.0554 87.58C76.9394 87.58 76.1954 88.132 75.8594 88.792L76.4354 89.332C76.7714 88.768 77.2634 88.408 78.0074 88.408C78.9914 88.408 79.4714 88.888 79.4714 89.764V90.376H78.2474C76.4474 90.376 75.6074 91.024 75.6074 92.188C75.6074 93.34 76.3754 94.06 77.6834 94.06C78.5474 94.06 79.2074 93.664 79.4714 92.908H79.5314C79.6034 93.484 79.8914 93.916 80.5994 93.916H81.1394ZM77.8394 93.244C77.0954 93.244 76.6154 92.896 76.6154 92.284V92.032C76.6154 91.432 77.1074 91.096 78.1994 91.096H79.4714V92.116C79.4714 92.752 78.7874 93.244 77.8394 93.244Z" fill="#161616"/>
<path d="M88.0496 94.6C88.0496 93.58 87.3896 92.956 85.8536 92.956H84.5336C83.9696 92.956 83.5856 92.86 83.5856 92.488C83.5856 92.104 83.9936 91.9 84.4016 91.792C84.5816 91.828 84.7976 91.852 85.0016 91.852C86.4176 91.852 87.3416 90.976 87.3416 89.716C87.3416 89.056 87.0776 88.504 86.6336 88.12V87.724H87.8096V86.884H86.8856C86.3696 86.884 86.1656 87.232 86.1656 87.712V87.82C85.8296 87.664 85.4336 87.58 84.9896 87.58C83.5856 87.58 82.6616 88.456 82.6616 89.716C82.6616 90.58 83.0936 91.264 83.8256 91.612V91.66C83.2016 91.816 82.7576 92.116 82.7576 92.74C82.7576 93.16 82.9616 93.436 83.3096 93.604V93.736C82.6976 93.904 82.3256 94.264 82.3256 94.936C82.3256 95.908 83.1176 96.46 85.0496 96.46C87.0416 96.46 88.0496 95.872 88.0496 94.6ZM87.1496 94.672C87.1496 95.344 86.5256 95.68 85.4576 95.68H84.5696C83.5976 95.68 83.2256 95.236 83.2256 94.696C83.2256 94.312 83.4056 94.036 83.8016 93.856H85.8656C86.8256 93.856 87.1496 94.18 87.1496 94.672ZM85.0016 91.084C84.1856 91.084 83.6696 90.7 83.6696 89.884V89.548C83.6696 88.732 84.1856 88.348 85.0016 88.348C85.8176 88.348 86.3336 88.732 86.3336 89.548V89.884C86.3336 90.7 85.8176 91.084 85.0016 91.084Z" fill="#161616"/>
<rect x="117" y="81" width="47" height="18" rx="9" fill="#E0E0E0"/>
<path d="M159 86.7L158.3 86L155 89.3L151.7 86L151 86.7L154.3 90L151 93.3L151.7 94L155 90.7L158.3 94L159 93.3L155.7 90L159 86.7Z" fill="#161616"/>
<path d="M131.336 86.428V85.54H125V86.428H127.664V93.916H128.672V86.428H131.336Z" fill="#161616"/>
<path d="M137.139 93.916V93.076H136.431V89.668C136.431 88.36 135.543 87.58 134.055 87.58C132.939 87.58 132.195 88.132 131.859 88.792L132.435 89.332C132.771 88.768 133.263 88.408 134.007 88.408C134.991 88.408 135.471 88.888 135.471 89.764V90.376H134.247C132.447 90.376 131.607 91.024 131.607 92.188C131.607 93.34 132.375 94.06 133.683 94.06C134.547 94.06 135.207 93.664 135.471 92.908H135.531C135.603 93.484 135.891 93.916 136.599 93.916H137.139ZM133.839 93.244C133.095 93.244 132.615 92.896 132.615 92.284V92.032C132.615 91.432 133.107 91.096 134.199 91.096H135.471V92.116C135.471 92.752 134.787 93.244 133.839 93.244Z" fill="#161616"/>
<path d="M144.05 94.6C144.05 93.58 143.39 92.956 141.854 92.956H140.534C139.97 92.956 139.586 92.86 139.586 92.488C139.586 92.104 139.994 91.9 140.402 91.792C140.582 91.828 140.798 91.852 141.002 91.852C142.418 91.852 143.342 90.976 143.342 89.716C143.342 89.056 143.078 88.504 142.634 88.12V87.724H143.81V86.884H142.886C142.37 86.884 142.166 87.232 142.166 87.712V87.82C141.83 87.664 141.434 87.58 140.99 87.58C139.586 87.58 138.662 88.456 138.662 89.716C138.662 90.58 139.094 91.264 139.826 91.612V91.66C139.202 91.816 138.758 92.116 138.758 92.74C138.758 93.16 138.962 93.436 139.31 93.604V93.736C138.698 93.904 138.326 94.264 138.326 94.936C138.326 95.908 139.118 96.46 141.05 96.46C143.042 96.46 144.05 95.872 144.05 94.6ZM143.15 94.672C143.15 95.344 142.526 95.68 141.458 95.68H140.57C139.598 95.68 139.226 95.236 139.226 94.696C139.226 94.312 139.406 94.036 139.802 93.856H141.866C142.826 93.856 143.15 94.18 143.15 94.672ZM141.002 91.084C140.186 91.084 139.67 90.7 139.67 89.884V89.548C139.67 88.732 140.186 88.348 141.002 88.348C141.818 88.348 142.334 88.732 142.334 89.548V89.884C142.334 90.7 141.818 91.084 141.002 91.084Z" fill="#161616"/>
<rect x="173" y="81" width="47" height="18" rx="9" fill="#E0E0E0"/>
<path d="M215 86.7L214.3 86L211 89.3L207.7 86L207 86.7L210.3 90L207 93.3L207.7 94L211 90.7L214.3 94L215 93.3L211.7 90L215 86.7Z" fill="#161616"/>
<path d="M187.336 86.428V85.54H181V86.428H183.664V93.916H184.672V86.428H187.336Z" fill="#161616"/>
<path d="M193.139 93.916V93.076H192.431V89.668C192.431 88.36 191.543 87.58 190.055 87.58C188.939 87.58 188.195 88.132 187.859 88.792L188.435 89.332C188.771 88.768 189.263 88.408 190.007 88.408C190.991 88.408 191.471 88.888 191.471 89.764V90.376H190.247C188.447 90.376 187.607 91.024 187.607 92.188C187.607 93.34 188.375 94.06 189.683 94.06C190.547 94.06 191.207 93.664 191.471 92.908H191.531C191.603 93.484 191.891 93.916 192.599 93.916H193.139ZM189.839 93.244C189.095 93.244 188.615 92.896 188.615 92.284V92.032C188.615 91.432 189.107 91.096 190.199 91.096H191.471V92.116C191.471 92.752 190.787 93.244 189.839 93.244Z" fill="#161616"/>
<path d="M200.05 94.6C200.05 93.58 199.39 92.956 197.854 92.956H196.534C195.97 92.956 195.586 92.86 195.586 92.488C195.586 92.104 195.994 91.9 196.402 91.792C196.582 91.828 196.798 91.852 197.002 91.852C198.418 91.852 199.342 90.976 199.342 89.716C199.342 89.056 199.078 88.504 198.634 88.12V87.724H199.81V86.884H198.886C198.37 86.884 198.166 87.232 198.166 87.712V87.82C197.83 87.664 197.434 87.58 196.99 87.58C195.586 87.58 194.662 88.456 194.662 89.716C194.662 90.58 195.094 91.264 195.826 91.612V91.66C195.202 91.816 194.758 92.116 194.758 92.74C194.758 93.16 194.962 93.436 195.31 93.604V93.736C194.698 93.904 194.326 94.264 194.326 94.936C194.326 95.908 195.118 96.46 197.05 96.46C199.042 96.46 200.05 95.872 200.05 94.6ZM199.15 94.672C199.15 95.344 198.526 95.68 197.458 95.68H196.57C195.598 95.68 195.226 95.236 195.226 94.696C195.226 94.312 195.406 94.036 195.802 93.856H197.866C198.826 93.856 199.15 94.18 199.15 94.672ZM197.002 91.084C196.186 91.084 195.67 90.7 195.67 89.884V89.548C195.67 88.732 196.186 88.348 197.002 88.348C197.818 88.348 198.334 88.732 198.334 89.548V89.884C198.334 90.7 197.818 91.084 197.002 91.084Z" fill="#161616"/>
</svg>
