<svg width="320" height="180" viewBox="0 0 320 180" fill="none" xmlns="http://www.w3.org/2000/svg">
<path d="M61 90C61 85.0294 65.0294 81 70 81H100C104.971 81 109 85.0294 109 90V90C109 94.9706 104.971 99 100 99H70C65.0294 99 61 94.9706 61 90V90Z" fill="#E0E0E0"/>
<path d="M75.6 86.512V85.624H69.264V86.512H71.928V94H72.936V86.512H75.6ZM81.4034 94V93.16H80.6954V89.752C80.6954 88.444 79.8074 87.664 78.3194 87.664C77.2034 87.664 76.4594 88.216 76.1234 88.876L76.6994 89.416C77.0354 88.852 77.5274 88.492 78.2714 88.492C79.2554 88.492 79.7354 88.972 79.7354 89.848V90.46H78.5114C76.7114 90.46 75.8714 91.108 75.8714 92.272C75.8714 93.424 76.6394 94.144 77.9474 94.144C78.8114 94.144 79.4714 93.748 79.7354 92.992H79.7954C79.8674 93.568 80.1554 94 80.8634 94H81.4034ZM78.1034 93.328C77.3594 93.328 76.8794 92.98 76.8794 92.368V92.116C76.8794 91.516 77.3714 91.18 78.4634 91.18H79.7354V92.2C79.7354 92.836 79.0514 93.328 78.1034 93.328ZM88.3136 94.684C88.3136 93.664 87.6536 93.04 86.1176 93.04H84.7976C84.2336 93.04 83.8496 92.944 83.8496 92.572C83.8496 92.188 84.2576 91.984 84.6656 91.876C84.8456 91.912 85.0616 91.936 85.2656 91.936C86.6816 91.936 87.6056 91.06 87.6056 89.8C87.6056 89.14 87.3416 88.588 86.8976 88.204V87.808H88.0736V86.968H87.1496C86.6336 86.968 86.4296 87.316 86.4296 87.796V87.904C86.0936 87.748 85.6976 87.664 85.2536 87.664C83.8496 87.664 82.9256 88.54 82.9256 89.8C82.9256 90.664 83.3576 91.348 84.0896 91.696V91.744C83.4656 91.9 83.0216 92.2 83.0216 92.824C83.0216 93.244 83.2256 93.52 83.5736 93.688V93.82C82.9616 93.988 82.5896 94.348 82.5896 95.02C82.5896 95.992 83.3816 96.544 85.3136 96.544C87.3056 96.544 88.3136 95.956 88.3136 94.684ZM87.4136 94.756C87.4136 95.428 86.7896 95.764 85.7216 95.764H84.8336C83.8616 95.764 83.4896 95.32 83.4896 94.78C83.4896 94.396 83.6696 94.12 84.0656 93.94H86.1296C87.0896 93.94 87.4136 94.264 87.4136 94.756ZM85.2656 91.168C84.4496 91.168 83.9336 90.784 83.9336 89.968V89.632C83.9336 88.816 84.4496 88.432 85.2656 88.432C86.0816 88.432 86.5976 88.816 86.5976 89.632V89.968C86.5976 90.784 86.0816 91.168 85.2656 91.168Z" fill="#161616"/>
<path d="M91 90C91 85.0294 95.0294 81 100 81V81C104.971 81 109 85.0294 109 90V90C109 94.9706 104.971 99 100 99V99C95.0294 99 91 94.9706 91 90V90Z" fill="#E0E0E0"/>
<rect width="16" height="16" transform="translate(92 82)" fill="white" style="mix-blend-mode:multiply"/>
<path d="M104 86.7L103.3 86L100 89.3L96.7 86L96 86.7L99.3 90L96 93.3L96.7 94L100 90.7L103.3 94L104 93.3L100.7 90L104 86.7Z" fill="#161616"/>
<path d="M117 90C117 85.0294 121.029 81 126 81H156C160.971 81 165 85.0294 165 90V90C165 94.9706 160.971 99 156 99H126C121.029 99 117 94.9706 117 90V90Z" fill="#E0E0E0"/>
<path d="M131.6 86.512V85.624H125.264V86.512H127.928V94H128.936V86.512H131.6ZM137.403 94V93.16H136.695V89.752C136.695 88.444 135.807 87.664 134.319 87.664C133.203 87.664 132.459 88.216 132.123 88.876L132.699 89.416C133.035 88.852 133.527 88.492 134.271 88.492C135.255 88.492 135.735 88.972 135.735 89.848V90.46H134.511C132.711 90.46 131.871 91.108 131.871 92.272C131.871 93.424 132.639 94.144 133.947 94.144C134.811 94.144 135.471 93.748 135.735 92.992H135.795C135.867 93.568 136.155 94 136.863 94H137.403ZM134.103 93.328C133.359 93.328 132.879 92.98 132.879 92.368V92.116C132.879 91.516 133.371 91.18 134.463 91.18H135.735V92.2C135.735 92.836 135.051 93.328 134.103 93.328ZM144.314 94.684C144.314 93.664 143.654 93.04 142.118 93.04H140.798C140.234 93.04 139.85 92.944 139.85 92.572C139.85 92.188 140.258 91.984 140.666 91.876C140.846 91.912 141.062 91.936 141.266 91.936C142.682 91.936 143.606 91.06 143.606 89.8C143.606 89.14 143.342 88.588 142.898 88.204V87.808H144.074V86.968H143.15C142.634 86.968 142.43 87.316 142.43 87.796V87.904C142.094 87.748 141.698 87.664 141.254 87.664C139.85 87.664 138.926 88.54 138.926 89.8C138.926 90.664 139.358 91.348 140.09 91.696V91.744C139.466 91.9 139.022 92.2 139.022 92.824C139.022 93.244 139.226 93.52 139.574 93.688V93.82C138.962 93.988 138.59 94.348 138.59 95.02C138.59 95.992 139.382 96.544 141.314 96.544C143.306 96.544 144.314 95.956 144.314 94.684ZM143.414 94.756C143.414 95.428 142.79 95.764 141.722 95.764H140.834C139.862 95.764 139.49 95.32 139.49 94.78C139.49 94.396 139.67 94.12 140.066 93.94H142.13C143.09 93.94 143.414 94.264 143.414 94.756ZM141.266 91.168C140.45 91.168 139.934 90.784 139.934 89.968V89.632C139.934 88.816 140.45 88.432 141.266 88.432C142.082 88.432 142.598 88.816 142.598 89.632V89.968C142.598 90.784 142.082 91.168 141.266 91.168Z" fill="#161616"/>
<path d="M147 90C147 85.0294 151.029 81 156 81V81C160.971 81 165 85.0294 165 90V90C165 94.9706 160.971 99 156 99V99C151.029 99 147 94.9706 147 90V90Z" fill="#E0E0E0"/>
<rect width="16" height="16" transform="translate(148 82)" fill="white" style="mix-blend-mode:multiply"/>
<path d="M160 86.7L159.3 86L156 89.3L152.7 86L152 86.7L155.3 90L152 93.3L152.7 94L156 90.7L159.3 94L160 93.3L156.7 90L160 86.7Z" fill="#161616"/>
<path d="M173 90C173 85.0294 177.029 81 182 81H212C216.971 81 221 85.0294 221 90V90C221 94.9706 216.971 99 212 99H182C177.029 99 173 94.9706 173 90V90Z" fill="#E0E0E0"/>
<path d="M187.6 86.512V85.624H181.264V86.512H183.928V94H184.936V86.512H187.6ZM193.403 94V93.16H192.695V89.752C192.695 88.444 191.807 87.664 190.319 87.664C189.203 87.664 188.459 88.216 188.123 88.876L188.699 89.416C189.035 88.852 189.527 88.492 190.271 88.492C191.255 88.492 191.735 88.972 191.735 89.848V90.46H190.511C188.711 90.46 187.871 91.108 187.871 92.272C187.871 93.424 188.639 94.144 189.947 94.144C190.811 94.144 191.471 93.748 191.735 92.992H191.795C191.867 93.568 192.155 94 192.863 94H193.403ZM190.103 93.328C189.359 93.328 188.879 92.98 188.879 92.368V92.116C188.879 91.516 189.371 91.18 190.463 91.18H191.735V92.2C191.735 92.836 191.051 93.328 190.103 93.328ZM200.314 94.684C200.314 93.664 199.654 93.04 198.118 93.04H196.798C196.234 93.04 195.85 92.944 195.85 92.572C195.85 92.188 196.258 91.984 196.666 91.876C196.846 91.912 197.062 91.936 197.266 91.936C198.682 91.936 199.606 91.06 199.606 89.8C199.606 89.14 199.342 88.588 198.898 88.204V87.808H200.074V86.968H199.15C198.634 86.968 198.43 87.316 198.43 87.796V87.904C198.094 87.748 197.698 87.664 197.254 87.664C195.85 87.664 194.926 88.54 194.926 89.8C194.926 90.664 195.358 91.348 196.09 91.696V91.744C195.466 91.9 195.022 92.2 195.022 92.824C195.022 93.244 195.226 93.52 195.574 93.688V93.82C194.962 93.988 194.59 94.348 194.59 95.02C194.59 95.992 195.382 96.544 197.314 96.544C199.306 96.544 200.314 95.956 200.314 94.684ZM199.414 94.756C199.414 95.428 198.79 95.764 197.722 95.764H196.834C195.862 95.764 195.49 95.32 195.49 94.78C195.49 94.396 195.67 94.12 196.066 93.94H198.13C199.09 93.94 199.414 94.264 199.414 94.756ZM197.266 91.168C196.45 91.168 195.934 90.784 195.934 89.968V89.632C195.934 88.816 196.45 88.432 197.266 88.432C198.082 88.432 198.598 88.816 198.598 89.632V89.968C198.598 90.784 198.082 91.168 197.266 91.168Z" fill="#161616"/>
<path d="M203 90C203 85.0294 207.029 81 212 81V81C216.971 81 221 85.0294 221 90V90C221 94.9706 216.971 99 212 99V99C207.029 99 203 94.9706 203 90V90Z" fill="#E0E0E0"/>
<rect width="16" height="16" transform="translate(204 82)" fill="white" style="mix-blend-mode:multiply"/>
<path d="M216 86.7L215.3 86L212 89.3L208.7 86L208 86.7L211.3 90L208 93.3L208.7 94L212 90.7L215.3 94L216 93.3L212.7 90L216 86.7Z" fill="#161616"/>
<path d="M243.416 94L240.488 85.624H239.204L236.276 94H237.296L238.136 91.528H241.52L242.36 94H243.416ZM241.268 90.64H238.376L239.792 86.56H239.852L241.268 90.64ZM248.987 94H249.948V85.12H248.987V88.816H248.939C248.615 88.036 247.98 87.664 247.127 87.664C245.579 87.664 244.607 88.924 244.607 90.904C244.607 92.884 245.579 94.144 247.127 94.144C247.98 94.144 248.567 93.76 248.939 92.992H248.987V94ZM247.391 93.28C246.311 93.28 245.639 92.536 245.639 91.432V90.376C245.639 89.272 246.311 88.528 247.391 88.528C248.267 88.528 248.987 89.032 248.987 89.716V92.02C248.987 92.824 248.267 93.28 247.391 93.28ZM256.268 94H257.228V85.12H256.268V88.816H256.22C255.896 88.036 255.26 87.664 254.408 87.664C252.86 87.664 251.888 88.924 251.888 90.904C251.888 92.884 252.86 94.144 254.408 94.144C255.26 94.144 255.848 93.76 256.22 92.992H256.268V94ZM254.672 93.28C253.592 93.28 252.92 92.536 252.92 91.432V90.376C252.92 89.272 253.592 88.528 254.672 88.528C255.548 88.528 256.268 89.032 256.268 89.716V92.02C256.268 92.824 255.548 93.28 254.672 93.28Z" fill="#0F62FE"/>
</svg>
