<svg width="320" height="180" viewBox="0 0 320 180" fill="none" xmlns="http://www.w3.org/2000/svg">
<path d="M133.563 92V91.112H131.403V83.624H129.831L127.611 85.7L128.199 86.336L130.311 84.368H130.395V91.112H128.055V92H133.563Z" fill="black"/>
<path d="M137.795 92.144C139.799 92.144 140.675 90.548 140.675 87.812C140.675 85.076 139.799 83.48 137.795 83.48C135.791 83.48 134.915 85.076 134.915 87.812C134.915 90.548 135.791 92.144 137.795 92.144ZM137.795 91.268C136.487 91.268 135.971 90.116 135.971 88.496V87.128C135.971 85.508 136.487 84.356 137.795 84.356C139.103 84.356 139.619 85.508 139.619 87.128V88.496C139.619 90.116 139.103 91.268 137.795 91.268Z" fill="black"/>
<path d="M146.206 92V87.704C146.206 86.912 146.926 86.528 147.682 86.528C148.594 86.528 149.014 87.092 149.014 88.196V92H149.974V87.704C149.974 86.912 150.67 86.528 151.426 86.528C152.362 86.528 152.782 87.104 152.782 88.196V92H153.742V88.028C153.742 86.528 152.986 85.664 151.726 85.664C150.67 85.664 150.07 86.252 149.842 86.924H149.818C149.482 86.036 148.738 85.664 147.922 85.664C146.962 85.664 146.53 86.18 146.254 86.816H146.206V85.808H145.246V92H146.206Z" fill="black"/>
<path d="M156.202 84.356C156.61 84.356 156.79 84.14 156.79 83.816V83.66C156.79 83.336 156.61 83.12 156.202 83.12C155.794 83.12 155.614 83.336 155.614 83.66V83.816C155.614 84.14 155.794 84.356 156.202 84.356ZM155.722 92H156.682V85.808H155.722V92Z" fill="black"/>
<path d="M159.682 92V87.704C159.682 86.912 160.426 86.528 161.194 86.528C162.118 86.528 162.598 87.092 162.598 88.196V92H163.558V88.028C163.558 86.528 162.754 85.664 161.482 85.664C160.558 85.664 160.03 86.12 159.73 86.816H159.682V85.808H158.722V92H159.682Z" fill="black"/>
<path d="M169.359 92H170.319V85.808H169.359V90.092C169.359 90.908 168.615 91.28 167.859 91.28C166.935 91.28 166.443 90.716 166.443 89.612V85.808H165.483V89.78C165.483 91.28 166.299 92.144 167.571 92.144C168.603 92.144 169.071 91.58 169.311 90.992H169.359V92Z" fill="black"/>
<path d="M174.931 92V91.16H173.671V86.648H175.027V85.808H173.671V84.092H172.807V85.244C172.807 85.664 172.675 85.808 172.267 85.808H171.691V86.648H172.711V90.98C172.711 91.58 173.071 92 173.731 92H174.931Z" fill="black"/>
<path d="M178.851 92.144C180.015 92.144 180.903 91.568 181.299 90.728L180.615 90.236C180.291 90.92 179.691 91.304 178.911 91.304C177.759 91.304 177.075 90.5 177.075 89.432V89.144H181.527V88.688C181.527 86.936 180.507 85.664 178.851 85.664C177.171 85.664 176.067 86.936 176.067 88.904C176.067 90.872 177.171 92.144 178.851 92.144ZM178.851 86.468C179.835 86.468 180.495 87.2 180.495 88.292V88.424H177.075V88.34C177.075 87.26 177.807 86.468 178.851 86.468Z" fill="black"/>
<path d="M187.805 92.144C189.221 92.144 190.097 91.412 190.097 90.212C190.097 89.276 189.569 88.676 188.201 88.472L187.721 88.4C186.953 88.28 186.533 88.04 186.533 87.44C186.533 86.852 186.953 86.48 187.745 86.48C188.537 86.48 189.065 86.852 189.341 87.236L189.977 86.66C189.473 86.036 188.813 85.664 187.817 85.664C186.557 85.664 185.609 86.264 185.609 87.488C185.609 88.64 186.461 89.108 187.601 89.276L188.093 89.348C188.909 89.468 189.173 89.84 189.173 90.32C189.173 90.956 188.693 91.328 187.877 91.328C187.097 91.328 186.521 90.98 186.041 90.38L185.357 90.932C185.909 91.664 186.665 92.144 187.805 92.144Z" fill="black"/>
<path d="M194.121 92.144C195.285 92.144 196.173 91.568 196.569 90.728L195.885 90.236C195.561 90.92 194.961 91.304 194.181 91.304C193.029 91.304 192.345 90.5 192.345 89.432V89.144H196.797V88.688C196.797 86.936 195.777 85.664 194.121 85.664C192.441 85.664 191.337 86.936 191.337 88.904C191.337 90.872 192.441 92.144 194.121 92.144ZM194.121 86.468C195.105 86.468 195.765 87.2 195.765 88.292V88.424H192.345V88.34C192.345 87.26 193.077 86.468 194.121 86.468Z" fill="black"/>
<path d="M200.947 92V91.16H199.687V86.648H201.043V85.808H199.687V84.092H198.823V85.244C198.823 85.664 198.691 85.808 198.283 85.808H197.707V86.648H198.727V90.98C198.727 91.58 199.087 92 199.747 92H200.947Z" fill="black"/>
<path d="M206.402 92H207.362V85.808H206.402V90.092C206.402 90.908 205.658 91.28 204.902 91.28C203.978 91.28 203.486 90.716 203.486 89.612V85.808H202.526V89.78C202.526 91.28 203.342 92.144 204.614 92.144C205.646 92.144 206.114 91.58 206.354 90.992H206.402V92Z" fill="black"/>
<path d="M209.406 94.4H210.366V90.992H210.414C210.786 91.76 211.374 92.144 212.226 92.144C213.774 92.144 214.746 90.884 214.746 88.904C214.746 86.924 213.774 85.664 212.226 85.664C211.374 85.664 210.738 86.036 210.414 86.816H210.366V85.808H209.406V94.4ZM211.962 91.28C211.086 91.28 210.366 90.824 210.366 90.02V87.716C210.366 87.032 211.086 86.528 211.962 86.528C213.042 86.528 213.714 87.272 213.714 88.376V89.432C213.714 90.536 213.042 91.28 211.962 91.28Z" fill="black"/>
<path d="M112 95C110.616 95 109.262 94.5895 108.111 93.8203C106.96 93.0511 106.063 91.9579 105.533 90.6788C105.003 89.3997 104.864 87.9922 105.135 86.6344C105.405 85.2765 106.071 84.0292 107.05 83.0503C108.029 82.0713 109.277 81.4046 110.634 81.1345C111.992 80.8644 113.4 81.003 114.679 81.5328C115.958 82.0627 117.051 82.9599 117.82 84.111C118.589 85.2622 119 86.6155 119 88C119 89.8565 118.263 91.637 116.95 92.9497C115.637 94.2625 113.857 95 112 95ZM112 82C110.813 82 109.653 82.3519 108.667 83.0112C107.68 83.6705 106.911 84.6075 106.457 85.7039C106.003 86.8003 105.884 88.0067 106.115 89.1705C106.347 90.3344 106.918 91.4035 107.757 92.2426C108.596 93.0818 109.666 93.6532 110.829 93.8847C111.993 94.1162 113.2 93.9974 114.296 93.5433C115.392 93.0892 116.33 92.3201 116.989 91.3334C117.648 90.3467 118 89.1867 118 88C118 86.4087 117.368 84.8826 116.243 83.7574C115.117 82.6321 113.591 82 112 82Z" fill="#161616"/>
<path d="M114.295 91L111.5 88.205V83.5H112.5V87.79L115 90.295L114.295 91Z" fill="#161616"/>
</svg>
