<svg width="320" height="180" viewBox="0 0 320 180" fill="none" xmlns="http://www.w3.org/2000/svg">
<path d="M142.08 54V53.16H140.904V46.464H142.08V45.624H138.72V46.464H139.896V53.16H138.72V54H142.08Z" fill="black"/>
<path d="M146.393 54V53.16H145.133V48.648H146.489V47.808H145.133V46.092H144.269V47.244C144.269 47.664 144.137 47.808 143.729 47.808H143.153V48.648H144.173V52.98C144.173 53.58 144.533 54 145.193 54H146.393Z" fill="black"/>
<path d="M150.313 54.144C151.477 54.144 152.365 53.568 152.761 52.728L152.077 52.236C151.753 52.92 151.153 53.304 150.373 53.304C149.221 53.304 148.537 52.5 148.537 51.432V51.144H152.989V50.688C152.989 48.936 151.969 47.664 150.313 47.664C148.633 47.664 147.529 48.936 147.529 50.904C147.529 52.872 148.633 54.144 150.313 54.144ZM150.313 48.468C151.297 48.468 151.957 49.2 151.957 50.292V50.424H148.537V50.34C148.537 49.26 149.269 48.468 150.313 48.468Z" fill="black"/>
<path d="M155.531 54V49.704C155.531 48.912 156.251 48.528 157.007 48.528C157.919 48.528 158.339 49.092 158.339 50.196V54H159.299V49.704C159.299 48.912 159.995 48.528 160.751 48.528C161.687 48.528 162.107 49.104 162.107 50.196V54H163.067V50.028C163.067 48.528 162.311 47.664 161.051 47.664C159.995 47.664 159.395 48.252 159.167 48.924H159.143C158.807 48.036 158.063 47.664 157.247 47.664C156.287 47.664 155.855 48.18 155.579 48.816H155.531V47.808H154.571V54H155.531Z" fill="black"/>
<path d="M173.428 54V53.112H171.268V45.624H169.696L167.476 47.7L168.064 48.336L170.176 46.368H170.26V53.112H167.92V54H173.428Z" fill="black"/>
<path d="M142.08 70V69.16H140.904V62.464H142.08V61.624H138.72V62.464H139.896V69.16H138.72V70H142.08Z" fill="black"/>
<path d="M146.393 70V69.16H145.133V64.648H146.489V63.808H145.133V62.092H144.269V63.244C144.269 63.664 144.137 63.808 143.729 63.808H143.153V64.648H144.173V68.98C144.173 69.58 144.533 70 145.193 70H146.393Z" fill="black"/>
<path d="M150.313 70.144C151.477 70.144 152.365 69.568 152.761 68.728L152.077 68.236C151.753 68.92 151.153 69.304 150.373 69.304C149.221 69.304 148.537 68.5 148.537 67.432V67.144H152.989V66.688C152.989 64.936 151.969 63.664 150.313 63.664C148.633 63.664 147.529 64.936 147.529 66.904C147.529 68.872 148.633 70.144 150.313 70.144ZM150.313 64.468C151.297 64.468 151.957 65.2 151.957 66.292V66.424H148.537V66.34C148.537 65.26 149.269 64.468 150.313 64.468Z" fill="black"/>
<path d="M155.531 70V65.704C155.531 64.912 156.251 64.528 157.007 64.528C157.919 64.528 158.339 65.092 158.339 66.196V70H159.299V65.704C159.299 64.912 159.995 64.528 160.751 64.528C161.687 64.528 162.107 65.104 162.107 66.196V70H163.067V66.028C163.067 64.528 162.311 63.664 161.051 63.664C159.995 63.664 159.395 64.252 159.167 64.924H159.143C158.807 64.036 158.063 63.664 157.247 63.664C156.287 63.664 155.855 64.18 155.579 64.816H155.531V63.808H154.571V70H155.531Z" fill="black"/>
<path d="M173.26 69.112H168.856L171.112 67.084C172.18 66.124 172.948 65.212 172.948 63.916C172.948 62.488 172.012 61.48 170.38 61.48C168.76 61.48 168.016 62.464 167.692 63.448L168.592 63.796C168.82 63.004 169.3 62.38 170.332 62.38C171.364 62.38 171.88 63.016 171.88 63.94V64.084C171.88 64.888 171.28 65.728 170.5 66.448L167.764 68.968V70H173.26V69.112Z" fill="black"/>
<path d="M142.08 86V85.16H140.904V78.464H142.08V77.624H138.72V78.464H139.896V85.16H138.72V86H142.08Z" fill="black"/>
<path d="M146.393 86V85.16H145.133V80.648H146.489V79.808H145.133V78.092H144.269V79.244C144.269 79.664 144.137 79.808 143.729 79.808H143.153V80.648H144.173V84.98C144.173 85.58 144.533 86 145.193 86H146.393Z" fill="black"/>
<path d="M150.313 86.144C151.477 86.144 152.365 85.568 152.761 84.728L152.077 84.236C151.753 84.92 151.153 85.304 150.373 85.304C149.221 85.304 148.537 84.5 148.537 83.432V83.144H152.989V82.688C152.989 80.936 151.969 79.664 150.313 79.664C148.633 79.664 147.529 80.936 147.529 82.904C147.529 84.872 148.633 86.144 150.313 86.144ZM150.313 80.468C151.297 80.468 151.957 81.2 151.957 82.292V82.424H148.537V82.34C148.537 81.26 149.269 80.468 150.313 80.468Z" fill="black"/>
<path d="M155.531 86V81.704C155.531 80.912 156.251 80.528 157.007 80.528C157.919 80.528 158.339 81.092 158.339 82.196V86H159.299V81.704C159.299 80.912 159.995 80.528 160.751 80.528C161.687 80.528 162.107 81.104 162.107 82.196V86H163.067V82.028C163.067 80.528 162.311 79.664 161.051 79.664C159.995 79.664 159.395 80.252 159.167 80.924H159.143C158.807 80.036 158.063 79.664 157.247 79.664C156.287 79.664 155.855 80.18 155.579 80.816H155.531V79.808H154.571V86H155.531Z" fill="black"/>
<path d="M169.084 81.176V82.052H170.068C171.244 82.052 171.868 82.616 171.868 83.6V83.696C171.868 84.68 171.244 85.244 170.068 85.244C169.048 85.244 168.556 84.8 168.124 84.14L167.368 84.716C167.884 85.436 168.628 86.144 170.08 86.144C171.784 86.144 172.924 85.148 172.924 83.708C172.924 82.448 172.06 81.776 171.16 81.596V81.548C172.048 81.32 172.768 80.672 172.768 79.592C172.768 78.236 171.64 77.48 170.224 77.48C168.88 77.48 168.148 78.176 167.728 78.848L168.472 79.424C168.82 78.788 169.336 78.38 170.2 78.38C171.088 78.38 171.7 78.824 171.7 79.7V79.784C171.7 80.588 171.124 81.176 169.996 81.176H169.084Z" fill="black"/>
<path d="M142.08 102V101.16H140.904V94.464H142.08V93.624H138.72V94.464H139.896V101.16H138.72V102H142.08Z" fill="black"/>
<path d="M146.393 102V101.16H145.133V96.648H146.489V95.808H145.133V94.092H144.269V95.244C144.269 95.664 144.137 95.808 143.729 95.808H143.153V96.648H144.173V100.98C144.173 101.58 144.533 102 145.193 102H146.393Z" fill="black"/>
<path d="M150.313 102.144C151.477 102.144 152.365 101.568 152.761 100.728L152.077 100.236C151.753 100.92 151.153 101.304 150.373 101.304C149.221 101.304 148.537 100.5 148.537 99.432V99.144H152.989V98.688C152.989 96.936 151.969 95.664 150.313 95.664C148.633 95.664 147.529 96.936 147.529 98.904C147.529 100.872 148.633 102.144 150.313 102.144ZM150.313 96.468C151.297 96.468 151.957 97.2 151.957 98.292V98.424H148.537V98.34C148.537 97.26 149.269 96.468 150.313 96.468Z" fill="black"/>
<path d="M155.531 102V97.704C155.531 96.912 156.251 96.528 157.007 96.528C157.919 96.528 158.339 97.092 158.339 98.196V102H159.299V97.704C159.299 96.912 159.995 96.528 160.751 96.528C161.687 96.528 162.107 97.104 162.107 98.196V102H163.067V98.028C163.067 96.528 162.311 95.664 161.051 95.664C159.995 95.664 159.395 96.252 159.167 96.924H159.143C158.807 96.036 158.063 95.664 157.247 95.664C156.287 95.664 155.855 96.18 155.579 96.816H155.531V95.808H154.571V102H155.531Z" fill="black"/>
<path d="M172.324 102V100.356H173.536V99.516H172.324V93.624H170.824L167.32 99.468V100.356H171.364V102H172.324ZM171.304 94.404H171.364V99.516H168.268L171.304 94.404Z" fill="black"/>
<path d="M142.08 118V117.16H140.904V110.464H142.08V109.624H138.72V110.464H139.896V117.16H138.72V118H142.08Z" fill="black"/>
<path d="M146.393 118V117.16H145.133V112.648H146.489V111.808H145.133V110.092H144.269V111.244C144.269 111.664 144.137 111.808 143.729 111.808H143.153V112.648H144.173V116.98C144.173 117.58 144.533 118 145.193 118H146.393Z" fill="black"/>
<path d="M150.313 118.144C151.477 118.144 152.365 117.568 152.761 116.728L152.077 116.236C151.753 116.92 151.153 117.304 150.373 117.304C149.221 117.304 148.537 116.5 148.537 115.432V115.144H152.989V114.688C152.989 112.936 151.969 111.664 150.313 111.664C148.633 111.664 147.529 112.936 147.529 114.904C147.529 116.872 148.633 118.144 150.313 118.144ZM150.313 112.468C151.297 112.468 151.957 113.2 151.957 114.292V114.424H148.537V114.34C148.537 113.26 149.269 112.468 150.313 112.468Z" fill="black"/>
<path d="M155.531 118V113.704C155.531 112.912 156.251 112.528 157.007 112.528C157.919 112.528 158.339 113.092 158.339 114.196V118H159.299V113.704C159.299 112.912 159.995 112.528 160.751 112.528C161.687 112.528 162.107 113.104 162.107 114.196V118H163.067V114.028C163.067 112.528 162.311 111.664 161.051 111.664C159.995 111.664 159.395 112.252 159.167 112.924H159.143C158.807 112.036 158.063 111.664 157.247 111.664C156.287 111.664 155.855 112.18 155.579 112.816H155.531V111.808H154.571V118H155.531Z" fill="black"/>
<path d="M172.84 109.624H168.352L168.052 114.232L168.904 114.352C169.252 113.968 169.636 113.644 170.404 113.644C171.544 113.644 172.156 114.28 172.156 115.384V115.504C172.156 116.608 171.544 117.244 170.404 117.244C169.396 117.244 168.976 116.8 168.544 116.14L167.788 116.716C168.292 117.436 169.012 118.144 170.404 118.144C172.168 118.144 173.224 117.004 173.224 115.372C173.224 113.752 172.168 112.78 170.728 112.78C169.852 112.78 169.408 113.14 169.012 113.704H168.928L169.168 110.512H172.84V109.624Z" fill="black"/>
<path d="M142.248 134L145.068 125.624H144.024L142.632 129.848L141.684 132.992H141.624L140.7 129.848L139.32 125.624H138.24L141.024 134H142.248Z" fill="#0F62FE"/>
<path d="M146.813 126.356C147.221 126.356 147.401 126.14 147.401 125.816V125.66C147.401 125.336 147.221 125.12 146.813 125.12C146.405 125.12 146.225 125.336 146.225 125.66V125.816C146.225 126.14 146.405 126.356 146.813 126.356ZM146.333 134H147.293V127.808H146.333V134Z" fill="#0F62FE"/>
<path d="M151.661 134.144C152.825 134.144 153.713 133.568 154.109 132.728L153.425 132.236C153.101 132.92 152.501 133.304 151.721 133.304C150.569 133.304 149.885 132.5 149.885 131.432V131.144H154.337V130.688C154.337 128.936 153.317 127.664 151.661 127.664C149.981 127.664 148.877 128.936 148.877 130.904C148.877 132.872 149.981 134.144 151.661 134.144ZM151.661 128.468C152.645 128.468 153.305 129.2 153.305 130.292V130.424H149.885V130.34C149.885 129.26 150.617 128.468 151.661 128.468Z" fill="#0F62FE"/>
<path d="M156.868 134H158.032L158.896 131.024L159.424 129.14H159.448L159.988 131.024L160.852 134H162.04L163.684 127.808H162.784L162.112 130.484L161.476 133.196H161.452L160.684 130.484L159.88 127.808H159.028L158.248 130.484L157.492 133.196H157.468L156.808 130.484L156.148 127.808H155.212L156.868 134Z" fill="#0F62FE"/>
<path d="M168.867 134V129.704C168.867 128.912 169.587 128.528 170.343 128.528C171.255 128.528 171.675 129.092 171.675 130.196V134H172.635V129.704C172.635 128.912 173.331 128.528 174.087 128.528C175.023 128.528 175.443 129.104 175.443 130.196V134H176.403V130.028C176.403 128.528 175.647 127.664 174.387 127.664C173.331 127.664 172.731 128.252 172.503 128.924H172.479C172.143 128.036 171.399 127.664 170.583 127.664C169.623 127.664 169.191 128.18 168.915 128.816H168.867V127.808H167.907V134H168.867Z" fill="#0F62FE"/>
<path d="M180.724 134.144C182.38 134.144 183.52 132.872 183.52 130.904C183.52 128.936 182.38 127.664 180.724 127.664C179.068 127.664 177.928 128.936 177.928 130.904C177.928 132.872 179.068 134.144 180.724 134.144ZM180.724 133.292C179.692 133.292 178.96 132.656 178.96 131.348V130.46C178.96 129.152 179.692 128.516 180.724 128.516C181.756 128.516 182.488 129.152 182.488 130.46V131.348C182.488 132.656 181.756 133.292 180.724 133.292Z" fill="#0F62FE"/>
<path d="M186.058 134V129.8C186.058 129.212 186.682 128.768 187.714 128.768H188.278V127.808H187.906C186.898 127.808 186.334 128.36 186.118 128.948H186.058V127.808H185.098V134H186.058Z" fill="#0F62FE"/>
<path d="M191.774 134.144C192.938 134.144 193.826 133.568 194.222 132.728L193.538 132.236C193.214 132.92 192.614 133.304 191.834 133.304C190.682 133.304 189.998 132.5 189.998 131.432V131.144H194.45V130.688C194.45 128.936 193.43 127.664 191.774 127.664C190.094 127.664 188.99 128.936 188.99 130.904C188.99 132.872 190.094 134.144 191.774 134.144ZM191.774 128.468C192.758 128.468 193.418 129.2 193.418 130.292V130.424H189.998V130.34C189.998 129.26 190.73 128.468 191.774 128.468Z" fill="#0F62FE"/>
<path d="M198.844 130.256C198.844 132.596 199.828 134.636 201.016 135.644H201.928C200.632 134.492 199.744 132.464 199.744 130.784V129.752C199.744 128.072 200.596 126.08 201.928 124.88H201.016C199.792 125.924 198.844 127.94 198.844 130.256Z" fill="#0F62FE"/>
<path d="M208.431 134V133.112H206.271V125.624H204.699L202.479 127.7L203.067 128.336L205.179 126.368H205.263V133.112H202.923V134H208.431Z" fill="#0F62FE"/>
<path d="M212.663 134.144C214.667 134.144 215.543 132.548 215.543 129.812C215.543 127.076 214.667 125.48 212.663 125.48C210.659 125.48 209.783 127.076 209.783 129.812C209.783 132.548 210.659 134.144 212.663 134.144ZM212.663 133.268C211.355 133.268 210.839 132.116 210.839 130.496V129.128C210.839 127.508 211.355 126.356 212.663 126.356C213.971 126.356 214.487 127.508 214.487 129.128V130.496C214.487 132.116 213.971 133.268 212.663 133.268Z" fill="#0F62FE"/>
<path d="M219.282 130.256C219.282 127.94 218.334 125.924 217.11 124.88H216.198C217.53 126.08 218.382 128.072 218.382 129.752V130.784C218.382 132.464 217.494 134.492 216.198 135.644H217.11C218.298 134.636 219.282 132.596 219.282 130.256Z" fill="#0F62FE"/>
</svg>
