<?xml version="1.0" encoding="utf-8"?>
<!-- Generator: Adobe Illustrator 24.1.0, SVG Export Plug-In . SVG Version: 6.00 Build 0)  -->
<svg version="1.1" xmlns="http://www.w3.org/2000/svg" xmlns:xlink="http://www.w3.org/1999/xlink" x="0px" y="0px"
	 viewBox="0 0 1920 1080" style="enable-background:new 0 0 1920 1080;" xml:space="preserve">
<g id="Background" style="display:none;">
	<g style="display:inline;">
		<rect x="-0.0109" y="0" style="fill:#13171A;" width="1920" height="1080"/>
		<g>
			<defs>
				<rect id="SVGID_1_" x="-0.0109" y="0" width="1920" height="1080"/>
			</defs>
			<clipPath id="SVGID_2_">
				<use xlink:href="#SVGID_1_"  style="overflow:visible;"/>
			</clipPath>
			<g style="clip-path:url(#SVGID_2_);">
				<defs>
					<rect id="SVGID_3_" x="-1014.0229" y="400.047" width="2934.7368" height="680"/>
				</defs>
				<clipPath id="SVGID_4_">
					<use xlink:href="#SVGID_3_"  style="overflow:visible;"/>
				</clipPath>
				<g style="opacity:0.8;clip-path:url(#SVGID_4_);">
					<g style="opacity:0.8;">
						<g>
							<defs>
								<rect id="SVGID_5_" x="-1014.0229" y="400.0469" width="2934.7368" height="680"/>
							</defs>
							<clipPath id="SVGID_6_">
								<use xlink:href="#SVGID_5_"  style="overflow:visible;"/>
							</clipPath>
							<g style="clip-path:url(#SVGID_6_);">
								<defs>
									<rect id="SVGID_7_" x="-1014.0229" y="400.0469" width="2934.7368" height="680"/>
								</defs>
								<clipPath id="SVGID_8_">
									<use xlink:href="#SVGID_7_"  style="overflow:visible;"/>
								</clipPath>
								<g style="clip-path:url(#SVGID_8_);">
									
										<image style="overflow:visible;" width="12229" height="2835" xlink:href="4188FBDD41C6627E.jpg"  transform="matrix(0.24 0 0 0.24 -1014.12 399.84)">
									</image>
								</g>
							</g>
						</g>
					</g>
				</g>
			</g>
		</g>
	</g>
</g>
<g id="Lines">
	<g>
		
			<linearGradient id="SVGID_9_" gradientUnits="userSpaceOnUse" x1="1887.9073" y1="5698.6929" x2="2382.9519" y2="5698.6929" gradientTransform="matrix(-1 0 0 -1 2457.0481 6193.7212)">
			<stop  offset="0" style="stop-color:#BB8EFF"/>
			<stop  offset="0.076" style="stop-color:#B28EFF"/>
			<stop  offset="0.2018" style="stop-color:#988DFE"/>
			<stop  offset="0.3611" style="stop-color:#708CFD"/>
			<stop  offset="0.5202" style="stop-color:#408BFC"/>
			<stop  offset="1" style="stop-color:#408BFC;stop-opacity:0"/>
		</linearGradient>
		<polygon style="fill:url(#SVGID_9_);" points="568.645,636.5728 74.0962,354.3516 74.5918,353.4834 569.1406,635.7046 		"/>
	</g>
	<g>
		<linearGradient id="SVGID_10_" gradientUnits="userSpaceOnUse" x1="561.5947" y1="715.3906" x2="1806.5947" y2="715.3906">
			<stop  offset="0" style="stop-color:#BB8EFF"/>
			<stop  offset="0.076" style="stop-color:#B28EFF"/>
			<stop  offset="0.2018" style="stop-color:#988DFE"/>
			<stop  offset="0.3611" style="stop-color:#708CFD"/>
			<stop  offset="0.5202" style="stop-color:#408BFC"/>
			<stop  offset="1" style="stop-color:#408BFC;stop-opacity:0"/>
		</linearGradient>
		<path style="fill:url(#SVGID_10_);" d="M1072.8364,927.2969c-0.7759,0-1.5513-0.1992-2.2441-0.5977L561.5947,633.8511
			l0.499-0.8672l508.9976,292.8481c1.0806,0.6211,2.4219,0.6191,3.5015-0.0059l731.502-422.3418l0.5,0.8662l-731.5015,422.3408
			C1074.3979,927.0947,1073.6172,927.2969,1072.8364,927.2969z"/>
	</g>
	<g>
		<linearGradient id="SVGID_11_" gradientUnits="userSpaceOnUse" x1="580.5986" y1="528.6353" x2="705.3442" y2="528.6353">
			<stop  offset="0" style="stop-color:#BB8EFF"/>
			<stop  offset="0.1246" style="stop-color:#B28EFF"/>
			<stop  offset="0.3311" style="stop-color:#988DFE"/>
			<stop  offset="0.5924" style="stop-color:#708CFD"/>
			<stop  offset="0.8536" style="stop-color:#408BFC"/>
		</linearGradient>
		<polygon style="fill:url(#SVGID_11_);" points="581.0898,625.853 580.5986,624.9819 704.3442,555.1255 704.3442,431.4175 
			705.3442,431.4175 705.3442,555.7095 		"/>
	</g>
	<g>
		<linearGradient id="SVGID_12_" gradientUnits="userSpaceOnUse" x1="1184.8442" y1="650.8816" x2="1335.6035" y2="650.8816">
			<stop  offset="0" style="stop-color:#BB8EFF"/>
			<stop  offset="0.1246" style="stop-color:#B28EFF"/>
			<stop  offset="0.3311" style="stop-color:#988DFE"/>
			<stop  offset="0.5924" style="stop-color:#708CFD"/>
			<stop  offset="0.8536" style="stop-color:#408BFC"/>
		</linearGradient>
		<polygon style="fill:url(#SVGID_12_);" points="1335.0859,758.3457 1184.8442,667.6997 1184.8442,543.4175 1185.8442,543.4175 
			1185.8442,667.1353 1335.6035,757.4902 		"/>
	</g>
</g>
<g id="Circles_on_line">
	<path style="fill:#F2F4F8;" d="M1076.2708,929.8943c-2.5114,1.4505-6.595,1.4506-9.104-0.0081
		c-2.5093-1.4587-2.4819-3.8169,0.0294-5.2674c2.5255-1.4587,6.5813-1.4587,9.0905,0
		C1078.7957,926.0775,1078.7963,928.4356,1076.2708,929.8943z"/>
	<path style="fill:#F2F4F8;" d="M1178.2708,871.8943c-2.5114,1.4505-6.595,1.4506-9.104-0.0081
		c-2.5093-1.4587-2.4819-3.8169,0.0294-5.2674c2.5255-1.4587,6.5813-1.4587,9.0905,0
		C1180.7957,868.0775,1180.7963,870.4356,1178.2708,871.8943z"/>
	<path style="fill:#F2F4F8;" d="M729.2708,729.8943c-2.5114,1.4505-6.595,1.4506-9.1041-0.0081
		c-2.5092-1.4587-2.4818-3.8169,0.0295-5.2674c2.5255-1.4587,6.5813-1.4587,9.0905,0
		C731.7957,726.0775,731.7962,728.4356,729.2708,729.8943z"/>
</g>
<g id="Jessica_Platform">
	<g>
		<g>
			<g>
				
					<image style="overflow:visible;" width="358" height="237" xlink:href="4188FBDD41C66282.png"  transform="matrix(1 0 0 1 1163 686)">
				</image>
			</g>
			<g>
				<linearGradient id="SVGID_13_" gradientUnits="userSpaceOnUse" x1="1199.2844" y1="814.8293" x2="1342.0723" y2="814.8293">
					<stop  offset="0" style="stop-color:#373D42"/>
					<stop  offset="0.9995" style="stop-color:#242A2E"/>
				</linearGradient>
				<polygon style="fill:url(#SVGID_13_);" points="1342.0723,860.3793 1199.2844,777.9407 1199.2844,769.2792 1342.0723,851.7179 
									"/>
				<linearGradient id="SVGID_14_" gradientUnits="userSpaceOnUse" x1="1199.2844" y1="769.2792" x2="1484.8602" y2="769.2792">
					<stop  offset="0" style="stop-color:#373D42"/>
					<stop  offset="0.9989" style="stop-color:#13171A"/>
				</linearGradient>
				<polygon style="fill:url(#SVGID_14_);" points="1342.0723,851.7179 1199.2844,769.2792 1342.0723,686.8406 1484.8602,769.2792 
									"/>
				<linearGradient id="SVGID_15_" gradientUnits="userSpaceOnUse" x1="1342.0723" y1="814.8207" x2="1484.8602" y2="814.8207">
					<stop  offset="0" style="stop-color:#13171A"/>
					<stop  offset="1" style="stop-color:#242A2E"/>
				</linearGradient>
				<polygon style="fill:url(#SVGID_15_);" points="1342.0723,860.3621 1484.8602,777.9235 1484.8602,769.2792 1342.0723,851.7179 
									"/>
			</g>
		</g>
		<g>
			<g>
				<path style="fill:#D5D9E0;" d="M1326.9297,754.0208c0-1.2662,0.5779-5.4719,3.3507-6.7428
					c2.9739-1.363,3.1685,1.5418,3.2942,2.4903c0.2084,1.5727,3.6162,4.941,7.8411,3.5649c1.2812-0.4174,2.98-1.2087,5.0818-1.5182
					c1.802-0.2654,4.0748,0.464,3.7494,3.5021c-0.3483,3.2511-5.3317,5.2281-9.4783,7.5502
					c-4.3159,2.4169-9.3456,5.5272-11.6355,6.5255c-1.5474,0.6746-4.7971-1.4814-5.0494-2.8276
					c-0.2472-1.3184-0.2061-4.1202,0.412-5.5211C1325.4553,758.8688,1326.9297,756.3936,1326.9297,754.0208z"/>
				<path style="fill:#B9BFC7;" d="M1336.4808,752.8959c2.3237,1.0241,2.9851,0.6505,5.0057,0.304
					c1.3281-0.2277,2.9615-1.0748,5.0634-1.3843c1.8021-0.2654,4.0748,0.464,3.7494,3.5021
					c-0.2177,2.0319-1.0087,4.061-3.5116,5.4929c-1.5018,0.8591-5.0203,1.674-7.4601,2.9169
					c-2.4423,1.2442-2.3506,2.3977-4.5137,3.8143c-2.0718,1.3568-3.7876,1.8458-5.1335,2.099
					c-2.1844,0.4109-5.2618-1.6353-5.6357-2.9529c-0.4974-1.7527-0.1146-4.2423,0.5034-5.6432
					c0.6014-1.3631,1.552-3.5456,2.0681-5.0587c0,0,0.8121-0.2219,1.3634,1.1297c0.4666,1.144,2.3478,1.5294,3.7001,1.3541
					c6.7162-0.8701,5.5513-3.0596,4.9675-3.7504C1335.9286,753.8692,1336.098,752.7273,1336.4808,752.8959z"/>
				<g>
					<g>
						<path style="fill:#D5D9E0;" d="M1312.9545,626.4932c-1.6573-9.3912,4.3368-36.4102,9.9291-41.4869
							c2.3224-2.1082,4.8137-1.413,5.1163,1.1899c0.4668,4.0144-1.1322,27.0938-6.7192,37.2175
							c-1.4924,2.7043-2.5627,3.395-3.7291,4.4307C1315.4388,629.7205,1313.2729,628.2985,1312.9545,626.4932z"/>
						<path style="fill:#D5D9E0;" d="M1320.6941,620.5067c2.4276,7.843,13.1533,20.9507,13.4473,23.7831
							c0.2242,2.1611-1.0544,3.5566-1.6718,4.1387c-1.4272,1.3456-2.1813,0.7081-2.7882-0.2382
							c-1.2335-1.923-15.8279-12.5851-16.7697-22.2943c-0.2679-2.7623,2.2308-6.8099,4.0392-7.7275
							C1319.3145,616.9693,1320.2343,619.021,1320.6941,620.5067z"/>
					</g>
					<path style="fill:#C6C6C6;" d="M1329.597,647.6368c0.7286,3.0125,3.5194,7.7012,4.9647,9.4367
						c0.562,0.6749,2.5736,1.9221,2.905,1.9752c0.4492,0.0721,1.9104,0.1099,2.6797,0.2278
						c0.6965,0.1068,2.3833,0.853,2.6539,0.9489c0.9271,0.3297,1.6868-0.9042,0.9824-1.566c0,0-1.4896-1.1953-2.6998-3.1042
						c-0.4618-0.7285-1.6052-3.4487-1.6052-3.4487l1.7806,2.2764c1.712,2.1938,3.2948,0.5832,3.2948,0.5832
						s-4.3306-5.9525-4.7979-6.4088c-1.1321-1.1055-4.787-3.354-5.6797-4.8729c-0.4076-0.6937-1.1204-1.5574-2.4216-0.7148
						C1330.0854,643.9853,1329.3817,646.7466,1329.597,647.6368z"/>
				</g>
				<path style="fill:#D5D9E0;" d="M1342.8579,763.32c0-1.2662,0.5779-5.4719,3.3508-6.7428
					c2.9739-1.363,3.1685,1.5418,3.2941,2.4903c0.2084,1.5726,3.6162,4.941,7.8412,3.5648c1.2812-0.4173,2.98-1.2086,5.0817-1.5182
					c1.8021-0.2654,4.0748,0.464,3.7494,3.5021c-0.3483,3.251-5.3315,5.228-9.4783,7.5502
					c-4.3158,2.4169-9.3455,5.5272-11.6355,6.5256c-1.5472,0.6745-4.797-1.4814-5.0494-2.8276
					c-0.2472-1.3185-0.2059-4.1202,0.4121-5.5211C1341.3835,768.168,1342.8579,765.4081,1342.8579,763.32z"/>
				<path style="fill:#373D42;" d="M1329.7854,629.1603c0,2.0906-6.4988,12.022-7.6398,21.2399
					c-1.2256,9.9016,2.6074,13.9326,2.6338,15.567c0.1176,7.3232,3.2424,29.384,2.374,33.3519
					c-0.9365,4.2784-2.574,9.1138-2.9791,14.3004c-1.1675,14.9438,1.2671,30.6418,2.3125,37.7623
					c0.1713,1.1666,1.8806,2.3392,4.6434,2.6082c2.3768,0.2314,4.328-0.5889,4.5383-2.1034
					c0.9142-6.5822,3.019-28.9255,3.3794-34.0421c0.1914-2.7178-0.1056-10.8468,0.8337-15.1501
					c0.6807-3.1177,2.0398-7.3333,2.9423-11.1014c0.8213,6.5748,2.1655,14.4504,1.2876,17.4058
					c-0.9662,3.2527-2.5098,9.2514-2.8853,14.058c-1.1675,14.9438,0.4521,32.0109,1.4976,39.1314
					c0.1713,1.1666,1.8175,2.4717,4.4059,2.728c1.5446,0.1529,4.1093-0.2164,4.2949-2.0029
					c0.6866-6.6098,4.1586-30.229,4.5189-35.3456c0.2262-3.2118,0.1694-11.6628,0.6456-16.4758
					c0.6792-6.8646,3.4796-15.7002,5.2626-23.605c1.7267-7.6552,2.8745-18.9995,2.7125-25.3781
					c-0.4218-16.6016-7.5338-27.4275-7.5338-27.4275L1329.7854,629.1603z"/>
				<path style="fill:#B9BFC7;" d="M1352.4126,762.1598c2.3237,1.024,2.9851,0.6505,5.0057,0.304
					c1.3281-0.2278,2.9615-1.0748,5.0634-1.3843c1.8021-0.2654,4.0748,0.464,3.7494,3.5021
					c-0.2177,2.0319-1.0087,4.061-3.5116,5.4929c-1.5018,0.8591-5.0201,1.6741-7.4601,2.917
					c-2.4423,1.2442-2.3506,2.3977-4.5137,3.8143c-2.0718,1.3568-3.7876,1.8458-5.1335,2.099
					c-2.1844,0.4109-5.2618-1.6353-5.6357-2.9529c-0.4974-1.7527-0.1146-4.2423,0.5034-5.6432
					c0.6014-1.3631,1.552-3.5456,2.0681-5.0587c0,0,0.8121-0.2219,1.3634,1.1296c0.4666,1.144,2.3478,1.5294,3.7001,1.3542
					c6.7163-0.8702,5.5514-3.0596,4.9675-3.7504C1351.8604,763.1331,1352.0298,761.9911,1352.4126,762.1598z"/>
				<g>
					<path style="fill:#868D95;" d="M1320.3771,587.858c1.2717-2.4806,2.3721-4.2188,5.772-4.3918
						c6.4976-0.3512,15.8153,3.8547,18.1281,5.0934c7.0125,3.7561,11.0679,5.9827,14.8011,9.3099
						c1.257,1.1202,1.881,7.6149,2.7539,9.0479c3.8003,6.2388,3.2708,12.5519-1.9965,17.1606
						c-3.2462,2.8405-3.071,7.1982-2.7887,10.6031c0,0,1.8776,2.952,3.3002,6.7351c0,0-3.2844,4.5797-11.118,3.7693
						c-20.9924-2.1716-22.9747-7.7331-22.9747-7.7331c0.7877-1.7182,3.3922-7.2285,3.4363-8.2882
						c0.0894-2.1429-0.6135-10.7418-2.6987-15.2471c-1.6898-3.6513-2.0631-3.9416-3.1547-6.2858
						c-4.3241,0.6608-8.8674-2.8911-8.8674-2.8911S1318.8612,590.8151,1320.3771,587.858z"/>
				</g>
				<path style="opacity:0.5;fill-rule:evenodd;clip-rule:evenodd;fill:#242A2E;" d="M1333.2108,706.2242
					c0.4707-2.0187,4.3691-17.4702,2.1969-24.0646c-1.9437-5.9006-10.8673-12.8207-8.5388-12.3334
					c1.7631,0.369,3.7627,1.0684,4.8306-0.6713c1.3114-2.1363,1.4246-4.3556,1.6007-6.8915c0.1533-2.2086,1.412-5.8688,1.412-5.8688
					c-2.5795,11.1828,1.262,14.2314,4.0562,15.295l6.2793,9.9852c-0.4171,5.2217-4.5787,17.9684-5.3839,22.2312
					c-0.5098,2.6986-0.4969,8.7153-0.6298,13.7628c-0.0964,3.6664-1.5292,17.3309-1.5292,17.3309s-1.1901,12.4827-1.8638,17.02
					c-0.2197,1.4799-2.9574,3.0192-7.5466,1.1487c0,0,4.3562-6.0154,4.5424-15.8602
					C1332.8296,727.1074,1330.8107,716.5164,1333.2108,706.2242z"/>
			</g>
			<g>
				<path id="XMLID_10_" style="fill:#50565B;" d="M1400.234,606.8496c-0.0194-0.1278-0.1066-0.2487-0.2661-0.3405l-13.6445-7.9188
					c-0.4022-0.2339-0.9562-0.3668-1.5784,0.0649l-18.4609,15.0311c-0.2408,0.1392-0.3684,0.3139-0.3834,0.4839
					c-0.0133,0.1611,0.0748,0.3143,0.2698,0.4286l13.6431,7.918c0.4036,0.2323,1.1144,0.2035,1.5784-0.0659l18.4617-15.0309
					C1400.1349,607.2582,1400.2635,607.0443,1400.234,606.8496z"/>
				<polygon id="XMLID_9_" style="fill:#13171A;" points="1367.891,613.9353 1385.1501,599.8402 1398.0311,607.3165 
					1380.7656,621.4144 				"/>
				<path id="XMLID_8_" style="fill:#13171A;" d="M1400.234,606.8496c0.0295,0.1946-0.0991,0.4086-0.3805,0.5704l-18.4617,15.0309
					c-0.464,0.2694-1.1748,0.2982-1.5784,0.0659l-13.6431-7.918c-0.1949-0.1143-0.2831-0.2675-0.2698-0.4286l-0.0023-0.0006v0.8655
					l0.0023-0.002c0.015,0.1359,0.1027,0.2629,0.2698,0.3607l13.6431,7.918c0.4036,0.2327,1.1144,0.2029,1.5784-0.0651
					l18.4617-15.0317c0.2357-0.1354,0.3645-0.3073,0.3838-0.4734l0.0026,0.0005v-0.8953L1400.234,606.8496z"/>
			</g>
			<g>
				<g>
					<path style="fill:#D5D9E0;" d="M1352.7284,642.8317c-3.7206-2.9003-2.8568-15.1964-2.7977-23.9986
						c0.0709-10.5782,0.355-14.8379,2.1327-17.4228c2.4027-3.4934,4.8362-4.9634,6.8766-3.035
						c1.214,1.1473,1.2323,3.4706,1.6399,9.0276c0.7886,10.7505,0.4969,25.7001-1.7559,32.4952
						C1358.2607,641.5968,1355.6312,645.0945,1352.7284,642.8317z"/>
					<path style="fill:#D5D9E0;" d="M1354.4281,634.2534c6.3772-6.6715,21.5044-11.4649,24.2113-12.3488
						c1.4343-0.4683,2.7811,1.3964,3.1392,2.1656c0.8557,1.8389,0.7853,3.3378-0.0911,4.0419
						c-1.781,1.431-16.0806,10.7477-25.2056,14.8841c-2.3888,1.0828-3.4189,0.6412-4.0844-1.2744
						C1351.6274,639.5048,1352.9111,635.8405,1354.4281,634.2534z"/>
					<path style="fill:#D5D9E0;" d="M1381.5237,628.2579c2.8734-1.1616,9.116-4.9833,10.688-6.6049
						c0.6113-0.6306,0.746-2.7979,0.7637-3.133c0.0239-0.4544-0.0939-1.9113-0.0583-2.6888
						c0.0321-0.7039,3.666-2.4224,2.5139-4.0176c0,0-3.2993,1.9191-5.3236,3.0496c-0.7532,0.4206-4.2487,2.3953-4.2487,2.3953
						l1.8737-2.1577c1.9995-1.9355,0.4301-3.193,0.4301-3.193s-6.4481,4.939-6.8521,5.452
						c-0.9789,1.2432-1.5558,3.6839-2.9733,4.7302c-0.8196,0.6049-0.736,2.6261,0,3.9905
						C1379.2109,627.701,1380.4,628.7122,1381.5237,628.2579z"/>
				</g>
			</g>
			<path style="fill:#D5D9E0;" d="M1325.8821,565.989c0.1423-7.6575,6.2085-13.8699,13.87-13.8699
				c7.6588,0,13.8672,6.2112,13.8672,13.8699c0,0.6449,0.4087,12.6968,0.4087,12.6968c0,1.9051-1.2676,2.7546-2.4855,2.7546
				c-0.0033,0-17.8397,0.0793-17.8397,0.0793C1330.7264,578.3208,1325.7517,573.011,1325.8821,565.989z"/>
			<path style="fill:#13171A;" d="M1351.2788,558.5436c0,0,1.2905,5.5731-2.4036,12.9301
				c-3.7961,7.5603-1.4683,16.6596,2.822,20.2361c0,0-11.3611,5.9608-23.1195-2.7817c-11.7583-8.7426-5.9028-28.7838,2.5936-34.218
				c7.8102-4.9953,19.6858-2.7403,22.425,3.1583c0.6042,1.3011,0.5583,3.5765-0.4166,4.5054c0,0-0.5723-1.532-0.823-2.0231
				C1352.1174,559.8821,1351.2788,558.5436,1351.2788,558.5436z"/>
		</g>
	</g>
</g>
<g id="User_self_care">
	<g>
		<linearGradient id="XMLID_2_" gradientUnits="userSpaceOnUse" x1="1405.8307" y1="507.2819" x2="1694.7631" y2="507.2819">
			<stop  offset="0" style="stop-color:#0062FF;stop-opacity:0.2"/>
			<stop  offset="0.161" style="stop-color:#1868FF;stop-opacity:0.3127"/>
			<stop  offset="0.5018" style="stop-color:#5676FF;stop-opacity:0.5513"/>
			<stop  offset="0.9919" style="stop-color:#B98EFF;stop-opacity:0.8943"/>
			<stop  offset="1" style="stop-color:#BB8EFF;stop-opacity:0.9"/>
		</linearGradient>
		<polygon id="XMLID_12_" style="fill:url(#XMLID_2_);" points="1405.8307,552.5562 1694.7604,718.2464 1694.7631,462.0615 
			1405.8309,296.3174 		"/>
		<linearGradient id="XMLID_3_" gradientUnits="userSpaceOnUse" x1="1437.8307" y1="488.2819" x2="1726.7631" y2="488.2819">
			<stop  offset="0" style="stop-color:#0062FF;stop-opacity:0.2"/>
			<stop  offset="0.161" style="stop-color:#1868FF;stop-opacity:0.3127"/>
			<stop  offset="0.5018" style="stop-color:#5676FF;stop-opacity:0.5513"/>
			<stop  offset="0.9919" style="stop-color:#B98EFF;stop-opacity:0.8943"/>
			<stop  offset="1" style="stop-color:#BB8EFF;stop-opacity:0.9"/>
		</linearGradient>
		<polygon id="XMLID_11_" style="fill:url(#XMLID_3_);" points="1437.8307,533.5562 1726.7604,699.2464 1726.7631,443.0615 
			1437.8309,277.3174 		"/>
		<g>
			<g>
				<polygon style="fill:#242A2E;" points="1374.1666,315.7392 1661.7882,481.5636 1661.7882,516.561 1374.1666,350.6851 				"/>
				<polygon style="fill:#D5D9E0;" points="1661.7882,516.561 1661.7882,740.5125 1374.1666,573.6881 1374.1666,350.6851 				"/>
			</g>
			<linearGradient id="SVGID_16_" gradientUnits="userSpaceOnUse" x1="1662.1666" y1="609.4584" x2="1670.1666" y2="609.4584">
				<stop  offset="0" style="stop-color:#373D42"/>
				<stop  offset="0.9995" style="stop-color:#242A2E"/>
			</linearGradient>
			<polygon style="fill:url(#SVGID_16_);" points="1670.1666,736.6466 1662.1666,741.0278 1662.1666,482.2701 1670.1666,477.8889 
							"/>
			<path style="fill:#F2F4F8;" d="M1654.2369,494.0668c-0.0004,2.9051-1.6997,4.279-3.7957,3.0688
				c-2.0958-1.2102-3.7947-4.5463-3.7943-7.4514c0.0002-2.9052,1.6996-4.2791,3.7955-3.0688
				C1652.5385,487.8256,1654.2373,491.1617,1654.2369,494.0668z M1638.2328,479.5526c-2.0959-1.2102-3.7953,0.1638-3.7957,3.0688
				s1.6985,6.2412,3.7944,7.4515c2.0959,1.2102,3.7953-0.1638,3.7955-3.0689
				C1642.0275,484.099,1640.3286,480.7628,1638.2328,479.5526z M1626.0277,472.4778c-2.0959-1.2102-3.7953,0.1638-3.7955,3.0689
				c-0.0004,2.9051,1.6985,6.2412,3.7943,7.4514c2.0959,1.2102,3.7954-0.1638,3.7957-3.0688
				C1629.8225,477.0242,1628.1237,473.688,1626.0277,472.4778z"/>
			
				<linearGradient id="SVGID_17_" gradientUnits="userSpaceOnUse" x1="7885.8335" y1="396.4583" x2="8181.8335" y2="396.4583" gradientTransform="matrix(-1 0 0 1 9556 0)">
				<stop  offset="0" style="stop-color:#373D42"/>
				<stop  offset="0.9989" style="stop-color:#13171A"/>
			</linearGradient>
			<polygon style="fill:url(#SVGID_17_);" points="1374.1666,315.6466 1382.1666,311.0278 1670.1666,477.2701 1662.1666,481.8889 
							"/>
			<g>
				<path style="fill:#F2F4F8;" d="M1389.8226,413.3228v68.3556c0,0.7906,0.4218,1.5212,1.1064,1.9165l76.9017,44.3992
					c0.7377,0.4259,1.6597-0.1064,1.6597-0.9583v-68.3556c0-0.7906-0.4218-1.5212-1.1064-1.9165l-76.9016-44.3992
					C1390.7448,411.9386,1389.8226,412.471,1389.8226,413.3228z"/>
				<path style="fill:#F2F4F8;" d="M1478.1606,464.5187v68.3556c0,0.7906,0.4219,1.5212,1.1066,1.9165l76.9016,44.3992
					c0.7377,0.4259,1.6598-0.1064,1.6598-0.9583v-68.3556c0-0.7906-0.4219-1.5212-1.1066-1.9165l-76.9016-44.3992
					C1479.0828,463.1346,1478.1606,463.6669,1478.1606,464.5187z"/>
				<path style="fill:#F2F4F8;" d="M1566.4988,514.7108v68.3557c0,0.7906,0.4218,1.5212,1.1064,1.9165l76.9016,44.3992
					c0.7377,0.4259,1.6598-0.1064,1.6598-0.9583v-68.3556c0-0.7906-0.4218-1.5212-1.1064-1.9165l-76.9017-44.3992
					C1567.4208,513.3267,1566.4988,513.859,1566.4988,514.7108z"/>
				<path style="fill:#F2F4F8;" d="M1389.8226,495.7481v68.3556c0,0.7906,0.4218,1.5212,1.1064,1.9165l76.9017,44.3992
					c0.7377,0.4259,1.6597-0.1065,1.6597-0.9583v-68.3557c0-0.7906-0.4218-1.5212-1.1064-1.9165l-76.9016-44.3992
					C1390.7448,494.364,1389.8226,494.8963,1389.8226,495.7481z"/>
				<path style="fill:#F2F4F8;" d="M1478.1606,546.944v68.3556c0,0.7906,0.4219,1.5212,1.1066,1.9165l76.9016,44.3992
					c0.7377,0.4258,1.6598-0.1065,1.6598-0.9583v-68.3557c0-0.7906-0.4219-1.5212-1.1066-1.9165l-76.9016-44.3992
					C1479.0828,545.5599,1478.1606,546.0922,1478.1606,546.944z"/>
				<path style="fill:#F2F4F8;" d="M1566.4988,597.1361v68.3556c0,0.7906,0.4218,1.5212,1.1064,1.9165l76.9016,44.3992
					c0.7377,0.4258,1.6598-0.1065,1.6598-0.9583v-68.3557c0-0.7906-0.4218-1.5212-1.1064-1.9165l-76.9017-44.3992
					C1567.4208,595.752,1566.4988,596.2843,1566.4988,597.1361z"/>
				<linearGradient id="SVGID_18_" gradientUnits="userSpaceOnUse" x1="1590.1162" y1="677.3248" x2="1639.3044" y2="677.3248">
					<stop  offset="0.001" style="stop-color:#408BFC"/>
					<stop  offset="0.3211" style="stop-color:#2A7DFD"/>
					<stop  offset="1" style="stop-color:#0062FF"/>
				</linearGradient>
				<polygon style="fill:url(#SVGID_18_);" points="1590.1162,653.7345 1590.1162,672.8075 1639.3044,700.915 1639.3044,681.842 
									"/>
				<polygon style="fill:#868D95;" points="1390.1162,380.7345 1390.1162,394.8075 1486.1666,449.9583 1486.1666,435.9583 				"/>
				<g>
					
						<ellipse transform="matrix(0.866 -0.5 0.5 0.866 -34.6023 763.5862)" style="fill:#D5D9E0;" cx="1407.5701" cy="446.3618" rx="10.5302" ry="18.2388"/>
				</g>
				<g>
					
						<ellipse transform="matrix(0.866 -0.5 0.5 0.866 -46.8594 814.2108)" style="fill:#D5D9E0;" cx="1495.9082" cy="494.5462" rx="10.5302" ry="18.2388"/>
				</g>
				<g>
					
						<ellipse transform="matrix(0.866 -0.5 0.5 0.866 -60.4878 865.7407)" style="fill:#D5D9E0;" cx="1585.2501" cy="545.7421" rx="10.5302" ry="18.2388"/>
				</g>
				<g>
					
						<ellipse transform="matrix(0.866 -0.5 0.5 0.866 -75.313 774.4947)" style="fill:#D5D9E0;" cx="1407.5701" cy="527.7833" rx="10.5302" ry="18.2388"/>
				</g>
				<g>
					
						<ellipse transform="matrix(0.866 -0.5 0.5 0.866 -87.5702 825.1192)" style="fill:#D5D9E0;" cx="1495.9082" cy="575.9677" rx="10.5302" ry="18.2388"/>
				</g>
				<g>
					
						<ellipse transform="matrix(0.866 -0.5 0.5 0.866 -101.1986 876.6491)" style="fill:#D5D9E0;" cx="1585.2501" cy="627.1636" rx="10.5302" ry="18.2388"/>
				</g>
			</g>
		</g>
	</g>
</g>
<g id="Verify_mobile">
	<g>
		<path style="fill:#A2A9B0;" d="M1143.0072,634.5106c1.528,0.568,3.3037,0.5107,4.9189-0.4123l67.3599-38.4915
			c3.6512-2.0864,5.9047-5.9694,5.9047-10.1747V412.7116c0-2.1805-1.1412-3.9605-2.7611-4.9647l-5.9091-3.5335
			c-1.6724-0.8687-3.7588-0.9476-5.6234,0.1346l-67.3939,39.1125c-3.6129,2.0967-5.8365,5.9582-5.8365,10.1355v172.119
			c0,2.0256,0.9855,3.7067,2.4255,4.7404L1143.0072,634.5106z"/>
		<g>
			<path style="fill:#F2F4F8;" d="M1145.028,633.3773c-2.1006,0-4.3682-1.6699-4.3682-4.3682V456.891
				c0-3.6299,1.9502-7.0166,5.0898-8.8379l67.3936-39.1133c0.6836-0.3965,1.417-0.5977,2.1797-0.5977
				c2.1006,0,4.3682,1.6699,4.3682,4.3682V585.431c0,3.6572-1.9736,7.0566-5.1494,8.8721l-67.3594,38.4912
				C1146.5055,633.182,1145.7809,633.3773,1145.028,633.3773L1145.028,633.3773z"/>
			<path style="fill:#D5D9E0;" d="M1215.3221,409.8421c1.3796,0,2.8684,1.0967,2.8684,2.8682V585.431
				c0,3.1206-1.6833,6.0215-4.3931,7.5698l-67.3596,38.4912c-0.4475,0.2559-0.9221,0.3857-1.4104,0.3857
				c-1.3792,0-2.8677-1.0967-2.8677-2.8682V456.8905c0-3.0967,1.6638-5.9863,4.3423-7.5405l67.394-39.1128
				C1214.3478,409.9749,1214.8278,409.8421,1215.3221,409.8421 M1215.3221,406.8421c-0.9795,0-1.9846,0.2505-2.9319,0.8003
				l-67.394,39.1128c-3.6128,2.0967-5.8364,5.958-5.8364,10.1353v172.1192c0,3.4185,2.8064,5.8682,5.8677,5.8682
				c0.9678,0,1.9604-0.2446,2.8987-0.7808l67.3599-38.4917c3.6514-2.0864,5.9045-5.9692,5.9045-10.1743V412.7103
				C1221.1906,409.2889,1218.3822,406.8421,1215.3221,406.8421L1215.3221,406.8421z"/>
		</g>
		<polygon style="fill:#242A2E;" points="1145.7516,460.7651 1216.0637,419.0173 1216.0637,568.4307 1145.7516,609.4461 		"/>
		
			<ellipse transform="matrix(0.121 -0.9927 0.9927 0.121 449.2283 1702.6632)" style="fill:#B9BFC7;" cx="1186.006" cy="597.6793" rx="8.8574" ry="5.011"/>
		
			<ellipse transform="matrix(0.121 -0.9927 0.9927 0.121 593.9743 1549.8007)" style="fill:#B9BFC7;" cx="1172.0667" cy="439.5187" rx="2.2697" ry="1.2841"/>
		<path style="fill:#B9BFC7;" d="M1186.0686,429.0678l0.0004,0.0056c0.4082-0.2249,0.8422-0.1035,1.1332,0.4006
			c0.4403,0.7626,0.3851,2.0947-0.1233,2.9752c-0.2207,0.3821-0.4905,0.6069-0.761,0.6875l0.0005,0.0086l-8.4001,4.9292
			c-0.1356,0.1251-0.2771,0.2065-0.42,0.2466l-0.024,0.014v-0.0072c-0.3408,0.0841-0.6798-0.0673-0.9205-0.4842
			c-0.4403-0.7626-0.385-2.0946,0.1234-2.9752c0.1763-0.3053,0.3838-0.5162,0.5981-0.6298L1186.0686,429.0678z"/>
		<g>
			
				<image style="overflow:visible;" width="120" height="155" xlink:href="4188FBDD41C66285.png"  transform="matrix(1 0 0 1 1116 434)">
			</image>
		</g>
		
			<linearGradient id="SVGID_19_" gradientUnits="userSpaceOnUse" x1="877.7175" y1="648.1348" x2="871.6653" y2="565.8338" gradientTransform="matrix(0.9924 0.1234 -0.1234 0.9924 390.6977 -198.5679)">
			<stop  offset="0" style="stop-color:#4589FF"/>
			<stop  offset="1" style="stop-color:#EE5396"/>
		</linearGradient>
		<path style="fill:url(#SVGID_19_);" d="M1201.8395,480.6532c-8.5497-14.8915-23.5509-13.0628-33.5061,4.0845
			c-9.9553,17.1472-11.0948,43.1196-2.5452,58.011c8.5497,14.8913,23.5509,13.0626,33.5062-4.0847
			C1209.2496,521.5169,1210.389,495.5445,1201.8395,480.6532z M1197.382,535.8395c-8.5182,15.4264-21.1978,17.162-28.3208,3.8768
			c-7.123-13.2854-5.9922-36.5608,2.5259-51.9872c8.5182-15.4265,21.1978-17.1622,28.3208-3.8768
			C1207.0309,497.1375,1205.9,520.4131,1197.382,535.8395z"/>
		<linearGradient id="SVGID_20_" gradientUnits="userSpaceOnUse" x1="1146.1666" y1="541.9584" x2="1395.1666" y2="541.9584">
			<stop  offset="0.002" style="stop-color:#408BFC;stop-opacity:0.5"/>
			<stop  offset="0.0175" style="stop-color:#458BFC;stop-opacity:0.4923"/>
			<stop  offset="0.1505" style="stop-color:#698CFD;stop-opacity:0.4256"/>
			<stop  offset="0.2907" style="stop-color:#878DFE;stop-opacity:0.3554"/>
			<stop  offset="0.438" style="stop-color:#9E8DFE;stop-opacity:0.2816"/>
			<stop  offset="0.5958" style="stop-color:#AE8EFF;stop-opacity:0.2025"/>
			<stop  offset="0.7713" style="stop-color:#B88EFF;stop-opacity:0.1146"/>
			<stop  offset="1" style="stop-color:#BB8EFF;stop-opacity:0"/>
		</linearGradient>
		<polyline style="fill:url(#SVGID_20_);" points="1395.1666,751.9584 1146.1666,608.9813 1146.1666,460.3003 1360.1666,331.9583 		
			"/>
		<g>
			<polygon style="fill:none;" points="1226.2311,511.4538 1181.0724,589.6708 1141.9639,521.9329 1187.1226,443.7159 			"/>
		</g>
		<g>
			<g>
				<path style="fill:#D5D9E0;" d="M1182.569,527.0179l-12.4199-7.3379c-0.9512-0.5615-1.2666-1.7881-0.7041-2.7393
					c0.5615-0.9512,1.7871-1.2656,2.7393-0.7041l8.5918,5.0762l11.9629-26.2022c0.458-1.0049,1.6465-1.4473,2.6504-0.9883
					s1.4473,1.6455,0.9883,2.6504L1182.569,527.0179z"/>
			</g>
			<polygon style="fill:none;" points="1194.5586,516.7255 1173.7747,528.7252 1173.7747,507.9412 1194.5586,495.9415 			"/>
		</g>
	</g>
</g>
<g id="Cloud">
	<g>
		
			<radialGradient id="SVGID_21_" cx="1111.3586" cy="-1076.1097" r="73.6705" gradientTransform="matrix(1.4614 0.8438 -0.4453 0.7713 -1196.2996 710.9738)" gradientUnits="userSpaceOnUse">
			<stop  offset="0" style="stop-color:#13171A"/>
			<stop  offset="0.8536" style="stop-color:#13171A;stop-opacity:0.1464"/>
			<stop  offset="1" style="stop-color:#13171A;stop-opacity:0"/>
		</radialGradient>
		<path style="opacity:0.4;fill:url(#SVGID_21_);" d="M930.3337,907.8164l-112.0689-64.703
			c-28.5145-16.4628-38.2842-52.9242-21.8214-81.4387l5.9991-10.3908c16.4628-28.5145,52.9241-38.2842,81.4387-21.8214
			l112.0689,64.703c28.5145,16.4629,38.2842,52.9242,21.8214,81.4387l-5.9991,10.3908
			C995.3096,914.5095,958.8483,924.2792,930.3337,907.8164z"/>
		<g>
			<g>
				<g>
					<linearGradient id="SVGID_22_" gradientUnits="userSpaceOnUse" x1="804.896" y1="744.4993" x2="864.7062" y2="744.4993">
						<stop  offset="0" style="stop-color:#373D42"/>
						<stop  offset="0.9989" style="stop-color:#13171A"/>
					</linearGradient>
					<path style="fill:url(#SVGID_22_);" d="M831.0723,748.8762c0.0756,0.0547,0.1521,0.1065,0.2275,0.1619
						c0.5912,0.4346,1.1763,0.8889,1.7565,1.3551c0.1743,0.14,0.3464,0.2843,0.5195,0.4269
						c0.4203,0.3467,0.8373,0.702,1.2514,1.0644c0.2131,0.1865,0.4261,0.3729,0.6373,0.5635
						c0.3661,0.3303,0.7275,0.671,1.0882,1.0131c0.2563,0.2433,0.514,0.4842,0.7677,0.7333
						c0.2807,0.2756,0.5557,0.5613,0.8325,0.8439c0.3782,0.3857,0.7554,0.7729,1.1265,1.1706
						c0.2162,0.2318,0.428,0.4698,0.6416,0.7054c0.6437,0.7107,1.2759,1.4377,1.8956,2.1819c0.2157,0.259,0.4372,0.5103,0.65,0.7731
						l22.2397-12.9334c-0.1091-0.1349-0.2186-0.2693-0.3284-0.4033c-0.1044-0.127-0.2164-0.2438-0.3216-0.3698
						c-0.6192-0.744-1.2509-1.4705-1.8945-2.1807c-0.1184-0.1306-0.2294-0.2718-0.3488-0.4014
						c-0.0963-0.1048-0.1974-0.2019-0.2944-0.306c-0.3705-0.3975-0.7473-0.7837-1.125-1.1692
						c-0.1955-0.1992-0.3852-0.4093-0.5826-0.6052c-0.0823-0.0822-0.1678-0.1583-0.2506-0.2394
						c-0.2537-0.2491-0.5111-0.4898-0.7677-0.7331c-0.2401-0.2277-0.476-0.4637-0.7184-0.6862
						c-0.122-0.112-0.2472-0.2166-0.3698-0.3271c-0.2114-0.1906-0.4242-0.3768-0.6373-0.5635
						c-0.1909-0.1672-0.3789-0.3414-0.5713-0.5052c-0.2251-0.1918-0.4543-0.3729-0.6813-0.5599
						c-0.1724-0.1422-0.3438-0.2859-0.5171-0.4252c-0.0927-0.0745-0.1835-0.1534-0.2764-0.2272
						c-0.4632-0.3669-0.9298-0.7239-1.3997-1.0709c-0.0275-0.02-0.0554-0.0385-0.0826-0.0588
						c-0.0744-0.0544-0.1495-0.1053-0.2239-0.1592c-0.3459-0.2513-0.6924-0.5018-1.0417-0.7418
						c-0.1957-0.1342-0.3939-0.2599-0.5905-0.3906c-0.1346-0.0891-0.2689-0.1794-0.404-0.2672
						c-0.1074-0.0696-0.2136-0.1438-0.3212-0.2122c-0.4278-0.2725-0.8578-0.5361-1.2902-0.7907
						c-0.0989-0.058-0.1979-0.1158-0.2971-0.173c-0.3301-0.1908-0.6589-0.3748-0.9863-0.5522
						c-0.123-0.0667-0.2444-0.1255-0.3671-0.1903c-0.1693-0.0894-0.338-0.1768-0.5065-0.2628
						c-0.132-0.0672-0.2651-0.1404-0.3965-0.2055c-0.2034-0.1007-0.4044-0.1906-0.6069-0.2862
						c-0.1519-0.0718-0.3045-0.146-0.4559-0.2149c-0.0631-0.0287-0.1271-0.0614-0.1899-0.0896
						c-0.3879-0.1737-0.7731-0.3359-1.1563-0.4908c-0.0239-0.0096-0.0482-0.0209-0.072-0.0306
						c-0.0029-0.0012-0.0057-0.0024-0.0087-0.0036c-0.4179-0.1674-0.8332-0.3238-1.2454-0.4688
						c-0.0503-0.0178-0.0994-0.0316-0.1497-0.0489c-0.1457-0.0506-0.2897-0.095-0.4348-0.1424
						c-0.2169-0.0713-0.4353-0.1479-0.6505-0.213c-0.1002-0.0304-0.1984-0.0535-0.2985-0.0824
						c-0.1815-0.0528-0.3616-0.1014-0.5419-0.1496c-0.1432-0.0383-0.2886-0.0836-0.4312-0.119
						c-0.1413-0.0355-0.2797-0.061-0.4201-0.0935c-0.1825-0.0424-0.3645-0.0836-0.5453-0.1214
						c-0.0984-0.0203-0.1989-0.0468-0.2966-0.066c-0.1666-0.0323-0.3289-0.0527-0.4938-0.0814
						c-0.2078-0.0359-0.4157-0.0728-0.6216-0.1024c-0.0758-0.0111-0.1538-0.0277-0.2294-0.0378
						c-0.17-0.0229-0.3351-0.0328-0.5037-0.0516c-0.2208-0.0243-0.442-0.0501-0.6601-0.0674
						c-0.066-0.0051-0.1341-0.0156-0.2001-0.0202c-0.1476-0.0104-0.2901-0.0075-0.4365-0.0145
						c-0.2636-0.0125-0.5265-0.0241-0.7858-0.0261c-0.0741-0.0004-0.1509-0.0077-0.2246-0.0072
						c-0.1127,0.0005-0.2203,0.0132-0.332,0.0157c-0.3243,0.0072-0.6452,0.0219-0.9625,0.0458
						c-0.0972,0.0072-0.1986,0.005-0.2953,0.014c-0.0708,0.0065-0.1373,0.0228-0.2078,0.0301
						c-0.4888,0.0511-1.009,0.126-1.4802,0.217c-0.0385,0.0075-27.2805,15.7665-27.2805,15.7665
						c0.3729-0.2168,1.4459-0.8105,1.8375-0.9943c0.1286-0.0602,16.6257,0.161,17.0776,0.3668
						c0.1512,0.0687,0.3038,0.1431,0.4557,0.2149c0.333,0.1573,0.6674,0.3204,1.0032,0.4917
						c0.1688,0.086,0.3375,0.1735,0.507,0.2628c0.449,0.2373,0.8992,0.4802,1.3532,0.7422
						c0.6414,0.3705,1.2769,0.7666,1.9084,1.1761c0.1351,0.0877,0.2694,0.1778,0.404,0.2672
						C829.9899,748.1094,830.5337,748.4852,831.0723,748.8762z"/>
					<g>
						<linearGradient id="SVGID_23_" gradientUnits="userSpaceOnUse" x1="859.1727" y1="757.9613" x2="967.9918" y2="757.9613">
							<stop  offset="0" style="stop-color:#373D42"/>
							<stop  offset="0.9989" style="stop-color:#13171A"/>
						</linearGradient>
						<path style="fill:url(#SVGID_23_);" d="M899.3718,734.6612c0.3739,0.2448,0.748,0.4879,1.1197,0.7411
							c0.3198,0.2175,0.637,0.444,0.9551,0.6675c0.3934,0.2766,0.7865,0.5529,1.177,0.8384
							c0.2968,0.2169,0.5912,0.4409,0.8864,0.663c0.4435,0.3334,0.886,0.67,1.3258,1.0147
							c0.2848,0.2231,0.5682,0.4503,0.8515,0.6782c0.496,0.3989,0.9895,0.8054,1.4806,1.2183
							c0.2603,0.2187,0.5208,0.4368,0.7795,0.6594c0.7136,0.6136,1.4221,1.2395,2.1243,1.881
							c0.0751,0.0687,0.1517,0.1342,0.2268,0.2031c0.8614,0.7921,1.7112,1.611,2.5543,2.4429
							c0.1921,0.1893,0.3831,0.3809,0.5742,0.5721c0.9943,0.9967,1.9771,2.0162,2.9437,3.0642
							c0.2183,0.2366,0.4338,0.478,0.6507,0.7169c0.4466,0.4927,0.891,0.9885,1.3311,1.4913
							c0.2513,0.2874,0.5012,0.5772,0.7506,0.868c0.4242,0.4946,0.8453,0.994,1.2635,1.4978
							c0.2361,0.2847,0.4725,0.5693,0.7068,0.8569c0.534,0.6558,1.0617,1.3195,1.5846,1.9894
							c0.1406,0.1799,0.2839,0.3563,0.4235,0.5375c0.6546,0.848,1.2998,1.7076,1.9363,2.5763
							c0.1637,0.2238,0.3238,0.4517,0.4866,0.677c0.475,0.6574,0.9456,1.3192,1.4098,1.9872
							c0.2095,0.3014,0.4167,0.6047,0.6238,0.908c0.4273,0.6262,0.8494,1.2568,1.2668,1.8912
							c0.1921,0.292,0.3852,0.583,0.5754,0.8766c0.5229,0.8088,1.0381,1.6233,1.5449,2.4441
							c0.0662,0.1069,0.1348,0.2125,0.2005,0.3199c0.5694,0.928,1.1257,1.8646,1.6732,2.8064
							c0.1599,0.2751,0.3156,0.5529,0.4736,0.8292c0.3893,0.6803,0.7737,1.3633,1.1512,2.0499
							c0.1798,0.3267,0.358,0.6543,0.5349,0.9824c0.3681,0.6823,0.7292,1.3674,1.0853,2.055
							c0.1495,0.2883,0.3012,0.576,0.4485,0.8654c0.5046,0.9908,0.9986,1.9856,1.4772,2.9849
							c0.0736,0.1532,0.1429,0.3076,0.2157,0.4611c0.4054,0.8548,0.8015,1.7124,1.1876,2.572
							c0.1786,0.3975,0.3542,0.7957,0.5284,1.194c0.1832,0.4189,0.366,0.8379,0.5446,1.2576
							c0.1834,0.4312,0.3625,0.8627,0.5407,1.2946c0.1745,0.4226,0.3486,0.8452,0.5181,1.2682
							c0.1204,0.2997,0.2361,0.5999,0.3539,0.9c0.5037,1.2836,0.9911,2.5688,1.4484,3.8551c0.025,0.0699,0.0477,0.14,0.0722,0.2101
							c0.3809,1.0773,0.7405,2.155,1.0877,3.2319c0.0972,0.3013,0.1938,0.6025,0.2881,0.9036
							c0.2757,0.8791,0.54,1.7572,0.7925,2.6344c0.0667,0.232,1.9996,1.5151,2.0646,1.7468l20.3797-13.7413
							c-0.0255-0.0906-0.1637-0.7972-0.2044-0.9389c-0.2526-0.8769-0.5169-1.7553-0.7925-2.6342
							c-0.0472-0.1501-0.0876-0.2997-0.1353-0.4498c-0.0482-0.1513-0.104-0.3029-0.1528-0.4541
							c-0.3469-1.0762-0.7061-2.1526-1.0867-3.2292c-0.0205-0.0583-0.0381-0.1164-0.0588-0.1747
							c-0.0046-0.0128-0.0098-0.0258-0.0146-0.0388c-0.457-1.2855-0.9442-2.57-1.4476-3.8531
							c-0.0556-0.1417-0.1038-0.284-0.1601-0.4259c-0.063-0.159-0.131-0.3175-0.1945-0.4766
							c-0.1695-0.4225-0.3431-0.8441-0.5174-1.266c-0.1786-0.4322-0.3577-0.8641-0.5412-1.2956
							c-0.1786-0.4197-0.3613-0.8386-0.5446-1.2573c-0.1168-0.267-0.2282-0.5346-0.3469-0.801
							c-0.0585-0.1316-0.1225-0.2617-0.1815-0.3929c-0.3862-0.86-0.7819-1.7172-1.1876-2.572
							c-0.073-0.1537-0.1423-0.3079-0.2155-0.4613c-0.4791-0.9993-0.9728-1.9941-1.4772-2.9847
							c-0.0429-0.0844-0.0826-0.1696-0.1257-0.2539c-0.105-0.205-0.2172-0.4072-0.3231-0.6117
							c-0.3563-0.6876-0.7172-1.3727-1.0853-2.055c-0.1769-0.3281-0.3551-0.6555-0.535-0.9824
							c-0.3774-0.6866-0.762-1.3696-1.1512-2.0499c-0.1579-0.2764-0.3134-0.5539-0.4735-0.8292
							c-0.5475-0.9417-1.1038-1.8782-1.673-2.8062c-0.066-0.1075-0.1346-0.213-0.2007-0.3202
							c-0.5068-0.8208-1.022-1.6353-1.5452-2.444c-0.1899-0.2937-0.3832-0.5845-0.5754-0.8765
							c-0.4172-0.6346-0.8392-1.265-1.2665-1.8912c-0.2073-0.3035-0.4143-0.6066-0.6238-0.9082
							c-0.4642-0.6681-0.9348-1.3299-1.4098-1.9873c-0.1628-0.2253-0.3226-0.4532-0.4868-0.677
							c-0.636-0.8687-1.2812-1.728-1.9361-2.5763c-0.1401-0.1812-0.2833-0.358-0.4242-0.5385
							c-0.5222-0.669-1.0491-1.332-1.5826-1.9871c-0.0905-0.1113-0.1782-0.2267-0.2692-0.3377
							c-0.1451-0.1771-0.2952-0.3474-0.4413-0.5233c-0.4167-0.502-0.8361-0.9998-1.2591-1.4927
							c-0.2506-0.292-0.5012-0.5833-0.754-0.8721c-0.4398-0.5026-0.8843-0.9979-1.3306-1.4903
							c-0.1673-0.1846-0.3305-0.3759-0.4988-0.559c-0.0491-0.0537-0.1009-0.1028-0.1503-0.1563
							c-0.9673-1.0487-1.9505-2.0692-2.9457-3.0666c-0.0927-0.0928-0.1815-0.1932-0.2745-0.2857
							c-0.0977-0.0971-0.1989-0.187-0.2968-0.2836c-0.8436-0.8323-1.6937-1.6515-2.5558-2.4441
							c-0.0109-0.0101-0.0214-0.0209-0.0325-0.0311c-0.0641-0.059-0.13-0.1135-0.1943-0.1722
							c-0.7022-0.6413-1.4108-1.2672-2.1243-1.881c-0.0968-0.0831-0.1909-0.1722-0.2879-0.2549
							c-0.1628-0.1388-0.3291-0.2679-0.4924-0.405c-0.4906-0.4125-0.9832-0.8184-1.4789-1.2169
							c-0.1558-0.1253-0.3087-0.2587-0.4649-0.3826c-0.1283-0.1017-0.259-0.1961-0.3876-0.2968
							c-0.4408-0.3455-0.884-0.6823-1.3282-1.0164c-0.1977-0.1486-0.3927-0.3062-0.5913-0.4526
							c-0.0966-0.0711-0.1945-0.1366-0.2911-0.2072c-0.3917-0.2864-0.7858-0.5632-1.1801-0.8405
							c-0.2359-0.166-0.4695-0.3405-0.7061-0.5031c-0.0821-0.0562-0.1652-0.1077-0.2473-0.1636
							c-0.3727-0.2539-0.7482-0.4977-1.1233-0.7435c-0.2581-0.1689-0.5138-0.3462-0.7728-0.5112
							c-0.0758-0.0484-0.1528-0.0922-0.2289-0.1402c-0.3431-0.2168-0.6883-0.4235-1.033-0.6331
							c-0.2773-0.1689-0.553-0.3459-0.8315-0.5098c-0.162-0.0954-0.324-0.1898-0.4861-0.2836
							c-0.515-0.2975-1.0282-0.5847-1.5396-0.8618c-0.2388-0.1293-0.4748-0.2445-0.7126-0.3695
							c-0.2479-0.1299-0.4954-0.2593-0.7422-0.3845c-0.1765-0.0896-0.3546-0.1879-0.5306-0.2751
							c-0.4678-0.2315-0.9319-0.4437-1.3963-0.6581c-0.1509-0.0699-0.3033-0.1462-0.4543-0.2142
							c-0.0422-0.019-0.085-0.0412-0.1274-0.06c-0.6575-0.2946-1.3118-0.5721-1.9623-0.8326
							c-0.0775-0.0313-0.1541-0.0566-0.2318-0.0872c-0.215-0.085-0.4273-0.1605-0.6416-0.2414
							c-0.3727-0.1414-0.7473-0.2905-1.1176-0.4207c-0.1943-0.0684-0.3854-0.1241-0.579-0.1893
							c-0.2636-0.0892-0.5262-0.1747-0.7885-0.2581c-0.209-0.0662-0.4203-0.1426-0.6286-0.2054
							c-0.3127-0.0945-0.6208-0.1706-0.9314-0.2568c-0.2668-0.0742-0.5345-0.1523-0.7996-0.2207
							c-0.1105-0.0284-0.2231-0.0645-0.3334-0.092c-0.4594-0.1144-0.9124-0.2065-1.3667-0.3036
							c-0.1993-0.0426-0.4013-0.0939-0.5997-0.1332c-0.0388-0.0077-0.0782-0.0185-0.117-0.026
							c-0.6471-0.126-1.2867-0.2257-1.9235-0.3165c-0.0958-0.0135-0.1938-0.0347-0.2894-0.0475
							c-0.0048-0.0007-0.0101-0.0019-0.015-0.0026c-0.7658-0.1027-1.5239-0.18-2.2736-0.2322
							c-0.0094-0.0007-0.0185-0.0002-0.0281-0.0007c-0.8101-0.0559-1.6104-0.0812-2.4005-0.079c-0.0197,0-0.04-0.0021-0.0597-0.0019
							c-0.6437,0.0029-1.2779,0.0318-1.9072,0.0728c-0.138,0.0089-0.2755,0.0181-0.4127,0.0289
							c-0.1392,0.0109-0.2802,0.0164-0.4186,0.0292c-0.5302,0.0489-1.055,0.1113-1.5743,0.1872
							c-0.0099,0.0014-0.0192,0.0034-0.0289,0.0048c-0.5042,0.0742-1.0032,0.1597-1.4965,0.2587
							c-0.1067,0.0214-0.209,0.0522-0.3149,0.0747c-0.2995,0.0636-0.5937,0.1382-0.8888,0.211
							c-0.3756,0.0925-0.7497,0.1874-1.1185,0.2944c-0.2937,0.0855-0.5831,0.1794-0.8725,0.2741
							c-0.2104,0.0689-0.4266,0.1258-0.6348,0.1995c-0.1177,0.0416-0.2285,0.0973-0.3457,0.1407
							c-0.5053,0.1867-1.0008,0.3922-1.4916,0.6075c-0.2273,0.0997-0.4582,0.1915-0.6821,0.2973
							c-0.7034,0.3315-1.3949,0.6857-2.0663,1.0759l-22.2399,12.9334c0.6714-0.3903,1.3632-0.7444,2.0663-1.0762
							c0.2239-0.1055,0.4548-0.1976,0.6821-0.2971c0.4908-0.2154,0.9866-0.4208,1.4916-0.6075
							c0.3238-0.1198,0.6505-0.2322,0.9801-0.34c0.2899-0.0949,0.58-0.1891,0.8741-0.2747
							c0.3679-0.1069,0.7413-0.2014,1.1158-0.2936c0.2957-0.073,0.5906-0.1479,0.8905-0.2115
							c0.5952-0.1265,1.1951-0.2426,1.8058-0.3325c0.0118-0.0016,0.0234-0.0043,0.0352-0.006
							c0.6546-0.0954,1.3203-0.1636,1.9919-0.2164c0.137-0.0106,0.2747-0.0198,0.4124-0.0287
							c0.6488-0.0421,1.3034-0.0691,1.9671-0.071c0.7902-0.0021,1.5904,0.0234,2.4005,0.079
							c0.7639,0.0525,1.5359,0.1306,2.317,0.2356c0.0948,0.0128,0.1921,0.0338,0.2874,0.0475
							c0.6753,0.0961,1.3549,0.2069,2.0421,0.3428c0.1989,0.0393,0.4008,0.0906,0.6004,0.1335
							c0.5634,0.1202,1.1288,0.2482,1.6994,0.3953c0.2656,0.0684,0.5335,0.1462,0.8005,0.2207
							c0.5172,0.1438,1.0362,0.2961,1.5586,0.462c0.2627,0.0836,0.5256,0.1691,0.7897,0.2583
							c0.5626,0.1901,1.1288,0.3946,1.6978,0.6105c0.2133,0.0807,0.4252,0.1558,0.6392,0.2404
							c0.7692,0.3038,1.5432,0.6288,2.3225,0.9803c0.1505,0.0677,0.3026,0.144,0.4536,0.2137
							c0.6399,0.2956,1.2827,0.6066,1.9288,0.9345c0.2456,0.1245,0.4921,0.2534,0.7386,0.3826
							c0.7482,0.3929,1.4984,0.7957,2.2543,1.2325c0.4432,0.2561,0.8826,0.5286,1.3232,0.7964
							c0.3423,0.2082,0.6854,0.4139,1.0261,0.6288C898.7021,734.2191,899.0364,734.4418,899.3718,734.6612z"/>
						<linearGradient id="SVGID_24_" gradientUnits="userSpaceOnUse" x1="946.6121" y1="842.3721" x2="1018.1666" y2="842.3721">
							<stop  offset="0" style="stop-color:#373D42"/>
							<stop  offset="0.9989" style="stop-color:#13171A"/>
						</linearGradient>
						<path style="fill:url(#SVGID_24_);" d="M1016.7611,849.6424c-0.0015-0.0084-0.0031-0.0171-0.0046-0.0258
							c-0.0106-0.067-0.0241-0.1342-0.0349-0.2012c-0.0898-0.5563-0.1844-1.1128-0.2894-1.671
							c-0.0157-0.0829-0.0352-0.166-0.051-0.2489c-0.0511-0.2652-0.1083-0.5309-0.1628-0.7969
							c-0.0662-0.3233-0.1266-0.6461-0.1979-0.9699c-0.0306-0.1385-0.0667-0.2775-0.098-0.416
							c-0.0672-0.2971-0.1387-0.5941-0.2102-0.8912c-0.0594-0.2481-0.1127-0.4958-0.1752-0.7441
							c-0.045-0.1795-0.0975-0.3592-0.1442-0.5389c-0.0905-0.3495-0.1844-0.6992-0.2807-1.049
							c-0.0566-0.206-0.1069-0.4119-0.1654-0.6179c-0.054-0.1896-0.1158-0.379-0.1714-0.5683
							c-0.1151-0.3939-0.2338-0.7874-0.3558-1.1807c-0.0609-0.1968-0.1151-0.3939-0.1779-0.5905
							c-0.0561-0.1766-0.1204-0.3524-0.1779-0.5287c-0.1445-0.4428-0.2939-0.8849-0.4468-1.3272
							c-0.0717-0.2077-0.1362-0.4158-0.2099-0.6232c-0.0472-0.1328-0.1016-0.2648-0.1495-0.3975
							c-0.2338-0.6483-0.4781-1.2949-0.7294-1.9408c-0.0708-0.1819-0.1334-0.365-0.2054-0.5466
							c-0.02-0.0501-0.0431-0.0995-0.063-0.1494c-0.3934-0.9854-0.8085-1.9659-1.2408-2.9423
							c-0.0368-0.0836-0.0688-0.1684-0.1059-0.2518c-0.1305-0.2922-0.2701-0.5815-0.404-0.8728
							c-0.1526-0.3325-0.3038-0.6654-0.4611-0.9965c-0.1949-0.4112-0.3975-0.8193-0.5992-1.2281
							c-0.1584-0.3209-0.314-0.6425-0.4764-0.962c-0.0369-0.0725-0.0713-0.146-0.1083-0.2185
							c-0.1813-0.3541-0.3719-0.7042-0.558-1.0562c-0.1562-0.2951-0.3089-0.5919-0.4683-0.8856
							c-0.2463-0.4536-0.5012-0.9027-0.7554-1.3522c-0.1471-0.2607-0.2901-0.5233-0.4401-0.7825
							c-0.3149-0.5445-0.6389-1.0831-0.9649-1.6206c-0.0968-0.1597-0.1895-0.3217-0.2872-0.4807
							c-0.4263-0.6936-0.8616-1.3809-1.306-2.0615c-0.1237-0.1896-0.2528-0.3749-0.3777-0.5633
							c-0.3248-0.4895-0.65-0.9788-0.9836-1.4609c-0.1741-0.2518-0.3542-0.498-0.5306-0.7476
							c-0.2916-0.4124-0.5823-0.8254-0.8804-1.2315c-0.1998-0.2725-0.4047-0.5392-0.6071-0.8085
							c-0.2822-0.3756-0.5636-0.7516-0.8511-1.1217c-0.2159-0.2778-0.4365-0.5502-0.6553-0.8246
							c-0.2136-0.2676-0.423-0.5401-0.6392-0.8046c-0.0696-0.085-0.1415-0.1665-0.2114-0.251
							c-0.2345-0.2845-0.4728-0.5637-0.7102-0.8444c-0.2824-0.3334-0.5648-0.6668-0.8513-0.9947
							c-0.2432-0.2783-0.4897-0.5515-0.736-0.8254c-0.1917-0.2132-0.3795-0.4317-0.5728-0.642
							c-0.0712-0.0776-0.1459-0.1494-0.2174-0.2264c-0.6926-0.7478-1.3934-1.4826-2.1075-2.1945
							c-0.0166-0.0168-0.0327-0.0349-0.0493-0.0518c-0.1088-0.108-0.221-0.2086-0.3303-0.3156
							c-0.5095-0.5011-1.0227-0.9945-1.5422-1.4758c-0.0698-0.0651-0.1377-0.1344-0.2078-0.199
							c-0.1808-0.1663-0.3666-0.3221-0.5486-0.486c-0.3587-0.3226-0.7179-0.6439-1.0807-0.9569
							c-0.1013-0.0874-0.2-0.1804-0.3016-0.2669c-0.1962-0.1674-0.3967-0.3245-0.5942-0.4891
							c-0.2836-0.2358-0.5667-0.4714-0.8527-0.7013c-0.1035-0.0833-0.2048-0.1718-0.3086-0.2539
							c-0.2266-0.1797-0.457-0.3488-0.6849-0.5247c-0.2538-0.1959-0.5068-0.3931-0.7625-0.584
							c-0.0843-0.0629-0.1666-0.1301-0.2511-0.1922c-0.2954-0.2183-0.5947-0.4243-0.8922-0.6356
							c-0.2034-0.1448-0.4056-0.2934-0.6103-0.4348c-0.0467-0.0325-0.093-0.0675-0.1399-0.0997
							c-0.5272-0.3621-1.0576-0.7131-1.5911-1.053c-0.0058-0.0037-0.0116-0.007-0.0173-0.0106
							c-0.051-0.0325-0.1028-0.0621-0.1539-0.0944c-0.4673-0.2951-0.9358-0.585-1.4074-0.8625
							c-0.122-0.072-0.2443-0.1431-0.3666-0.2139c-0.4049-0.2342-0.8229-0.4676-1.2507-0.6993
							c-0.0576-0.0311-0.1196-0.0607-0.1774-0.0918c-0.4179-0.2245-0.8472-0.4435-1.28-0.6625
							c-0.1567-0.0792-0.3053-0.1616-0.4634-0.2399c-0.0253-0.0125-0.0518-0.0239-0.0771-0.0364
							c-0.6469-0.319-1.3038-0.6285-1.965-0.9261c-0.0289-0.013-0.057-0.0275-0.0857-0.0405
							c-0.1387-0.0621-0.2771-0.1157-0.416-0.1766c-0.4906-0.2154-0.9794-0.425-1.4676-0.6235
							c-0.0785-0.0318-0.1584-0.0689-0.2369-0.1005c-0.1767-0.0709-0.3472-0.1292-0.5229-0.1973
							c-0.3597-0.1397-0.7158-0.2758-1.0687-0.4033c-0.1072-0.0388-0.2184-0.0853-0.3248-0.1227
							c-0.1794-0.0634-0.3489-0.113-0.5258-0.1727c-0.2636-0.0891-0.5248-0.1763-0.7819-0.2568
							c-0.1035-0.0325-0.2131-0.0728-0.3154-0.1038c-0.2253-0.0682-0.4372-0.1212-0.6558-0.1819
							c-0.1639-0.0458-0.3306-0.0949-0.4902-0.1361c-0.0568-0.0146-0.1184-0.0344-0.1745-0.0484
							c-0.3638-0.0911-0.716-0.1703-1.0543-0.2363c-0.0446-0.0089-0.0891-0.0173-0.1331-0.0256l-20.3797,13.7413
							c0.4302,0.0804,9.7615,3.6586,10.1788,3.8827c0.4877,0.2621,0.969,0.5259,1.4283,0.7914
							c0.5949,0.3438,1.1859,0.7049,1.7738,1.0764c0.0511,0.0322,0.1028,0.0619,0.1539,0.0944
							c0.5872,0.3737,1.17,0.7637,1.7495,1.1641c0.2029,0.1402,0.4035,0.2879,0.6052,0.4313
							c0.384,0.2725,0.767,0.5469,1.1474,0.8306c0.2552,0.1906,0.508,0.3876,0.7612,0.5833
							c0.3332,0.2568,0.6659,0.5151,0.996,0.7803c0.2843,0.2286,0.5662,0.4633,0.8481,0.6979
							c0.3015,0.2505,0.6021,0.5023,0.9004,0.7596c0.3614,0.3118,0.7191,0.6317,1.0762,0.9531
							c0.254,0.2286,0.5089,0.4551,0.7607,0.6885c0.5186,0.4806,1.0311,0.9733,1.5398,1.4731
							c0.1262,0.1243,0.2552,0.2436,0.3809,0.3691c0.7138,0.7117,1.4146,1.446,2.1068,2.1938
							c0.2657,0.2869,0.5289,0.5779,0.7916,0.8702c0.2458,0.2734,0.4923,0.5464,0.735,0.8242
							c0.2875,0.3286,0.5706,0.663,0.8535,0.9974c0.2364,0.2792,0.4738,0.5572,0.7071,0.8405
							c0.2884,0.3498,0.5715,0.7059,0.8551,1.0615c0.2174,0.2727,0.4365,0.5433,0.651,0.8191
							c0.2881,0.371,0.5706,0.7483,0.8534,1.1248c0.202,0.2686,0.4067,0.5349,0.6058,0.8063
							c0.2978,0.4062,0.5886,0.8194,0.8804,1.2316c0.1765,0.2496,0.3566,0.496,0.5306,0.7478
							c0.3363,0.4859,0.6644,0.9791,0.9916,1.4727c0.122,0.1843,0.2482,0.3652,0.369,0.5505
							c0.4447,0.6813,0.8809,1.3691,1.3075,2.0632c0.0937,0.1522,0.1823,0.3076,0.275,0.4606
							c0.3301,0.5439,0.6584,1.0897,0.9772,1.6409c0.1486,0.2568,0.2901,0.5172,0.4362,0.7755
							c0.2552,0.4515,0.5114,0.9025,0.7586,1.3583c0.1591,0.293,0.3115,0.5893,0.4673,0.8837
							c0.2246,0.425,0.4502,0.8495,0.6678,1.2776c0.1616,0.3177,0.3166,0.6379,0.474,0.9572
							c0.2028,0.4103,0.4059,0.8203,0.6016,1.233c0.1567,0.33,0.3074,0.662,0.4598,0.9935
							c0.1724,0.3749,0.3441,0.7499,0.5109,1.1265c0.4321,0.9761,0.8472,1.9569,1.2406,2.9423
							c0.0922,0.2313,0.1782,0.4637,0.2682,0.6955c0.2513,0.6459,0.4959,1.293,0.7297,1.9413
							c0.1228,0.3401,0.2417,0.6803,0.3594,1.0208c0.1526,0.4421,0.3024,0.8844,0.4466,1.3269
							c0.1218,0.3732,0.2407,0.7466,0.3563,1.1202c0.1218,0.3929,0.2405,0.7859,0.3553,1.1788
							c0.116,0.3963,0.2285,0.7924,0.3375,1.1887c0.0958,0.3491,0.1897,0.6982,0.2802,1.047
							c0.111,0.4281,0.2172,0.8562,0.3197,1.2841c0.0713,0.2971,0.1428,0.5941,0.21,0.8909
							c0.1044,0.4623,0.2012,0.924,0.2958,1.3853c0.0544,0.2662,0.1119,0.5325,0.163,0.7982
							c0.1232,0.6411,0.2369,1.2807,0.3401,1.9189c0.0109,0.0672,0.0243,0.1346,0.0349,0.2017
							c0.1119,0.7064,0.209,1.4103,0.2957,2.1121c0.025,0.2028,0.0445,0.4042,0.0674,0.6064
							c0.0563,0.4984,0.1076,0.9957,0.1509,1.491c0.0212,0.2423,0.0397,0.4842,0.0578,0.7256
							c0.0349,0.4713,0.063,0.941,0.0859,1.4091c0.011,0.2281,0.0236,0.4563,0.0318,0.6835
							c0.024,0.6678,0.0395,1.3337,0.0378,1.9938c-0.002,0.6806-0.0197,1.3465-0.0489,2.001
							c-0.0082,0.1836-0.0231,0.3602-0.0334,0.5416c-0.0258,0.4517-0.0546,0.9001-0.0934,1.3392
							c-0.0222,0.253-0.0508,0.4999-0.0773,0.7488c-0.0392,0.3674-0.0804,0.7331-0.1285,1.0916
							c-0.0361,0.2662-0.0768,0.5276-0.118,0.7888c-0.0515,0.3289-0.1057,0.655-0.1651,0.9757
							c-0.0544,0.2929-0.1132,0.5806-0.1738,0.8668c-0.0616,0.2903-0.1257,0.5782-0.1941,0.8618
							c-0.0794,0.3303-0.1653,0.6536-0.2537,0.974c-0.0696,0.2525-0.1394,0.505-0.2145,0.7515
							c-0.1165,0.3828-0.2427,0.7548-0.3719,1.1229c-0.0693,0.1973-0.1351,0.3985-0.208,0.5914
							c-0.2355,0.6232-0.4883,1.226-0.7603,1.8052c-0.1846,0.3922-0.3777,0.7743-0.5787,1.1462
							c-0.0241,0.0446-0.0458,0.0925-0.0698,0.1366c-0.2282,0.4153-0.4685,0.815-0.7169,1.2043
							c-0.3604,0.5645-0.7463,1.0952-1.1476,1.6045c-0.0966,0.1224-0.1955,0.2411-0.2944,0.3604
							c-0.3881,0.4681-0.7897,0.9169-1.2124,1.3351c-0.0344,0.0339-0.0665,0.072-0.1011,0.1057
							c-0.4531,0.4409-0.9312,0.8449-1.4223,1.2285c-0.119,0.093-0.2393,0.1835-0.3604,0.2732
							c-0.5032,0.3724,1.0403,0.6975,1.144,2.3355l23.4959-13.5541C1022.2827,875.7438,1016.8608,850.2726,1016.7611,849.6424z"/>
					</g>
					<linearGradient id="SVGID_25_" gradientUnits="userSpaceOnUse" x1="796.6472" y1="811.8716" x2="999.254" y2="811.8716">
						<stop  offset="0.001" style="stop-color:#408BFC"/>
						<stop  offset="0.3211" style="stop-color:#2A7DFD"/>
						<stop  offset="1" style="stop-color:#0062FF"/>
					</linearGradient>
					<path style="fill:url(#SVGID_25_);" d="M961.7385,808.2784c-4.236-2.4474-9.8461-4.8436-13.6459-5.5546
						c-7.8126-27.8125-27.3786-57.0372-50.3951-70.3348c-28.2031-16.2946-52.0274-2.9285-54.7261,27.2164
						c-4.5845-5.6686-9.6098-9.2599-14.9501-13.0275c-13.5388-9.5514-31.374-3.7114-31.374,19.2401
						c0,22.3646,13.0043,39.7909,30.3807,50.0873l132.8222,76.7379c20.7908,11.7549,39.4039,5.4279,39.4039-19.3403
						C999.254,849.4039,982.5286,820.29,961.7385,808.2784z"/>
				</g>
				<g id="lock_5_">
					<g>
						<path style="fill:#242A2E;" d="M868.5954,781.7162c0.3177-8.3804,5.996-11.4688,13.1906-7.1675
							c7.2069,4.3087,13.0106,14.4576,13.0104,22.8197c-0.0001,5.7559-2.7502,9.1804-6.8147,9.4457
							c-0.3743,0.0244-0.6658,0.3341-0.6658,0.7095c-0.0001,3.4709-0.0001,6.9417-0.0001,10.4125
							c0,8.1819-11.0101,1.9746-11.01-6.908c0.0001-3.7023-0.0309-7.1583-0.0308-10.8606
							C871.6949,794.9587,868.3594,787.9406,868.5954,781.7162z"/>
						
							<linearGradient id="SVGID_26_" gradientUnits="userSpaceOnUse" x1="9260.9746" y1="821.4769" x2="9278.1162" y2="774.3809" gradientTransform="matrix(-1 0 0 1 10147.627 0)">
							<stop  offset="0.001" style="stop-color:#0530AD"/>
							<stop  offset="1" style="stop-color:#0062FF"/>
						</linearGradient>
						<path style="fill:url(#SVGID_26_);" d="M868.3047,782.0632c0-6.509,3.483-9.9913,8.4405-9.3403
							c-1.34,1.618-2.0859,3.9745-2.0859,7.0362c-0.0001,5.8572,2.8475,12.5907,7.0302,17.5801
							c0.2866,0.3419,0.45,0.7693,0.45,1.2156c0,3.4717-0.0001,6.9435-0.0001,10.4153c0,4.1244,2.4863,7.767,5.1497,9.6001
							c-0.5515,7.9048-11.5045,1.3632-11.5043-7.296c0.0001-3.504,0.0001-7.0079,0.0001-10.5119
							c0-0.3839-0.1402-0.7517-0.3878-1.045C871.1806,794.7206,868.3046,787.9495,868.3047,782.0632z"/>
					</g>
				</g>
			</g>
			<g>
				<g id="lock_4_">
					<g>
						<path style="fill:#242A2E;" d="M869.11,781.5764c0.3118-8.2211,5.882-11.2507,12.9396-7.0312
							c7.0699,4.2267,12.7631,14.1826,12.7629,22.3856c0,5.6464-2.6978,9.0057-6.685,9.2659
							c-0.3672,0.0239-0.6532,0.3278-0.6533,0.696c0,3.4048-0.0001,6.8096-0.0001,10.2143c0,8.0262-10.8006,1.9371-10.8005-6.7766
							c0.0001-3.6318-0.0303-7.0221-0.0303-10.6539C872.1506,794.5669,868.8786,787.6823,869.11,781.5764z"/>
						
							<linearGradient id="SVGID_27_" gradientUnits="userSpaceOnUse" x1="9260.8027" y1="820.5806" x2="9277.6182" y2="774.3805" gradientTransform="matrix(-1 0 0 1 10147.627 0)">
							<stop  offset="0.001" style="stop-color:#0530AD"/>
							<stop  offset="1" style="stop-color:#0062FF"/>
						</linearGradient>
						<path style="fill:url(#SVGID_27_);" d="M868.8249,781.9167c0.0001-6.3851,3.4167-9.8012,8.28-9.1625
							c-1.3145,1.5872-2.0462,3.8989-2.0462,6.9023c-0.0001,5.7458,2.7934,12.3511,6.8964,17.2456
							c0.2812,0.3354,0.4415,0.7547,0.4415,1.1924c-0.0001,3.4058-0.0001,6.8115-0.0001,10.2172
							c-0.0001,4.046,2.439,7.6193,5.0518,9.4175c-0.541,7.7544-11.2856,1.3372-11.2855-7.1572
							c0.0001-3.4373,0.0001-6.8746,0.0001-10.3119c0-0.3766-0.1375-0.7374-0.3804-1.0251
							C871.6461,794.3333,868.8248,787.691,868.8249,781.9167z"/>
					</g>
				</g>
				<linearGradient id="SVGID_28_" gradientUnits="userSpaceOnUse" x1="703.6759" y1="847.7859" x2="895.6472" y2="847.7859">
					<stop  offset="0" style="stop-color:#BB8EFF;stop-opacity:0"/>
					<stop  offset="0.151" style="stop-color:#B08EFF;stop-opacity:0.0756"/>
					<stop  offset="0.4149" style="stop-color:#938DFE;stop-opacity:0.2079"/>
					<stop  offset="0.7582" style="stop-color:#658CFD;stop-opacity:0.3799"/>
					<stop  offset="0.998" style="stop-color:#408BFC;stop-opacity:0.5"/>
				</linearGradient>
				<path style="fill:url(#SVGID_28_);" d="M703.6759,868.1541c0,0,164.3524-91.4596,169.3346-94.4489
					c2.3519-1.6653,6.0333-1.456,9.8738,0.84c7.0698,4.2267,12.763,14.1826,12.7629,22.3856
					c-0.0001,5.6464-2.6979,9.0057-6.6851,9.2659c-0.3672,0.0239-0.6531,0.3278-0.6532,0.696
					c-0.0001,3.4048-0.0001,6.8096-0.0001,10.2143c0,2.3289-1.0208,3.1282-2.2003,3.7021
					c-3.4152,1.6619-182.4327,102.1492-182.4327,102.1492"/>
			</g>
		</g>
	</g>
</g>
<g id="Scott_on_platform">
	<g>
		<g>
			<g>
				
					<image style="overflow:visible;" width="358" height="237" xlink:href="4188FBDD41C66286.png"  transform="matrix(1 0 0 1 386.1666 542.9584)">
				</image>
			</g>
			<g>
				<linearGradient id="SVGID_29_" gradientUnits="userSpaceOnUse" x1="422.2844" y1="671.8293" x2="565.0723" y2="671.8293">
					<stop  offset="0" style="stop-color:#373D42"/>
					<stop  offset="0.9995" style="stop-color:#242A2E"/>
				</linearGradient>
				<polygon style="fill:url(#SVGID_29_);" points="565.0723,717.3793 422.2844,634.9407 422.2844,626.2792 565.0723,708.7179 				
					"/>
				<linearGradient id="SVGID_30_" gradientUnits="userSpaceOnUse" x1="422.2844" y1="626.2792" x2="707.8602" y2="626.2792">
					<stop  offset="0" style="stop-color:#373D42"/>
					<stop  offset="0.9989" style="stop-color:#13171A"/>
				</linearGradient>
				<polygon style="fill:url(#SVGID_30_);" points="565.0723,708.7179 422.2844,626.2792 565.0723,543.8406 707.8602,626.2792 				
					"/>
				<linearGradient id="SVGID_31_" gradientUnits="userSpaceOnUse" x1="565.0723" y1="671.8207" x2="707.8602" y2="671.8207">
					<stop  offset="0" style="stop-color:#13171A"/>
					<stop  offset="1" style="stop-color:#242A2E"/>
				</linearGradient>
				<polygon style="fill:url(#SVGID_31_);" points="565.0723,717.3621 707.8602,634.9235 707.8602,626.2792 565.0723,708.7179 				
					"/>
			</g>
		</g>
		<g>
			<g>
				<path style="fill:#868D95;" d="M586.9753,613.5375c0-1.1512-0.5254-4.975-3.0465-6.1305
					c-2.7038-1.2393-2.8807,1.4018-2.995,2.2642c-0.1895,1.4299-3.2878,4.4924-7.1292,3.2411
					c-1.1649-0.3795-2.7093-1.0989-4.6202-1.3804c-1.6384-0.2413-3.7048,0.4218-3.4089,3.1841
					c0.3166,2.9558,4.8474,4.7533,8.6176,6.8646c3.924,2.1974,8.4969,5.0253,10.5789,5.933
					c1.4068,0.6133,4.3615-1.3469,4.5909-2.5709c0.2247-1.1987,0.1873-3.746-0.3746-5.0197
					C588.3158,617.9453,586.9753,615.6948,586.9753,613.5375z"/>
				<path style="opacity:0.5;fill:#B9BFC7;" d="M578.2915,612.5148c-2.1128,0.931-2.7141,0.5914-4.5512,0.2764
					c-1.2075-0.207-2.6926-0.9772-4.6036-1.2587c-1.6384-0.2413-3.7048,0.4219-3.4089,3.1841
					c0.1979,1.8474,0.9171,3.6923,3.1927,4.9941c1.3654,0.7811,4.5643,1.522,6.7827,2.6521
					c2.2205,1.1312,2.1371,2.1799,4.1038,3.468c1.8836,1.2336,3.4437,1.6782,4.6674,1.9084c1.9861,0.3736,4.784-1.4868,5.124-2.6848
					c0.4523-1.5936,0.1042-3.8571-0.4577-5.1307c-0.5468-1.2393-1.4111-3.2236-1.8803-4.5994c0,0-0.7384-0.2017-1.2396,1.0271
					c-0.4243,1.0402-2.1346,1.3905-3.3641,1.2312c-6.1063-0.7911-5.0472-2.7818-4.5164-3.4098
					C578.7936,613.3997,578.6396,612.3615,578.2915,612.5148z"/>
			</g>
			<g>
				<path style="fill:#868D95;" d="M565.5193,626.9417c0-1.1512-0.5255-4.975-3.0466-6.1305
					c-2.7038-1.2393-2.8807,1.4019-2.995,2.2642c-0.1894,1.4299-2.7142,4.889-8.4155,5.9187
					c-1.2056,0.2177-5.6683,0.5154-7.4973,1.1366c-2.662,0.9041-1.7079,5.1988,2.468,6.2029
					c3.4846,0.8379,4.248,0.2534,8.9409,1.105c4.425,0.8029,6.0352,1.2562,8.2829,1.5821c1.9735,0.2861,4.3165-0.0251,4.9788-1.3561
					c0.5434-1.0919,0.2841-3.2126-0.1745-4.527C567.014,630.1369,565.5193,628.8402,565.5193,626.9417z"/>
				<path style="opacity:0.5;fill:#B9BFC7;" d="M555.5217,626.8067c-1.8205,1.4201-2.9365,1.6879-4.7949,1.8324
					c-1.2215,0.095-4.6498,0.6119-6.5715,0.8069c-1.6476,0.1672-3.4886,1.3163-2.5254,3.922
					c0.6443,1.7427,3.0861,3.6071,5.6683,4.0602c2.4103,0.423,5.248-0.317,7.6755,0.2355c2.4299,0.553,2.6059,1.5902,4.8281,2.3574
					c2.1283,0.7348,3.7498,0.7838,4.9926,0.7073c2.0172-0.1241,4.2743-2.613,4.3105-3.8578
					c0.0482-1.6558-0.4492-3.2942-1.1507-4.6602c-0.6188-1.205-1.1479-2.6943-1.9241-4.2012c0,0-0.7653-0.0148-0.9503,1.2994
					c-0.1566,1.1124-2.404,1.8708-3.6351,2.0175c-6.1141,0.7283-6.0247-2.136-5.6639-2.8749
					C556.2252,627.5417,555.8216,626.5728,555.5217,626.8067z"/>
			</g>
			<g>
				<path style="fill:#868D95;" d="M599.9196,490.56c-0.9011-8.6234-2.576-23.7983-5.9975-33.9649
					c-1.0107-3.0033-3.3615-4.0452-5.5562-5.0743c-2.7777-1.3024-5.2898,0.2408-4.9031,2.5917
					c0.5964,3.6257,6.4619,27.6386,8.0255,33.0224c0.7832,2.6969,2.3767,3.9817,3.5517,4.776
					C598.5237,494.2662,600.0928,492.2177,599.9196,490.56z"/>
				<path style="fill:#868D95;" d="M595.8093,485.825c-5.6356,4.8948-20.0762,17.4618-21.6612,19.5089
					c-1.2094,1.562-1.0456,2.9639-0.8478,3.7096c0.4573,1.7237,1.3455,1.5928,2.2681,1.1528
					c1.8749-0.8942,17.7003-8.7016,23.0828-15.7505c1.5314-2.0054,1.439-3.5412,1.019-6.2388
					C599.2128,485.2685,596.8769,484.8978,595.8093,485.825z"/>
				<path style="fill:#6F6F6F;" d="M575.781,509.5912c-2.0072,1.9778-6.4111,4.2618-8.3597,4.9095
					c-0.7578,0.2519-2.9097,0.2509-3.1912,0.1331c-0.3817-0.1597-1.5284-0.8311-2.1793-1.1088
					c-0.5892-0.2514-2.2501-0.4836-2.5051-0.5393c-0.8743-0.1899-0.8696-1.5072-0.0081-1.6808c0,0,1.7238-0.2092,3.5739-1.1037
					c0.7061-0.3414,2.8936-1.8945,2.8936-1.8945l-2.467,0.9048c-2.3743,0.874-2.8248-1.1291-2.8248-1.1291
					s6.1993-2.5221,6.779-2.6505c1.4046-0.3112,5.3061-0.2958,6.7239-1.0412c0.6476-0.3404,1.6123-0.6659,2.2136,0.6089
					C577.1544,506.5362,576.3741,509.0067,575.781,509.5912z"/>
			</g>
			<g>
				<g>
					<path style="fill:#373D42;" d="M589.484,507.474c1.7198,2.9995,3.1778,6.8282,3.1778,11.8687
						c0,7.0624-1.8212,8.8265-1.845,10.3124c-0.1069,6.6583-3.2763,28.7805-2.4867,32.388c0.8514,3.89,1.4403,8.2863,1.8087,13.0019
						c1.0614,13.5868-1.0948,29.3942-2.0452,35.8682c-0.1558,1.0607-2.3848,2.1268-4.8968,2.3714
						c-2.161,0.2103-5.5125-1.0992-5.7037-2.4762c-0.8312-5.9845-1.6173-27.0849-1.9449-31.7369
						c-0.1909-2.7104-0.9989-10.2759-1.8857-14.3382c-0.3807-1.7441-0.2306-22.7026-0.2306-24.5674
						c-2.0842,11.8612-7.8584,31.5107-7.0602,34.1978c0.8784,2.9574,1.157,8.4113,1.4984,12.7815
						c1.0614,13.5867-0.7159,31.7739-0.9117,38.3142c-0.0437,1.4604-3.3889,1.8879-6.0378,1.7315
						c-1.5971-0.0942-4.5851-0.8553-4.7975-2.4586c-0.7983-6.0251-3.9753-25.0832-4.1086-31.4611
						c-0.1292-6.1804,0.2959-12.6285-0.1371-17.0044c-0.6175-6.2413-2.1857-16.8496-2.3099-25.0611
						c-0.1187-7.8468,1.4029-21.3914,2.5803-27.0718c2.6042-12.5633,3.268-13.9848,3.268-13.9848s8.1481,3.3923,17.5717,2.6436
						C580.8284,512.1697,589.484,507.474,589.484,507.474z"/>
				</g>
				<path style="opacity:0.5;fill-rule:evenodd;clip-rule:evenodd;fill:#242A2E;" d="M576.0128,533.6631
					c3.4412-2.2087,2.0439-10.6132,2.7416-10.6132c0.9523,0,0.5972,2.5188,1.8362,4.5377c1.0092,1.6437,2.2211,1.7366,3.9233,1.7366
					c2.2955,0-6.6876,6.9358-6.6876,12.8067c0,7.6255,2.813,23.0824,3.2578,24.9901c2.2681,9.726,0.3601,21.0841,0.5426,30.7237
					c0.1759,9.3023,4.2449,14.8371,4.2457,14.8382l0,0c0,0-1.2778,0.498-2.6755,0.6015c-0.6791,0.0504-1.519,0.008-2.3509-0.2109
					c-1.6385-0.4305-3.226-1.3519-3.3529-2.2653c-0.8314-5.9844-1.6173-27.0847-1.9449-31.7367
					c-0.191-2.7104-1.5981-12.2345-1.8857-14.3383c-0.7019-5.1364-0.1453-20.9778-0.2307-24.5674
					C573.4318,540.1659,574.0568,534.9186,576.0128,533.6631z"/>
			</g>
			<path style="fill:#D5D9E0;" d="M588.5756,450.2101c-2.1927-0.9681-5.0847-0.6639-7.8897,0.2071
				c-4.8209,1.497-8.923,2.3495-10.2807,3.0768c-6.3757,3.415-10.5062,6.0097-14.2238,8.6272
				c-2.9092,2.0482-2.8591,3.6759-2.9042,6.1433c-0.1815,9.9344,4.7162,31.022,4.1528,34.5568
				c-0.4138,2.5961-1.837,5.2603-2.8381,10.3536c0,0,5.6616,2.5806,12.8848,2.5806c17.7946,0,22.9434-6.4954,22.9434-6.4954
				c-1.2361-2.5812-2.14-7.5172-2.14-10.7057c0-5.3145,0.3395-10.8304,1.411-19.3576c3.0853,0.7188,8.5275-2.6958,8.5275-2.6958
				s-1.6516-13.825-3.0996-18.5886C594.2618,455.0927,593.5997,452.4284,588.5756,450.2101z"/>
			<path style="opacity:0.5;fill:#B9BFC7;" d="M576.6481,515.0772c-2.5765,0.4174-5.611,0.6784-9.1716,0.6784
				c-7.2232,0-12.8848-2.5806-12.8848-2.5806c1.0012-5.0934,2.4243-7.7576,2.8381-10.3536c0.2095-1.314-0.3217-4.6707-0.9814-9.044
				c-1.4761-9.7842,5.6917-23.5098,5.6917-23.5098s2.0753,21.0303,5.0092,28.1086
				C568.9885,502.8135,576.6481,515.0772,576.6481,515.0772z"/>
			<path style="fill:#868D95;" d="M587.1502,432.9101c-0.1293-6.9621-5.6446-12.6105-12.6104-12.6105
				c-6.9634,0-12.608,5.6472-12.608,12.6105c0,0.5863-0.3716,11.5438-0.3716,11.5438c0,1.7321,1.1525,2.5044,2.2598,2.5044
				c0.003,0,16.2197,0.0721,16.2197,0.0721C582.7458,444.1221,587.2689,439.2945,587.1502,432.9101z"/>
			<path style="fill:none;" d="M580.6859,450.4172c0.0856,0.3331,0.2099,0.7238,0.3256,1.1523
				C580.9274,450.8186,580.6859,450.4172,580.6859,450.4172z"/>
			<path style="fill:#868D95;" d="M569.1366,456.7126c1.1591,0.5689,3.8619,1.0316,6.5092,0.0028
				c4.1776-1.6235,5.2614-2.7961,5.3703-4.1242c0.0867-1.057-0.2569-1.838-0.3302-2.174c-0.291-1.3335-0.6462-5.1641-0.6462-5.1641
				l-12.4603,1.721c0,0,1.3257,5.2457,0.5898,7.866C567.9865,455.491,568.3077,456.3058,569.1366,456.7126z"/>
			<g>
				<g>
					<path style="fill:#868D95;" d="M551.8897,509.9196c4.0692-2.1147,7.1506-16.0398,8.6501-24.4644
						c1.8021-10.1244,1.1804-14.3996-0.0621-17.1848c-1.6792-3.7642-3.7455-5.5995-6.0369-4.1168
						c-1.3632,0.8821-3.0891,2.8509-3.8271,8.2171c-1.4869,10.8111-4.9847,26.7733-4.0323,33.6672
						C546.8194,507.7612,548.7147,511.5696,551.8897,509.9196z"/>
					<path style="fill:#868D95;" d="M551.9547,501.7181c-4.9167-7.5047-19.0653-14.5988-21.4967-15.9222
						c-1.2882-0.7012-3.1315-0.6381-3.6096,0.034c-1.1431,1.6066-0.1818,2.8854,0.5315,3.7134
						c1.4495,1.6827,13.0745,14.6022,21.066,20.1693c2.0921,1.4574,3.1549,1.2173,4.1296-0.4962
						C553.7037,507.233,553.1243,503.5034,551.9547,501.7181z"/>
					<path style="fill:#868D95;" d="M527.3799,489.5432c-2.4398-1.4039-7.5511-5.0956-8.6949-6.7982
						c-0.4448-0.6621-0.2161-2.621-0.1779-2.9234c0.0518-0.41,0.3918-1.6932,0.4853-2.3939
						c0.0847-0.6343-1.6119-4.328-1.6264-4.5883c-0.0507-0.8923,1.0161-1.1421,1.4132-0.3592c0,0,2.3409,3.539,3.6959,5.081
						c0.5172,0.5885,2.5963,2.2794,2.5963,2.2794l-1.3271-2.2305c-1.4754-2.0521,0.1299-2.9233,0.1299-2.9233
						s4.0833,5.2939,4.3617,5.8176c0.6746,1.2689,1.126,4.1259,2.2221,5.2915c0.5006,0.5324,1.0654,2.7431,0.3654,3.9201
						C530.051,491.0146,528.1009,489.9582,527.3799,489.5432z"/>
				</g>
			</g>
			<path style="fill:#D5D9E0;" d="M548.2466,486.131c0,0,0.6124,2.0132,4.9631,3.0133c4.3506,1.0002,6.7014,0.2572,6.7014,0.2572
				s2.7575-13.5046,2.161-20.2983c-0.3224-3.6724-2.3092-6.3512-4.47-6.6618c-2.6665-0.3833-4.7339,2.354-6.2698,6.5027
				C549.8963,472.8227,548.2466,486.131,548.2466,486.131z"/>
			<path d="M585.195,422.8232c-2.4795-2.1436-4.8533-4.0684-9.2673-4.0684c-4.186,0-10.8141,3.2084-14.3582,4.4294
				c-0.2771,0.0955,0.0391,4.5488,1.9167,6.6396c1.2693,1.4135,2.5176,0.1443,3.8334,1.1066
				c1.2362,0.9041,0.9583,5.2216,0.9583,6.646c0,0.5034,0.722,0.6125,0.9584-0.0064c1.1899-3.1156,3.5643-2.5305,3.8234-0.213
				c0.093,0.832,0.01,1.4878,0.01,2.4262c0,1.1066,3.1661,7.3243,7.6667,7.7462l0.9583-0.5533
				c-0.1473-2.4562,5.1609-5.9993,6.3666-12.5285C589.0719,428.9743,587.7089,424.9966,585.195,422.8232z"/>
		</g>
	</g>
</g>
<g id="ID_Cards">
	<g>
		<linearGradient id="SVGID_32_" gradientUnits="userSpaceOnUse" x1="670.2992" y1="413.0493" x2="814.1666" y2="413.0493">
			<stop  offset="0" style="stop-color:#0062FF;stop-opacity:0.2"/>
			<stop  offset="0.161" style="stop-color:#1868FF;stop-opacity:0.3127"/>
			<stop  offset="0.5018" style="stop-color:#5676FF;stop-opacity:0.5513"/>
			<stop  offset="0.9919" style="stop-color:#B98EFF;stop-opacity:0.8943"/>
			<stop  offset="1" style="stop-color:#BB8EFF;stop-opacity:0.9"/>
		</linearGradient>
		<path style="fill:url(#SVGID_32_);" d="M670.2992,328.4402v83.3587c0,8.9546,4.7562,17.2352,12.4909,21.7472l120.5587,70.3258
			c4.7955,2.7974,10.8179-0.6617,10.8179-6.2135v-83.8609c0-8.9826-4.7857-17.2847-12.5587-21.7866l-120.5102-69.7955
			C676.3021,319.438,670.2992,322.8983,670.2992,328.4402z"/>
		<linearGradient id="SVGID_33_" gradientUnits="userSpaceOnUse" x1="651.1169" y1="424.2399" x2="794.9843" y2="424.2399">
			<stop  offset="0" style="stop-color:#0062FF;stop-opacity:0.2"/>
			<stop  offset="0.161" style="stop-color:#1868FF;stop-opacity:0.3127"/>
			<stop  offset="0.5018" style="stop-color:#5676FF;stop-opacity:0.5513"/>
			<stop  offset="0.9919" style="stop-color:#B98EFF;stop-opacity:0.8943"/>
			<stop  offset="1" style="stop-color:#BB8EFF;stop-opacity:0.9"/>
		</linearGradient>
		<path style="fill:url(#SVGID_33_);" d="M651.1169,339.6308v83.3587c0,8.9546,4.7562,17.2352,12.4909,21.7472l120.5586,70.3258
			c4.7955,2.7974,10.8179-0.6617,10.8179-6.2135v-83.8609c0-8.9826-4.7857-17.2847-12.5587-21.7866L661.9154,333.406
			C657.1198,330.6286,651.1169,334.089,651.1169,339.6308z"/>
		<g>
			<path style="fill:#A2A9B0;" d="M632.6805,346.9163c-2.0544,1.2215-3.5139,3.4466-3.5139,6.179v83.9581
				c0,8.9545,4.7562,17.2353,12.491,21.7473l120.5586,69.7263c2.3003,1.3418,4.8819,1.2433,6.946,0.165l5.7054-3.1685
				c2.0793-1.2151,3.5615-3.4532,3.5615-6.2073v-83.8609c0-8.9825-4.7858-17.2846-12.5587-21.7865l-120.5102-69.7956
				c-2.3485-1.3601-4.9855-1.2234-7.0657-0.0792L632.6805,346.9163z"/>
			<path style="fill:#F2F4F8;" d="M629.1666,353.6946v83.3587c0,8.9546,4.7562,17.2353,12.491,21.7472l120.5586,70.3259
				c4.7955,2.7974,10.8179-0.6617,10.8179-6.2135v-83.8609c0-8.9825-4.7858-17.2847-12.5588-21.7866l-120.5102-69.7955
				C635.1696,344.6924,629.1666,348.1528,629.1666,353.6946z"/>
			<linearGradient id="SVGID_34_" gradientUnits="userSpaceOnUse" x1="632.0767" y1="400.6049" x2="685.3769" y2="400.6049">
				<stop  offset="0" style="stop-color:#408BFC"/>
				<stop  offset="0.3196" style="stop-color:#728CFD"/>
				<stop  offset="0.6182" style="stop-color:#9A8DFE"/>
				<stop  offset="0.8549" style="stop-color:#B28EFF"/>
				<stop  offset="1" style="stop-color:#BB8EFF"/>
			</linearGradient>
			<path style="fill:url(#SVGID_34_);" d="M685.3769,415.9197c0,14.0143-13.0285,23.5669-26.3504,16.1589
				c-17.8709-9.9375-26.9498-29.4919-26.9498-46.6785c0-14.8115,12.0659-24.1528,26.9498-15.5595
				C673.9105,378.434,685.3769,398.7332,685.3769,415.9197z"/>
			<linearGradient id="SVGID_35_" gradientUnits="userSpaceOnUse" x1="634.5443" y1="400.8564" x2="681.7899" y2="400.8564">
				<stop  offset="0" style="stop-color:#373D42"/>
				<stop  offset="0.4949" style="stop-color:#353B40"/>
				<stop  offset="0.7069" style="stop-color:#2F3439"/>
				<stop  offset="0.8642" style="stop-color:#24282C"/>
				<stop  offset="0.9946" style="stop-color:#14181B"/>
				<stop  offset="0.9989" style="stop-color:#13171A"/>
			</linearGradient>
			<path style="fill:url(#SVGID_35_);" d="M681.7899,414.495c0,15.0648-10.5763,21.1711-23.6228,13.6386
				s-23.6228-25.8511-23.6228-40.9159c0-15.0648,10.5763-21.171,23.6228-13.6386S681.7899,399.4302,681.7899,414.495z"/>
			<g>
				<polygon style="fill:#D5D9E0;" points="693.1666,389.4583 693.1666,401.4583 757.1666,438.4583 757.1666,426.4583 				"/>
				<polygon style="fill:#D5D9E0;" points="693.1666,463.4583 693.1666,469.4583 757.1666,506.4583 757.1666,500.4583 				"/>
				<polygon style="fill:#D5D9E0;" points="693.1666,437.4583 693.1666,443.4583 751.1666,476.4583 751.1666,470.4583 				"/>
				<g>
					<polygon style="fill:#D5D9E0;" points="693.1666,408.4583 693.1666,420.4583 733.1666,443.5833 733.1666,431.5833 					"/>
				</g>
			</g>
			<g>
				<path style="fill:#D5D9E0;" d="M644.8614,392.0067c0.0983-6.4075,5.1949-11.6032,11.6032-11.6032
					s11.6032,5.1949,11.6032,11.6032c0,7.7981-6.0932,14.2689-6.0932,14.2689s-10.341,3.1398-11.5261,3.5381
					c-3.0964,1.0406-4.0595-0.8179-4.3493-2.5492C645.4606,403.4495,644.746,399.5296,644.8614,392.0067z"/>
				<g>
					<path style="fill:#868D95;" d="M657.7886,428.1336c4.2263,2.4399,8.1897,3.4409,11.6221,3.1772
						c0.0198-0.5161,0.0435-1.0435,0.0737-1.5908c0.2205-3.9854,2.8362-7.7349,4.9478-8.6318
						c0.8857-0.3765,1.7986-0.5493,2.5642-0.2119c-3.6414-2.6646-8.9194-6.0049-15.3953-9.4731
						c-2.2148-1.1865-4.6028-1.313-6.2339-1.1978c-2.0747,0.146-11.7004,1.0977-12.3152,1.2539
						c-0.4033,0.1025-0.7668,0.2729-1.1106,0.4751C646.1324,418.7347,651.6902,424.6126,657.7886,428.1336z"/>
					<path style="fill:#868D95;" d="M677.4119,421.1771c-0.1306-0.0967-0.2805-0.2017-0.4155-0.3008
						c-0.7656-0.3374-1.6785-0.1646-2.5642,0.2119c-2.1116,0.897-4.7273,4.6465-4.9478,8.6318
						c-0.0303,0.5474-0.054,1.0747-0.0737,1.5908c3.8113-0.292,6.9641-2.1479,9.0793-5.3599
						C678.7347,423.6766,678.4671,421.9613,677.4119,421.1771z"/>
					<path style="fill:none;" d="M655.3672,410.2054c1.6311-0.1152,4.019,0.0112,6.2339,1.1978
						c6.4758,3.4683,11.7539,6.8086,15.3953,9.4731c0.7898,0.3486,1.4226,1.2402,1.7041,3.0234
						c0.0583,0.3691,0.1287,0.8315,0.208,1.3672c1.5979-2.7534,2.5029-6.3784,2.5029-10.772
						c0-15.0649-10.5764-33.3833-23.6228-40.916c-13.0466-7.5322-23.6228-1.4263-23.6228,13.6387
						c0,8.0229,3.0005,16.9688,7.7756,24.7168c0.3438-0.2021,0.7073-0.3726,1.1106-0.4751
						C643.6668,411.3031,653.2925,410.3514,655.3672,410.2054z"/>
					<path style="fill:#868D95;" d="M676.9964,420.8763c0.135,0.0991,0.2849,0.2041,0.4155,0.3008
						c1.0552,0.7842,1.3228,2.4995,1.0781,4.7739c0.1453-0.2202,0.283-0.4507,0.4185-0.6841
						c-0.0793-0.5356-0.1497-0.998-0.208-1.3672C678.419,422.1165,677.7862,421.2249,676.9964,420.8763z"/>
				</g>
				<g>
					<path style="fill:#D5D9E0;" d="M652.1258,409.2547l9.8489-2.9798c0,0-0.1317,3.2231-0.1317,4.4449
						c0,1.7362,3.2004,2.8652,2.6653,4.6588c-0.4677,1.5677-2.9875,3.2581-7.2408,3.4592c-2.3552,0.1113-5.765-1.4056-6.4938-3.0421
						c-0.8162-1.8326,1.3929-2.9119,1.3929-3.2116C652.1666,412.043,652.1258,409.2547,652.1258,409.2547z"/>
					<path style="fill:#B9BFC7;" d="M652.1258,409.2547l9.8489-2.9798c0,0-0.1317,3.2231-0.1317,4.4449
						c0,1.7362,3.2004,2.8652,2.6653,4.6588c0,0-2.1478-2.507-5.5676-3.4894c-2.7244-0.7827-6.7741-0.964-6.7741-0.964
						C652.1666,410.3842,652.1258,409.2547,652.1258,409.2547z"/>
				</g>
				<path style="fill:#13171A;" d="M649.5483,380.4034c5.618-3.3622,15.0203-2.5113,19.3755,5.4288
					c4.926,8.9807,2.2921,21.0223-0.9756,28.561c-2.4536,5.6605-10.3403,8.572-10.3403,8.572s3.8821-7.441,3.8821-12.3683
					c0-4.7979-0.8969-8.3495-0.8969-8.3495s0.6289,0.8613,1.6353-0.1878c0.9611-1.0018,2.3401-3.6809,1.7524-6.1454
					c-0.2682-1.1249-1.1483-1.333-2.3046-0.5688c-0.8492,0.5612-1.0581,1.6546-1.2961,2.2971c0,0-0.8633-2.3052-5.6616-3.6683
					c-5.2126-1.4809-8.1088-6.1485-8.6335-7.0628c-0.7563,1.5383-1.1924,3.267-1.2205,5.0952
					c-0.1154,7.5229,0.5991,11.4428,1.2377,15.2578c0.2899,1.7313,1.2531,3.5897,4.3494,2.5492
					c0.2393-0.0804,0.8522-0.2727,1.6777-0.5283c0.0044,0.3041,0.0404,2.791,0.0404,3.2986c0,0.1117-0.3065,0.3316-0.649,0.6582
					c-0.2155,0.1304-0.4281,0.283-0.6298,0.4846c-1.5739,1.574-1.4766,4.8797-1.4766,4.8797
					c-3.6994-4.7574-7.4818-14.8963-7.5875-22.6798C641.7162,387.7884,644.8354,383.224,649.5483,380.4034z"/>
			</g>
			<polygon style="fill:#D5D9E0;" points="693.1666,450.4583 693.1666,456.4583 757.1666,493.4583 757.1666,487.4583 			"/>
		</g>
	</g>
</g>
<g id="Scott_x27_s_screen">
	<g>
		<linearGradient id="XMLID_4_" gradientUnits="userSpaceOnUse" x1="207.237" y1="354.2662" x2="495.237" y2="354.2662">
			<stop  offset="0" style="stop-color:#0062FF;stop-opacity:0.2"/>
			<stop  offset="0.161" style="stop-color:#1868FF;stop-opacity:0.3127"/>
			<stop  offset="0.5018" style="stop-color:#5676FF;stop-opacity:0.5513"/>
			<stop  offset="0.9919" style="stop-color:#B98EFF;stop-opacity:0.8943"/>
			<stop  offset="1" style="stop-color:#BB8EFF;stop-opacity:0.9"/>
		</linearGradient>
		<polygon id="XMLID_14_" style="fill:url(#XMLID_4_);" points="207.237,565.5135 495.2343,399.2037 495.237,143.0188 
			207.2372,309.2747 		"/>
		<linearGradient id="XMLID_5_" gradientUnits="userSpaceOnUse" x1="239.237" y1="372.2662" x2="527.2369" y2="372.2662">
			<stop  offset="0" style="stop-color:#0062FF;stop-opacity:0.2"/>
			<stop  offset="0.161" style="stop-color:#1868FF;stop-opacity:0.3127"/>
			<stop  offset="0.5018" style="stop-color:#5676FF;stop-opacity:0.5513"/>
			<stop  offset="0.9919" style="stop-color:#B98EFF;stop-opacity:0.8943"/>
			<stop  offset="1" style="stop-color:#BB8EFF;stop-opacity:0.9"/>
		</linearGradient>
		<polygon id="XMLID_13_" style="fill:url(#XMLID_5_);" points="239.237,583.5135 527.2343,417.2037 527.2369,161.0188 
			239.2372,327.2747 		"/>
		<g>
			<g>
				<polygon style="fill:#242A2E;" points="559.1666,177.7392 270.7882,343.5636 270.7882,378.561 559.1666,212.6851 				"/>
				<polygon style="fill:#D5D9E0;" points="270.7882,378.561 270.7882,602.5125 559.1666,435.6881 559.1666,212.6851 				"/>
			</g>
			<linearGradient id="SVGID_36_" gradientUnits="userSpaceOnUse" x1="263.1666" y1="470.9583" x2="271.1666" y2="470.9583">
				<stop  offset="0" style="stop-color:#373D42"/>
				<stop  offset="0.9995" style="stop-color:#242A2E"/>
			</linearGradient>
			<polygon style="fill:url(#SVGID_36_);" points="271.1666,602.6466 263.1666,598.0278 263.1666,339.2701 271.1666,343.8889 			"/>
			<path style="fill:#F2F4F8;" d="M521.0266,210.6154c2.0959-1.2102,3.7952,0.1637,3.7955,3.0689
				c0.0003,2.9051-1.6985,6.2411-3.7944,7.4514c-2.0959,1.2102-3.7952-0.1637-3.7957-3.0688
				C517.2318,215.1617,518.9307,211.8256,521.0266,210.6154z M529.442,211.004c0.0003,2.9051,1.6996,4.2791,3.7955,3.0689
				c2.0959-1.2102,3.7948-4.5464,3.7945-7.4515c-0.0004-2.9051-1.6997-4.2791-3.7957-3.0689
				C531.1404,204.7628,529.4417,208.099,529.442,211.004z M541.6469,203.9293c0.0003,2.9051,1.6997,4.2791,3.7957,3.0689
				c2.0959-1.2102,3.7947-4.5464,3.7944-7.4515c-0.0003-2.9051-1.6996-4.2791-3.7955-3.0689
				C543.3455,197.688,541.6466,201.0242,541.6469,203.9293z"/>
			<linearGradient id="SVGID_37_" gradientUnits="userSpaceOnUse" x1="263.1666" y1="258.4583" x2="559.1666" y2="258.4583">
				<stop  offset="0" style="stop-color:#373D42"/>
				<stop  offset="0.9989" style="stop-color:#13171A"/>
			</linearGradient>
			<polygon style="fill:url(#SVGID_37_);" points="559.1666,177.6466 551.1666,173.0278 263.1666,339.2701 271.1666,343.8889 			"/>
			<linearGradient id="SVGID_38_" gradientUnits="userSpaceOnUse" x1="278.1666" y1="336.9583" x2="553.1666" y2="336.9583">
				<stop  offset="0" style="stop-color:#408BFC"/>
				<stop  offset="0.3196" style="stop-color:#728CFD"/>
				<stop  offset="0.6182" style="stop-color:#9A8DFE"/>
				<stop  offset="0.8549" style="stop-color:#B28EFF"/>
				<stop  offset="1" style="stop-color:#BB8EFF"/>
			</linearGradient>
			<polygon style="fill:url(#SVGID_38_);" points="278.1666,383.9583 278.1666,449.9583 553.1666,290.9583 553.1666,223.9584 			"/>
			<polygon style="fill:#F2F4F8;" points="278.1666,458.9583 278.1666,589.9584 463.1666,482.9583 463.1666,350.9583 			"/>
			<linearGradient id="SVGID_39_" gradientUnits="userSpaceOnUse" x1="372.1666" y1="578.4584" x2="372.1666" y2="428.5125">
				<stop  offset="0" style="stop-color:#BB8EFF;stop-opacity:0"/>
				<stop  offset="0.1574" style="stop-color:#AF8EFF;stop-opacity:0.0789"/>
				<stop  offset="0.4439" style="stop-color:#8E8DFE;stop-opacity:0.2224"/>
				<stop  offset="0.8241" style="stop-color:#5A8CFD;stop-opacity:0.4129"/>
				<stop  offset="0.998" style="stop-color:#408BFC;stop-opacity:0.5"/>
			</linearGradient>
			<path style="fill:url(#SVGID_39_);" d="M457.1666,460.1512c-14.9216,8.5266-16.5204-39.9687-33.5737-30.3762
				c-17.0533,9.5925-18.1191,59.6865-34.1066,69.279c-15.9875,9.5925-17.0533-20.7837-34.1066-11.1912
				c-17.0533,9.5925-16.2814,53.7293-33.5737,62.884c-18.1191,9.5925-18.1191-60.7523-34.6395-51.6928v79.4044l170-99.1223V460.1512
				z"/>
			<polygon style="fill:#F2F4F8;" points="471.1666,346.9583 471.1666,477.9583 553.1666,430.9583 553.1666,298.9583 			"/>
			<polygon style="fill:#D5D9E0;" points="287.1666,463.9583 287.1666,475.9583 383.1666,419.9583 383.1666,407.9583 			"/>
			<polygon style="fill:#D5D9E0;" points="479.1666,352.9583 479.1666,364.9583 547.1666,324.9583 547.1666,312.9583 			"/>
			<linearGradient id="SVGID_40_" gradientUnits="userSpaceOnUse" x1="479.1666" y1="423.8333" x2="490.1666" y2="423.8333">
				<stop  offset="0.001" style="stop-color:#408BFC"/>
				<stop  offset="0.3211" style="stop-color:#2A7DFD"/>
				<stop  offset="1" style="stop-color:#0062FF"/>
			</linearGradient>
			<polygon style="fill:url(#SVGID_40_);" points="479.1666,389.9583 479.1666,463.9583 490.1666,457.7083 490.1666,383.7083 			"/>
			<linearGradient id="SVGID_41_" gradientUnits="userSpaceOnUse" x1="493.6666" y1="420.4583" x2="504.6666" y2="420.4583">
				<stop  offset="0.001" style="stop-color:#408BFC"/>
				<stop  offset="0.3211" style="stop-color:#2A7DFD"/>
				<stop  offset="1" style="stop-color:#0062FF"/>
			</linearGradient>
			<polygon style="fill:url(#SVGID_41_);" points="493.6666,391.5833 493.6666,455.5833 504.6666,449.3333 504.6666,385.3333 			"/>
			<linearGradient id="SVGID_42_" gradientUnits="userSpaceOnUse" x1="508.1666" y1="416.9583" x2="519.1666" y2="416.9583">
				<stop  offset="0.001" style="stop-color:#408BFC"/>
				<stop  offset="0.3211" style="stop-color:#2A7DFD"/>
				<stop  offset="1" style="stop-color:#0062FF"/>
			</linearGradient>
			<polygon style="fill:url(#SVGID_42_);" points="508.1666,393.0833 508.1666,447.0833 519.1666,440.8333 519.1666,386.8333 			"/>
			<linearGradient id="SVGID_43_" gradientUnits="userSpaceOnUse" x1="522.6666" y1="412.9583" x2="533.6666" y2="412.9583">
				<stop  offset="0.001" style="stop-color:#408BFC"/>
				<stop  offset="0.3211" style="stop-color:#2A7DFD"/>
				<stop  offset="1" style="stop-color:#0062FF"/>
			</linearGradient>
			<polygon style="fill:url(#SVGID_43_);" points="522.6666,393.5833 522.6666,438.5833 533.6666,432.3333 533.6666,387.3333 			"/>
			<linearGradient id="SVGID_44_" gradientUnits="userSpaceOnUse" x1="537.1666" y1="409.9583" x2="548.1666" y2="409.9583">
				<stop  offset="0.001" style="stop-color:#408BFC"/>
				<stop  offset="0.3211" style="stop-color:#2A7DFD"/>
				<stop  offset="1" style="stop-color:#0062FF"/>
			</linearGradient>
			<polygon style="fill:url(#SVGID_44_);" points="537.1666,395.5833 537.1666,430.5833 548.1666,424.3333 548.1666,389.3333 			"/>
			<linearGradient id="SVGID_45_" gradientUnits="userSpaceOnUse" x1="286.9262" y1="490.0803" x2="457.4147" y2="490.0803">
				<stop  offset="0" style="stop-color:#408BFC"/>
				<stop  offset="0.3196" style="stop-color:#728CFD"/>
				<stop  offset="0.6182" style="stop-color:#9A8DFE"/>
				<stop  offset="0.8549" style="stop-color:#B28EFF"/>
				<stop  offset="1" style="stop-color:#BB8EFF"/>
			</linearGradient>
			<path style="fill:none;stroke:url(#SVGID_45_);stroke-miterlimit:10;" d="M287.1666,499.054
				c16.5204-9.0595,16.5204,61.2853,34.6395,51.6928c17.2923-9.1547,16.5204-53.2915,33.5737-62.884
				c17.0533-9.5925,18.1191,20.7837,34.1066,11.1912c15.9875-9.5925,17.0533-59.6865,34.1066-69.279
				c17.0533-9.5925,18.652,38.9028,33.5737,30.3762"/>
			<linearGradient id="SVGID_46_" gradientUnits="userSpaceOnUse" x1="353.253" y1="488.3073" x2="357.2092" y2="488.3073">
				<stop  offset="0" style="stop-color:#408BFC"/>
				<stop  offset="0.3196" style="stop-color:#728CFD"/>
				<stop  offset="0.6182" style="stop-color:#9A8DFE"/>
				<stop  offset="0.8549" style="stop-color:#B28EFF"/>
				<stop  offset="1" style="stop-color:#BB8EFF"/>
			</linearGradient>
			<path style="fill:#F2F4F8;stroke:url(#SVGID_46_);stroke-miterlimit:10;" d="M355.2309,486.2586
				c0.8163-0.4713,1.4782,0.0638,1.4783,1.1953c0.0001,1.1315-0.6616,2.4308-1.4778,2.9022
				c-0.8163,0.4713-1.4782-0.0638-1.4784-1.1953C353.7529,488.0293,354.4146,486.73,355.2309,486.2586z"/>
			<linearGradient id="SVGID_47_" gradientUnits="userSpaceOnUse" x1="421.4662" y1="429.6866" x2="425.4224" y2="429.6866">
				<stop  offset="0" style="stop-color:#408BFC"/>
				<stop  offset="0.3196" style="stop-color:#728CFD"/>
				<stop  offset="0.6182" style="stop-color:#9A8DFE"/>
				<stop  offset="0.8549" style="stop-color:#B28EFF"/>
				<stop  offset="1" style="stop-color:#BB8EFF"/>
			</linearGradient>
			<path style="fill:#F2F4F8;stroke:url(#SVGID_47_);stroke-miterlimit:10;" d="M423.4441,427.6379
				c0.8163-0.4713,1.4782,0.0638,1.4783,1.1953c0.0001,1.1315-0.6616,2.4308-1.4778,2.9022
				c-0.8163,0.4714-1.4782-0.0638-1.4784-1.1952C421.9661,429.4086,422.6277,428.1093,423.4441,427.6379z"/>
			<linearGradient id="SVGID_48_" gradientUnits="userSpaceOnUse" x1="387.3596" y1="498.9656" x2="391.3158" y2="498.9656">
				<stop  offset="0" style="stop-color:#408BFC"/>
				<stop  offset="0.3196" style="stop-color:#728CFD"/>
				<stop  offset="0.6182" style="stop-color:#9A8DFE"/>
				<stop  offset="0.8549" style="stop-color:#B28EFF"/>
				<stop  offset="1" style="stop-color:#BB8EFF"/>
			</linearGradient>
			<path style="fill:#F2F4F8;stroke:url(#SVGID_48_);stroke-miterlimit:10;" d="M389.3375,496.9169
				c0.8163-0.4714,1.4782,0.0638,1.4783,1.1953s-0.6615,2.4308-1.4778,2.9022c-0.8163,0.4714-1.4782-0.0638-1.4783-1.1952
				C387.8595,498.6876,388.5211,497.3883,389.3375,496.9169z"/>
			<linearGradient id="SVGID_49_" gradientUnits="userSpaceOnUse" x1="319.1465" y1="551.1913" x2="323.1026" y2="551.1913">
				<stop  offset="0" style="stop-color:#408BFC"/>
				<stop  offset="0.3196" style="stop-color:#728CFD"/>
				<stop  offset="0.6182" style="stop-color:#9A8DFE"/>
				<stop  offset="0.8549" style="stop-color:#B28EFF"/>
				<stop  offset="1" style="stop-color:#BB8EFF"/>
			</linearGradient>
			<path style="fill:#F2F4F8;stroke:url(#SVGID_49_);stroke-miterlimit:10;" d="M321.1243,549.1426
				c0.8163-0.4714,1.4782,0.0637,1.4783,1.1953c0.0001,1.1315-0.6615,2.4308-1.4778,2.9022
				c-0.8163,0.4713-1.4782-0.0638-1.4783-1.1953C319.6463,550.9133,320.308,549.614,321.1243,549.1426z"/>
		</g>
	</g>
</g>
</svg>
